<svg width="774" height="200" viewBox="0 0 774 200" xmlns="http://www.w3.org/2000/svg"><title>logos_full_cartodb_light</title><path d="M0 20C0 8.954 8.95 0 20 0h160c11.046 0 20 8.95 20 20v160c0 11.046-8.95 20-20 20H20c-11.046 0-20-8.95-20-20V20zm94.062 128.673c-6.25 0-6.673.788-6.673.788l1.533 9.62s1.366.92 4.935.92c3.57 0 4.733-.92 4.733-.92l2.103-9.566s-.384-.84-6.633-.84zm43.075-71.3l-.343-.267s.61-.285.94-.604c.648-.624 1.025-1.404.896-1.318-1.11.743-3.282.38-3.282.38s.752-.138 1.196-.425c.68-.438.877-1.04.793-.984-.543.37-1.13.48-1.54.48-2.567.007-2.983-2.2-5.36-2.2-.976 0-3.03 1-3.668.008-3.5-8.303-8.766-20.304-13.9-32.445-21.203 4.293-30.63 39.98-10.014 46.32C91.646 83.12 86.22 72.163 87.92 62.64c-7.674 2.613-17.67 6.69-25.477 16.11-4.678 5.643-4.66 11.68-4.66 23.62-.23 3.67-3.283 5.07-3.283 5.07s3.637.15 4.8-1.706c5.01 8.468 29.194 30.252 29.194 35.232 0 0-.867 2.338-.602 2.37 2.2.255 12.448.76 12.448.76.446-1.694-.585-2.883-.585-4.07 0-12.118 17.364-23.356 19.404-24.734.727.427 1.997.802 2.62 1.07 5.846 2.518-.926 16.785-6.986 16.785-6.982 0 3.938-11.462 4.158-11.735.727-.906-1.255-.068-1.88-.672-.384-.368.046-1.356-.906-.59 0 0-14.5 12.402-4.247 16.05 19.434 6.918 47.864-37.574 25.216-58.826zm143.535 61.167c17.16 0 26.152-8.184 31.045-17.204l-12.702-6.947c-3.295 6.36-10.35 11.423-18.343 11.423-14.344 0-24.692-10.955-24.692-25.796 0-14.837 10.348-25.8 24.692-25.8 7.994 0 15.048 5.072 18.343 11.432l12.702-7.068c-4.893-9.11-13.884-17.087-31.045-17.087-23.63 0-40.672 14.26-40.672 38.522 0 24.145 17.04 38.522 40.672 38.522zm63.804-78.216l-29.07 78.655h18.21l4.75-13.284h32.352l4.75 13.282h18.215v-.496l-29.073-78.16h-20.134zm-1.697 52.096l11.76-34.207 11.766 34.207H342.78zm103.654-1.207c7.886-1.732 16.1-9.36 16.1-25.136 0-16.492-9.416-25.753-25.474-25.753H400.2v78.655h16.29v-26.56h12.5l15.88 26.56h18.12l-16.555-27.768zm-11.78-11.053H416.49V73.605h18.024c6.73 0 12.036 4.922 12.036 12.886 0 8.254-5.163 13.67-11.894 13.67zm72.878 38.82l.606-.557V73.605h23.42v-13.28H469.44v13.28h22.403v65.374h15.688zM657.43 60.323h-31.173v78.655h31.295c25.056 0 41.04-15.088 41.04-40.14 0-24.795-15.984-38.516-41.16-38.516zm0 65.373h-14.88v-52.09h14.697c16.383 0 25.36 11.286 25.36 25.79 0 14.14-9.273 26.3-25.176 26.3zm102.458-26.14c5.1-1.324 10.834-8.688 10.834-20.24 0-10.75-7.165-18.993-21.478-18.993H708.74v78.655h43.23c14.753 0 22.03-8.53 22.03-20.29 0-10.644-6.173-18.013-14.112-19.133zm-34.855-25.952h20.804c5.606 0 8.9 4.038 8.9 9.748 0 5.986-3.505 9.658-9.114 9.658h-20.59V73.606zm22.497 52.265l-1.208-.174h-21.29V106.29h21.505c7.995 0 11.48 4.358 11.48 9.745 0 6.158-3.945 9.834-10.487 9.834zM559.05 45h32.59v10.217h-32.59V45zm16.8 95c21.656 0 39.21-17.608 39.21-39.327 0-21.72-17.554-39.328-39.21-39.328-21.65 0-39.2 17.61-39.2 39.328 0 21.72 17.55 39.327 39.2 39.327zm0-65.373c14.345 0 25.97 11.66 25.97 26.046 0 14.385-11.625 26.045-25.97 26.045-14.337 0-25.96-11.66-25.96-26.045 0-14.385 11.623-26.046 25.96-26.046zM563.814 115.3l13.142-7.63c1.705-.993 3.908-3.2 4.896-4.906l7.626-13.164c.993-1.707.404-2.293-1.297-1.302l-13.145 7.64c-1.705.992-3.91 3.198-4.897 4.904L562.512 114c-.988 1.706-.404 2.292 1.3 1.3zm12.314-16.515c1.657 0 3.002 1.35 3.002 3.012 0 1.66-1.346 3.01-3.003 3.01-1.663 0-3.007-1.35-3.007-3.01 0-1.663 1.344-3.012 3.007-3.012z" fill="#2E3C43" fill-rule="evenodd"/></svg>