<svg xmlns="http://www.w3.org/2000/svg" width="695" height="185" viewBox="-3.5 -3.5 695 185" enable-background="new -3.5 -3.5 695 185"><filter id="a"><feOffset result="offOut" in="SourceGraphic" dx=".3" dy=".5"/><feGaussianBlur stdDeviation=".25" result="blurOut" in="offOut"/><feColorMatrix result="blurTransOut" in="blurOut" values="1 0 0 0 0 0 1 0 0 0 0 0 1 0 0 0 0 0 .8 0"/><feBlend in="SourceGraphic" in2="blurTransOut"/></filter><path fill="#CCC" d="M177.248 128.516v-70.8h9.16l43.325 57.034V57.715h8.66v70.8h-9.157L185.914 70.98v57.536m122.784-2.773c-5.708 2.182-11.867 3.27-18.468 3.27-25.643 0-38.47-12.295-38.47-36.887 0-23.27 12.378-34.908 37.13-34.908 7.102 0 13.705.993 19.807 2.976v7.92c-6.103-2.31-12.378-3.467-18.817-3.467-19.306 0-28.957 9.163-28.957 27.48 0 19.637 9.5 29.46 28.518 29.46 3.035 0 6.4-.397 10.1-1.192v-24.06h9.16v29.408zm14.607-24.557V57.718h9.153v43.467c0 13.6 6.77 20.406 20.304 20.406 13.53 0 20.3-6.806 20.3-20.404V57.718h9.158v43.467c0 18.557-9.82 27.83-29.458 27.83-19.638 0-29.457-9.273-29.457-27.83zm84.412-43.47v63.376h37.04v7.424h-46.194v-70.8m59.41 70.802h-9.504l35.2-80.142 35.2 80.142H508.72l-9.163-22.284h-23.413l2.523-7.418h17.825l-13.22-32.088m45.25 61.788v-70.8h30.204c13.467 0 20.2 5.662 20.2 16.98 0 9.212-6.58 16.03-19.755 20.447l24.31 33.373h-12.082L548.88 96.682v-5.986c13.53-2.15 20.295-7.35 20.295-15.598 0-6.533-3.762-9.806-11.283-9.806h-20.206v63.227h-9.16v-.005zm89.273-70.8v50.403c0 13.596-8.005 20.394-24.017 20.394v-7.425c9.906 0 14.86-4.33 14.86-12.973V57.715h9.16zm16.34 68.324v-8.418c7.43 2.64 15.446 3.965 24.062 3.965 12.18 0 18.272-4.457 18.272-13.376 0-7.58-4.493-11.383-13.47-11.383h-9.113c-14.82 0-22.235-6.432-22.235-19.306 0-13.53 9.495-20.303 28.48-20.303 8.248 0 15.92.998 23.02 2.976v8.417c-7.1-2.644-14.772-3.965-23.02-3.965-12.876 0-19.312 4.293-19.312 12.875 0 7.588 4.354 11.385 13.065 11.385H663c15.08 0 22.628 6.44 22.628 19.306 0 13.87-9.142 20.803-27.432 20.803-8.614 0-16.632-.994-24.06-2.972z"/><path d="M179.565 126.203v-70.8h9.158l43.322 57.035V55.402h8.666v70.8h-9.157l-43.325-57.535v57.536m122.787-2.773c-5.708 2.182-11.864 3.268-18.467 3.268-25.645 0-38.47-12.293-38.47-36.885 0-23.27 12.378-34.91 37.135-34.91 7.096 0 13.7.995 19.802 2.977v7.92c-6.103-2.31-12.378-3.468-18.813-3.468-19.307 0-28.96 9.163-28.96 27.48 0 19.638 9.504 29.462 28.517 29.462 3.032 0 6.402-.396 10.1-1.193V94.02h9.155v29.41zm14.605-24.56V55.4h9.154v43.47c0 13.598 6.77 20.4 20.305 20.4 13.53 0 20.297-6.803 20.297-20.4V55.398h9.158V98.87c0 18.556-9.82 27.825-29.457 27.825-19.64 0-29.46-9.267-29.46-27.824zm84.414-43.472v63.377h37.037v7.424h-46.19V55.396m59.41 70.805h-9.505l35.202-80.146 35.2 80.146h-10.152l-9.158-22.282H478.46l2.53-7.424h17.818l-13.216-32.088m45.25 61.795v-70.8h30.203c13.47 0 20.196 5.658 20.196 16.98 0 9.208-6.575 16.03-19.747 20.446l24.31 33.372h-12.086l-22.52-31.835v-5.992c13.53-2.15 20.298-7.344 20.298-15.598 0-6.533-3.766-9.8-11.292-9.8h-20.2v63.225h-9.16z"/><path fill="#A6120D" d="M620.115 55.398v50.405c0 13.602-8.005 20.396-24.016 20.396v-7.426c9.9 0 14.854-4.33 14.854-12.973V55.4h9.16zm16.335 68.325v-8.416c7.43 2.64 15.447 3.965 24.064 3.965 12.18 0 18.27-4.46 18.27-13.373 0-7.586-4.49-11.387-13.47-11.387h-9.112c-14.817 0-22.232-6.436-22.232-19.31 0-13.532 9.49-20.304 28.478-20.304 8.25 0 15.923.997 23.022 2.975v8.418c-7.102-2.644-14.773-3.965-23.022-3.965-12.875 0-19.31 4.292-19.31 12.874 0 7.588 4.35 11.385 13.064 11.385h9.113c15.08 0 22.628 6.437 22.628 19.31 0 13.864-9.14 20.796-27.43 20.796-8.615 0-16.634-.995-24.063-2.973z"/><path d="M551.85 163.994l-3.362-10.225h-2.39l4.64 12.92c-.108.28-.285.707-.525 1.285-.242.578-.384.896-.42.96-.126.187-.28.345-.465.474-.184.13-.47.192-.858.192-.125 0-.27-.013-.435-.035-.163-.023-.43-.086-.795-.188v1.922c.234.063.433.104.59.13.16.02.39.033.688.033 1.218 0 2.076-.35 2.575-1.054.5-.702 1.357-2.653 2.576-5.854.514-1.36 1.153-3.12 1.92-5.275 1.022-2.87 1.684-4.705 1.98-5.51h-2.333l-3.387 10.223zm-12.486.86c-1.52 0-2.56-.69-3.116-2.073-.298-.73-.445-1.69-.445-2.87 0-1.63.36-2.802 1.088-3.515.727-.71 1.57-1.065 2.535-1.065 1.104 0 1.94.434 2.51 1.3.57.867.854 1.96.854 3.28 0 1.486-.284 2.68-.854 3.587-.57.905-1.427 1.358-2.57 1.358zm-5.497 1.466h1.945v-1.604c.446.603.866 1.04 1.26 1.313.657.46 1.465.69 2.422.69 1.71 0 3.047-.657 4.013-1.97.965-1.314 1.446-2.96 1.446-4.945 0-2.094-.487-3.678-1.465-4.752-.977-1.074-2.25-1.61-3.816-1.61-.754 0-1.45.157-2.096.474-.643.316-1.194.775-1.658 1.377v-6.246h-2.05v17.27z"/><path fill="#B3B3B3" d="M83.243.875l-82.69 29.1 13.07 108.335 69.71 38.315 70.07-38.833 13.06-108.332"/><path fill="#A6120D" d="M158.214 35.72L83.05 10.09v157.38l62.99-34.86"/><path fill="#DD1B16" d="M9.833 36.183l11.197 96.89 62.02 34.398V10.088"/><path fill="#F2F2F2" d="M103.74 93.87l-20.69 9.676H61.243l-10.25 25.64-19.068.353L83.05 15.802l20.69 78.067zm-2-4.87L83.187 52.27 67.97 88.37h15.08l18.69.632z"/><path fill="#B3B3B3" d="M83.05 15.804l.136 36.467 17.268 36.127H83.088l-.04 15.127 24.014.023 11.223 25.997 18.244.338"/><path filter="url(#a)" d="M653.174 148.84c.912.755 2.817 2.34 2.817 5.36 0 2.937-1.665 4.328-3.333 5.637-.516.515-1.11 1.072-1.11 1.946 0 .872.594 1.35 1.03 1.707l1.43 1.11c1.747 1.468 3.334 2.82 3.334 5.56 0 3.73-3.612 7.5-10.44 7.5-5.756 0-8.534-2.737-8.534-5.677 0-1.43.713-3.452 3.058-4.843 2.46-1.508 5.795-1.705 7.58-1.827-.556-.714-1.19-1.468-1.19-2.698 0-.674.2-1.072.397-1.55-.437.04-.872.08-1.27.08-4.207 0-6.59-3.137-6.59-6.232 0-1.826.836-3.852 2.54-5.32 2.265-1.866 4.963-2.184 7.108-2.184h8.177l-2.54 1.427h-2.46m-2.82 17.63c-.318-.042-.516-.042-.912-.042-.358 0-2.503.08-4.17.636-.873.32-3.414 1.27-3.414 4.09s2.74 4.844 6.987 4.844c3.81 0 5.836-1.83 5.836-4.287 0-2.03-1.31-3.097-4.33-5.24zm1.15-7.545c.914-.915.993-2.183.993-2.898 0-2.86-1.707-7.305-5-7.305-1.034 0-2.145.515-2.782 1.31-.674.834-.872 1.904-.872 2.94 0 2.657 1.55 7.064 4.964 7.064.992 0 2.06-.476 2.698-1.112zm-23.323 6.908c-6.3 0-9.67-4.913-9.67-9.354 0-5.192 4.242-9.63 10.268-9.63 5.825 0 9.472 4.557 9.472 9.354 0 4.676-3.607 9.63-10.07 9.63m4.954-3.21c.954-1.268 1.192-2.852 1.192-4.4 0-3.487-1.665-10.146-6.58-10.146-1.31 0-2.617.516-3.567 1.35-1.546 1.386-1.825 3.13-1.825 4.835 0 3.92 1.943 10.38 6.74 10.38 1.545 0 3.13-.75 4.04-2.02zm-26.436 3.21c-6.302 0-9.67-4.913-9.67-9.354 0-5.192 4.24-9.63 10.266-9.63 5.825 0 9.472 4.557 9.472 9.354 0 4.676-3.607 9.63-10.068 9.63m4.954-3.21c.952-1.268 1.19-2.852 1.19-4.4 0-3.487-1.665-10.146-6.58-10.146-1.307 0-2.616.516-3.567 1.35-1.546 1.386-1.823 3.13-1.823 4.835 0 3.92 1.94 10.38 6.738 10.38 1.547 0 3.133-.75 4.042-2.02zM594 165.21v-4.862c0-.398.037-1.554.078-1.913.08-.316.118-.4.4-.637l1.034-.995h-8.448l-3.186 1.713 6.016-.318v6.414c-1.195.48-2.51.996-5.06.996-8.687 0-14.107-7.053-14.107-14.542 0-6.973 4.743-11.757 11.038-11.757 4.7 0 7.173 2.43 8.527 3.742l-.996 1.596 1.394-.32 3.308-3.147c-.877-.597-2.27-1.633-5.26-2.47-1.873-.52-3.944-.836-6.096-.836-10.162 0-16.1 7.17-16.1 14.9 0 6.337 4.184 14.426 15.183 14.426 2.19 0 4.262-.318 6.574-.677l5.7-1.315m71.77-1.147c-1.32-.12-1.594-.36-1.594-1.91v-22.555c.007-.086.014-.174.023-.257.16-1.395.557-1.634 1.792-2.352h-5.7l-2.988 1.435h3.047v.02l-.002-.014v24.6c0 .797-.16.916-1.076 2.11h7.053l1.475-.875c-.677-.08-1.355-.12-2.033-.2m16.213.37c-.434.236-.87.514-1.304.712-1.31.593-2.655.75-3.842.75-1.265 0-3.244-.08-5.264-1.542-2.807-1.978-4.036-5.38-4.036-8.35 0-6.133 4.987-9.14 9.062-9.14 1.424 0 2.89.356 4.078 1.11 1.977 1.303 2.49 3.004 2.768 3.914l-9.298 3.76-3.05.238c.99 5.026 4.395 7.954 8.153 7.954 2.02 0 3.484-.712 4.83-1.384l-2.097 1.978m-3.72-11.795c.752-.277 1.148-.514 1.148-1.068 0-1.58-1.78-3.404-3.916-3.404-1.585 0-4.55 1.227-4.55 5.5 0 .674.078 1.386.118 2.1l7.202-3.128z"/></svg>