<svg xmlns="http://www.w3.org/2000/svg" width="379.955" height="380.251" viewBox="0 0 379.955 380.251" overflow="visible"><path d="M100.572 108.605v7.715c3.226 0 5.85 2.625 5.85 5.85 0 3.227-2.624 5.852-5.85 5.852v7.715c3.226 0 5.85 2.625 5.85 5.85 0 3.227-2.624 5.852-5.85 5.852v7.714c3.226 0 5.85 2.625 5.85 5.854 0 3.23-2.624 5.854-5.85 5.854v7.715c3.226 0 5.85 2.623 5.85 5.85 0 3.227-2.624 5.852-5.85 5.852v7.714c3.226 0 5.85 2.623 5.85 5.85 0 3.227-2.624 5.852-5.85 5.852v7.715c3.226 0 5.85 2.624 5.85 5.85 0 3.228-2.624 5.853-5.85 5.853v7.715c3.226 0 5.85 2.623 5.85 5.85 0 3.227-2.624 5.852-5.85 5.852v7.715c3.226 0 5.85 2.623 5.85 5.85 0 3.227-2.624 5.852-5.85 5.852v7.72c1.54 0 3.048.622 4.138 1.712 1.088 1.087 1.713 2.595 1.713 4.136h7.715c0-3.227 2.625-5.85 5.85-5.85 3.227 0 5.852 2.623 5.852 5.85h7.715c0-3.227 2.625-5.85 5.85-5.85 3.227 0 5.852 2.623 5.852 5.85h7.715c0-3.227 2.625-5.85 5.85-5.85 3.227 0 5.852 2.623 5.852 5.85h7.715c0-3.227 2.624-5.85 5.85-5.85 3.226 0 5.85 2.623 5.85 5.85h7.716c0-3.227 2.625-5.85 5.85-5.85 3.227 0 5.852 2.623 5.852 5.85h7.715c0-3.227 2.625-5.85 5.85-5.85 3.227 0 5.852 2.623 5.852 5.85h7.715c0-3.227 2.625-5.85 5.85-5.85 3.227 0 5.852 2.623 5.852 5.85h7.715c0-3.227 2.625-5.85 5.85-5.85 3.227 0 5.852 2.623 5.852 5.85h7.718c0-1.54.625-3.05 1.715-4.137 1.088-1.09 2.596-1.714 4.137-1.714v-7.715c-3.227 0-5.852-2.624-5.852-5.85 0-3.228 2.625-5.85 5.852-5.85v-7.716c-3.227 0-5.852-2.625-5.852-5.852 0-3.227 2.625-5.85 5.852-5.85v-7.715c-3.227 0-5.852-2.625-5.852-5.852 0-3.227 2.625-5.85 5.852-5.85V205.7c-3.227 0-5.852-2.625-5.852-5.852 0-3.227 2.625-5.85 5.852-5.85v-7.715c-3.227 0-5.852-2.625-5.852-5.852 0-3.226 2.625-5.85 5.852-5.85v-7.714c-3.227 0-5.852-2.625-5.852-5.854 0-3.23 2.625-5.854 5.852-5.854v-7.715c-3.227 0-5.852-2.625-5.852-5.852 0-3.224 2.625-5.85 5.852-5.85v-7.714c-3.227 0-5.852-2.625-5.852-5.852 0-3.225 2.625-5.85 5.852-5.85v-7.72c-1.54 0-3.05-.624-4.137-1.712-1.09-1.09-1.715-2.598-1.715-4.14h-7.715c0 3.228-2.625 5.853-5.85 5.853-3.227 0-5.852-2.625-5.852-5.852h-7.714c0 3.227-2.625 5.852-5.85 5.852-3.227 0-5.852-2.625-5.852-5.852h-7.715c0 3.227-2.626 5.852-5.852 5.852-3.226 0-5.85-2.625-5.85-5.852h-7.716c0 3.227-2.625 5.852-5.85 5.852-3.227 0-5.852-2.625-5.852-5.852h-7.715c0 3.227-2.625 5.852-5.85 5.852-3.227 0-5.852-2.625-5.852-5.852h-7.715c0 3.227-2.625 5.852-5.85 5.852-3.227 0-5.852-2.625-5.852-5.852h-7.715c0 3.227-2.624 5.852-5.85 5.852-3.226 0-5.85-2.625-5.85-5.852h-7.716c0 3.227-2.625 5.852-5.85 5.852-3.227 0-5.852-2.625-5.852-5.852h-7.72c0 1.54-.624 3.05-1.712 4.14-1.09 1.087-2.598 1.712-4.138 1.712z" fill="url(#XMLID_2_) rgb(0, 0, 0)" transform="matrix(2.174 0 0 2.174 -218.687 -223.172)"/><path d="M323.604 152.236H134.02l9.894-46.29h115.55l10.6-49.824H103.98l-52.297 246.65h50.178l22.964-107.78h120.355L140.602 298.53l18.374 32.507c8.48-5.652 22.26-6.36 31.8-6.36 16.965 0 33.572 5.656 50.882 5.656 15.872 0 32.12-1.06 58.626-13.783l9.26-43.463c-18.024 7.418-44.692 14.488-67.886 14.488-9.536 0-18.37-2.12-27.558-3.533l101.376-98.587 8.128-33.22z" fill="#FFF"/></svg>