<svg xmlns="http://www.w3.org/2000/svg" version="1.2" viewBox="0 0 460 460"><path d="M121.9 138.6c-18.19 0-32.9 14.95-32.9 33.38s14.71 33.38 32.9 33.38 32.9-14.95 32.9-33.38-14.71-33.38-32.9-33.38z" color="#000" fill-rule="evenodd" fill="#eee"/><path d="M121.9 81.18C71.13 81.18 30 122.8 30 174.2c0 51.39 40.2 111.1 91.86 200.7 51.66-89.61 91.86-149.3 91.86-200.7 0-51.39-41.13-93.06-91.86-93.06zm0 124.2c-18.19 0-32.94-14.94-32.94-33.37s14.75-33.37 32.94-33.37 32.94 14.94 32.94 33.37-14.75 33.37-32.94 33.37z" fill="#1c7651"/><path d="M338.1 81.18c-50.73 0-91.86 41.66-91.86 93.06 0 51.39 40.2 111.1 91.86 200.7 51.7-89.6 91.9-149.4 91.9-200.8s-41.1-93.02-91.9-93.02zm0 124.2c-18.19 0-32.94-14.94-32.94-33.37s14.75-33.37 32.94-33.37 32.94 14.94 32.94 33.37-14.75 33.37-32.94 33.37z" fill="#94d76f"/><path d="M338.1 138.6c-18.19 0-32.9 14.95-32.9 33.38s14.71 33.38 32.9 33.38 33.05-14.95 33.05-33.38-14.85-33.38-33.05-33.38z" color="#000" fill-rule="evenodd" fill="#eee"/><path d="M230 47.39c-63.07 0-114.2 51.79-114.2 115.7 0 63.89 49.98 138.1 114.2 249.5 64.22-111.4 114.2-185.6 114.2-249.5 0-63.89-51.12-115.7-114.2-115.7zm0 154.4c-22.62 0-40.95-18.57-40.95-41.49 0-22.91 18.33-41.49 40.95-41.49s40.95 18.57 40.95 41.49c0 22.91-18.33 41.49-40.95 41.49z" fill="#20b275" fill-opacity=".88"/><path d="M230 118.8c-22.62 0-40.97 18.67-40.97 41.58s18.35 41.43 40.97 41.43 40.97-18.52 40.97-41.43S252.62 118.8 230 118.8z" fill-opacity=".949" color="#000" fill-rule="evenodd" fill="#fff"/></svg>