<svg xmlns="http://www.w3.org/2000/svg"><symbol viewBox="0 0 580 580" id="icon-accommodation_camping"><title>accommodation_camping</title><path fill="param(fill) #FFF" stroke="param(outline) #000" stroke-width="param(outline-width) 1" d="M504.91 519.52l.714-.006-10.927-19.284-190.172-360.682 35.603-67.26L316.9 59.995l-27.213 51.412-28.368-53.804-23.247 12.257 36.007 68.29c-15.495 32.075-121.49 230.256-192.826 362.817l-10.44 19.403 94.236-.156 23.41.18.115-.22 202.6-.335.29.555 91.77-.708 21.746-.036-.07-.13zM289.963 285.86c21.655 72.986 67.317 167.25 87.688 207.722l-175.523.29c20.298-40.308 66.127-134.848 87.835-208.013z"/></symbol><symbol viewBox="0 0 579.997 579.997" id="icon-amenity=parking"><title>amenity=parking</title><path fill="param(fill) #FFF" stroke="param(outline) #000" stroke-width="param(outline-width) 1" d="M377.692 98.52C350.74 76.67 306.615 65.73 245.197 65.73H124.473v445.004h87.93v-166.61H245.2c61.418 0 105.542-10.94 132.495-32.792 26.883-21.852 40.395-57.318 40.395-106.404s-13.513-84.553-40.396-106.405zM309.15 255.595c-11.648 9.748-31.88 14.604-60.68 14.604h-36.067V139.654h36.066c28.8 0 49.03 4.89 60.68 14.604 11.61 9.746 17.416 26.635 17.416 50.668 0 24.068-5.805 40.957-17.417 50.668z"/></symbol><symbol viewBox="0 0 580 580" id="icon-amenity_bench"><title>amenity_bench</title><path fill="param(fill) #FFF" stroke="param(outline) #000" stroke-width="param(outline-width) 1" d="M529.47 221.775H62.93v40h69.627v103.4h30v-103.4H429.84v103.4h30v-103.4h69.63z"/></symbol><symbol viewBox="0 0 580 580" id="icon-amenity_toilets"><title>amenity_toilets</title><path fill="param(fill) #FFF" stroke="param(outline) #000" stroke-width="param(outline-width) 1" d="M140.513 136.156c10.35 0 19.13-3.6 26.338-10.804 7.21-7.202 10.814-15.758 10.814-25.668 0-10.363-3.604-19.146-10.813-26.35-7.208-7.2-15.988-10.802-26.337-10.803-9.91.002-18.47 3.603-25.678 10.805-7.21 7.203-10.814 15.985-10.814 26.35 0 9.91 3.605 18.465 10.815 25.667 7.208 7.203 15.768 10.804 25.678 10.804zM456.528 135.496c9.91 0 18.47-3.604 25.678-10.813 7.21-7.21 10.813-15.768 10.814-25.68 0-10.348-3.605-19.014-10.814-25.997-7.21-6.982-15.77-10.473-25.678-10.474-9.91 0-18.467 3.492-25.67 10.474-7.2 6.983-10.803 15.65-10.802 25.998 0 9.91 3.6 18.47 10.803 25.68 7.202 7.208 15.757 10.813 25.668 10.812zM538.625 157.443c-8.783-9.683-20.157-14.524-34.12-14.524h-96.612c-13.058 0-24.205 4.618-33.44 13.853-9.237 9.237-13.855 20.61-13.855 34.12V303.03c0 10.817 4.955 16.226 14.865 16.226 9.456 0 14.184-5.408 14.185-16.226V193.595h17.565V490.85c0 13.512 6.755 20.268 20.267 20.268 13.51 0 20.267-6.756 20.267-20.267V318.577h17.565V490.85c0 13.512 6.755 20.268 20.267 20.268 13.964 0 20.945-6.756 20.946-20.267V193.596h16.886V303.03c0 11.257 4.728 16.886 14.185 16.886 9.47 0 14.204-5.63 14.205-16.886V191.554c-.003-13.057-4.395-24.427-13.177-34.11zM222.92 176.71c-2.255-7.216-7.43-14.198-15.525-20.947-9.91-8.11-20.72-12.164-32.43-12.164H102.68c-11.27 0-21.407 4.054-30.41 12.163-6.762 6.295-11.263 13.278-13.503 20.947l-31.09 103.353c-.894 2.254-1.34 4.282-1.34 6.082 0 10.364 5.175 15.545 15.525 15.545 7.216 0 11.95-4.055 14.205-12.164l28.37-94.59H99.96L53.344 363.148H98.62V494.21c0 11.71 5.627 17.566 16.884 17.566s16.885-5.855 16.885-17.566V362.49h16.905v132.402c0 11.257 5.628 16.886 16.885 16.886 11.256 0 16.885-5.63 16.885-16.886V363.15h45.254l-47.276-168.215h16.205l28.368 94.59c2.254 8.11 6.982 12.165 14.185 12.165 10.363 0 15.545-5.182 15.545-15.545 0-2.254-.447-4.28-1.34-6.082l-31.09-103.353zM282.646 61.172h35.812v451.286h-35.812z"/></symbol><symbol viewBox="0 0 580 580" id="icon-amenity_toilets_disabled"><title>amenity_toilets_disabled</title><path fill="param(fill) #FFF" stroke="param(outline) #000" stroke-width="param(outline-width) 1" d="M474.162 442.77c-9.593.592-27.915 14.387-53.152 17.338-24.026-47.04-46.925-95.01-70.725-142.32-41.396-.033-109.153.084-150.672-.11.06-1.567-6.377-16.904 1.77-35.117H311.67V247.45c-37.53-.497-75.34 1.64-112.646-1.26-1.68-26.597-1.07-53.32-.406-79.954 9.25-12.574 36.665-18.125 35.463-40.93 4.467-28.866-29.385-53.447-56.824-42.515-27.716 7.865-38.153 44.484-18.226 64.736.59 67.315.84 134.635 1.826 201.945 32.025.005 142.775-3.876 163.924.776 21.278 42.334 72.508 146.458 78.224 155.415 22.665-7.5 58.237-24.464 80.776-32.312 1.163.966.894-31.458-9.618-30.58zM330.74 437.232c-22.29 35.193-55.842 66.11-98.19 76.403-56.485 15.37-119.806-16.137-144.833-66.36-23.657-44.2-15.458-103.365 21.967-138.05 5.303-7.307 19.785-10.208 17.653-20.778-1.43-12.183 3.95-30.67-4.048-37.834-50.39 24.21-88.448 74.112-91.267 129.25-5.815 48.633 16.004 97.818 53.77 129.66 26.412 22.945 61.03 37.255 110.528 42.582 55.033 3.674 109.497-22.227 143.49-63.523 20.114-13.506.25-44.12-9.07-51.35zM521.78 103.83c-1.723 7.98-4.492 14.064-8.31 18.255-3.817 4.19-9.457 6.286-16.92 6.286-7.692 0-13.662-2.597-17.91-7.79-4.248-5.196-6.372-14.797-6.372-28.804 0-11.31 1.78-19.604 5.34-24.885 4.706-7.117 11.48-10.676 20.32-10.676 3.903 0 7.434.804 10.59 2.41 3.158 1.608 5.828 3.905 8.01 6.89 1.32 1.78 2.583 4.592 3.788 8.438l34.443-7.664c-4.422-13.318-11.18-23.19-20.28-29.62s-21.598-9.645-37.5-9.645c-20.32 0-36.035 5.61-47.143 16.834-11.108 11.223-16.662 27.282-16.662 48.177 0 15.672 3.157 28.53 9.472 38.576s13.82 17.063 22.518 21.053c8.696 3.99 19.905 5.984 33.625 5.984 11.31 0 20.622-1.636 27.94-4.908s13.448-8.124 18.385-14.553c4.937-6.43 8.554-14.437 10.85-24.023L521.78 103.83zM314.692 155.408l22.043-79.477 22.13 79.478h38.232L424.91 29.175h-36.854L374.71 99.697l-19.547-70.522h-36.94l-19.46 70.522-13.347-70.522H248.39l28.07 126.233z"/></symbol><symbol viewBox="0 0 579.997 579.997" id="icon-cross"><title>cross</title><path fill="param(fill) #000" stroke="param(outline) #FFF" stroke-width="param(outline-width) 0" d="M26.93 29.26v521.476h526.137V29.26H26.93zM524.42 522.09H55.575V57.907h468.848V522.09zM214.31 486.524h151.377V368.166h114.478V211.832H365.687V93.472H214.31v118.36H99.83v156.334h114.48z"/></symbol><symbol viewBox="0 0 512 512" id="icon-enable-full"><title>enable-full</title><path d="M157.943 426.942L192.94 462H50V319.062l35.058 34.997 57.253-57.255 72.885 72.886-57.252 57.252zM319.063 50l34.996 35.058-56.08 56.08 72.884 72.884 56.08-56.08L462 192.938V50H319.062zM85.057 157.943L50 192.94V50h142.938L157.94 85.058l57.254 57.253-72.886 72.885-57.25-57.252zM462 319.063l-35.058 34.996-56.08-56.08-72.884 72.884 56.08 56.08L319.062 462H462V319.062z"/></symbol><symbol viewBox="0 0 579.997 579.997" id="icon-food"><title>food</title><path fill="param(fill) #000" stroke="param(outline) #FFF" stroke-width="param(outline-width) 0" d="M232.58 71.326c-2.587 10.068-4.074 23.513-5.512 36.514-2.61 23.602-5.57 50.353-14.917 50.643-12.016 0-16.713-36.31-20.143-62.82-1.155-8.93-2.246-17.362-3.52-24.17l-2.487.463-2.41-.77c-3.807 11.906-5.844 26.803-7.814 41.208-3.098 22.658-6.302 46.088-15.848 46.09-9.426-.292-12.385-27.042-14.995-50.643-1.438-13-2.925-26.445-5.512-36.515l-4.93.12c-.735 3.58-18.03 88.1-18.03 123.57 0 18.31 11.62 37.836 22.855 56.72 11.262 18.925 22.907 38.495 22.907 56.63 0 16.75-.59 30.486-1.214 45.03-.766 17.835-1.633 38.05-1.633 68.314 0 29.444 2.313 58.972 6.35 81.01 5.093 27.817 12.173 41.34 21.645 41.34 9.35 0 16.634-13.677 21.646-40.65 4.036-21.715 6.35-50.996 6.35-80.336 0-30.312-1.704-50.97-3.21-69.194-1.223-14.817-2.38-28.813-2.38-45.515 0-18.135 11.647-37.705 22.908-56.63 11.235-18.884 22.854-38.41 22.854-56.72 0-35.472-17.294-119.99-18.03-123.57l-4.93-.12zM443.7 386.017c-.354-13.346-.386-26.93-.416-40.07-.063-27.207-.127-55.34-3.063-83.076-1.09-69.588-2.184-139.178-3.27-208.764l-.042-2.7-2.692.217c-2.192.177-4.4.278-6.737.386-12.733.583-27.164 1.246-39.46 15.363-13.556 15.566-22.398 45.66-27.03 92.004l-.02.19.01.188c2.516 50.214 8.314 89.633 28.336 118.523-2.772 28.047-1.43 58.166-.128 87.305.432 9.683.84 18.83 1.104 27.86.147 41.13 2.9 78.9 7.75 106.353 5.658 32.032 13.415 47.604 23.713 47.606h.003c.465 0 .938-.035 1.407-.103 2.863 0 5.474-1.2 7.758-3.568 15.73-16.3 15.09-92.86 12.777-157.715z"/></symbol><symbol viewBox="0 0 580 580" id="icon-food_bar"><title>food_bar</title><path fill="param(fill) #FFF" stroke="param(outline) #000" stroke-width="param(outline-width) 1" d="M468.232 97.93h-.25c.285-.248.443-.498.443-.75 0-5.937-81.066-10.75-181.07-10.75-100.002 0-181.07 4.813-181.07 10.75 0 .252.158.502.446.75h-.445L266.76 246.465v168.073l-103.962 74.32h.255c-.5.27-.765.544-.765.82 0 4.103 55.996 7.426 125.07 7.426 69.075 0 125.07-3.323 125.07-7.426 0-.276-.266-.552-.765-.82h.06l-103.962-74.32V246.466L468.233 97.93zm-175.71 119.64c-2.896 2.678-7.63 2.678-10.526 0L204.46 145.8c-2.894-2.678-2.035-4.87 1.91-4.87h161.78c3.942 0 4.803 2.19 1.907 4.87l-77.536 71.77z"/></symbol><symbol viewBox="0 0 580 580" id="icon-food_fastfood"><title>food_fastfood</title><path fill="param(fill) #FFF" stroke="param(outline) #000" stroke-width="param(outline-width) 1" d="M297.226 363.07c3.13-27.416-17.623-42.296-62.26-44.64h-107.51c-44.638 2.344-65.588 17.224-62.852 44.64h232.622zM523.984 81.687l-18.213-5.29-31.138 109.858h-158.6l38.184 303.11h129.81l38.776-303.11h-29.365zM64.604 445.32c-2.737 27.403 18.214 42.086 62.853 44.046h107.508c44.638-1.96 65.392-16.643 62.26-44.047H64.606zM287.24 384.224H73.998c-5.474 0-10.17 1.958-14.09 5.87-3.92 3.916-5.88 8.418-5.88 13.51 0 5.88 1.96 10.678 5.88 14.395 3.92 3.717 8.616 5.575 14.09 5.574H287.24c5.485 0 10.186-1.857 14.1-5.575 3.914-3.718 5.87-8.516 5.87-14.396 0-5.092-1.956-9.594-5.87-13.51-3.914-3.912-8.614-5.87-14.1-5.87z"/></symbol><symbol viewBox="0 0 579.997 579.997" id="icon-gas"><title>gas</title><path fill="param(fill) #000" stroke="param(outline) #FFF" stroke-width="param(outline-width) 0" d="M474.745 442.244c-.02-.663-.038-1.254-.04-1.77-.144-51.11-47.357-80.054-71.96-91.67l-1.614-146.978-69.725-58.71v-96.91h-226.23v487.583h226.23v-1.216c.376 0 .762.008 1.136.008 59.266 0 99.232-11.302 122.064-34.484 21.112-21.437 20.406-46.44 20.14-55.854zM289.152 93.61v105.627H147.417V93.61h141.735zm134.843 374.345c-8.114 8.24-30.886 21.834-92.59 21.665V199.278l26.983 22.72 1.72 156.605 14.412 4.888c.57.195 57.122 20.4 57.225 57.103.003.83.026 1.79.057 2.864.192 6.797.454 16.108-7.807 24.498z"/></symbol><symbol viewBox="0 0 18 18" id="icon-locate"><title>locate</title><path d="M18 9c0-.338-.022-.67-.06-1h-1.01c-.45-3.617-3.313-6.48-6.93-6.93V.06C9.67.02 9.338 0 9 0s-.67.022-1 .06v1.01C4.383 1.52 1.52 4.383 1.07 8H.06C.02 8.33 0 8.662 0 9s.022.67.06 1h1.01c.45 3.617 3.313 6.48 6.93 6.93v1.012c.33.036.662.058 1 .058s.67-.022 1-.06v-1.01c3.616-.452 6.48-3.313 6.93-6.93h1.012c.036-.328.058-.66.058-1zm-8 5.91V14c0-.553-.448-1-1-1s-1 .447-1 1v.91c-2.51-.422-4.487-2.398-4.91-4.91H4c.553 0 1-.448 1-1s-.447-1-1-1h-.91C3.513 5.49 5.49 3.513 8 3.09V4c0 .552.448 1 1 1s1-.448 1-1v-.91c2.51.422 4.488 2.4 4.91 4.91H14c-.553 0-1 .448-1 1s.447 1 1 1h.91c-.423 2.512-2.4 4.488-4.91 4.91z"/></symbol><symbol viewBox="0 0 580 580" id="icon-shopping_supermarket"><title>shopping_supermarket</title><path fill="param(fill) #FFF" stroke="param(outline) #000" stroke-width="param(outline-width) 1" d="M551.012 83.98c-3.835-6.77-12.432-9.145-19.2-5.312l-49.41 27.997c-3.417 1.937-5.87 5.21-6.77 9.036l-8.17 34.79H56.197c-4.353 0-8.46 2.013-11.128 5.452-2.668 3.438-3.598 7.917-2.518 12.133L92.218 361.9c1.42 5.536 6.04 9.667 11.7 10.456l308.018 42.937v16.32h-274.79c-6.052 0-11.2 3.825-13.192 9.184-4.206 2.108-8.082 4.96-11.47 8.503-7.77 8.124-12.05 18.894-12.05 30.326-.002 23.772 18.688 43.115 41.664 43.118h.004c11.212 0 21.73-4.54 29.617-12.784 7.77-8.124 12.05-18.894 12.05-30.326v-.008c0-7.15-1.703-13.895-4.694-19.838H351.14c-3.73 6.552-5.726 14.04-5.727 21.838 0 23.773 18.69 43.115 41.665 43.118h.005c11.212 0 21.73-4.54 29.616-12.784 7.77-8.124 12.05-18.894 12.05-30.326v-.008c0-7.966-2.11-15.43-5.766-21.838h3.037c7.78 0 14.088-6.307 14.088-14.087v-43.98l52.7-234.048c.248-1.098.353-2.21.336-3.313l8.505-36.22 44.05-24.96c6.77-3.835 9.148-12.43 5.312-19.2zM137.46 331.476h68.3v26.63l-69.85-9.737c.977-1.482 1.55-3.255 1.55-5.162v-11.732zm-44.22-79.084h25.438v60.302h-9.984L93.24 252.392zm44.22 0h68.3v60.302h-68.3v-60.302zm289.915 60.302H404.71v-60.302h38.823l-14.21 60.507c-.63-.133-1.28-.206-1.948-.206zm-41.445 0h-70.303v-60.302h70.303v60.302zm-89.084 0h-72.302v-60.302h72.302v60.302zm18.78-79.084v-54.946h70.304v54.946h-70.303zm-18.78 0h-72.302v-54.946h72.302v54.946zm-91.085 0h-68.3v-54.946h68.3v54.946zm18.783 97.866h72.302v39.326l-72.302-10.078v-29.248zm91.084 40.683v-40.685h70.303v51.745l-70.396-9.813c.055-.41.093-.824.093-1.248zm89.084 13.36v-54.045h20.25l-12.65 53.875c-.117.5-.202 1.004-.264 1.512l-7.35-1.025c.002-.107.015-.21.015-.316zM447.854 234c-.844-.25-1.735-.388-2.66-.388h-40.48v-54.946h56.135l-12.995 55.334zm-329.175-55.334v54.946h-30.25l-14.08-54.946h44.33zm-5.172 152.812h5.172v11.73c0 .983.152 1.93.432 2.82l-1.944-.27-3.66-14.28zm50.265 148.15v.004c0 6.258-2.31 12.12-6.503 16.504-4.076 4.262-9.46 6.608-15.164 6.608h-.002c-11.947 0-21.666-10.37-21.665-23.116 0-6.26 2.31-12.12 6.504-16.504 1.636-1.712 3.492-3.098 5.487-4.164 1.478.526 3.062.828 4.72.828h16.055c6.324 4.04 10.57 11.42 10.57 19.84zm244.982 2v.004c0 6.258-2.31 12.12-6.504 16.504-4.077 4.262-9.462 6.608-15.163 6.608h-.003c-11.948 0-21.668-10.37-21.667-23.116 0-6.258 2.31-12.12 6.504-16.504 2.337-2.443 5.112-4.233 8.123-5.336h14.117c8.482 3.136 14.59 11.74 14.592 21.84z"/></symbol><symbol viewBox="0 0 580 580" id="icon-tourist_museum"><title>tourist_museum</title><path fill="param(fill) #FFF" stroke="param(outline) #000" stroke-width="param(outline-width) 1" d="M501.772 419.162v-211.34h52.274v-58.905h3.85l-3.85-1.305v-13.38h-39.45L293.68 59.313l-225.108 74.92h-40.46V147.7l-3.66 1.218h3.66v58.906h48.995v211.34H54.205L23.16 470.466l534.483-.93-29.084-50.375H501.77zm-302.06-211.34v211.34h-74.117v-211.34h74.117zm48.487 0h82.48v211.34H248.2v-211.34zm130.968 0h74.118v211.34h-74.118v-211.34z"/></symbol><symbol viewBox="0 0 580 580" id="icon-tourist_picnic"><title>tourist_picnic</title><path fill="param(fill) #FFF" stroke="param(outline) #000" stroke-width="param(outline-width) 1" d="M531.26 284.476H414.355l-47.578-116.902h79.29V124.1H131.79v43.473h78.718l-47.58 116.902H46.62v43.455h98.69l-54.625 136.3h53.458l55.216-136.3h178.57l55.216 136.3h54.05l-55.215-136.3h99.28v-43.454zm-319.57 0l47.58-116.902h48.762l47.578 116.902H211.69z"/></symbol><symbol viewBox="0 0 580 580" id="icon-transport_lighthouse"><title>transport_lighthouse</title><g opacity=".5" fill="param(fill) #FFF" stroke="param(outline) #000" stroke-width="param(outline-width) 1"><path d="M239.81 100.792L36.553 74.942c-1.432-.185-2.87.262-3.95 1.218-1.078.957-1.69 2.333-1.68 3.775l.59 85.763c.01 1.428.63 2.783 1.703 3.725.917.804 2.09 1.24 3.297 1.24.206 0 .412-.012.618-.038l202.667-25.26c2.503-.31 4.382-2.438 4.382-4.96v-34.653c0-2.518-1.873-4.643-4.37-4.96zM551.852 76.148c-1.078-.95-2.508-1.39-3.938-1.208L345.25 100.79c-2.497.32-4.368 2.444-4.368 4.96v34.062c0 2.517 1.87 4.64 4.367 4.96l202.664 25.85c.21.028.423.04.633.04 1.21 0 2.386-.438 3.305-1.247 1.077-.95 1.695-2.316 1.695-3.752V79.9c0-1.436-.618-2.802-1.695-3.752z"/></g><g fill="param(fill) #FFF" stroke="param(outline) #000" stroke-width="param(outline-width) 1"><path d="M220.736 85.72h140.98c5.893 0 8.53-3.987 8.53-7.94 0-2.873-1.418-5.396-3.99-7.105-.114-.075-.23-.145-.348-.21l-72.264-39.94c-1.51-.835-3.344-.833-4.854.008l-71.655 39.94c-.106.06-.21.123-.31.19-2.6 1.707-4.03 4.236-4.03 7.117 0 2.928 1.195 4.738 2.2 5.742 1.004 1.003 2.814 2.2 5.74 2.2zM405.45 543.024l-46.84-357.42h6.637c7.063 0 11.45-4.388 11.453-11.455-.002-7.077-4.39-11.472-11.454-11.472h-147.45c-3.52 0-6.338 1.04-8.38 3.087-2.04 2.045-3.074 4.866-3.074 8.384 0 3.515 1.035 6.333 3.078 8.375s4.86 3.078 8.376 3.078h6.626l-47.42 357.413c-.188 1.428.247 2.868 1.197 3.952.948 1.084 2.32 1.705 3.76 1.705h218.53c1.44 0 2.81-.62 3.76-1.702s1.386-2.52 1.2-3.946zM255.322 123.394c0 20.463 16.648 37.112 37.112 37.112 20.463 0 37.11-16.648 37.11-37.112s-16.647-37.112-37.11-37.112-37.112 16.65-37.112 37.112z"/></g></symbol><symbol viewBox="0 0 580 580" id="icon-transport_marina"><title>transport_marina</title><path fill="param(fill) #FFF" stroke="param(outline) #000" stroke-width="param(outline-width) 1" d="M500.816 383.164l-14.09-88.703c-1.567-9.405-7.44-14.107-17.623-14.107-4.71 0-9.02 1.96-12.926 5.88l-65.22 61.096c-4.696 3.907-7.045 8.603-7.044 14.09 0 9.405 4.308 15.477 12.925 18.214l16.457 5.288c-8.223 22.325-21.342 41.417-39.358 57.276-18.017 15.86-38.773 26.138-62.27 30.835V183.44c26.232-11.366 39.35-31.343 39.35-59.93 0-17.617-6.364-32.79-19.092-45.518-12.73-12.728-28.1-19.092-46.11-19.092-17.627 0-32.803 6.365-45.524 19.092-12.722 12.73-19.082 27.9-19.082 45.517 0 28.587 13.313 48.563 39.94 59.93v290.185c-23.89-4.697-45.235-14.98-64.034-30.844-18.8-15.864-32.31-35.15-40.533-57.858l16.458-5.288c8.604-2.737 12.907-8.81 12.907-18.215 0-5.092-2.15-9.788-6.454-14.09l-65.79-61.097c-3.92-3.92-8.23-5.88-12.926-5.88-10.183 0-16.057 4.703-17.622 14.108l-14.09 88.704c-.396 1.948-.592 3.316-.592 4.105 0 12.536 6.46 18.804 19.38 18.804 1.96 0 3.722-.197 5.288-.592l15.274-5.287c12.537 37.6 34.958 68.34 67.262 92.225 32.304 23.885 68.822 35.827 109.552 35.827 40.335 0 76.954-12.137 109.856-36.41 31.72-23.496 53.847-54.043 66.384-91.642l15.274 5.287c1.565.395 3.328.592 5.288.592 12.92 0 19.38-6.268 19.38-18.805 0-.79-.198-2.158-.592-4.106zm-215-232.62c-7.05 0-13.22-2.645-18.508-7.934-5.29-5.288-7.933-11.655-7.933-19.1 0-7.052 2.644-13.22 7.933-18.502 5.288-5.282 11.458-7.923 18.51-7.924 7.445 0 13.81 2.642 19.09 7.924 5.283 5.283 7.925 11.45 7.925 18.5 0 7.447-2.642 13.814-7.924 19.102-5.283 5.288-11.647 7.933-19.093 7.933z"/></symbol><symbol viewBox="0 0 512 512" id="icon-zoom-home"><title>zoom-home</title><path d="M419.492 275.815v166.213H300.725v-90.33h-89.45v90.33H92.506V275.815H50L256 69.972l206 205.844h-42.508zm-25.42-187.343h-47.917v38.31l47.917 48.024V88.472z"/></symbol><symbol viewBox="0 0 512 512" id="icon-zoom-in"><title>zoom-in</title><path d="M460.475 408.443L351.4 299.37c15.95-25.137 25.2-54.923 25.2-86.833C376.6 122.914 303.687 50 214.062 50 124.44 50 51.525 122.914 51.525 212.537s72.914 162.537 162.537 162.537c30.326 0 58.733-8.356 83.055-22.876L406.917 462l53.558-53.557zM96.315 212.538c0-64.927 52.82-117.748 117.746-117.748 64.927 0 117.75 52.82 117.75 117.748 0 64.926-52.823 117.747-117.75 117.747-64.925 0-117.745-52.82-117.745-117.747zm185.96 19.344h-47.728v47.73h-36.86v-47.73h-47.73v-36.86h47.73v-47.73h36.86v47.73h47.73v36.86z"/></symbol><symbol viewBox="0 0 512 512" id="icon-zoom-out"><title>zoom-out</title><path d="M460.475 408.443L351.4 299.37c15.95-25.137 25.2-54.923 25.2-86.833C376.6 122.914 303.687 50 214.062 50 124.44 50 51.525 122.914 51.525 212.537s72.914 162.537 162.537 162.537c30.325 0 58.732-8.356 83.055-22.876L406.917 462l53.558-53.557zM96.315 212.538c0-64.927 52.82-117.748 117.746-117.748 64.927 0 117.75 52.82 117.75 117.748 0 64.926-52.823 117.747-117.75 117.747-64.925 0-117.745-52.82-117.745-117.747zm185.96 19.344H149.958v-36.86h132.32v36.86z"/></symbol></svg>