<svg width="640" height="480" xmlns="http://www.w3.org/2000/svg"><title>grey divider no background</title><title>Layer 1</title><path fill="#3f3f3f" fill-rule="evenodd" d="M232.183 32.177c5.547-1.862 3.81-4.595-.93-5.384-8.365-1.44-17.507 1.566-13.317 4.558 4.18 3.08 14.65 5.232 28.9 5.848 30.914 1.295 92.063-6.686 130.843-9.128 28.808-1.814 46.406.912 55.9 3.93-19.515-3.277-37.303-2.137-55.61-1.332-42.002 1.847-85.448 9.688-131.485 8.455-21.494-.76-36.554-5.823-35.315-9.792.11-.352.35-.696.723-1.028 2.83-2.352 7.8-3.317 12.204-3.603 11.97-.78 23.83 4.396 8.086 7.477z"/><path fill="#3f3f3f" fill-rule="evenodd" d="M198.067 31.763c-5.422 1.825-3.724 4.507.91 5.28 8.176 1.413 17.113-1.536 13.017-4.47-4.087-3.02-14.32-5.132-28.25-5.735-30.22-1.27-89.994 6.557-127.903 8.953-28.16 1.78-45.363-.894-54.645-3.855 19.078 3.215 36.466 2.097 54.36 1.307 41.06-1.81 83.53-9.502 128.532-8.292 21.01.746 35.732 5.71 34.52 9.604-.107.346-.34.683-.706 1.01-2.765 2.306-7.624 3.252-11.93 3.532-11.7.763-23.293-4.312-7.903-7.333z"/></svg>