<?xml version="1.0"?><svg width="640" height="480" xmlns="http://www.w3.org/2000/svg">
 <title>grey divider no background</title>
 <metadata id="metadata15">image/svg+xml</metadata>
 <g>
  <title>Layer 1</title>
  <path fill="#3f3f3f" fill-rule="evenodd" stroke-width="1px" d="m232.182953,32.176613c5.546631,-1.861605 3.809738,-4.595091 -0.931381,-5.383703c-8.363861,-1.440655 -17.505722,1.566132 -13.315948,4.557659c4.181473,3.079279 14.648911,5.231901 28.898911,5.847437c30.914978,1.295326 92.064331,-6.685839 130.844635,-9.128094c28.808472,-1.814245 46.406403,0.911934 55.902069,3.931271c-19.516449,-3.278492 -37.304169,-2.138235 -55.610291,-1.333288c-42.002502,1.846941 -85.4487,9.688536 -131.486023,8.455107c-21.493652,-0.76149 -36.553528,-5.823128 -35.315109,-9.79217c0.110031,-0.352709 0.348709,-0.696806 0.723129,-1.028496c2.82933,-2.352184 7.800491,-3.31691 12.204407,-3.60305c11.971024,-0.777836 23.829651,4.396526 8.085602,7.477327z" id="path2383"/>
  <path fill="#3f3f3f" fill-rule="evenodd" stroke-width="1px" d="m198.067108,31.76265c-5.422028,1.825848 -3.724091,4.506897 0.91037,5.280376c8.175812,1.413017 17.112335,-1.536091 13.016693,-4.470203c-4.087311,-3.020193 -14.319672,-5.131495 -28.249359,-5.735188c-30.220352,-1.270504 -89.9953,6.557503 -127.904205,8.9529c-28.160873,1.77943 -45.363388,-0.894428 -54.645538,-3.855846c19.077751,3.215603 36.465584,2.097229 54.36026,1.307713c41.058746,-1.811472 83.528503,-9.502628 128.531189,-8.292845c21.01059,0.746881 35.731995,5.711397 34.521484,9.604265c-0.107513,0.34597 -0.340973,0.683434 -0.70694,1.008747c-2.765686,2.307053 -7.625153,3.253239 -11.930054,3.533916c-11.702026,0.76289 -23.294098,-4.312134 -7.9039,-7.333836z" id="path2479"/>
 </g>
</svg>