<svg xmlns:rdf="http://www.w3.org/1999/02/22-rdf-syntax-ns#" xmlns="http://www.w3.org/2000/svg" viewBox="0 0 512 512" version="1.1" xmlns:cc="http://creativecommons.org/ns#" xmlns:dc="http://purl.org/dc/elements/1.1/">
 <g transform="translate(0 -540.4)">
  <g transform="matrix(.4853 0 0 -.4853 9.722 946.8)">
   <path d="m686 560q25 0 42.5 17.5t17.5 42.5-17.5 42.5-42.5 17.5q-24 0-42-17.5t-18-42.5 17.5-42.5 42.5-17.5zm193 136-148-149h-88l-149 149q-9 9-22 9-31 0-31-31 0-12 9-20l156-157v-517q0-14 9.5-24t23.5-10q34 0 34 34v281h27v-281q0-14 10-24t24-10 24 10 10 24v517l156 157q8 8 8 20 0 31-30 31-13 0-23-9zm-384-546q9-9 23-9 30 0 30 30 0 13-9 21l-125 126q-15 15-36 15h-125q-21 0-35-15l-126-126q-9-8-9-20 0-31 31-31 13 0 22 9l98 98v-131h-110q-15 0-25.5-10.5t-10.5-25.5 11-26l123-124q11-16 31-16 15 0 26 11t11 26q0 10-5 19l-69 70h202l-70-70q-5-9-5-19 0-15 10.5-26t26.5-11q20 0 31 16l123 123q11 11 11 27 0 15-10.5 25.5t-25.5 10.5h-110v129zm-178 196q25 0 42.5 17.5t17.5 42.5-17.5 42.5-42.5 17.5-42.5-17.5-17.5-42.5 17.5-42.5 42.5-17.5z"/>
  </g>
 </g>
</svg>
