<svg xmlns:rdf="http://www.w3.org/1999/02/22-rdf-syntax-ns#" xmlns="http://www.w3.org/2000/svg" viewBox="0 0 512 512" version="1.1" xmlns:cc="http://creativecommons.org/ns#" xmlns:dc="http://purl.org/dc/elements/1.1/">
 <g transform="translate(0 -540.4)">
  <g transform="matrix(.4922 0 0 -.4922 15.54 948.5)">
   <path d="m479-25h53v668h-53v-668zm-189 546h-107q-25 0-45-18-15-14-20-31l-46-153q-2-5-2-9 0-23 23-23 16 0 21 18l42 140h23l-69-249h67v-194q0-26 25-26t25 26v195h25v-196q0-25 25-25t25 25v195h67l-70 249h24l42-140q5-18 21-18 23 0 23 23 0 5-2 9l-46 153q-5 16-23 31-22 18-48 18zm-51 11q23 0 39 16t16 38q0 23-16 39t-39 16q-22 0-38-16t-16-39q0-22 16-38t38-16zm527 1q22 0 38 16t16 38q0 23-16 38.5t-38 15.5-38-15.5-16-38.5q0-22 16-38t38-16zm71-11h-143q-29 0-49.5-20.5t-20.5-50.5v-166q0-24 22-24 21 0 21 24v162h26v-440q0-30 30-30t30 30v255h26v-255q0-30 30-30 31 0 31 30v440h25v-162q0-25 21-25t21 25v165q0 29-19.5 50.5t-50.5 21.5z"/>
  </g>
 </g>
</svg>
