<svg xmlns:rdf="http://www.w3.org/1999/02/22-rdf-syntax-ns#" xmlns="http://www.w3.org/2000/svg" enable-background="new 0 0 100 100" xml:space="preserve" viewBox="0 0 512 512" version="1.1" y="0px" x="0px" xmlns:cc="http://creativecommons.org/ns#" xmlns:dc="http://purl.org/dc/elements/1.1/"><g transform="matrix(.4719 0 0 -.4719 17.91 400.4)"><path d="m873-77h-666v-28h666q28 0 48 20t20 48h-27q0-17-12-28.5t-29-11.5zm-158 660q27 0 47 19.5t20 47.5-20 47.5-47 19.5q-28 0-47.5-19.5t-19.5-47.5 19.5-47.5 47.5-19.5zm-440-600q11-10 27-10 18 0 38 14l-20 21q-9-6-17-6t-12 4l-1 1-222 223v-39zm22 445h-227v-27h227v27zm384-466 259 520-26 11-262-531h29zm-521 306q-19 0-32-12t-13-31q0-18 13-30.5t31-12.5h181q11 0 20 2 23 4 32 14l89 99 104-100-42-187q-2-6-2-10 0-18 13-31t31-13q34 0 42 35l51 227q9 36-8 53l-91 91 99 115 64-64q10-10 23-10 17 0 33 15l104 104q8 10 8 22 0 15-10.5 25t-24.5 10-22-8l-86-86-104 104q-12 12-30 12h-163q-15 0-26-12l-112-129q-12-10-12-25 0-14 10-24t24-10q15 0 26 12l104 121 60-1-229-266z"/></g></svg>
