<svg xmlns="http://www.w3.org/2000/svg" width="580" height="580" viewBox="0 0 580 580"><path fill="param(fill) #FFF" stroke="param(outline) #000" stroke-width="param(outline-width) 1" d="M504.91 519.52l.714-.006-10.927-19.284-190.172-360.682 35.603-67.26L316.9 59.995l-27.213 51.412-28.368-53.804-23.247 12.257 36.007 68.29c-15.495 32.075-121.49 230.256-192.826 362.817l-10.44 19.403 94.236-.156 23.41.18.115-.22 202.6-.335.29.555 91.77-.708 21.746-.036-.07-.13zM289.963 285.86c21.655 72.986 67.317 167.25 87.688 207.722l-175.523.29c20.298-40.308 66.127-134.848 87.835-208.013z"/></svg>