<svg xmlns="http://www.w3.org/2000/svg" width="580" height="580" viewBox="0 0 580 580"><path fill="param(fill) #FFF" stroke="param(outline) #000" stroke-width="param(outline-width) 1" d="M297.226 363.07c3.13-27.416-17.623-42.296-62.26-44.64h-107.51c-44.638 2.344-65.588 17.224-62.852 44.64h232.622zM523.984 81.687l-18.213-5.29-31.138 109.858h-158.6l38.184 303.11h129.81l38.776-303.11h-29.365zM64.604 445.32c-2.737 27.403 18.214 42.086 62.853 44.046h107.508c44.638-1.96 65.392-16.643 62.26-44.047H64.606zM287.24 384.224H73.998c-5.474 0-10.17 1.958-14.09 5.87-3.92 3.916-5.88 8.418-5.88 13.51 0 5.88 1.96 10.678 5.88 14.395 3.92 3.717 8.616 5.575 14.09 5.574H287.24c5.485 0 10.186-1.857 14.1-5.575 3.914-3.718 5.87-8.516 5.87-14.396 0-5.092-1.956-9.594-5.87-13.51-3.914-3.912-8.614-5.87-14.1-5.87z"/></svg>