<svg xmlns="http://www.w3.org/2000/svg" width="580" height="580" viewBox="0 0 580 580"><path fill="param(fill) #FFF" stroke="param(outline) #000" stroke-width="param(outline-width) 1" d="M468.232 97.93h-.25c.285-.248.443-.498.443-.75 0-5.937-81.066-10.75-181.07-10.75-100.002 0-181.07 4.813-181.07 10.75 0 .252.158.502.446.75h-.445L266.76 246.465v168.073l-103.962 74.32h.255c-.5.27-.765.544-.765.82 0 4.103 55.996 7.426 125.07 7.426 69.075 0 125.07-3.323 125.07-7.426 0-.276-.266-.552-.765-.82h.06l-103.962-74.32V246.466L468.233 97.93zm-175.71 119.64c-2.896 2.678-7.63 2.678-10.526 0L204.46 145.8c-2.894-2.678-2.035-4.87 1.91-4.87h161.78c3.942 0 4.803 2.19 1.907 4.87l-77.536 71.77z"/></svg>