<svg xmlns="http://www.w3.org/2000/svg" width="579.997" height="579.997" viewBox="0 0 579.997 579.997"><path fill="param(fill) #000" stroke="param(outline) #FFF" stroke-width="param(outline-width) 0" d="M474.745 442.244c-.02-.663-.038-1.254-.04-1.77-.144-51.11-47.357-80.054-71.96-91.67l-1.614-146.978-69.725-58.71v-96.91h-226.23v487.583h226.23v-1.216c.376 0 .762.008 1.136.008 59.266 0 99.232-11.302 122.064-34.484 21.112-21.437 20.406-46.44 20.14-55.854zM289.152 93.61v105.627H147.417V93.61h141.735zm134.843 374.345c-8.114 8.24-30.886 21.834-92.59 21.665V199.278l26.983 22.72 1.72 156.605 14.412 4.888c.57.195 57.122 20.4 57.225 57.103.003.83.026 1.79.057 2.864.192 6.797.454 16.108-7.807 24.498z"/></svg>