<svg xmlns="http://www.w3.org/2000/svg" width="580" height="580" viewBox="0 0 580 580"><g opacity=".5" fill="param(fill) #FFF" stroke="param(outline) #000" stroke-width="param(outline-width) 1"><path d="M239.81 100.792L36.553 74.942c-1.432-.185-2.87.262-3.95 1.218-1.078.957-1.69 2.333-1.68 3.775l.59 85.763c.01 1.428.63 2.783 1.703 3.725.917.804 2.09 1.24 3.297 1.24.206 0 .412-.012.618-.038l202.667-25.26c2.503-.31 4.382-2.438 4.382-4.96v-34.653c0-2.518-1.873-4.643-4.37-4.96zM551.852 76.148c-1.078-.95-2.508-1.39-3.938-1.208L345.25 100.79c-2.497.32-4.368 2.444-4.368 4.96v34.062c0 2.517 1.87 4.64 4.367 4.96l202.664 25.85c.21.028.423.04.633.04 1.21 0 2.386-.438 3.305-1.247 1.077-.95 1.695-2.316 1.695-3.752V79.9c0-1.436-.618-2.802-1.695-3.752z"/></g><g fill="param(fill) #FFF" stroke="param(outline) #000" stroke-width="param(outline-width) 1"><path d="M220.736 85.72h140.98c5.893 0 8.53-3.987 8.53-7.94 0-2.873-1.418-5.396-3.99-7.105-.114-.075-.23-.145-.348-.21l-72.264-39.94c-1.51-.835-3.344-.833-4.854.008l-71.655 39.94c-.106.06-.21.123-.31.19-2.6 1.707-4.03 4.236-4.03 7.117 0 2.928 1.195 4.738 2.2 5.742 1.004 1.003 2.814 2.2 5.74 2.2zM405.45 543.024l-46.84-357.42h6.637c7.063 0 11.45-4.388 11.453-11.455-.002-7.077-4.39-11.472-11.454-11.472h-147.45c-3.52 0-6.338 1.04-8.38 3.087-2.04 2.045-3.074 4.866-3.074 8.384 0 3.515 1.035 6.333 3.078 8.375s4.86 3.078 8.376 3.078h6.626l-47.42 357.413c-.188 1.428.247 2.868 1.197 3.952.948 1.084 2.32 1.705 3.76 1.705h218.53c1.44 0 2.81-.62 3.76-1.702s1.386-2.52 1.2-3.946zM255.322 123.394c0 20.463 16.648 37.112 37.112 37.112 20.463 0 37.11-16.648 37.11-37.112s-16.647-37.112-37.11-37.112-37.112 16.65-37.112 37.112z"/></g></svg>