<svg xmlns="http://www.w3.org/2000/svg" width="553" height="720" version="1"><g stroke-miterlimit="10.433"><path d="M493.05 420.138l.164-.493.164-.33.165-.493v-.494l.165-.494.164-.493.165-.326.164-.494.168-.495.164-.493.33-.493.165-.33.165-.495.163-.164v-.164l.165-.165.164-.33v-.162l.165-.166c2.796-3.95 5.43-8.557 9.05-10.696 3.29-2.304 3.95-6.418 5.595-13.165.493-11.847 2.14-12.505 2.633-13.82.493-1.317 1.316-5.266 4.114-10.203 1.975-3.62 4.443-10.86 3.62-13-1.81-3.62-3.29-6.748-5.1-13-2.47-14.81-.495-19.748 2.632-24.356 4.443-6.747 7.24-10.86 11.848-13.165 2.14-.987 1.81-5.1 1.48-7.9-1.15-7.24.99-6.58 2.14-10.366 1.317-3.786 2.304-8.888 2.304-10.04 0-1.316-.658-4.77-.987-6.417-.495-2.962-.988-7.24-.166-8.887 1.317-2.304 2.633-4.937 2.47-7.24 0-.988 1.15-2.47 1.645-4.114.492-1.48 1.48-5.1 1.48-7.898 0-.823.987-6.583 1.645-10.697 1.48-8.063.494-12.013-.164-14.317-.66-3.29-2.634-4.936-2.47-6.09 0-1.48-.33-6.086-.66-8.884-.163-1.645 6.584-11.025 7.9-12.836.495-.987-.493-7.405-.493-8.886 0-1.315-1.645-8.062-1.645-9.873 0-1.972.33-3.124.33-4.934-.165-1.974-.33-4.772-.494-8.392-.33-6.582.165-13.33.33-15.14 0-1.48-2.47-1.48-6.912-3.785-4.444-2.304-13.988-11.85-15.634-12.507-1.644-.823-9.38-2.14-13.657-2.14-3.95 0-12.672 1.975-16.62 2.633-3.786.494-8.558-1.152-10.862-1.81-2.302-.658-6.416-1.81-8.226-1.48-5.266.493-13.823.657-17.444 0-4.28-.824-7.9-1.976-10.04-3.292-1.81-1.317-2.467-.823-4.77-2.962-1.81-1.645-1.976-2.632-3.457-2.797-1.317-.33-13.823-1.316-16.127-3.62-2.305-2.304-5.43-6.253-7.24-14.975-1.81-8.393 1.15-14.317 4.277-15.963 4.937-2.468 11.684-6.582 15.304-6.91 1.647-.166-1.974-6.584-3.784-12.672-.823-2.304-4.28-1.81-12.177-10.532-3.457-3.95-9.71-11.683-11.19-14.316-1.647-2.634.163-4.115-1.483-4.28-2.14-.164-9.215.165-20.405-1.81-11.19-2.14-18.433-5.266-21.89-6.253-3.29-.987-11.19-3.784-13.66-4.607-2.466-.824-7.403-2.8-11.846-4.444-4.28-1.48-6.253-4.938-8.393-5.103-2.302 0-10.53 5.76-20.404 7.077-9.875 1.317-13.33-.987-18.597-1.81-5.594-.822-10.695-1.81-17.278-2.303-6.417-.493-25.507 2.963-28.798 3.456-3.29.33-7.9 2.633-12.013 2.633-2.63 0-17.277 4.28-19.745 4.772-2.634.493-6.255-.823-8.065-.165-2.96.823-7.24 1.81-8.72 2.14-1.152.328-20.406 6.746-23.862 7.405-3.785.822-9.215 2.633-13.658 4.278-2.964 1.317-4.774 3.29-7.242 4.937-8.228 5.76-10.532 5.924-14.48 7.24-2.635.824-3.95 1.81-9.546 2.14-5.76.33-7.405 1.48-7.405 2.304 0 3.95-1.317 11.85.164 12.508 3.13 1.645 10.863 14.316 11.19 22.38.496 8.557-.656 14.646-.985 17.28-.33 2.303-.657 3.62-1.81 4.936-.987 1.316-7.9 3.455-12.012 3.95-4.278.164-6.417.328-21.392-3.62-11.684-2.963-12.67-4.115-14.152-5.76-1.152-1.81-4.114-3.292-6.09-4.28-2.14-.987-4.278-1.48-6.417-3.455-1.975-1.81-11.026 2.632-23.532 3.62-2.304.164-6.583 7.734-14.317 11.683-6.09 2.96-8.886 4.113-10.86 5.594-5.595 3.785-12.18 4.443-11.355 6.09 1.316 3.125-1.152 4.77-.33 12.506 1.153 13-1.81 19.582-1.81 25.836-.164 3.125 3.456 6.91 5.102 8.227 1.48 1.315 4.443 5.76 5.266 9.05.66 3.29-.493 13.987-2.14 22.874-1.644 9.05-2.63 18.265-2.302 21.556.163 2.14 2.796 6.583 3.948 9.05 1.646 2.963 4.773 13.66 4.937 19.09.165 4.937-1.152 11.19-1.152 12.178 0 .987 1.647 5.1 3.29 7.24 1.813 2.633 5.927 11.355 6.914 13.494 1.48 2.963 1.975 6.747 1.975 6.747s-.493 4.28-.657 6.91c-.165 2.633-1.152 11.684-2.14 23.368-.822 11.354-.822 20.9.165 21.886 1.315 1.318 3.784 3.457 4.77 4.938.824 1.647 8.065 14.154 8.888 15.964.822 1.976 2.632 6.912 3.29 10.368.66 3.62 1.646 10.697 1.975 12.507.495 2.468 3.457 17.608 3.95 20.076.66 3.128 1.81 11.685 2.305 15.14.33 3.95.658 10.368.987 11.685.33 1.153 1.317 3.457 2.47 6.09 1.315 2.96 3.62 11.683 4.113 13.658.493 1.975-.33 4.608.164 6.254.66 1.81 2.633 3.29 3.29 4.773.66 1.48 5.926 12.013 8.23 15.633 2.14 3.128 9.71 17.61 11.85 22.38.492.66.492 1.153.492 1.483 0 1.81.33 3.29 1.316 3.95.986.657 2.632 4.113 3.95 4.278 1.81.33 3.62 1.317 4.442 2.304.823 1.318 7.406 7.736 9.874 10.37 2.47 2.632 4.114 4.277 3.785 6.58-.33 1.81-.165 4.774.822 5.76 1.81 1.81 4.608 3.29 9.874 10.204 4.443 5.924 6.09 10.86 8.392 14.975 1.316 2.468 3.29 9.38 3.29 11.19 0 1.81 1.153 3.127 2.14 4.114 1.15 1.48 4.114 3.95 6.253 4.937 1.153.495 4.444 3.457 7.407 6.91 2.96 3.294 5.43 6.09 6.746 13.826.493 2.303.493 4.278 1.316 4.443.823.164 2.8.66 3.29 1.645.66.823.66 2.14 1.976 2.963 3.784 2.63 4.28 5.264 4.77 7.075.165 1.645.988 6.418 1.48 8.392.166 1.48 7.9 9.71 9.875 12.67 1.647 2.634 4.115 3.128 9.71 6.255 5.43 2.96 5.76 4.936 6.09 6.417.33 1.645.163 9.38.657 10.203 1.318 1.81 2.14.987 4.28 3.62s4.937 6.418 6.253 8.228c1.317 1.81 12.507 8.723 18.596 14.318 1.48 1.48 5.1 5.266 7.57 7.076 1.81 1.152 4.277 2.304 6.252 3.29 2.14.988 5.267 1.976 11.52 6.42 1.48.822 5.1 2.632 7.24 3.948 2.634 1.646 10.04 5.76 12.836 5.76 5.76 0 8.722 2.304 12.013 1.48 13.824-2.632 16.95-4.606 20.077-7.57 2.798-2.96 7.57-9.543 9.05-10.695 1.646-1.48 6.42-7.076 10.368-9.71 10.86-10.53 9.71-8.392 16.456-12.835 3.62-2.468 6.913-3.29 9.05-6.418 3.293-5.43 8.395-13 9.218-16.29.658-1.976 1.81-2.47 2.633-4.61.66-1.81.33-3.29 2.633-4.278 1.81-.823 6.088-5.76 8.392-6.91 1.48-.824.33-5.267 2.14-7.242 1.15-1.48 6.582-5.1 11.354-8.557 9.05-6.418 15.467-15.14 18.923-18.43 3.62-3.786 1.81-9.217.658-10.862l2.634-3.95s4.772-5.266 7.57-8.228c2.797-2.633 10.367-12.177 12.342-14.152 1.646-1.48.658-9.71.987-12.013.165-2.468 5.595-6.582 7.406-8.393 1.81-1.81 2.632-3.456 2.796-6.912.33-3.29 2.633-17.937 3.456-20.57.494-1.317.987-2.304 1.646-3.292 1.48-2.304 3.124-3.95 4.605-5.595 1.81-2.138 10.86-13 15.14-16.784l.823-.494c2.138-1.48.822-3.126.822-5.1 0-.988.822-2.963 2.14-5.102 1.15-2.304 2.796-5.102 4.113-6.418 3.786-4.28 3.128-6.747 9.38-11.355 2.305-1.646 1.48-6.583 1.48-6.583s-.163-1.81 1.154-4.772c1.316-2.962 5.924-8.557 8.722-11.52 1.152-1.15 2.14-4.77 2.14-6.582 0-1.645-.33-4.936 1.48-8.392.33-.658.658-1.317 1.152-1.975.33-.492.658-1.314.987-1.973z" fill="#fff" fill-opacity=".961" stroke="#99542c" stroke-width="10.239"/><path fill="#fff" stroke="#fff" stroke-width="0" d="M-908.82 253.23zM110.61 423.923l.163-.658c-.164-1.316-2.304-1.316-2.633-2.14-.823-2.797-2.14-3.29-2.797-3.95-1.646-1.48-3.292-.657-4.114-.986-.826-.33-1.978-.66-1.484-2.8 0-.33-.165-.494-.33-.33l-1.152.165-1.316-.165-1.153.166s-2.797 0-7.24 1.48c-.988 0-2.305 1.153-3.95 1.153-1.646-.167-3.456 1.643-5.266 1.643-1.317.165-4.77 4.608-7.57 5.102-1.646.164 0 .33-9.38 3.785-5.266 1.81-3.785 1.48-8.228 3.95.987.33 5.1.165 8.557-.164 6.09-.494 6.254-.494 7.57-.823 6.09-.823 15.633-1.317 19.42-2.14 2.796-.658 4.77.988 7.404.165 1.15-.495 2.962-.495 3.784-.495 1.315-.164 1.644 0 2.467-.164 0 0 4.114.163 4.937-.495 1.316-.658 1.81-.987 1.974-1.48l.33-.824z"/><path d="M492.226 421.95v-.33h.165v-.33l.168-.165v-.328l.164-.165v-.33l.166-.164.164-.164v-.165c.822-2.307 1.48-5.27 2.797-7.08 2.96-3.95 5.43-8.392 9.05-10.696 3.29-2.303 3.95-6.417 5.595-13.164.493-11.85 2.14-12.506 2.797-13.823.494-1.316 1.317-5.265 3.95-10.202 1.975-3.62 4.443-11.026 3.62-13-1.81-3.62-3.29-6.748-5.1-13-2.47-14.812-.495-19.748 2.632-24.356 4.443-6.75 7.24-11.028 11.848-13.167 2.14-.987 1.81-5.1 1.48-7.9-1.15-7.24.99-6.58 2.305-10.366 1.152-3.786 2.14-8.723 2.14-10.204 0-1.317-.66-4.443-.988-6.254-.495-2.963-.824-7.406-.166-8.887 1.48-2.304 2.633-5.1 2.633-7.24 0-.988.988-2.47 1.482-3.95.492-1.646 1.48-5.266 1.48-8.064 0-.823 1.15-6.583 1.81-10.697 1.316-8.063.493-12.013-.165-14.317-.823-3.457-2.633-4.938-2.633-6.09 0-1.48-.33-6.088-.658-8.886-.165-1.645 6.747-11.025 7.9-13 .657-.822-.495-7.24-.495-8.72 0-1.318-1.646-8.23-1.646-10.04 0-1.81.33-2.96.33-4.772 0-1.973-.33-4.77-.33-8.39-.33-6.584.164-13.33.164-15.14 0-1.482-2.468-1.482-6.91-3.786-4.445-2.304-13.99-11.684-15.635-12.506-1.643-.66-9.38-2.14-13.492-2.14-4.113 0-12.835 1.975-16.62 2.633-3.95.493-8.72-1.15-10.86-1.81-2.47-.66-6.583-1.81-8.393-1.646-5.266.658-13.823.822-17.28.164-4.442-.824-8.063-1.976-10.202-3.29-1.81-1.32-2.467-.825-4.607-2.8-1.974-1.81-2.14-2.797-3.62-2.96-1.317-.33-13.823-1.318-16.127-3.62-2.303-2.306-5.43-6.256-7.24-14.977-1.81-8.227 1.15-14.316 4.28-15.962 4.936-2.467 11.683-6.58 15.303-6.91 1.646-.165-1.975-6.418-3.785-12.672-.823-2.303-4.28-1.81-12.177-10.53-3.455-3.95-9.544-11.685-11.19-14.318-1.645-2.633.165-4.114-1.48-4.28-2.14-.164-9.216.166-20.406-1.974-11.026-1.974-18.43-4.937-21.887-6.088-3.29-.988-11.19-3.62-13.66-4.608-2.467-.823-7.404-2.962-11.847-4.443-4.28-1.646-6.253-4.937-8.393-5.102-2.303 0-10.532 5.76-20.405 7.076-9.874 1.32-13.165-.986-18.596-1.81-5.594-.657-10.695-1.81-17.113-2.303-6.583-.493-25.508 2.963-28.8 3.456-3.292.33-8.064 2.633-12.18 2.633-2.63 0-17.277 4.28-19.745 4.772-2.633.493-6.254-.823-8.064-.165-2.796.823-7.24 1.81-8.556 2.14-1.316.164-20.57 6.746-23.86 7.404-3.95.822-9.38 2.632-13.824 4.28-2.964 1.15-4.774 3.29-7.242 4.935-8.228 5.76-10.532 6.09-14.48 7.24-2.47.66-3.95 1.81-9.546 1.975-5.76.328-7.405 1.48-7.24 2.632-.165 3.784-1.317 11.52 0 12.34 3.126 1.647 10.86 14.318 11.354 22.38.33 8.56-.658 14.648-1.152 17.28-.33 2.14-.658 3.62-1.646 4.938-1.152 1.318-8.063 3.62-12.177 3.786-4.277.33-6.416.494-21.39-3.29-11.52-3.127-12.67-4.28-13.99-6.09-1.315-1.645-4.277-3.126-6.252-4.114-2.14-.986-4.28-1.48-6.254-3.62-1.975-1.645-11.19 2.8-23.697 3.786-2.304.165-6.583 7.734-14.153 11.684-6.088 2.962-9.05 4.114-11.025 5.595-5.596 3.785-12.014 4.443-11.356 6.09 1.315 3.125-1.153 4.77-.33 12.505 1.152 12.836-1.81 19.583-1.81 25.836 0 3.127 3.455 6.912 5.1 8.23 1.647 1.315 4.444 5.923 5.267 9.05.823 3.29-.494 13.987-2.14 22.71-1.645 9.38-2.632 18.43-2.303 21.72.162 2.305 2.795 6.584 4.112 9.052 1.48 2.962 4.608 13.494 4.772 19.09.33 5.1-1.152 11.19-1.152 12.177 0 1.152 1.81 5.1 3.29 7.24 1.812 2.47 5.926 11.355 7.078 13.494 1.482 2.96 1.81 6.582 1.81 6.582s-.328 4.443-.657 7.076c-.165 2.632-1.152 11.847-1.975 23.367-.987 11.354-.987 20.9.164 21.886 1.152 1.318 3.62 3.457 4.608 5.103.823 1.48 8.064 13.987 8.887 15.962.823 1.81 2.633 6.583 3.29 10.203.66 3.62 1.647 10.695 2.14 12.506.33 2.304 3.29 17.608 3.786 20.076.823 3.127 1.975 11.85 2.304 15.14.33 3.95.658 10.367.987 11.52h-.164c4.276-2.47 2.96-2.14 8.226-3.95 9.38-3.456 7.733-3.62 9.38-3.785 2.796-.494 6.252-4.937 7.57-5.102 1.644 0 3.62-1.81 5.1-1.81 1.645.165 3.126-.987 3.95-.987 4.607-1.48 7.24-1.48 7.24-1.48l7.57-1.482c3.127-.494 78.99-27.482 93.142-33.077 13.986-5.597 1.15 4.112 19.58-2.635 18.268-6.747 29.95-13 29.95-13 4.61-1.482 27.32-13.165 27.32-13.165s5.1-2.632 9.38-2.303c5.265.33 9.05-.165 10.695-.33 1.48-.33 2.633-.822 7.076-.658 4.61.163 6.42.82 10.204.163 3.456-.495 3.95-3.128 5.595-3.62 1.48-.33 3.455-1.48 4.28-2.47 2.137-2.797 4.44-1.975 5.43-3.785 1.81-2.963 4.113-1.975 9.05-5.925.987-.823 5.924.33 7.57-.658 1.81-.823 8.886-6.418 10.366-7.24 1.646-1.153 2.633-3.292 4.608-2.963 4.28.986 4.937-.33 7.076 1.645 3.128 2.963 10.204 7.9 10.533 8.558 1.317 3.456 6.583 3.62 6.747 8.228.165 2.47 2.47 2.14 2.14 5.925-.165.987 6.91-.33 9.873 2.304 1.975 1.645 9.545 8.885 10.697 9.38 1.975 1.15 5.43 4.113 6.91 4.77 3.128 1.318 15.306 8.23 18.926 13 1.646 2.14 4.608 1.647 6.418 2.964 4.772 3.29 17.28 11.023 18.924 13.985 1.48 2.632 12.836 10.53 13.33 12.34.33 2.14 5.595 4.61 5.924 6.42.165 1.81 7.24 6.582 9.874 8.557 3.456 2.468 2.468 1.645 6.09 5.43l1.15-1.645z" fill="#c56c39" stroke="#c56c39" stroke-width="0"/><path d="M462.44 479.545l.165-.33.165-.493.33-.494.164-.33.33-.492.163-.494.33-.33.33-.493.163-.497.33-.33.328-.328.165-.493.33-.33v-.164l.164-.166.164-.164.168-.164v-.164l.164-.165c3.95-4.114 3.293-6.582 9.546-11.19 2.304-1.646 1.316-6.747 1.316-6.747s0-1.646 1.318-4.608c1.152-2.962 5.924-8.557 8.722-11.52.987-1.15 1.974-4.936 1.974-6.746 0-1.48-.164-4.772 1.646-8.393v-.492c-3.62-3.785-2.468-2.633-5.924-5.102-2.47-1.975-9.71-6.91-9.874-8.557-.164-1.81-5.43-4.278-5.924-6.58-.494-1.647-11.85-9.546-13.33-12.18-1.48-3.125-14.152-10.695-18.924-14.15-1.81-1.317-4.772-.66-6.418-2.8-3.62-4.77-15.798-11.682-18.925-13.163-1.315-.494-4.77-3.456-6.91-4.608-1.152-.66-8.722-7.735-10.697-9.545-2.962-2.47-9.873-1.152-9.873-2.304.33-3.62-1.975-3.29-1.975-5.76-.165-4.606-5.595-4.77-6.912-8.227-.33-.658-7.405-5.76-10.367-8.557-2.304-1.975-2.962-.658-7.24-1.645-1.976-.33-2.963 1.81-4.444 2.798-1.645.986-8.722 6.58-10.367 7.404-1.81.823-6.748-.164-7.736.494-4.936 4.114-7.24 3.127-8.886 5.924-1.152 1.975-3.456 1.152-5.595 3.95-.66.823-2.8 2.14-4.115 2.468-1.646.494-2.304 2.962-5.595 3.456-3.95.658-5.76.164-10.203 0-4.61-.165-5.76.33-7.24.658-1.647.165-5.268.494-10.534.165-4.443-.166-9.544 2.303-9.544 2.303s-22.545 11.684-27.317 13.33l-2.14.987c-.164 1.48-1.645 4.773-3.126 5.596-1.32.822-2.965.33-3.787 1.48-.658 1.317.987 2.14 1.48 2.798.33.66 1.153 2.964-.164 3.95-1.646 1.154-2.305 2.964-3.127 3.95-.823 1.153-4.115 2.8-3.292 4.444.66 1.48 1.318 2.633 1.48 4.114.496 2.963-.985 4.444-1.15 5.596-.164 1.317 1.317 1.152.165 2.962-1.48 2.14-2.798 2.798-1.975 4.28.658 1.48-2.47.822-3.126.986-.823.33-1.48 1.152-1.81 2.633-.165 1.317.33 3.62-2.304 3.62s-6.42 0-7.242.824c-.987.822.658 2.303-.494 2.962-1.316.986-1.975 0-2.962 0-1.152 0-2.468 1.315-2.468 1.315s-.823 1.317-1.152 2.14c-.494.822-1.975 1.316-2.14 2.303-.164.824.823 1.318-.164 2.634-.494.99-1.646 1.482-2.798 2.14-1.152.66-1.645-.493-2.304 1.152-.493 1.317-.164 1.81-.822 2.634-.988 1.15-2.962 1.48-4.114 2.14-4.608 1.644-9.874 2.467-10.86 2.467-.99 0-7.078-.164-7.078-2.14-.33-3.62-3.29-3.95-3.62-5.1-.987-2.633-4.443-3.785-4.443-5.596-.168-2.466-9.054-1.643-9.38 0-.168 1.484 0 9.547 0 11.52-.168 3.128 0 6.91.655 23.04.33 10.697-.164 12.836 1.152 23.697.822 6.418 2.138 9.545 3.126 11.19l2.468-.658c-.33 0 3.62-.824 1.976-2.47 2.303-.164 2.467-2.303-1.482-2.47 2.797-.656 2.633-2.137.987-2.466 2.305-.66 3.29-1.482 2.305-2.8 1.974.33 1.316-1.48.822-2.138 1.48.33 2.468-.33 2.14-1.317 2.303 1.645 4.113-.165 1.316-1.317 1.974-.166 1.316-.988-1.646-1.482 1.152.33 3.29-.657 2.633-1.645 1.48 1.152 3.457-.658.988-2.633 1.646-.493 2.304-3.126 2.304-3.62.165 1.646-.493 4.77 1.317 4.28-.99.986-.825 1.973 2.466 1.973-2.96.494-3.784 2.633 0 2.962-1.48 1.152 2.305.823 3.95 1.48-2.468.33-2.797.99-1.81 1.483-2.468.822.33 1.81 4.115 2.303-3.62.166-4.443 2.47-2.797 3.457.823.658 2.14.33 3.29.165.99-.493 1.482-.822 2.634-1.316.99-.33 1.647-1.317-1.48-2.305 1.48.33 3.95.165 3.127-.493 3.62-.495 3.456-2.305-1.646-3.95 1.48.493 7.076-.33 4.28-1.81 1.315-.33.163-2.634-1.647-2.47 1.153-.494 1.48-2.47-.657-3.127 2.14 0 4.28-.33 2.304-1.48 1.315.163 2.303-.495 1.81-1.318 2.796.494 2.14-1.15.822-1.81.657-.33 2.796-.987.492-2.468 1.81.163 3.785-.166 3.456-.99 2.14-.164 3.62-2.47-.163-2.14.493-.492.987-1.48-.33-2.14 2.798 0 3.95-3.62 2.963-4.606 1.482.165 1.153-4.114.988-5.43.987 2.468 1.48 3.95 2.633 3.95-1.48.986.166 2.632 1.81 3.126-1.48.657 1.153 2.467 2.47 2.14-2.304 1.15-2.47 3.783 2.962 5.43-2.304-.33-.988 1.973 0 2.632-.823-.658-3.785-.658-2.962.66-1.15.328-1.81 2.467 1.646 1.48-.33.823 1.48 1.645 3.95 1.975-1.48 1.48-.823 2.14 1.152 2.468-.823.494-1.81 1.152-.33 2.14-1.316.987-2.962 3.126 2.963 3.29-2.63.988-.33 1.646 1.154 2.47-4.937-.166-3.456 3.784.164 3.948-1.975.66-.823 2.47 1.48 3.293-1.315 1.152 3.292 1.645 1.976-.66 2.797-.328 4.114-2.138 2.14-2.632 3.62-.986 1.316-5.265.164-5.1 1.645-.33 3.785-1.646 2.14-2.797 2.468.493 5.265-1.81-1.153-2.304 5.1-.66 3.785-2.8 1.48-3.622.66-.162 6.748.496 4.28-1.972 1.645-.494-.165-1.48-2.14-1.48 1.48-.33 3.62-1.976 1.646-2.964.823.165 1.81-.164.987-1.974.823.657 4.608.82 3.62-1.153 1.317-.494.165-1.48-.657-2.304 2.137-.823.82-3.785 0-4.443 11.19-.494.985-4.28.162-4.608 2.47 0 5.102-.66 3.785-1.976 5.595 1.152 2.468-3.456.823-4.278.66 0 2.798-1.317 1.482-2.633 2.633 1.316 4.443.822 1.81-1.975 1.152-.33.494-1.81-.494-1.975 2.47.33 2.47-5.1 2.47-5.1s1.644 4.936 4.113 5.265c-2.3.823-1.81 4.607-.162 4.772-.493 1.646 2.304 1.48 3.785 1.81-4.277 0-3.455 2.47.166 3.127-1.81.985 0 2.302 2.467 1.81-2.304.82-2.14 2.466.658 4.112-1.152.66-2.14 1.976-.987 3.292-1.81 0 0 2.47 3.456 3.127-4.442.165-5.43 1.48 0 3.456-.822.164-.493 1.48 1.482 2.14-2.962 1.316-2.798 3.784 2.468 3.95-1.974.657-.164 1.315 1.48 2.467-9.38.658-4.277 4.608-.657 3.95-3.29 1.48 1.81 1.15 3.785 2.14-3.29.328-7.075.822-5.594 1.81-1.81.328-1.975 2.796 5.595 2.796-1.315.66 1.153 3.126 2.305 3.784-8.722 1.152-4.608 2.47-.165 3.456-1.316.33-2.468 2.633 2.304 2.304-2.796.658-5.43 1.975-3.125 3.456 2.302 1.315 1.973 1.644 29.126 4.113 21.393 1.975 25.013 2.468 29.95 3.126 5.76.82 1.48-2.8-.33-4.28 8.723 1.48 4.28-2.8 3.128-3.786 1.152 0 3.785-.658 1.81-1.975 4.608.66 3.126-2.468 2.304-3.456 6.088-1.48 2.962-3.126.822-4.278 1.152-.33 2.14-.823 1.317-1.975 3.95 1.48 2.796-.493 1.315-1.48 1.645.165 3.95-2.47 1.48-3.62 2.633-.66 1.81-1.646 1.152-1.975 6.583-.33-.987-3.456.988-2.633 2.797-.823 4.937-4.114 2.468-4.937 2.305-.33 3.95-2.304 1.647-3.456 1.48-.66 1.48-2.634.823-3.785 4.278.658 2.962-2.963 1.81-3.292 3.127.494 3.456-6.747 3.456-6.747s.33 4.773 3.29 5.102c-1.81.985 1.645 3.124 3.127 3.62-2.797 0-3.126 1.81-1.81 2.466-2.468.165.165 3.127 2.14 3.785-4.114.66-.66 2.304.33 3.127-1.976.328-1.81 1.81.328 2.303-2.14.988-.33 3.29.658 3.62 1.152.33 2.304 0 3.456-.822 1.645-1.81-.495-3.126-1.48-3.62 3.947-.658 3.783-3.785 2.302-4.443 3.125-.165 2.303-3.62 1.15-4.443 2.305.164 2.47-2.962 2.634-4.773.658 2.47.493 4.443 2.14 5.1-1.976 2.634.328 4.61 1.81 4.444-1.153.658.164 2.633 1.645 3.127-3.95.988.823 3.95 1.81 3.95-2.14 2.14 1.48 3.785 1.48 3.785s-1.974 2.14-1.48 4.28c.494 2.138 3.785 1.644 4.77.82 1.977-1.644-.33-3.948-1.15-4.442 3.456-.164 2.633-3.95.988-4.443 3.29 0 7.57-1.15 2.797-2.303-.658 0 3.785-1.81.823-2.468 4.114.162 1.316-3.787 1.316-3.787s4.443-.494 2.14-2.304c2.467.494 2.796-1.81 2.796-1.81s-.494 2.962 3.126 3.95c-2.304 1.15.658 1.316 1.152 1.645-3.785 1.152-.823 2.633.987 3.127-2.14.493-1.81 2.14-.164 2.962-1.81.493.166 1.81 1.81 2.14-2.63 2.138-1.48 4.278.66 4.607-2.47 3.786 1.48 3.29 2.47 2.47.986-.494 1.48-1.48 1.15-2.14-.33-.658-.987-.658-1.81-.987 3.62-.988 1.81-3.127.66-3.785 4.77-.496 3.454-3.458 2.467-4.116 1.316-.165 2.633-.66 1.81-1.646 1.152-.166.658-1.317 1.152-2.963.164 2.14.657 3.785 1.645 4.114-.822.823.33 1.48.823 1.81-3.126-.658-.658 1.975.33 2.14-1.317 1.316-.165 1.81.822 1.81-.988.987-.33 1.316.822 1.645-1.316.988.33 3.127 2.633 2.304 3.457-1.153 0-3.29 0-3.29 1.976 0 3.457-.825 2.47-1.648 3.62.988 5.76-2.14 2.797-3.62 1.152-.33 2.47-2.962-.493-3.785 3.453.658 5.76-.33 3.782-2.962 1.975.165 1.81-1.645 1.975-2.797.494 2.304 1.317 2.47 2.14 2.47-1.317 1.48-.165 2.138.658 2.632-.328.822.494 1.973 1.975 1.81-.82.657.166 1.48 1.153 1.644-4.114.33-2.962 2.47-1.152 2.47-.33 1.314 0 1.81 2.306 1.48-1.482 1.81 1.15 2.14 2.14 2.14-3.457 0-2.964 3.95-.66 3.125-.164 2.14 3.292.66 4.443 1.153-2.47 2.304-1.81 4.114 3.29 3.127-2.47 3.455 1.975 2.468 2.305 1.316 3.125 2.14 4.113-.986 2.138-1.974 1.48-.162.987-1.314-1.152-1.972 2.8 0 2.14-.823 1.647-1.646 2.14.66 2.962-.493 2.14-1.81 2.303.33 2.303-2.303 2.303-2.303s.33 1.645 1.973 1.315c-.823 1.81.658 2.304 2.797 1.81-.823 1.81.165 2.47 1.646 2.634-.165.657 0 1.81.987 2.302l-.33.165z" fill="#99542c" stroke="#99542c" stroke-width="0"/><path d="M298.044 354.478l-.494-.164-.33.164h-1.316l-.658.165-.658.164-.658.165-.658.165-.66.164-.82.33-.66.33-.33.166-.328.164-.33.164-.493.165-.326.162-.493.165-.33.164-.493.33-.33.166-.493.165-.494.33-.33.164c-2.305 1.152-16.95 11.684-23.86 14.482-5.104 2.14-6.914 7.57-6.914 8.72.165 1.976 5.595.33 10.532-.82 6.088-1.812 6.417-2.634 6.746-4.115.165-.987 3.785-2.962 6.912-6.253 2.468-2.633-.494-3.29 1.81-4.608 2.468-1.646 7.405-6.91 9.544-7.57 2.14-.823 7.735-3.62 6.912-3.62zM434.3 389.53v.164h.165v.165h.165v.162l.165.164.164.165v.165l.162.165.164.165.165.165.165.165.165.165.165.165.33.33.33.328.328.33.164.164.165.164.165.168.164.164.167.166v.164l.164.164.167.165.164.163h.166v.165l.164.164c1.15.824 2.302 2.14 3.125.824.658-1.316-1.975-1.81-3.95-3.785-1.974-1.975-.987-2.8-3.126-3.62-2.14-.99-.825 1.15-.33 1.81zm-38.67-22.05h.164v.163l.164.33.165.164v.164l.164.168.165.33.33.164.163.33.165.164.165.33.33.33.163.328.165.33.493.494.494.658.494.658.33.165.164.33.33.327.163.164.33.33.167.33.164.163.165.165.165.33.327.163v.166h.164c1.48 1.48 3.458 3.29 4.445 4.772.823 1.48 1.975.66 2.14-.164.164-.987-3.456-4.278-2.14-4.278 1.152 0 2.304 2.962 3.95 4.443 1.48 1.48 2.962 3.62 3.62 4.936.823 1.48 2.304 2.962 4.443 4.937 2.14 1.974 2.304 3.62 2.304 3.62s.166-1.81 0-3.95c-.163-2.14-3.62-3.785-5.923-5.76-1.647-1.48-.824-3.29-2.305-5.1-1.48-1.647-6.253-9.875-7.57-10.862-1.316-.987-1.974 1.153-2.962 2.305-.822 1.152-2.96-3.95-4.113-5.595-.987-1.48-2.797-5.76-4.278-4.61-.824.658 1.644 6.253 2.14 7.57zm-34.23-10.04v.33h.165v.657h.164v.33l.162.163v.166l.164.165v.66c0 .987-1.152.493-1.152 1.316 0 .988-.33 2.962 1.646 3.292 1.976.33 2.14.493 3.457.164 1.48-.327 4.278.66 4.937-.327.823-.987-.66-2.304-1.646-2.798-1.153-.658-1.317-2.468-1.976-3.95-.658-1.316-2.797-1.974-4.937-1.974-1.316 0-1.15.66-.987 1.81zm29.292 17.938l.165.493.33.33.163.496.33.33.33.328.163.33.33.33.328.328.33.33.33.164.33.33.33.33.33.163.328.33.494.163.33.33.494.165.33.164.492.33.494.163.493.33.493.163.494.165.494.33.494.165.493.33.66.163.494.33.658.165.66.33.658.33.658.328c1.81.823-10.86-9.38-14.15-13.164-2.963-3.128-6.42-8.394-9.05-8.56-2.964-.33 8.39 10.04 9.707 12.673zm-69.61-15.634l-.33.165-.163.16h-.33l-.33.166-.33.164-.33.166-.33.33-.328.164-.494.33-.33.164-.33.33-.492.33-.33.163-.494.33-.823.658-.823.658-.823.658-.822.826-.33.33-.33.328-.492.33-.33.328-.33.33-.162.33-.33.33-.328.33-.165.327-.165.164c-1.316 1.81-.658 3.62-.164 3.95.494.33.987.494 1.645-.164.496-.494 1.32-2.798 2.635-3.62 1.482-.824 3.456-4.115 4.608-5.102 1.152-.988 5.102-4.608 2.47-3.95zm-20.405 9.545h-.658v.16h-.33l-.167.166h-.164l-.165.165h-.328v.165h-.165l-.164.165-.166.165h-.33v.165h-.165l-.166.165h-.164c-1.317 1.152-2.14 1.48-1.48 2.14.492.658 1.15 1.15 1.973.33.822-.824 2.14-2.634 2.797-2.963.823-.33.66-.823-.164-.823zm16.292-14.32h-.168l-.33.165h-.164l-.33.164-.33.165-.33.164-.327.164-.33.164-.492.163-.328.165-.33.33-.493.164-.33.165-.495.33-.823.493-.988.492-.823.33-.33.328-.493.166-.33.33-.492.164-.33.164-.33.165-.328.327-.33.164-.328.166h-.33l-.33.165-.164.164c-2.47 1.152-4.28 2.633-4.116 3.127 0 .66.66.824 2.798.988 2.14.164 2.14 0 4.114-1.48 1.81-1.483 4.772-4.116 6.09-5.268 1.48-1.48 3.29-3.456 2.632-3.29zm173.444 69.774h-.493l-.33-.165h-.33l-.33-.164h-.49l-.165-.165h-.494l-.163-.163h-.495l-.164-.165h-.493l-.165-.164c-3.95-1.154-5.595-2.964-15.47-3.95-1.973-.166-7.897-7.078-16.784-10.534-2.468-.823-17.937-10.203-19.912-10.532-6.747-.822-8.557-3.126-7.734-.987.494 1.152 2.962 2.633 3.127 6.747.162 1.316 1.81 5.924 1.81 5.924-.167 1.645-21.724-5.43-26.826-13.33-7.075-10.697-8.39-13.33-12.176-15.798-3.95-2.304-7.24-4.772-8.558-7.9-.494-.657-.165-2.138-1.317-2.303-2.305-.166-4.115.328-5.43-2.305-.824-1.646-2.305.823-3.457 1.81-.988.66-2.962.33-2.47 1.646.33 1.153-1.48 1.81-.657 2.47 3.62 3.455 1.81 6.582 3.457 7.24.658.165 1.48 2.468 1.316 3.95-.33 3.29 1.81 3.95 1.974 5.595 0 1.317.987 4.444 0 4.28-1.48-.33-3.95-1.974-5.924-3.785-1.81-1.645-3.29-1.645-3.62-3.126-.165-.66-1.81-1.647-3.95-5.43-.33-.99 3.127 5.1 4.28 9.214.82 2.962 2.302 6.253 3.948 8.392 1.48 1.974-.164 5.43-.164 5.43-.494 0-4.773-2.304-5.43-3.785-1.81-3.29-7.077-3.784-11.356-11.52-1.48-2.96.165-8.885.165-10.53 0-2.47-2.798-3.785-5.102-7.735-2.302-3.292.495-11.685 0-14.318-.492-2.304.66-5.924-.492-5.924-1.81.165-7.24 5.43-13.823 8.886-1.154.493-3.623 2.632-4.446 2.797-5.43 1.646-7.57 3.95-10.04 9.215-2.96 6.254-5.1 9.38-6.252 11.684-1.317 2.305.494 2.8-1.317 4.444-1.315.99-11.847 11.356-13.33 12.837-5.43 5.43-5.922 3.456-5.76 2.798.66-2.798 7.078-10.04 10.863-16.292 2.468-3.785-2.47.165-4.28-.823-3.126-1.81.165-5.595.824-6.088 1.316-1.48.33-2.633 1.15-3.62 2.305-2.47.824-2.798 1.647-3.457 1.48-1.152.823-1.152 0-.822-1.975.987-7.57 4.278-8.72 5.43-1.647 1.646-15.14 9.874-12.18 5.76.66-.823 1.81-2.14 3.127-3.127 1.48-1.482 2.47-3.786 2.634-5.102 0-.988-.163-2.14.495-2.798 6.91-5.924-.988-1.316-1.81-.494-2.305 2.47-9.38 6.583-12.343 8.393-1.975.987-7.57 3.62-8.064 5.1-.66 1.482-1.318 2.798-2.47 2.304-2.633-1.154-3.95-.495-6.09 1.315-2.14 1.647-3.29-.328-4.28-.164-3.29.66-5.1-.657-6.415-.33-2.304.66-11.85 7.407-14.646 6.585l-1.318.164-.494-.66-.165-.493c.164-.164 1.645-2.962 1.316-5.595-.163-1.48-.657-2.633-1.48-4.114-.66-1.646 2.633-3.29 3.456-4.444.823-.987 1.48-2.797 2.962-4.114 1.317-.823.658-2.798.165-3.456-.33-.823-1.975-1.974-1.317-3.126.658-1.317 2.47-.66 3.95-1.48 1.48-.99 2.797-4.28 2.797-5.926l2.14-.822c4.607-1.482 27.317-13.33 27.317-13.33s5.1-2.468 9.38-2.304c5.265.494 9.05 0 10.695-.164 1.48-.33 2.633-.823 7.076-.66 4.61.166 6.42.824 10.205.166 3.456-.658 3.95-3.127 5.595-3.62 1.48-.33 3.455-1.646 4.28-2.47 2.137-2.796 4.44-1.974 5.593-3.784 1.646-2.962 3.95-1.974 8.886-5.924.986-.823 5.923.33 7.57-.658 1.81-.823 8.885-6.418 10.365-7.24 1.646-1.153 2.633-3.292 4.608-2.963 4.28.987 4.937-.33 7.076 1.646 3.127 2.963 10.203 7.735 10.532 8.558 1.317 3.456 6.583 3.62 6.747 8.228.164 2.468 2.47 2.14 2.14 5.924-.166.987 6.91-.33 9.872 2.14 1.975 1.81 9.545 9.05 10.697 9.544 1.974 1.153 5.43 4.115 6.91 4.773 3.127 1.317 15.305 8.228 18.925 13 1.646 2.14 4.608 1.482 6.418 2.798 4.772 3.458 17.28 11.19 18.924 14.154 1.48 2.633 12.836 10.532 13.33 12.342.33 2.14 5.595 4.608 5.924 6.418.166 1.81 7.24 6.583 9.875 8.558 2.962 2.14 3.62 2.634 6.09 5.267l-.66 1.315z" fill="#fff" stroke="#fff" stroke-width="0"/><path d="M438.58 513.445v.164l-.165.162v.164l-.164.165v.33h-.162v.165l-.165.164v.165l-.163.164v.494l-.166.164v.327c-.822 2.633-3.29 17.28-3.455 20.57-.33 3.456-1.154 4.937-2.965 6.747-1.81 1.975-7.076 6.09-7.405 8.557-.164 2.304.658 10.532-.987 12.013-1.975 1.975-9.38 11.19-12.342 14.152-2.796 2.962-7.57 8.228-7.57 8.228l-2.63 3.785c1.315 1.645 3.126 7.075-.66 10.86-3.292 3.29-9.874 12.18-18.925 18.596-4.772 3.456-10.203 6.91-11.355 8.392-1.647 2.14-.66 6.417-1.976 7.24-2.47 1.317-6.583 6.253-8.393 6.912-2.302 1.152-2.14 2.468-2.796 4.443-.658 1.976-1.974 2.47-2.468 4.61-.987 3.29-6.09 10.86-9.38 16.127-2.14 3.29-5.43 3.95-9.05 6.582-6.583 4.442-5.43 2.303-16.457 12.67-3.787 2.8-8.724 8.393-10.37 9.545-1.48 1.48-6.09 8.063-9.05 11.025-3.127 2.964-6.09 4.774-20.077 7.407-3.126.82-6.253-1.318-11.848-1.318-2.798 0-10.368-4.28-13-5.926-2.14-1.317-5.76-2.962-7.24-4.114-6.255-4.113-9.38-5.265-11.356-6.09-2.14-.985-4.61-2.137-6.42-3.454-2.467-1.646-6.09-5.596-7.57-6.912-6.087-5.595-17.113-12.507-18.594-14.317-1.317-1.974-4.114-5.923-6.253-8.392-1.975-2.468-2.963-1.645-4.114-3.62-.66-.823-.33-8.557-.824-10.038-.33-1.646-.66-3.456-6.09-6.583-5.43-3.126-7.898-3.456-9.708-6.088-1.976-3.128-9.546-11.192-9.875-12.837-.494-1.81-1.152-6.75-1.48-8.395-.33-1.646-.988-4.443-4.773-6.91-1.318-.99-1.318-2.305-1.976-3.128-.494-.823-2.304-1.317-3.127-1.646-.987-.163-.987-1.974-1.48-4.442-1.317-7.735-3.786-10.368-6.748-13.824-2.964-3.29-6.255-6.253-7.24-6.747-2.306-.988-5.104-3.62-6.256-4.938-.987-1.153-2.14-2.47-2.14-4.28s-1.974-8.72-3.455-11.354c-2.14-3.786-3.95-8.888-8.23-14.81-5.265-6.913-8.227-8.394-9.872-10.04-1.153-1.15-1.318-4.114-.99-5.76.33-2.304-1.315-3.95-3.62-6.747-2.47-2.47-9.05-9.05-10.037-10.368-.822-.988-2.632-1.81-4.28-2.14-1.48-.33-3.125-3.784-4.112-4.443-.987-.66-1.152-1.975-1.152-3.95 0-.165-.164-.658-.657-1.48-.165-.66-.494-1.318-.823-2.14l-.33-.494c.494-.165 1.153-.494 1.646-.658 1.152-.494.988-.988-.493-1.152 1.153-.33 2.47-1.317 1.317-1.81 1.316-.66 2.468-2.14 1.316-2.47.823-.657 1.316-3.455 1.316-3.455s.33 1.646 1.48 2.798c-1.15 0 .164.658.66 1.152-.66.328.33.657.985 1.315-.99.33-.66.822.328 1.15-.658.495.494.66 1.48.33-.493.823-.986.823-.986.823s5.1-.494 7.734-2.305c2.634-1.81 1.647-2.468-.493-3.456 1.975-.66 6.912-2.14 5.266-3.62 1.317-.988-.493-1.646-2.14-1.976 5.925-1.315 6.254-2.302 5.596-2.632 3.126-1.81-.66-2.632-1.646-3.29 3.948.823 3.125-.493 2.632-1.48 3.29 1.48 3.455-1.976 2.14-2.963 1.315-.164 1.48-1.975-.495-3.127 3.29.33 5.267-.33 2.634-2.14 1.646-.657 1.81-1.48 1.152-2.138 1.81-1.152.658-2.304-.165-2.633 1.81-.824 1.647-2.8.66-3.292 1.48-1.81 2.14-5.925 2.14-5.925s0 3.127 2.303 4.773c-.824.822-.33 2.468.986 2.468-1.317 1.976-.494 2.634 1.81 2.963-.823 1.152-1.646 2.14 1.48 2.304-2.633 1.81-1.645 2.962.823 2.633-2.633.987-.987 2.633 1.81 2.14-1.974 1.48-1.974 3.126.988 2.632-2.797 1.48-3.126 3.456 1.317 3.292-1.48 0-2.962 3.95 2.633 5.1.495-4.443 2.14-35.05 2.47-40.647.164-6.087-.165-10.366-.165-10.366s-.493-.164-3.125 0c-2.47.33-3.62 1.153-7.57-.164s-4.608-.494-7.406-.33c-2.47.165-3.786-.164-6.583.823-2.96 1.15-6.09-.33-7.403-1.48-1.317-.99 0-3.293 2.14-3.293 4.77.165 5.76-1.48 6.252-2.303 1.316-2.633-1.81-2.14-2.305-3.456-.822-2.632-2.303-3.126-2.962-3.784-1.48-1.48-3.126-.658-3.95-.987-.822-.495-1.974-.66-1.48-2.963 0-.66-.494.164-2.304 0-1.81-.33-.66-.33-2.305-.66-1.48-.163-.494-1.644-2.468-1.973-1.48-.164-1.646.824-4.114.988-.823 0-4.28-.328-5.596-.822-1.316-.493-2.962.165-3.95-.658-1.15-.823-.657-2.304-1.15-4.114 0-.987 1.645-2.468 2.303-3.95.822-1.316 2.303-1.81 6.09-1.316 1.643.33 4.77.494 7.24.33 3.783-.494 1.973 1.15 4.77.986 2.798 0 6.254-1.645 6.42-3.29.33-1.482.33-3.127-.66-3.457-.987-.494-2.468-.494-3.455-1.81-1.15-1.317-.822-2.634-.822-3.95.164-1.152 1.81-2.633 3.456-3.62 3.29-2.14 1.48-3.292 2.466-3.62.987-.495 2.468-.988 4.443-.988 3.455-.166 4.936.986 7.57 1.15 2.96 0 5.923.824 8.062.824 5.925-.33.33-3.127 3.456-2.633 1.645 0 3.95-.493 5.594-1.15 2.797-1.318 2.797-3.95 4.278-5.267.823-.66.658-3.62.494-4.774 0-1.317-1.317-3.456-3.292-3.786-1.81-.33-3.62 0-5.924-.33-2.14-.327-2.633 0-3.785.33-1.315.33-1.315.495-2.467 1.318-1.317.987-2.14.987-3.127 1.975-1.316 1.152-.493 2.962-1.975 3.785-3.125 1.645-2.796-.165-4.277.164-1.48.164-2.634 0-3.786-.33-1.48-.33-3.785-.823-3.95-1.975-.164-1.315-.987-1.973-1.974-2.467-.823-.495-.988-1.318-1.975-1.318-1.153 0-1.647 0-3.128 1.152-1.316.988-.822 2.47-1.316 3.292-1.317 1.973-.988 3.454-2.304 3.454-1.48 0 0-1.48-2.468-.823-1.318.33-1.153 1.483-2.964 1.976-1.315.495-1.81.824-3.783 1.647-2.303.986-2.797-.166-4.772-.66-1.645-.494-2.468-1.646-4.772-1.646-1.646.165-.658-2.962 1.152-5.1 1.646-1.812 3.785-.66 5.266-2.47 2.797-3.456 2.797-1.48 3.456-4.278.493-1.81 2.633-.99 2.304-2.8-.33-1.974-1.81-.986-2.14-3.29-.164-1.317.33-3.456 2.304-3.785 1.975-.164 4.608.988 7.076-.822 1.81-.987 3.95-1.646 5.102-2.797.987-1.15.493-2.797 1.316-3.29.658-.494 2.633.164 2.14-2.634-.494-2.14-2.963-.66-4.608-2.14-1.152-.823-.823-1.81-1.81-1.975-2.798-.33-1.317 1.646-5.266-.658-1.646-.988-.33-1.647-1.646-2.47-1.48-.823-2.633 0-5.266-1.317-2.304-1.153-4.608.822-5.266-.824-.33-1.153-2.633-2.14-2.962-2.634-.33-.493-.823-1.316-.658-2.797.164-1.318-.165-3.128 1.152-3.786 1.316-.493 2.14-1.81 2.962-2.797 1.48-1.645.493-3.62 1.48-4.443 1.153-.987 3.127-5.1-2.138-2.14-1.646.824-3.785-.164-4.28.66-.493.657-4.113.657-4.113-.824 0-1.975 3.455-1.81 1.81-4.115-1.647-2.14-2.963-.822-2.963-3.126-.165-1.154 2.633-2.964 4.278-3.62 1.646-.66 4.115-2.14 7.735-.496 8.393 4.114 6.91.822 9.874.822 3.125.165 2.302 1.646 8.227 1.975 2.633.165 6.253.165 6.253-1.316 0-1.646-2.14-1.646-3.62-1.975-1.317-.33-3.292 1.315-4.444-.824-.82-.987 1.976-1.646 1.647-3.456 0-1.81-2.962.165-3.127-1.316-.493-2.14 1.48-4.114-.493-5.43-.823-.494-2.47-.988-3.95-.165-1.316.656-2.468 1.81-4.772-.33-2.467-1.976 1.317-2.96.166-4.61-.988-1.644-4.28.825-3.456-1.644.493-1.152 2.304-3.785 4.443-3.455 9.875 1.317 13.166-1.974 15.14-1.81 2.798.494 2.798 1.646 6.09 1.48 2.47-.163 3.62-2.632 8.064-2.796 7.24-.165 7.404 1.152 9.873 1.975 9.05 2.632 5.595-2.14 7.57-2.14 2.632.164 2.96-1.48 2.96-2.47 0-.822-1.48-1.316-3.62-1.81-1.974-.33-1.644-1.974-6.088-1.15-5.596 1.315-8.887.33-10.697 1.81-2.963 2.303-5.76 1.81-7.077-.495-1.152-1.975-4.608-3.126-5.595-2.797-3.126.82-4.772.492-5.594-.99-.988-1.48-2.633-3.29-4.608-3.785-1.81-.493-4.115 1.317-5.267-2.14-.99-2.467 1.975-2.796 2.96-4.113 1.154-1.315 0-2.632 1.154-3.455 1.81-1.316 4.937-3.126 4.608-4.278-1.645-3.293-2.632.492-3.62-.33-3.126-2.304-3.95.164-5.43-.494-1.646-.823 1.974-2.304 2.14-3.785.328-1.646-.66-3.127 1.81-5.266 4.113-3.29 1.15-3.29.822-4.443-.165-1.15.823-2.14.33-2.96-.495-1.154-1.646-1.32-1.81-2.306-.166-1.152 1.15-3.62 2.303-4.28.986-.657.163-1.81 4.936-2.96 4.937-1.153 1.974-3.292 1.974-4.115 0-.99.494-2.306 1.317-2.635.823-.33 1.646 0 2.962-.164 1.48-.164 2.14-.66 3.784-.493 1.646.33 1.48 1.152 2.797 1.48 1.318.166 2.305-.164 3.293-.164 2.138.165 2.96 1.48 4.77.823 1.81-.823 1.976-2.14 1.81-3.62 0-1.317-1.974-.33-1.81-1.646.166-1.314 1.317-.82 1.153-3.453 0-1.152-.165-2.14 1.645-2.633 1.976-.494 2.14-1.317 3.457-1.317 1.152.165 3.127 1.316 4.937 1.48 1.153 0 4.115-.328 4.444 1.153.494 1.81 1.152 2.96 1.48 4.113.166.823.166 1.81 1.318 2.304.658.164 1.316.823 1.316 2.14 0 1.974.494 7.075.494 7.075s.658 1.646 1.48 1.317c.988-.33 1.976-.826 2.305-6.75.164-1.317.987-13.823.164-14.975-1.315-2.304-.492-2.962-1.48-4.114-.987-1.15-2.14 0-2.14-1.15 0-1.317.166-3.456-1.48-3.785-2.304-.494-2.304 1.975-2.468 2.962 0 .987-1.646 1.316-3.62 1.316-1.317 0-2.963-.493-4.115-1.152-1.15-.492-1.48-.492-2.96-1.644-.824-.494-1.153-.987-.824-4.114.33-2.47 2.304-4.28 1.152-5.43-1.153-.988-1.48-1.317-4.608-1.317-2.963 0-5.102-.165-4.937-1.81.164-2.304 2.797-2.304 7.405-1.975 1.975.167 3.62-1.48 3.127-3.62-.165-.82.658-1.48.658-3.29-.165-1.974-2.14-3.29-3.785-2.304-2.14 1.152-3.456.33-4.937 1.152-2.96 1.975-4.607 1.317-6.09.494-.985-.657-1.972-1.974-1.314-3.455.658-1.48 1.316-1.645 1.48-3.455 0-1.646-1.974-1.81-.493-3.456 1.646-1.81 0-4.443 1.646-5.43 3.29-2.305.33-4.28 2.962-5.596 1.48-.823 1.81-2.962 1.81-4.608 0-1.48-1.81-1.81-.494-3.29 1.316-1.317.66-3.786 3.455-4.28 2.633-.33 4.28-1.48 6.418-2.468 1.48-.493 3.786-2.304 6.42-3.62 1.48-.823 1.81-.823 6.253-1.317 1.316-.164 3.95-2.14 5.1-3.455 1.153-1.317 2.47-1.646 5.102-1.81 1.48-.33 2.304.822 4.937 1.974 2.632 1.152 2.303 2.962 4.607 3.456 1.48.33 4.277-.33 2.796 2.304-1.152 1.975.66 3.455-1.974 3.785-1.482.33-2.633 1.15-2.633 1.975.163 1.81 1.973 2.47 3.95 3.292 2.137.822 2.137 2.303 3.29 3.62.822.823.987 3.456 1.316 5.1.33 1.482.33 2.963.33 4.28.163 1.316 1.15 2.468.986 4.608-.164 1.81-1.152 2.962-1.81 4.278-.823 1.318-1.48 2.963-1.975 3.95-.33 1.317-.164 3.127-.33 4.28-.328 1.316-.986 3.455 0 4.113.824.33 1.81 0 3.128.33.823.164 1.81 1.48 2.14 2.14.328.822-.165 3.125 2.468 3.62.988.164 1.81 1.15 1.81 1.974-.328 2.14-.987 3.95.824 6.09 1.152 1.48 2.633 1.15 5.1 1.15 2.47-.165 2.14-3.127 2.634-4.937.66-1.81 2.47-4.772 4.61-6.088 1.15-.658-1.153-3.62 4.77-4.114 5.925-.492 7.9-.33 8.887 1.318 2.14 4.608-.164 4.773-1.48 6.912-.66 1.316-1.976 1.645-1.976 3.784.166 3.292 3.95 2.634 3.95 4.115 0 .82-1.315.985-1.48 2.302 0 1.315 1.975 1.48 1.975 3.125 0 .823-3.127 2.798-1.152 4.114.987.823 1.974 1.48 2.304 5.267.33 1.645-2.304 1.48-2.14 3.29.165 2.305-.164 2.798-1.645 3.62-2.14 1.153-3.293 2.963-2.14 4.115 1.15.824 2.797.33 3.62 1.482.823.988-.658 4.772.658 5.924.824.822 3.95-.494 2.8 1.81-1.647 3.455 2.467 3.95-1.647 5.924-2.468 1.153-3.62 1.317-4.937 1.976-1.975.822-4.443 1.81-4.772 3.126-.328 1.48.33 3.62-1.645 3.95-1.81.164-1.81 2.633-1.318 3.455.492.99 1.973 1.975 1.973 3.127 0 1.317-.493 3.127-.164 5.1.164 1.483 1.15 2.635 2.304 3.293 1.152.494-.823 1.975-.165 2.798.657.823 2.47 1.646 5.594 1.646 2.633 0 6.09-.494 8.064-.494 2.14 0 1.315 1.317 2.303 2.14 1.976 1.48 4.774 0 5.926 1.15 1.975 1.812 3.29.99 3.785 2.8.33.986 1.317 1.315 1.81 2.467.33 1.152-.986 2.47.166 3.785.987.988.33 2.304-.165 3.292-.657.987-1.81 2.303-2.14 3.95-.33 1.48 0 2.632-1.48 3.948-.987.988-1.645 2.304-3.455 1.81-1.81-.328-3.62-.822-6.09-1.15-2.96-.66-2.96 1.15-3.784 2.138-.986 1.152-4.77 1.316-4.936 3.456-.164 1.48.494 1.48 4.28.987 1.315-.33 1.315 2.468.493 3.455-.66 1.48-1.81 3.785-4.774 5.1-1.81.66-4.278-2.632-5.1-2.467-1.81.33-3.292-1.315-4.61 0-1.315 1.154-2.303 1.154-3.455 1.81-.986.825.824 3.62-.492 3.62-1.317 0-2.962-.162-3.456 1.154-.66 1.81.657 2.798 1.974 3.292 1.152.493 2.962.987 2.962 1.974s-2.798 3.126-.33 4.113c3.127.988 1.482 1.975 3.95 2.798 2.633.825 7.9 1.648 14.81 4.116 4.773 1.646 8.064 2.962 8.887 4.608.658 1.316-.33 1.48-.165 2.468.33.99 1.81 2.305 4.773 3.457 1.318.657 2.8 1.645 3.128 3.126.33 1.317-2.468 1.153-1.81 5.102.165 2.14-1.975 2.14-1.646 4.608.166 2.468-.328 2.14-1.644 4.443-1.48 2.632-3.62 2.96-2.798 4.77.494.823 2.304.823 4.28.823 1.15 0 2.138.658 6.088.823 5.595.165 6.253-1.645 10.696-1.81 1.48 0 4.114.66 4.772 1.646.66.824.33 1.81.165 3.128 0 1.645-1.48 4.937-2.962 5.76-1.317.822-2.962.164-3.785 1.48-.658 1.317.987 2.14 1.48 2.798.33.66 1.153 2.963-.163 3.95-1.647 1.153-2.305 2.963-3.128 3.95-.823 1.152-4.114 2.798-3.29 4.443.657 1.48 1.315 2.633 1.48 4.114.493 2.962-.988 4.443-1.152 5.595-.165 1.316 1.316 1.15.164 2.797-1.48 2.304-2.797 2.797-1.974 4.278.658 1.646-2.47.988-3.127 1.152-.823.165-1.48 1.152-1.81 2.633-.33 1.316.33 3.455-2.304 3.455s-6.42.164-7.406.987c-.823.822.822 2.303-.33 2.962-1.316.822-1.974 0-2.962 0-1.152 0-2.468 1.315-2.468 1.315s-.987 1.315-1.317 2.14c-.33.82-1.81 1.314-1.974 2.14-.165.984.823 1.48-.165 2.794-.495.99-1.646 1.482-2.798 2.14-1.15.66-1.645-.493-2.468 1.152-.33 1.317 0 1.81-.658 2.634-.987 1.15-2.962 1.48-4.114 1.975-4.608 1.81-9.874 2.633-10.86 2.633-.99 0-7.077-.164-7.077-2.304-.33-3.456-3.29-3.786-3.62-4.938-1.153-2.632-4.444-3.784-4.444-5.595-.165-2.466-9.05-1.643-9.38 0-.165 1.32 0 9.547 0 11.357-.165 3.29 0 7.076.657 23.04.33 10.86-.164 13 1.152 23.86.82 6.418 2.14 9.545 3.125 11.19l2.468-.823c-.33.164 3.62-.66 1.81-2.304 2.47-.166 2.634-2.305-1.316-2.47 2.798-.658 2.633-2.304.987-2.468 2.304-.66 3.292-1.482 2.304-2.8 1.973.33 1.315-1.48.82-2.303 1.48.492 2.47-.166 1.976-1.154 2.468 1.482 4.28-.164 1.48-1.316 1.976-.165 1.317-1.152-1.645-1.48 1.152.164 3.292-.66 2.633-1.647 1.48 1.152 3.456-.658.988-2.797 1.48-.494 2.305-2.962 2.305-3.456.164 1.645-.494 4.607 1.316 4.113-.986 1.152-.822 2.14 2.47 2.14-2.96.328-3.784 2.632-.164 2.96-1.317 1.153 2.468.824 4.114 1.482-2.466.165-2.796.988-1.81 1.317-2.467.987.33 1.81 4.116 2.468-3.62.165-4.443 2.47-2.798 3.456.823.494 2.14.33 3.29 0 .99-.33 1.483-.823 2.634-1.152.99-.33 1.647-1.316-1.48-2.304 1.48.33 3.95.165 3.127-.493 3.62-.494 3.454-2.47-1.648-3.95 1.318.494 7.078-.493 4.28-1.81 1.317-.33.165-2.633-1.645-2.468 1.15-.497 1.48-2.47-.66-3.13 2.14 0 4.115-.33 2.305-1.48 1.317 0 2.304-.495 1.646-1.318 2.96.494 2.303-1.316.986-1.81.658-.493 2.798-.987.494-2.633 1.81.165 3.785 0 3.456-.823 2.14-.164 3.62-2.468-.165-2.14.494-.657.987-1.48-.33-2.138 2.8 0 3.95-3.62 2.8-4.61 1.644.166 1.315-4.277 1.15-5.43.99 2.47 1.317 3.95 2.47 3.95-1.318.823.33 2.633 1.973 2.96-1.48.825 1.153 2.635 2.47 2.306-2.304 1.152-2.47 3.785 2.962 5.266-2.304-.165-.987 2.14 0 2.633-.823-.494-3.785-.494-2.962.823-1.152.327-1.81 2.466 1.646 1.48-.495.822 1.48 1.48 3.95 1.974-1.483 1.48-.825 2.14 1.15 2.468-.823.494-1.81 1.152-.33 2.14-1.316.987-2.96 2.96 2.963 3.126-2.633 1.15-.33 1.81 1.152 2.632-4.937-.165-3.456 3.785.164 3.95-1.975.658-.823 2.468 1.48 3.29-1.316 1.153 3.292 1.646 1.975-.658 2.798-.33 4.114-2.14 2.14-2.633 3.62-.987 1.316-5.266.164-5.1 1.645-.495 3.784-1.647 2.14-2.963 2.467.658 5.264-1.646-1.154-2.14 5.102-.658 3.785-2.797 1.48-3.62.66-.33 6.748.494 4.28-1.974 1.646-.494-.164-1.646-2.14-1.48 1.482-.495 3.62-1.976 1.646-2.964.822.164 1.645-.165.987-2.14.822.823 4.606.823 3.455-.987 1.48-.495.164-1.647-.494-2.305 2.14-.824.823-3.786 0-4.444 11.19-.66.987-4.28 0-4.607 2.633 0 5.266-.824 3.95-1.976 5.594 1.152 2.47-3.62.822-4.278.66-.166 2.634-1.318 1.482-2.634 2.633 1.153 4.443.823 1.81-1.974 1.152-.33.494-1.81-.493-1.975 2.468.33 2.468-5.1 2.468-5.1s1.645 4.937 4.113 5.266c-2.302.823-1.81 4.443-.162 4.772-.494 1.646 2.303 1.48 3.785 1.646-4.28.165-3.456 2.634.164 3.127-1.81 1.152 0 2.47 2.467 1.975-2.303.823-2.303 2.468.66 4.114-1.153.66-2.14 1.975-.99 3.127-1.81.164 0 2.468 3.457 3.126-4.44.164-5.43 1.645 0 3.455-.82.33-.492 1.645 1.483 2.303-2.962 1.317-2.797 3.785 2.47 3.95-1.976.658-.166 1.316 1.48 2.468-9.38.66-4.28 4.61-.66 3.95-3.454 1.48 1.812 1.15 3.786 2.14-3.29.33-7.24.823-5.596 1.645-1.81.495-1.974 2.963 5.595 2.8-1.317.822 1.15 3.29 2.303 3.95-8.722 1.15-4.608 2.467-.164 3.454-1.318.328-2.47 2.632 2.302 2.14-2.796.82-5.43 2.138-3.125 3.62 2.304 1.315 1.975 1.644 29.127 3.948 21.393 2.14 25.014 2.633 29.95 3.292 5.76.822 1.48-2.798-.33-4.28 8.723 1.317 4.28-2.797 3.128-3.784 1.152 0 3.785-.658 1.81-1.975 4.608.66 3.127-2.633 2.304-3.455 6.09-1.482 2.96-3.127.822-4.28 1.152-.328 2.14-.822 1.316-1.974 3.95 1.48 2.798-.493 1.317-1.48 1.646.165 3.95-2.47 1.48-3.62 2.635-.66 1.81-1.646 1.154-2.14 6.582-.164-.988-3.29.823-2.47 2.963-.82 5.1-4.112 2.633-4.935 2.304-.33 3.95-2.303 1.646-3.455 1.316-.66 1.48-2.798.822-3.785 4.28.658 2.962-2.963 1.81-3.292 3.127.494 3.456-6.747 3.456-6.747s.33 4.774 3.29 5.103c-1.81.986 1.647 3.125 3.128 3.62-2.797 0-3.126 1.81-1.81 2.467-2.468.165.165 2.962 2.14 3.62-4.114.824-.823 2.47.33 3.292-1.976.328-1.81 1.81.328 2.303-2.14.987-.33 3.29.658 3.456 1.152.493 2.304.164 3.456-.823 1.646-1.646-.493-3.127-1.645-3.456 4.113-.657 3.783-3.784 2.467-4.442 3.128-.165 2.305-3.62.988-4.443 2.47 0 2.633-2.962 2.798-4.773.658 2.305.494 4.445 1.975 5.103-1.81 2.633.494 4.608 1.975 4.443-1.153.658.164 2.633 1.48 3.127-3.784.987.988 3.95 1.975 3.95-2.14 1.974 1.48 3.784 1.48 3.784s-1.974 2.14-1.48 4.113c.494 2.305 3.785 1.647 4.772.988 1.975-1.644-.33-3.95-1.15-4.442 3.454-.164 2.632-3.95.986-4.443 3.29 0 7.57-1.152 2.797-2.468-.658.164 3.785-1.646.823-2.304 4.114.164 1.317-3.785 1.317-3.785s4.443-.494 2.14-2.304c2.303.494 2.797-1.81 2.797-1.81s-.494 2.797 3.126 3.95c-2.304 1.15.658 1.15 1.152 1.645-3.785 1.15-.823 2.632.988 3.126-2.14.493-1.975 2.14-.165 2.962-1.81.33.166 1.81 1.81 2.14-2.632 1.974-1.48 4.278.66 4.607-2.633 3.62 1.482 3.127 2.47 2.47.986-.494 1.48-1.48 1.15-2.14-.328-.658-.987-.658-1.81-.987 3.62-.988 1.81-3.127.66-3.785 4.77-.495 3.455-3.457 2.467-4.115 1.317-.165 2.633-.66 1.81-1.646.988-.166.66-1.482 1.152-2.963.164 2.14.493 3.784 1.645 4.113-.822.824.33 1.482.824 1.81-3.128-.657-.66 1.976.33 2.14-1.483 1.152-.33 1.646.82 1.646-.987.986-.33 1.48.824 1.81-1.318.987.328 3.126 2.632 2.303 3.455-1.152 0-3.456 0-3.456 1.974 0 3.455-.658 2.468-1.645 3.62 1.15 5.76-1.976 2.797-3.457 1.153-.33 2.47-2.962-.492-3.785 3.455.658 5.76-.494 3.62-3.127 2.14.33 1.974-1.644 2.14-2.632.492 2.305 1.315 2.305 2.14 2.47-1.32 1.48-.167 2.14.656 2.633-.328.823.495 1.974 1.976 1.81-.823.658.164 1.48.987 1.48-3.95.33-2.798 2.634-.988 2.47-.33 1.48 0 1.974 2.303 1.645-1.482 1.81 1.15 2.14 2.14 2.14-3.457 0-2.963 3.784-.66 3.126-.164 2.14 3.292.66 4.444 1.152-2.47 2.304-1.81 4.114 3.29 3.127-2.467 3.454 1.976 2.467 2.305 1.315 3.125 2.14 4.113-.987 2.138-1.975 1.317-.163.988-1.48-1.152-1.973 2.8 0 2.14-.823 1.647-1.646 2.14.66 2.962-.492 2.14-1.973 2.303.495 2.303-2.14 2.303-2.14s.33 1.648 1.975 1.318c-.823 1.81.658 2.304 2.797 1.81-.823 1.81.165 2.304 1.48 2.47 0 .822.166 1.974 1.153 2.467l-.33.66c-1.15 1.974-1.81 3.62-1.81 4.607 0 1.975 1.153 3.62-.986 5.102l-.66.492c-19.91-1.315-52.824 1.647-66.318 3.128-14.81 1.48-21.558 2.14-21.558 2.14-30.115 4.278-21.23 4.936 19.747 10.038 12.34 1.48 13.493 2.304 16.62 2.468 3.126.165 4.772 1.152 15.47 2.468 5.1.66 13.657 2.798 15.632 2.963M106.165 335.06h.165l.33-.164h.33l.162-.165h.33l.164-.162.164-.164h.166l.164-.165h.33v-.165h.164v-.165h.165l.16-.165.166-.165c.823-.824 1.81-1.153 1.645-2.14-.163-.823 0-1.975 0-2.47 0-1.644-1.15-1.15-1.973-.657-.824.33-1.153 1.152-1.81 1.81-.824.494-1.812 1.317-3.128 1.81-1.48.494-2.305.988-1.81 1.81.492.66.163 1.482 1.315 1.81 1.152.33 2.14-.328 2.798-.493zm26 54.14v.33l.166.164v3.29l.168.165v.163l.164.164h.166c.987.164.987.822 2.14.987.657 0 .328-.988.986-1.317.824-.493 1.153 1.152 2.305-1.48.493-1.153 1.15-1.153 1.48-1.81.494-.824.33-2.14 0-2.963-.164-.823-.493-2.304-1.15-2.798-2.47-1.482-4.28-.66-4.445.658-.163.822-.986.822-1.15 1.645-.165 1.316-.988 1.48-.824 2.797zm26.167-31.266v.328h-.165v3.46l-.164.657v8.062l-.165.824v3.453l-.165.327v.822c-.164 1.48.33 2.962 1.152 2.962.823 0 1.48-.987 1.48-.987s.66-.823.66.33c.164 1.15-.165.987.164 1.316.655.494 1.48.494 2.3-1.15.66-1.81-.164-3.95 1.318-3.786 3.454.493 1.973-2.798 2.632-4.28.493-1.644.658-6.91.493-7.57-.164-.492-2.14.33-2.14-.657-.164-1.81.988-4.114-.986-4.114-1.483 0-.824 1.317-1.647 1.48-.823 0-.823.166-1.646-.163-.33-.986-.822-.986-1.48-1.315-.66-.164-1.317-.33-1.646 0zm-30.28-12.342v.988l.165.164v.33l.164.164v.33l.168.163.165.168v.164h.165v.166h.165l.164.165h.165l.164.165h.33c1.152.33 1.48 0 2.468.494 1.317.657 1.647.822 3.457.986 1.81.165 2.304-.164 2.304-.823 0-.822.494-2.14.823-2.468.33-.658.66-2.304-.164-2.633-.824-.164-2.14-.164-3.457-.822-1.152-.658-1.316-1.48-2.962-1.48-1.48 0-1.48.986-2.467 1.81-.823.822-1.646.328-1.81 1.974zm30.444-1.975v.33h-.164v.33h.164v.33h.165v.163h.33v.164h.166v.164h.33v.165h.163v.164h.164v.165h.164v.165c.494.493-1.152.822-.33 2.14.824 1.315 2.14.986 3.95 1.315 2.14.165.494.988 1.81 2.47.824.986 1.976 1.15 3.95 1.644 1.81.494.988 1.975 3.292 1.81 1.48-.164 5.263-.658 6.086-1.974.823-1.317 0-1.975-1.316-3.29-.493-.33.66-1.976-.328-3.622-.988-1.81-4.114-2.468-4.937-3.126-.988-.823-2.14-2.47-4.28-3.127-1.644-.494-.163-1.152-2.96-1.317-1.317 0-3.457 1.152-5.43 1.48-.99.166 0 1.976-.99 3.457zm-1.152-21.886h-.164v.824h.164v.33l.165.164v.165l.16.164.166.165v.166l.165.165v.165l.165.165.165.164.165.164v.166l.165.33.165.163.165.33.164.163.165.33.162.328.164.166.165.33.165.493.165.33c.495.985 1.976.327 4.28 1.48 1.81.822 2.797.492 4.28 1.15 1.644.66 1.81 1.81 2.796 2.47.987.822 1.316.33 2.303.822.82.327 1.15 1.48 2.47 2.302 1.15.823.82 1.48 2.3 1.81.988.165.824-.658 1.646-.33 1.152.33 1.81.33 2.47-.164.657-.66 0-1.482 0-2.634 0-.658 1.15-.164 1.15-.987.33-1.154-1.15-2.14-1.48-2.8-.33-.658 0-1.316-.988-2.96-.824-1.81-.824-.66-1.975-2.47-.823-1.48-.494-2.633-1.975-4.443-2.468-2.304-4.77-2.633-9.38-3.62-3.95-.823-8.227-1.975-9.544-.823-1.48 1.152-.33 2.633-1.152 5.266zm20.735-13.656h.162l.164-.165h.165l.165-.165.165-.165h.165v-.33h.165v-.33h.166v-.986l-.165-.165v-.166l-.162-.165v-.167h-.164v-.164h-.165l-.165-.166h-.165c-.66-.164-2.47-.658-3.786-.658-1.152 0-1.645-.987-4.608-1.152-2.962-.164-7.076-.494-9.71-.164-1.48 0-1.48 1.483-1.15 1.81 1.974 1.81.164 2.8-.33 3.457-.658.66-.33 1.152.494 1.975.986.824 2.303.824 3.126 1.153.987.33 1.645.988 2.962 1.152 1.316.165 4.607.988 5.43 1.152.988 0 1.81.163 2.14-.496.493-.822 1.645-1.48 2.797-1.974 1.152-.33.987-2.47 2.304-3.127zm-66.65-39.988v.33l.164.163v.164h.165l.164.164h.33l.164.165h.82l.164.166h.165c1.646 0 3.29.33 3.785-.495.494-.494 1.152-.823 1.81-.823.658 0 2.468.165 2.14-1.317-.165-1.48-2.47-1.645-4.937-1.48-1.153.164-3.293-1.317-4.774-.33-1.644.823.166 1.81-.163 3.292zm46.735 11.683v.82h.165v.166l.165.164.165.163.165.164h.165v.165h.33v.165h.163c.987.164 1.974-.66 2.633-1.152.493-.494 1.15-.988 1.974-1.646.824-.66 0-1.648-.822-1.648-.658 0-2.632.988-2.632.988s-1.646.66-2.47 1.646zm10.038-6.748l.165.166H171c1.316 0 2.14.33 4.443-.33 1.646-.328 1.646-.822 1.975-1.81.165-.987-.987-1.316-2.138-1.81-1.317-.493-3.292 0-4.773.33-1.483.164-3.293 1.974-3.293 1.974s.165 1.316.987 1.48zm-31.925-13v-.164l.164-.33v-.328l-.165-.164v-.66l-.165-.164v-.165h-.165v-.164h-.163v-.163h-.165v-.164h-.165v-.165h-.33l-.164-.163h-.164c-1.81-.66-4.28-.66-5.43-.494-1.154.163-4.445.657-5.597 1.15-1.153.33.986 1.975-2.47 1.317-.33-.164-1.316.658-.164 1.646 1.317.987 2.305.658 2.798.658.494 0 1.81 0 2.47.167.657.165.657.494 2.303.494 1.647.164 2.14-.494 4.116-.494 1.974-.165 3.29-.823 3.455-1.646zm19.91 3.128v-.165 1.81l-.163.164v2.962l-.165.328v.658l.165.33v1.48h.164c.494 1.48 1.48 1.316 1.81.658.66-.988.823-1.152 1.81-1.646.99-.33 0-3.128.494-4.28.66-.987 1.152-6.253.66-9.215-.33-1.316-.33-2.304-.99-3.456-.986-1.81-1.973-2.8-2.796-1.976-.824.987-.166 1.152-.824 3.455-.33 1.15-.165 10.202-.165 8.886zm17.774-23.04v.495h.165v.164h.163v.164h.328v.166h.495l.165.164h.66-.166c-.658-.164 1.81.823 2.47.33 1.315-1.482 2.302-1.317 2.96-2.963.33-.823.824-1.646 1.317-2.304.494-.658-.33-1.645-.987-1.81-.658-.165-1.152.165-2.47.823-1.315.657-2.303 1.644-3.125 2.303-.99.658-1.81 1.316-1.976 2.468zm-.494-10.037v.658h.166v.166l.164.164.165.165h.165l.164.164h1.81l.165-.165h.162c1.48-.33 2.47-1.81 3.455-2.633.987-.825 1.316-1.648 1.15-2.964-.328-1.317-3.784.33-3.126-.165.66-.33-2.14 1.81-2.633 2.14-.988.66-1.81 1.646-1.81 2.47zm-2.632-9.215h.494v-.164h.165v-.164h.164v-.164h.166v-.164l.164-.164.166-.165v-.165h.164v-.165c.658-.823 1.15-2.468.987-3.29-.165-.66 1.152-1.976.493-2.634-.658-.824-2.633 1.973-3.126 2.632-.33.822-1.646 2.796-1.48 3.62.163.657.82.986 1.644.986zm-15.14-.493v2.305l.165.33v.657l.166.165v.492l.164.165v.327l.165.494v.33l.164.163v1.316c-.163 1.81-.163 2.796.66 4.606.33.988-.823 7.57.164 8.23 1.152.492 1.81-1.318 2.633-2.305.823-.987 1.975-7.57 2.304-8.72.825-2.305 1.483-6.584 1.81-8.558.167-1.973-.162-5.923-1.15-9.38-.66-2.14-1.645-2.63-2.47-3.454-.985-.658-1.644-.494-1.973.164-.164.658-.493-.494-.493-.494-1.317-.658-1.646-.165-1.81.658-.33.494-.494 3.62-.988 4.772-.987 1.81.987 3.292.494 7.735zm-18.266-24.19h.33v-.164h.164v-.164h.165v-.328l.165-.165v-.493l.165-.165v-1.646h.165v-.33c0-.824.165-2.305-.658-3.62-.987-1.154-1.81-.166-2.304-.166l-.33 2.963c.33.33.824 1.316.824 2.303.164.988.494 2.14 1.316 1.975zm4.114-9.544h.824l.164-.164h.164l.165-.163h.33v-.165h.66v-.165c.823 0 1.152-.33 1.81-1.645.33-.988.165-2.47-.33-3.456-.328-.988-1.48-.166-2.138-.66-.658-.493-1.316-1.48-1.975-.987-.493.494-1.152 2.14-1.152 2.963 0 .822.823 3.455 1.48 4.443zm-1.316-17.114v.66h-.165v.33l-.164.162v.165l-.164.164v.33l-.164.165v.33l-.165.164v.492c-.164 1.48 1.81 3.292 2.14 3.785.164.495 3.126.824 3.29 0 .33-1.315-.164-1.973.165-4.277.33-1.975-1.48-2.633-2.14-3.785-.657-.987-1.316-1.48-1.81-.822-.658.494-.658 1.316-.822 2.14zm12.67-8.227v.33l-.163.163v1.645l-.165.164v.985s.165 2.14-.494 2.963c-.493.658-.164 1.15.33 1.81.658.493.822.33 1.48 0 .823-.33.494.823.823 1.316l1.976-.493c.165-.493.823-2.47.987-3.784.33-1.81.494-3.457.165-6.748-.33-3.457-3.457-1.483-3.457-1.483s-1.48.822-1.48 3.126zm-30.114 69.773l.165.165v.33h.166v.164l.164.164v.165h.166v.164l.164.164.164.164h.164v.166h.165l.165.164h.164l.165.165h.164v.165h.168l.164.164h.166l.164.166h.164l.164.164.165.165.165.164c1.316.987-.823 1.974.987 3.455 1.48.986.494 1.81 5.266 2.14 2.8 0 2.14-.824 4.61-1.976 2.14-.988-1.646-2.47-.99-4.114.167-.495-1.48-2.47-4.112-2.8-2.14-.163-2.14-2.14-3.125-2.632-.987-.494-1.974-.33-3.455-.658-1.48-.165-2.633-.823-3.29.33-.495.822.328 1.81.82 3.29zm46.736 167.524h.164v.165h.495v.164h.493l.164-.165h.822l.165-.164h.33l.328-.164h1.316c2.96.66 2.96 0 5.265-.163 2.963-.33 2.963-1.647 3.95-1.81 1.316 0 3.29 0 5.43-1.318.823-.658.823-1.48.66-2.14 0-1.316-.824-1.15-1.812-1.15-.987 0-.164-.66.823-.99.823-.163 1.646-.328 2.304-.986.496-.495.496-.988-.656-1.976-1.317-.658-1.975 0-12.342 2.962-10.367 2.963-9.38 5.266-8.556 5.595 1.48.166-.33 1.483.658 2.14z" fill="#2d4b1e" stroke="#30601b" stroke-width="0"/><path d="M97.115 427.38l-.33.164h-.492l-.165.164h-1.155l-.163-.164h-.82l-.494-.165h-.33l-.493-.168h-.492l-.163-.164H90.04l-.163.163c-3.785.824-13.33 1.318-19.418 2.14-1.32.33-1.48.33-7.57.824-3.62.33-7.407.658-8.395.164v.166c.33 1.316 1.152 3.29 2.304 5.924 1.315 3.127 3.784 11.684 4.28 13.658.49 1.975-.33 4.608.162 6.254.658 1.81 2.633 3.29 3.29 4.772.66 1.48 5.926 12.013 8.23 15.633 1.974 2.798 7.898 13.988 10.696 19.912l.164.163c.494-.165 1.152-.494 1.646-.658 1.152-.494.987-.823-.494-1.152 1.152-.165 2.47-1.317 1.317-1.81 1.316-.66 2.468-2.14 1.316-2.47.823-.657 1.317-3.455 1.317-3.455s.33 1.645 1.48 2.797c-1.15 0 .166.658.66 1.152-.66.328.328.657.987 1.315-.99.33-.66.822.328 1.15-.66.495.493.824 1.48.33-.493.823-.987.823-.987.823s5.104-.494 7.737-2.305c2.632-1.81 1.644-2.467-.495-3.455 1.975-.66 6.912-2.14 5.266-3.62 1.318-.988-.493-1.646-2.14-1.976 5.926-1.317 6.255-2.304 5.597-2.634 3.126-1.81-.658-2.632-1.646-3.29 3.95.823 3.127-.493 2.633-1.48 3.292 1.48 3.457-1.976 2.14-2.963 1.317-.164 1.482-1.975-.493-3.127 3.29.33 5.267-.33 2.634-2.14 1.645-.657 1.81-1.48 1.152-2.138 1.81-1.152.658-2.304-.165-2.633 1.81-.824 1.648-2.8.66-3.292 1.48-1.81 2.14-5.925 2.14-5.925s0 3.292 2.304 4.773c-.824.823-.33 2.47.986 2.47-1.318 1.974-.495 2.632 1.81 2.96-.824 1.153-1.646 2.305 1.48 2.305-2.633 1.81-1.646 2.962.823 2.633-2.633.987-.987 2.633 1.81 2.14-1.975 1.48-1.975 3.126.988 2.632-2.796 1.48-3.125 3.456 1.318 3.292-1.48 0-2.962 3.95 2.633 5.1.495-4.442 2.14-35.05 2.47-40.48.164-6.254-.165-10.37-.165-10.37s-.493-.328-3.126-.163c-2.47.33-3.62 1.15-7.57-.166s-4.608-.493-7.406-.164c-2.47 0-3.786-.33-6.583.657-2.96 1.152-6.09-.33-7.405-1.48-1.315-.988 0-3.292 2.14-3.292 3.456.166-4.442-.327-7.075.66z" fill="#99542c" stroke="#99542c" stroke-width="0"/><path d="M438.58 513.445h-.66l-.327-.165h-.823l-.33-.165h-.494l-.33-.164h-.492l-.494-.162-.494-.164h-.493l-.66-.165-.492-.165h-.656l-1.15-.33-1.153-.164-1.152-.33-1.152-.164-1.152-.164-.494-.163h-.66l-.494-.165h-.493l-.494-.165h-.496c-10.696-1.316-12.342-2.304-15.47-2.633-3.125-.164-4.277-.823-16.62-2.468-40.975-5.103-49.86-5.76-19.747-9.875 0 0 6.746-.823 21.557-2.304 13.33-1.48 46.406-4.443 66.318-2.962l-.494.33c-4.278 3.62-12.835 14.15-14.81 16.29-1.317 1.81-3.127 3.456-4.443 5.76-.33.165-.33.494-.66.66zM236.663 539.61h.33l.163-.165h.165l.167-.164h.165l.33-.162h.33l.164-.164.33-.165h.328l.495-.165.33-.165.49-.166h.33l.493-.164.494-.166.494-.164.494-.165h.495l.493-.164.657-.162h.493l.66-.165.493-.163h.658l.66-.166h1.15l.66-.164c7.735-.33 6.583.493 13.988 1.152.823.33 2.633.33 4.443.658 1.81.33 5.43.33 8.064 1.152 2.466.987 6.086 2.797 8.226 3.29 2.14.33 3.62.824 5.43 1.482 1.81.494 2.633.988 4.28 1.646 1.644.658 5.923 2.304 9.873 3.126 3.95.988 6.58 1.152 9.543 1.81 2.96.823 8.885 1.81 11.354 2.798 3.456 1.646 8.722 3.95 11.025 6.253 2.303 2.633 3.455 3.127 5.265 10.368.988 3.456 0 4.608-.822 8.557-.823 3.95-1.48 5.1-.988 6.418.33 1.48.165 3.62-.33 4.937-.657 1.316-1.48 1.645-1.974 2.468-.492.823-2.302 2.14-2.302 2.14s-.987-.33-1.316-.988c-.328-.494-.493-1.152-.986-1.81-.33-.823-1.153-1.646-.99-2.468.166-.825-.492-1.32.33-2.8.988-1.153 1.48-2.47 1.48-2.47s1.153-2.468 1.483-4.113c.33-1.646.988-4.608.823-5.596-.164-.985-.493-3.62-.493-3.62l-1.48-1.973s-1.647-.658-2.14.66c-.494 1.81-.33 1.315-1.482 5.43-.823 2.96-.493 2.138-1.975 5.76-1.48 3.62-2.303 4.442-2.797 6.58-.494 2.14 2.798 4.28 3.62 7.9.823 3.95 1.48 5.266 2.14 6.09.493.986.493 1.974 1.15 2.138.66.165 1.647.33.824 2.633-.658 2.14-2.797 7.075-3.126 9.71-.328 2.467-.164 4.112-.328 4.277 0 .33-.494.33-.66.823-.163.33-.163.493-.163 1.316 0 1.152-.33 4.114-.33 4.114s.33 1.152-.988 1.152c-1.152-.164-7.405-.164-8.228-.164-.824-.165-2.305-.66-1.976-1.646.165-1.316.33-3.29.988-3.785.824-.33 1.81-.823 1.81-.823s.824-2.14 1.153-3.126c.33-1.152.494-2.633.987-3.456.33-.823.66-3.62.66-4.608 0-.823.162-4.443-2.14-7.57-1.977-3.126-1.154-2.962-2.964-4.114-1.81-1.152-4.443-2.797-6.747-2.962-1.48-.164-3.62.658-4.938 1.152-1.153.658-3.62 1.81-5.76 2.798-2.47 1.316-4.773 2.468-5.76 2.962-.823.493-1.646.164-1.81-.823-.165-.987 0-1.975-1.152-1.975-1.152.33-1.646.33-2.962.823-.988.33-2.47 1.48-3.127 3.29-.494 1.81-.823 1.976-1.48 3.95-.33 1.153-.824 2.305-2.14 3.456-.988.822-.823.33-3.127 2.47-1.81 1.644-1.81 1.81-2.962 3.783-.986 2.14-.822 3.456-1.15 4.114-.33.658-.166 1.81-.33 2.304 0 .66-.165 2.306-.165 2.306s0 1.48-.658 1.48c-2.797 0-6.253.165-7.57.165-1.152 0-1.645-.492-1.316-1.315.823-1.975 1.81-2.798 1.975-3.29.164-.495.658-3.457.164-5.432-.33-.823-2.306-3.456-2.635-4.114-.33-.495-.33-2.305-1.152-2.8-.987-.657-2.468-2.467-2.797-2.96-.33-.66-2.798-1.975-3.785-1.975-1.15 0-7.405-1.317-8.886-2.14-1.48-.823-6.088-3.29-6.91-3.785-.824-.493-3.62-1.974-4.444-1.974-.82 0-1.81-.33-2.796.822-1.81 1.646-2.468 1.646-3.29 2.47-.988.657-.824.822-1.482 1.644-.493.99-1.81 3.457-2.138 4.28-1.81 3.62-3.456 3.127-3.456 3.127s-1.646.82-4.114-3.13c-2.47-3.95-3.456-5.43-3.456-5.43s-1.48-1.15-2.468-.987c-.988.165-3.785.658-4.444.658-.822-.33-1.974.166-2.797-1.15-.825-1.317-1.81-3.127-1.648-5.925.33-2.633-.986-4.443-1.15-5.266-.165-.66-1.153-1.646-1.81-3.62-.66-1.81-.495-4.28-1.81-6.913-1.482-2.14-2.14-6.91-2.14-6.91s0-1.153.164-3.128c.33-2.14 0-3.786.658-6.42.494-2.467 1.152-4.277 3.292-5.923 1.48-.987 2.633-3.127 4.607-3.95 1.647-.658 3.786-2.303 5.267-2.303 1.48 0 1.976-.988 5.103-.494 2.96.658 5.265 1.317 7.24.987 1.81-.33 3.95-.33 5.595-2.797 1.81-2.305 3.29-4.61 4.114-5.103.657-.493 4.113-2.797 4.113-2.797zm-18.925 28.14h.988l.165.164h.496l.164.165h.33l.163.162h.33l.164.164.164.165.33.165.166.165h.164l.164.165v.165h.165l.162.165v.165l.165.165.164.164v.162l.167.164v.165l.164.165v.165l.166.166v.494l.164.165v1.315c4.114-3.62 3.785-6.58 3.785-6.58s.33-4.444-3.126-8.065c-3.62-3.456-4.116-1.974-3.787.494.33 2.465 1.152 3.124.164 4.934-.822 1.975-2.14 4.114-2.14 4.114zm-7.076 6.747v.164h-.165v.168l-.164.165v.165h-.165v.165h-.164l-.165.164v.165h-.168l-.164.164h-.166c-.493.33-1.48 1.646.165 1.975 1.81.33 2.303.165 3.62 0 1.645-.33 2.797-.494 3.62-.823.987-.164 1.81-1.81 0-2.14-2.304-.657-2.633-1.974-4.114-1.81-1.48 0-1.646.988-1.975 1.482zm27.48-412.39h12.18l12.014 23.037h.164l-.165-23.038h8.722v34.064h-11.85l-12.505-23.203.33 23.203h-8.887v-34.064z" fill="#fff" stroke="#fff" stroke-width="0"/><path fill="none" stroke="#fff" stroke-width=".56" d="M238.143 162.106h12.178l12.016 23.038h.164l-.165-23.038h8.722v34.064h-11.85l-12.505-23.203.33 23.203h-8.887v-34.064z"/><path d="M288.993 162.106h11.684l13.658 34.064h-10.367l-2.633-7.24H287.84l-2.797 7.24H275.5l13.493-34.064zm5.924 7.076h-.165l-4.607 13.33h8.886l-4.11-13.33z" fill="#fff" stroke="#fff" stroke-width="0"/><path d="M288.993 162.106h11.683l13.66 34.064h-10.368l-2.633-7.24H287.84l-2.797 7.24H275.5l13.493-34.064zm5.924 7.076h-.165l-4.607 13.33h8.886l-4.11-13.33z" fill="none" stroke="#fff" stroke-width=".553"/><path fill="#fff" stroke="#fff" stroke-width="0" d="M321.247 168.853h-8.722v-6.747h26.988v6.747h-8.722v27.317h-9.54v-27.317z"/><path fill="none" stroke="#fff" stroke-width=".56" d="M321.247 168.853h-8.722v-6.747h26.988v6.747h-8.722v27.317h-9.54v-27.317z"/><path fill="#fff" stroke="#fff" stroke-width="0" d="M344.615 196.17h9.544v-34.064h-9.547v34.064z"/><path fill="none" stroke="#fff" stroke-width=".56" d="M344.615 196.17h9.544v-34.064h-9.547v34.064z"/><path d="M378.35 161.448h.987l1.152.164h.985l.987.165.987.164.823.33.988.167.823.33.823.328.823.33.657.33.823.492.66.494.658.494.494.493.66.494.493.66.494.493.492.658.494.66.33.822.493.66.33.823.327.823.165.823.33.823.164.824.164.987.166.824v1.975l.164.988c0 10.86-6.253 17.61-17.937 17.61-11.684 0-17.937-6.748-17.937-17.61 0-10.86 6.09-17.607 17.937-17.607zm0 28.47h.987l.494-.166h.497l.493-.164.33-.165.492-.164.33-.168.33-.33.493-.164.33-.33.328-.33.166-.163.33-.33.326-.493.165-.33.33-.33.163-.492.165-.33.33-.493.163-.33v-.494l.166-.493.165-.494.165-.495v-.492l.165-.494v-.99l.164-.49v-1.152c0-5.924-2.304-10.86-8.064-10.86-5.924 0-8.228 4.936-8.228 10.86 0 5.76 2.304 10.86 8.228 10.86z" fill="#fff" stroke="#fff" stroke-width="0"/><path d="M378.35 161.448h.987l1.152.164h.985l.987.165.987.164.823.33.988.167.823.33.823.328.823.33.657.33.823.492.66.494.66.494.492.493.66.494.493.66.494.493.492.658.494.66.33.822.493.66.33.823.327.823.165.823.33.823.164.824.164.987.166.824v1.975l.164.988c0 10.86-6.418 17.61-17.937 17.61-11.684 0-17.937-6.748-17.937-17.61 0-10.86 6.09-17.607 17.937-17.607zm0 28.633h.494l.493-.16h.494l.497-.166.493-.164h.33l.492-.33.33-.165.33-.164.493-.33.33-.162.328-.33.166-.328.33-.33.326-.33.165-.493.33-.33.163-.33.165-.492.33-.494.163-.33v-.49l.166-.494.165-.494.165-.493v-.494l.165-.494v-.99l.163-.49v-1.154c0-5.924-2.304-10.86-8.063-10.86-5.924 0-8.228 4.936-8.228 10.86 0 5.76 2.304 11.025 8.228 11.025z" fill="none" stroke="#fff" stroke-width=".553"/><path fill="#fff" stroke="#fff" stroke-width="0" d="M402.21 162.106h12.014l12.178 23.038h.164l-.33-23.038h8.723v34.064h-11.85L410.6 172.967l.33 23.203h-8.723v-34.064z"/><path fill="none" stroke="#fff" stroke-width=".56" d="M402.21 162.106h12.014l12.178 23.038h.164l-.33-23.038h8.723v34.064h-11.85L410.6 172.967l.33 23.203h-8.723v-34.064z"/><path d="M452.896 162.106h11.684l13.823 34.064h-10.367l-2.798-7.24h-13.33l-2.797 7.24h-9.706l13.494-34.064zm5.924 7.076h-.164l-4.608 13.33h8.886l-4.114-13.33z" fill="#fff" stroke="#fff" stroke-width="0"/><path d="M452.896 162.106h11.683l13.82 34.064h-10.368l-2.797-7.24h-13.33l-2.797 7.24H439.4l13.494-34.064zm5.924 7.076h-.165l-4.607 13.33h8.886l-4.114-13.33z" fill="none" stroke="#fff" stroke-width=".553"/><path fill="#fff" stroke="#fff" stroke-width="0" d="M482.682 162.106h9.38v27.317h14.81v6.747h-24.19v-34.064z"/><path fill="none" stroke="#fff" stroke-width=".56" d="M482.682 162.106h9.38v27.317h14.81v6.747h-24.19v-34.064z"/><path d="M302.158 216.74h11.684c11.19 0 16.456 3.62 16.456 11.19 0 6.912-5.43 11.026-14.48 11.026h-3.95v11.85h-9.71V216.74zm9.71 15.798h2.632c3.456 0 6.09-1.152 6.09-4.772 0-3.456-2.634-4.608-6.09-4.608h-2.633v9.38z" fill="#fff" stroke="#fff" stroke-width="0"/><path d="M302.158 216.74h11.684c11.19 0 16.456 3.62 16.456 11.19 0 6.912-5.43 11.026-14.482 11.026h-3.95v11.85h-9.708V216.74zm9.71 15.798h2.632c3.455 0 6.09-1.152 6.09-4.772 0-3.456-2.635-4.608-6.09-4.608h-2.633v9.38z" fill="none" stroke="#fff" stroke-width=".553"/><path d="M342.475 216.74h12.013l14.152 34.064h-10.86l-2.634-7.24h-13.823l-2.962 7.24h-9.87l13.987-34.064zm5.924 6.912l-4.775 13.494h9.216l-4.443-13.494z" fill="#fff" stroke="#fff" stroke-width="0"/><path d="M342.475 216.74h12.013l14.153 34.064h-10.86l-2.63-7.24h-13.825l-2.962 7.24h-9.872l13.988-34.064zm5.924 6.912l-4.775 13.494h9.215l-4.442-13.494z" fill="none" stroke="#fff" stroke-width=".553"/><path d="M372.755 216.74h17.443c6.583 0 11.85 2.798 11.85 8.558 0 4.607-2.305 7.57-7.077 8.72 3.13.824 3.294 3.293 5.104 7.407l3.62 9.38H393.49l-1.975-6.254c-2.14-5.756-3.29-7.24-7.076-7.24h-1.978v13.497h-9.71V216.74zm9.71 14.153h2.632c3.127 0 7.076-.165 7.076-3.95 0-3.29-3.456-3.785-7.076-3.785h-2.633v7.735z" fill="#fff" stroke="#fff" stroke-width="0"/><path d="M372.755 216.74h17.443c6.583 0 11.85 2.798 11.85 8.558 0 4.607-2.305 7.57-7.077 8.72 3.13.824 3.294 3.293 5.104 7.407l3.62 9.38H393.49l-1.975-6.254c-2.14-5.756-3.29-7.24-7.076-7.24h-1.978v13.497h-9.71V216.74zm9.71 14.153h2.632c3.126 0 7.076-.165 7.076-3.95 0-3.29-3.456-3.785-7.076-3.785h-2.633v7.735z" fill="none" stroke="#fff" stroke-width=".553"/><path fill="#fff" stroke="#fff" stroke-width="0" d="M408.63 216.74h9.708v13.988h.165l11.025-13.988h11.684l-13.494 15.798 14.646 18.266h-12.507l-11.354-15.468h-.165v15.468h-9.71V216.74z"/><path fill="none" stroke="#fff" stroke-width=".56" d="M408.63 216.74h9.708v13.988h.165l11.025-13.988h11.684l-13.494 15.798 14.646 18.266h-12.507l-11.354-15.468h-.165v15.468h-9.71V216.74z"/><path d="M262.992 297.046l.494.165.494.33.494.167.493.164.658.165.494.164.655.33h.66l.492.163.657.165.823.164h.66l.657.167h2.14c3.29 0 6.09-.495 6.09-3.293 0-6.417-17.28-2.303-17.28-14.646 0-8.23 8.556-10.367 15.96-10.367 3.457 0 6.913.33 9.38 1.153l-.657 7.076c-2.468-1.152-5.266-1.645-8.063-1.645-2.47 0-6.583.33-6.583 3.29 0 5.43 17.28 1.81 17.28 13.988 0 8.887-7.9 11.19-16.127 11.19-3.29 0-7.57-.493-10.696-1.48l.822-7.406z" fill="#fff" stroke="#fff" stroke-width="0"/><path d="M262.992 297.046l.494.165.494.33.494.167.493.164.658.165.494.164.655.33h.66l.492.163.657.165.823.164h.66l.657.167h2.14c3.29 0 6.09-.495 6.09-3.293 0-6.417-17.28-2.303-17.28-14.646 0-8.23 8.556-10.367 15.96-10.367 3.457 0 6.913.33 9.38 1.153l-.657 7.076c-2.468-1.152-5.266-1.645-8.063-1.645-2.47 0-6.583.33-6.583 3.29 0 5.43 17.28 1.81 17.28 13.988 0 8.887-7.9 11.19-16.127 11.19-3.29 0-7.57-.493-10.696-1.48l.822-7.406z" fill="none" stroke="#fff" stroke-width=".553"/><path fill="#fff" stroke="#fff" stroke-width="0" d="M294.917 271.374h25.672v6.418h-15.966v6.912h15.14v6.582h-15.14v7.57h16.456v6.583h-26.164V271.37z"/><path fill="none" stroke="#fff" stroke-width=".56" d="M294.917 271.374h25.672v6.418h-15.966v6.912h15.14v6.582h-15.14v7.57h16.456v6.583h-26.164V271.37z"/><path d="M327.336 271.375h17.28c6.417 0 11.683 2.797 11.683 8.557 0 4.608-2.307 7.57-6.915 8.722 3.127.823 3.29 3.456 5.102 7.57l3.62 9.215h-10.204l-2.14-6.256c-1.81-5.76-3.126-7.24-6.746-7.24h-1.975v13.493h-9.71v-34.065zm9.71 14.152h2.467c3.127 0 7.077-.164 7.077-3.95 0-3.126-3.292-3.784-7.077-3.784h-2.468v7.734z" fill="#fff" stroke="#fff" stroke-width="0"/><path d="M327.336 271.375h17.28c6.417 0 11.683 2.797 11.683 8.557 0 4.608-2.307 7.57-6.915 8.722 3.127.823 3.29 3.456 5.1 7.57l3.622 9.215h-10.204l-2.14-6.256c-1.81-5.76-3.126-7.24-6.746-7.24h-1.975v13.493h-9.71v-34.065zm9.71 14.152h2.467c3.127 0 7.076-.164 7.076-3.95 0-3.126-3.294-3.784-7.08-3.784h-2.467v7.734z" fill="none" stroke="#fff" stroke-width=".553"/><path fill="#fff" stroke="#fff" stroke-width="0" d="M360.248 271.374h10.367l8.064 26.66h.16l8.065-26.66h9.874l-12.34 34.066h-12.014l-12.177-34.066z"/><path fill="none" stroke="#fff" stroke-width=".56" d="M360.248 271.374h10.367l8.064 26.66h.16l8.065-26.66h9.874l-12.34 34.066h-12.014l-12.177-34.066z"/><path fill="#fff" stroke="#fff" stroke-width="0" d="M401.882 305.44h9.545v-34.066h-9.545v34.065z"/><path fill="none" stroke="#fff" stroke-width=".56" d="M401.882 305.44h9.545v-34.066h-9.545v34.065z"/><path d="M449.605 304.616l-.494.165-.655.167h-.494l-.493.165-.66.165h-.492l-.658.165h-.66l-.657.164h-.66l-.33.164h-1.644l-.33.165h-2.63c-9.71 0-20.9-4.608-20.9-17.28 0-12.012 8.886-17.772 20.9-17.772 3.62 0 7.24.66 10.695 1.648l-.656 7.406c-3.126-1.646-6.253-2.468-9.544-2.468-6.748 0-11.356 4.772-11.356 11.19 0 6.582 5.1 10.532 12.177 10.532 3.13 0 6.42-.823 9.05-1.646l.497 7.077z" fill="#fff" stroke="#fff" stroke-width="0"/><path d="M449.605 304.616l-.494.165-.655.167h-.494l-.493.165-.66.165h-.492l-.658.165h-.66l-.657.164h-.66l-.33.164h-1.644l-.33.165h-2.63c-9.71 0-20.9-4.608-20.9-17.28 0-12.012 8.886-17.772 20.9-17.772 3.62 0 7.24.66 10.695 1.648l-.656 7.406c-3.126-1.646-6.253-2.468-9.544-2.468-6.748 0-11.356 4.772-11.356 11.19 0 6.582 5.1 10.532 12.177 10.532 3.13 0 6.42-.823 9.05-1.646l.497 7.077z" fill="none" stroke="#fff" stroke-width=".553"/><path fill="#fff" stroke="#fff" stroke-width="0" d="M454.212 271.374h25.672v6.418h-15.962v6.912h15.14v6.582h-15.14v7.57h16.62v6.583h-26.33V271.37z"/><path fill="none" stroke="#fff" stroke-width=".56" d="M454.212 271.374h25.672v6.418h-15.962v6.912h15.14v6.582h-15.14v7.57h16.62v6.583h-26.33V271.37z"/></g></svg>