<svg xmlns="http://www.w3.org/2000/svg"><symbol viewBox="0 0 512 512" id="icon-activities"><title>activities</title><path d="M342.6 134.6q12.13 0 20.62-8.493 8.493-8.493 8.493-20.62t-8.493-20.63q-8.493-8.493-20.62-8.493-11.65 0-20.38 8.493-8.735 8.493-8.735 20.63 0 12.13 8.493 20.62 8.492 8.493 20.62 8.493zm93.66-66l-71.82 72.31h-42.71L249.42 68.6q-4.368-4.368-10.68-4.368-15.04 0-15.04 15.04 0 5.824 4.368 9.706l75.71 76.19v250.9q0 6.794 4.61 11.65 4.61 4.853 11.4 4.853 16.5 0 16.5-16.5v-136.4h13.1v136.4q0 6.795 4.853 11.65 4.854 4.854 11.65 4.854 6.795 0 11.65-4.853 4.854-4.852 4.854-11.65v-250.9l75.71-76.19q3.883-3.88 3.883-9.705 0-15.04-14.56-15.04-6.31 0-11.16 4.368zm-186.4 265q4.368 4.368 11.16 4.368 14.56 0 14.56-14.56 0-6.31-4.367-10.19l-60.66-61.15q-7.28-7.28-17.47-7.28h-60.66q-10.19 0-16.99 7.28l-61.15 61.15q-4.368 3.883-4.368 9.706 0 15.04 15.04 15.04 6.31 0 10.68-4.368l47.56-47.56v63.57h-53.38q-7.28 0-12.38 5.096-5.096 5.095-5.096 12.38 0 7.28 5.337 12.62l59.69 60.18q5.338 7.764 15.04 7.764 7.28 0 12.62-5.338 5.338-5.338 5.338-12.62 0-4.853-2.427-9.22l-33.48-33.97h98.03l-33.97 33.97q-2.426 4.367-2.426 9.22 0 7.28 5.096 12.62 5.095 5.338 12.86 5.338 9.706 0 15.04-7.764l59.69-59.69q5.338-5.34 5.338-13.1 0-7.28-5.095-12.38-5.095-5.096-12.38-5.096h-53.38v-62.6zm-86.38-95.12q12.13 0 20.62-8.493 8.493-8.492 8.493-20.62t-8.493-20.62q-8.492-8.493-20.62-8.493t-20.62 8.493q-8.493 8.493-8.493 20.62t8.493 20.62q8.493 8.493 20.62 8.493z"/></symbol><symbol viewBox="0 0 580 580" id="icon-amenity_bench"><title>amenity_bench</title><path stroke-width="param(outline-width) 1" d="M529.47 221.775H62.93v40h69.627v103.4h30v-103.4H429.84v103.4h30v-103.4h69.63z"/></symbol><symbol viewBox="0 0 512 512" id="icon-back"><title>back</title><path d="M68.7 256L275 50v67.8h168.32v276.4H275V462z"/></symbol><symbol viewBox="0 0 512 512" id="icon-beach"><title>beach</title><path d="M184.9 355.4c-14.58 0-22.43-8.027-27.62-13.34-4.493-4.595-6.112-6.05-10.3-6.05-4.178 0-5.802 1.455-10.3 6.05-5.19 5.31-13.04 13.34-27.62 13.34s-22.43-8.03-27.63-13.34c-4.5-4.59-6.12-6.05-10.31-6.05-6.694 0-12.12-5.424-12.12-12.12 0-6.694 5.424-12.12 12.12-12.12 14.58 0 22.43 8.027 27.63 13.34 4.493 4.595 6.117 6.05 10.3 6.05 4.178 0 5.802-1.455 10.3-6.05 5.19-5.312 13.04-13.34 27.62-13.34s22.43 8.027 27.62 13.34c4.498 4.595 6.117 6.05 10.3 6.05 4.18 0 5.802-1.455 10.3-6.05 5.196-5.312 13.04-13.34 27.62-13.34 6.694 0 12.12 5.424 12.12 12.12 0 6.694-5.424 12.12-12.12 12.12-4.178 0-5.797 1.454-10.29 6.05-5.2 5.31-13 13.34-27.6 13.34zm218.1 0c-14.58 0-22.43-8.027-27.62-13.34-4.498-4.595-6.112-6.05-10.3-6.05-4.178 0-5.797 1.455-10.3 6.05-5.2 5.31-13 13.34-27.6 13.34-14.58 0-22.43-8.027-27.63-13.33-4.498-4.6-6.122-6.054-10.31-6.054-6.694 0-12.12-5.424-12.12-12.12 0-6.694 5.424-12.12 12.12-12.12 14.58 0 22.44 8.027 27.63 13.34 4.498 4.595 6.122 6.05 10.3 6.05s5.797-1.455 10.3-6.05c5.19-5.312 13.04-13.34 27.62-13.34s22.43 8.027 27.62 13.34c4.498 4.595 6.117 6.05 10.3 6.05 4.178 0 5.797-1.455 10.3-6.05 5.196-5.312 13.04-13.34 27.62-13.34 6.693 0 12.12 5.424 12.12 12.12 0 6.694-5.424 12.12-12.12 12.12-4.18 0-5.797 1.454-10.3 6.05-5.3 5.3-13.1 13.33-27.7 13.33zm-72.8-77.55c-14.58 0-22.44-8.027-27.63-13.34-4.5-4.595-6.122-6.05-10.31-6.05-4.173 0-5.797 1.455-10.29 6.045-5.2 5.317-13.05 13.34-27.63 13.34s-22.43-8.027-27.62-13.34c-4.498-4.595-6.117-6.05-10.3-6.05-4.178 0-5.802 1.455-10.3 6.05-5.196 5.312-13.04 13.34-27.62 13.34s-22.42-8.027-27.62-13.34c-4.494-4.59-6.113-6.044-10.29-6.044-6.694 0-12.12-5.423-12.12-12.12 0-6.693 5.424-12.12 12.12-12.12 14.57 0 22.42 8.028 27.61 13.34 4.493 4.596 6.112 6.05 10.29 6.05s5.797-1.454 10.29-6.05c5.196-5.31 13.04-13.34 27.62-13.34s22.43 8.028 27.62 13.34c4.493 4.596 6.117 6.05 10.3 6.05s5.802-1.454 10.3-6.05c5.19-5.31 13.04-13.34 27.61-13.34 14.58 0 22.44 8.028 27.63 13.34 4.498 4.596 6.122 6.05 10.31 6.05 4.183 0 5.806-1.454 10.3-6.05 5.197-5.31 13.05-13.34 27.63-13.34 6.693 0 12.12 5.425 12.12 12.12 0 6.695-5.424 12.12-12.12 12.12-4.188 0-5.812 1.455-10.31 6.055-5.196 5.308-13.05 13.33-27.63 13.33zm119.7-77.56c-15.43 0-23.65-7.397-29.66-12.8-4.876-4.387-7.324-6.587-13.46-6.587-6.132 0-8.58 2.2-13.45 6.587-6.005 5.404-14.24 12.8-29.66 12.8s-23.64-7.4-29.65-12.81c-4.867-4.382-7.315-6.582-13.43-6.582-6.126 0-8.574 2.2-13.44 6.587-6.006 5.4-14.23 12.8-29.66 12.8-15.42 0-23.64-7.4-29.64-12.81-4.872-4.382-7.315-6.582-13.44-6.582-6.117 0-8.56 2.2-13.43 6.582-6.005 5.404-14.22 12.81-29.64 12.81s-23.64-7.4-29.64-12.81c-4.867-4.382-7.31-6.582-13.43-6.582-6.117 0-8.56 2.2-13.43 6.582-6.006 5.404-14.22 12.81-29.64 12.81s-23.64-7.4-29.64-12.81c-4.866-4.382-7.31-6.582-13.43-6.582-6.694 0-12.12-5.424-12.12-12.12 0-6.694 5.424-12.12 12.12-12.12 15.42 0 23.64 7.4 29.64 12.81 4.866 4.38 7.31 6.582 13.43 6.582 6.117 0 8.56-2.2 13.43-6.582 6.006-5.405 14.23-12.81 29.64-12.81 15.42 0 23.64 7.4 29.64 12.81 4.867 4.38 7.31 6.582 13.42 6.582 6.112 0 8.56-2.2 13.43-6.582 6.006-5.405 14.23-12.81 29.64-12.81 15.42 0 23.64 7.4 29.65 12.81 4.87 4.38 7.314 6.582 13.43 6.582 6.127 0 8.57-2.2 13.44-6.582 6.01-5.405 14.23-12.81 29.66-12.81 15.42 0 23.64 7.4 29.64 12.81 4.866 4.38 7.314 6.582 13.44 6.582 6.132 0 8.58-2.2 13.45-6.587 6.005-5.405 14.24-12.8 29.66-12.8s23.65 7.396 29.66 12.8c4.876 4.386 7.324 6.587 13.46 6.587 6.694 0 12.12 5.424 12.12 12.12 0 6.694-5.424 12.12-12.12 12.12z"/></symbol><symbol viewBox="0 0 580 580" id="icon-bench"><title>bench</title><path stroke-width="param(outline-width) 1" d="M529.47 221.775H62.93v40h69.627v103.4h30v-103.4H429.84v103.4h30v-103.4h69.63z"/></symbol><symbol viewBox="0 0 512 512" id="icon-bpark"><title>bpark</title><path d="M172.8 328.4q24.62 0 42.05 17.44 17.44 17.44 17.44 42.05 0 25.03-17.44 42.46-17.44 17.44-42.05 17.44-24.62 0-42.06-17.44t-17.44-42.46q0-24.62 17.44-42.05 17.44-17.44 42.06-17.44zm0 132.5q30.36 0 51.69-21.34 21.34-21.34 21.34-51.7 0-29.95-21.34-51.28-21.34-21.34-51.69-21.34-29.95 0-51.49 21.34t-21.54 51.28q0 30.36 21.54 51.7t51.49 21.34zm215-131.7q24.62 0 42.05 17.44 17.44 17.44 17.44 42.05 0 24.62-17.44 42.05-17.44 17.44-42.05 17.44-24.62 0-42.05-17.44-17.44-17.44-17.44-42.05 0-24.62 17.44-42.05 17.44-17.44 42.05-17.44zm-73.01 59.47q0 30.36 21.34 51.69 21.34 21.34 51.7 21.34t51.69-21.34q21.34-21.34 21.34-51.69 0-30.36-21.34-51.69-21.34-21.34-51.69-21.34-30.36 0-51.7 21.34t-21.34 51.69zm.41-178.1q11.08 0 19.28-8.002 8.21-8.003 8.21-19.49t-8.21-19.49q-8.207-8.002-19.28-8.002-11.49 0-19.49 8.002-8.002 8.002-8.002 19.49t8.003 19.49q8.003 8.002 19.49 8.002zm-109.9 87.82l59.08 32.82v61.95q0 6.564 4.72 11.28 4.717 4.718 11.28 4.718 6.566 0 11.28-4.718 4.716-4.718 4.716-11.28v-77.12q1.64-11.49-12.3-19.28l-34.05-18.05 36.92-36.51 17.64 27.9q4.513 6.975 11.49 6.975h53.33q12.31 0 12.31-10.67t-12.31-10.67h-45.95l-29.95-47.18q-6.153-9.845-18.87-10.67-9.023-1.23-17.23 6.974l-57.85 57.85q-6.153 6.152-6.153 15.59 0 13.54 11.89 20.1zm-59.77-138.6H95.58V91.61h49.95q14.23 0 24.15 9.924 9.925 9.924 9.925 24.15t-9.924 24.15q-9.923 9.924-24.15 9.924zm-.66-110.2H51.25v226.6h44.33v-72.77h49.29q32.09 0 54.58-22.5 22.5-22.5 22.5-54.26 0-32.09-22.5-54.58-22.5-22.5-54.58-22.5z"/></symbol><symbol viewBox="0 0 512 512" id="icon-camera"><title>camera</title><path d="M339.652 277.48c0 29.39-23.91 53.298-53.3 53.298-29.388 0-53.297-23.91-53.297-53.3 0-29.388 23.91-53.297 53.298-53.297 29.39 0 53.3 23.91 53.3 53.3zM462 148.124v267H50v-267h113.22c11.252 0 21.56-6.297 26.693-16.31l17.92-34.94h153.664l19.82 35.785c5.285 9.543 15.334 15.465 26.243 15.465H462zm-307.17 58.25c0-11.322-9.177-20.5-20.5-20.5s-20.5 9.178-20.5 20.5 9.18 20.5 20.5 20.5 20.5-9.178 20.5-20.5zM385.5 277.48c0-54.67-44.477-96.855-99.146-96.855-54.67 0-99.146 42.185-99.146 96.854 0 54.67 44.477 99.145 99.146 99.145 54.67 0 99.146-44.477 99.146-99.146zM142.33 104.624h-65.5v27h65.5v-27z"/></symbol><symbol viewBox="0 0 512 512" id="icon-caution"><title>caution</title><path d="M256 461.916L50.557 256.472 256 51.027 461.444 256.47 256 461.917zM107.125 256.472L256 405.348l148.876-148.876L256 107.596 107.124 256.472zm128.81-91.513h40.133V286.67h-40.133V164.96zM256 347.982c-11.96 0-21.656-9.694-21.656-21.656 0-11.96 9.695-21.656 21.656-21.656 11.96 0 21.656 9.697 21.656 21.657 0 11.962-9.697 21.656-21.656 21.656z"/></symbol><symbol viewBox="0 0 512 512" id="icon-chevron-down"><title>chevron-down</title><path d="M256 294.7L113.9 153.3V50L256 191.5 398.1 50v103.3L256 294.7zm142.1 25.83v-103.3L256 358.73l-142.1-141.4v103.3L256 462.03l142.1-141.5z"/></symbol><symbol viewBox="0 0 512 512" id="icon-comm-svc"><title>comm-svc</title><path d="M149.6 204.6l1.125-1.12 105.1-105.1.478-.488 108.8 108.8 48.09 48.1 23.94-23.93-72-72.1-67-67.02-41.8-41.78-41.8 41.78-63.8 63.82-75.81 75.8 23.94 23.9zm1.125 12.17l-1.13 1.12v244.1h76.68v-69.01h57.5v69.01h80.51v-242.1l-108.4-108.3-105.1 105.1zm94.72 153.2h-57.51V316.3h57.5v53.67zm0-72.84h-57.51v-53.68h57.5v53.68zm80.5 72.84h-57.51V316.3h57.51v53.67zm0-72.84h-57.51v-53.68h57.51v53.68zm-30.24-125.7v22.99h-27.27v27.27h-22.99v-27.27h-27.27v-22.99h27.27v-27.27h22.99v27.27h27.27z"/></symbol><symbol viewBox="0 0 512 512" id="icon-commserv"><title>commserv</title><path d="M149.6 204.6l1.125-1.12 105.1-105.1.478-.488 108.8 108.8 48.09 48.1 23.94-23.93-72-72.1-67-67.02-41.8-41.78-41.8 41.78-63.8 63.82-75.81 75.8 23.94 23.9zm1.125 12.17l-1.13 1.12v244.1h76.68v-69.01h57.5v69.01h80.51v-242.1l-108.4-108.3-105.1 105.1zm94.72 153.2h-57.51V316.3h57.5v53.67zm0-72.84h-57.51v-53.68h57.5v53.68zm80.5 72.84h-57.51V316.3h57.51v53.67zm0-72.84h-57.51v-53.68h57.51v53.68zm-30.24-125.7v22.99h-27.27v27.27h-22.99v-27.27h-27.27v-22.99h27.27v-27.27h22.99v27.27h27.27z"/></symbol><symbol viewBox="0 0 512 512" id="icon-conc"><title>conc</title><path d="M391 120.666H201.66c2.24-11.363 6.163-22.283 11.89-32h-61.318c-5.523 8.822-9.618 17.526-11.974 32H121L74.667 304h362.666L391 120.666zM146.747 267.084h-21.74l3.41-15.09 21.2.038-2.87 15.052zm4.27-22.39l-20.938-.058 3.41-15.09 20.398.096-2.87 15.052zm4.4-23.08l-20.108-.116 3.41-15.09 19.57.155-2.87 15.05zm25.844 45.47h-21.74l2.552-15.03 21.202.04-2.014 14.99zm2.995-22.3l-20.938-.056 2.553-15.03 20.398.097-2.013 14.99zm3.088-22.984l-20.11-.116 2.553-15.03 19.57.156-2.013 14.99zm2.68-58.134h-39.453c-3.475-23.287-.513-49.897 7.79-65h38.6c-8.707 17.634-9.542 47.163-6.937 65zm194.235 81.668l-20.938-.057-2.603-14.66 20.396.096 3.144 14.62zm-4.82-22.42l-20.11-.116-2.604-14.66 19.57.155 3.144 14.62zM221 150.666h142.167l6 28.5H218.5l2.5-28.5zm46.652 79.513l.14 14.836-20.938-.06.4-14.874 20.398.097zm-20.185-8.032l.4-14.874 19.57.155.14 14.835-20.11-.117zm-13.98 44.936h-21.74l1.256-14.936 21.2.038-.716 14.898zm1.067-22.16l-20.938-.058 1.257-14.937 20.398.095-.716 14.9zm1.098-22.844l-20.11-.116 1.257-14.937 19.57.155-.718 14.898zm10.608 45.004l.4-14.875 21.2.038.14 14.836h-21.74zm31.94-59.57l19.57.156.977 14.776-20.11-.117-.436-14.815zm.67 22.717l20.398.097.977 14.776-20.938-.057-.436-14.815zm1.088 36.854l-.437-14.814 21.2.038.978 14.776h-21.74zm46.435-59.187l19.57.155 2.306 14.68-20.11-.115-1.767-14.72zm2.708 22.57l20.398.097 2.308 14.683-20.938-.06-1.767-14.72zm2.63 21.897l54.06.1 3.145 14.62h-55.44l-1.766-14.72zM50 333.666v89.668h412v-89.668H50zM256 391c-6.904 0-12.5-5.596-12.5-12.5 0-6.902 5.596-12.5 12.5-12.5 6.903 0 12.5 5.598 12.5 12.5 0 6.904-5.597 12.5-12.5 12.5zm-6.625-15h13.438v5h-13.438v-5z"/></symbol><symbol viewBox="0 0 512 512" id="icon-concession"><title>concession</title><path d="M391 120.666H201.66c2.24-11.363 6.163-22.283 11.89-32h-61.318c-5.523 8.822-9.618 17.526-11.974 32H121L74.667 304h362.666L391 120.666zM146.747 267.084h-21.74l3.41-15.09 21.2.038-2.87 15.052zm4.27-22.39l-20.938-.058 3.41-15.09 20.398.096-2.87 15.052zm4.4-23.08l-20.108-.116 3.41-15.09 19.57.155-2.87 15.05zm25.844 45.47h-21.74l2.552-15.03 21.202.04-2.014 14.99zm2.995-22.3l-20.938-.056 2.553-15.03 20.398.097-2.013 14.99zm3.088-22.984l-20.11-.116 2.553-15.03 19.57.156-2.013 14.99zm2.68-58.134h-39.453c-3.475-23.287-.513-49.897 7.79-65h38.6c-8.707 17.634-9.542 47.163-6.937 65zm194.235 81.668l-20.938-.057-2.603-14.66 20.396.096 3.144 14.62zm-4.82-22.42l-20.11-.116-2.604-14.66 19.57.155 3.144 14.62zM221 150.666h142.167l6 28.5H218.5l2.5-28.5zm46.652 79.513l.14 14.836-20.938-.06.4-14.874 20.398.097zm-20.185-8.032l.4-14.874 19.57.155.14 14.835-20.11-.117zm-13.98 44.936h-21.74l1.256-14.936 21.2.038-.716 14.898zm1.067-22.16l-20.938-.058 1.257-14.937 20.398.095-.716 14.9zm1.098-22.844l-20.11-.116 1.257-14.937 19.57.155-.718 14.898zm10.608 45.004l.4-14.875 21.2.038.14 14.836h-21.74zm31.94-59.57l19.57.156.977 14.776-20.11-.117-.436-14.815zm.67 22.717l20.398.097.977 14.776-20.938-.057-.436-14.815zm1.088 36.854l-.437-14.814 21.2.038.978 14.776h-21.74zm46.435-59.187l19.57.155 2.306 14.68-20.11-.115-1.767-14.72zm2.708 22.57l20.398.097 2.308 14.683-20.938-.06-1.767-14.72zm2.63 21.897l54.06.1 3.145 14.62h-55.44l-1.766-14.72zM50 333.666v89.668h412v-89.668H50zM256 391c-6.904 0-12.5-5.596-12.5-12.5 0-6.902 5.596-12.5 12.5-12.5 6.903 0 12.5 5.598 12.5 12.5 0 6.904-5.597 12.5-12.5 12.5zm-6.625-15h13.438v5h-13.438v-5z"/></symbol><symbol viewBox="0 0 512 512" id="icon-enable-full"><title>enable-full</title><path d="M157.943 426.942L192.94 462H50V319.062l35.058 34.997 57.253-57.255 72.885 72.886-57.252 57.252zM319.063 50l34.996 35.058-56.08 56.08 72.884 72.884 56.08-56.08L462 192.938V50H319.062zM85.057 157.943L50 192.94V50h142.938L157.94 85.058l57.254 57.253-72.886 72.885-57.25-57.252zM462 319.063l-35.058 34.996-56.08-56.08-72.884 72.884 56.08 56.08L319.062 462H462V319.062z"/></symbol><symbol viewBox="0 0 512 512" id="icon-face"><title>face</title><path d="M256 90c91.74 0 166 74.243 166 166 0 91.742-74.243 166-166 166-91.74 0-166-74.243-166-166 0-91.74 74.244-166 166-166m0-40C142.23 50 50 142.23 50 256s92.23 206 206 206 206-92.23 206-206S369.77 50 256 50zm-56.334 131.5c-17.12 0-31 13.88-31 31s13.88 31 31 31c17.12 0 31-13.88 31-31s-13.88-31-31-31zm116.667 0c-17.12 0-31 13.88-31 31s13.88 31 31 31 31-13.88 31-31-13.88-31-31-31zm40 102.834c-27 21.333-56.666 34.47-98.333 34.47s-71.333-13.137-98.334-34.47l-8.79 8.79C171 323.835 208 356.805 258 356.805s87-32.97 107.125-63.68l-8.79-8.79z"/></symbol><symbol viewBox="0 0 512 512" id="icon-fall"><title>fall</title><path d="M256 50l-31.86 62.13c-3.617 6.753-10.09 6.127-16.58 2.357l-23.07-12.49 17.19 95.44c3.617 17.44-7.985 17.44-13.71 9.9l-40.26-47.12-6.54 23.93c-.75 3.14-4.06 6.44-9.034 5.656l-50.88-11.2 13.38 50.8c2.86 11.31 5.096 15.99-2.888 18.98l-18.14 8.916 87.63 74.42c3.47 2.813 5.224 7.877 3.988 12.46l-7.672 26.32c30.18-3.643 57.23-6.898 87.4-10.53 2.678-.04 7.123 2.343 7.102 5.577l-3.996 96.41h14.67l-2.307-96.2c-.02-3.234 4.014-5.822 6.695-5.784 30.17 3.63 57.23 6.884 87.4 10.53l-7.664-26.32c-1.236-4.58.515-9.65 3.985-12.46l87.64-74.42-18.15-8.916c-7.984-2.983-5.75-7.667-2.885-18.98l13.37-50.83-50.91 11.19c-4.972.783-8.29-2.513-9.04-5.656l-6.537-23.93-40.26 47.12c-5.728 7.54-17.33 7.54-13.71-9.9l17.19-95.44-23.07 12.49c-6.478 3.775-12.96 4.397-16.57-2.356l-31.9-62z"/></symbol><symbol viewBox="0 0 512 512" id="icon-food"><title>food</title><path d="M165.9 211.8v226.3q0 23.85 21.82 23.85t21.82-23.85V211.8q11.67 0 20.04-8.625 8.372-8.626 8.372-18.77v-126.3q0-8.118-8.12-8.118-7.61 0-7.61 7.61v92.85h-27.91v-92.35q0-8.117-7.103-8.117-7.612 0-7.612 7.61v92.85h-26.89V58.6q0-8.625-7.61-8.625-8.12 0-8.12 8.118v124.3q0 13.19 8.626 21.31 8.626 8.118 20.3 8.118zm164.9 226.3q0 23.34 22.33 23.34 21.82 0 21.82-23.34V87q0-17.25-10.66-27.91-9.64-9.133-22.83-9.133-13.7 0-23.34 9.133Q307.46 69.75 307.46 87v211.6h23.34v139.5z"/></symbol><symbol viewBox="0 0 579.997 579.997" id="icon-gas"><title>gas</title><path stroke-width="param(outline-width) 0" d="M474.745 442.244c-.02-.663-.038-1.254-.04-1.77-.144-51.11-47.357-80.054-71.96-91.67l-1.614-146.978-69.725-58.71v-96.91h-226.23v487.583h226.23v-1.216c.376 0 .762.008 1.136.008 59.266 0 99.232-11.302 122.064-34.484 21.112-21.437 20.406-46.44 20.14-55.854zM289.152 93.61v105.627H147.417V93.61h141.735zm134.843 374.345c-8.114 8.24-30.886 21.834-92.59 21.665V199.278l26.983 22.72 1.72 156.605 14.412 4.888c.57.195 57.122 20.4 57.225 57.103.003.83.026 1.79.057 2.864.192 6.797.454 16.108-7.807 24.498z"/></symbol><symbol viewBox="0 0 512 512" id="icon-grade"><title>grade</title><path d="M127.2 249.5c9.986-7.84 21.29-11.01 33.92-9.488 12.63 1.517 22.87 7.27 30.71 17.26 7.975 10.16 11.2 21.54 9.682 34.17s-7.27 22.87-17.26 30.7c-9.988 7.847-21.3 11-33.92 9.49-12.63-1.52-22.93-7.357-30.9-17.51-7.843-9.983-11.01-21.29-9.487-33.92 1.518-12.63 7.27-22.87 17.26-30.71zm63.34 80.65c12.32-9.673 19.4-22.23 21.26-37.69 1.857-15.45-2.052-29.34-11.72-41.65-9.542-12.15-22.04-19.15-37.49-21.01-15.45-1.862-29.34 2.046-41.65 11.72-12.15 9.54-19.2 22.07-21.14 37.59-1.94 15.52 1.858 29.35 11.4 41.5 9.672 12.31 22.28 19.37 37.81 21.16 15.54 1.794 29.38-2.08 41.53-11.62zm67.88-182.9c9.99-7.843 21.3-11.01 33.93-9.486 12.62 1.516 22.86 7.268 30.7 17.26 7.845 9.987 11.01 21.29 9.492 33.92-1.516 12.63-7.272 22.87-17.26 30.71-9.985 7.84-21.29 11-33.92 9.488-12.63-1.518-22.86-7.272-30.71-17.26-7.846-9.988-11.01-21.29-9.49-33.92 1.52-12.63 7.27-22.87 17.26-30.71zm-16.01 71.08c9.676 12.32 22.24 19.4 37.69 21.26s29.34-2.05 41.65-11.72c12.32-9.676 19.4-22.23 21.26-37.69 1.857-15.46-2.052-29.34-11.72-41.66-9.67-12.32-22.23-19.4-37.68-21.26-15.38-2.57-29.33 1.925-41.66 11.72-12.26 9.74-19.4 22.23-21.26 37.69-1.86 15.45 2.045 29.34 11.72 41.65zm-84.8-108.6c4.49-3.526 7.128-8.22 7.908-14.08.778-5.86-.664-11.12-4.322-15.78-3.662-4.662-8.428-7.307-14.3-7.934-5.88-.634-11.06.814-15.56 4.344-4.66 3.662-7.34 8.39-8.033 14.18-.7 5.8.783 11.02 4.443 15.68 3.657 4.662 8.385 7.34 14.18 8.037 5.795.697 11.02-.787 15.68-4.447zm-24.93 106l51.64-8.267 29.61 37.7c2.09 2.667 4.843 4.2 8.26 4.613 3.416.41 6.46-.43 9.12-2.52 2.666-2.093 4.2-4.847 4.613-8.265.408-3.415-.428-6.454-2.524-9.12l-36.85-46.93c-2.996-5.183-8.563-7.135-16.7-5.854l-29.34 5.302 5.015-39.86 24.07 8.544c4.052 1.39 7.49.976 10.32-1.25l32.4-25.5c4.993-3.918 5.793-8.042 2.395-12.37-3.403-4.327-7.598-4.53-12.59-.61l-27.96 21.96-40.77-14.4c-5.633-2.034-11.16-1.193-16.58 2.526-4.053 2.373-6.435 6.532-7.152 12.48l-7.555 62.85c-.535 4.457.698 8.595 3.705 12.43 4.314 5.487 9.93 7.67 16.84 6.54zm329.3-94.04s.387 249.2-.213 318.1c-145.5.717-411.7 0-411.7 0z"/></symbol><symbol viewBox="0 0 512 512" id="icon-grass"><title>grass</title><path d="M108.8 90.46c1.5 89.08 34.5 146.8 47.1 264.1-29.8-82.4-75-166.9-93.38-189.8 10.12 86.5 82.78 174.9 89.18 297.1 71.67.356 127.2-.54 197 0 28.1-94.8 55.5-192.3 100.8-281.7-46.8 57.2-85.7 108.3-116 152.5 27.1-72 55-133.6 78.1-195.6-31.5 27.08-76.4 108.1-114.7 191.1 9.3-87.5 27-166.9 28.2-235.1-14.9 25.45-44.4 99.19-68.1 179.3-4.8-96.23-12.8-188.3-24.4-222.4 1.5 76.34-2.4 160.6-8 255.2-13.6-53.3-34.1-115.1-63.4-184.6 11.6 81.41 31.8 168.2 38.6 254.5-18.9-128.6-66.2-242-91-284.6z"/></symbol><symbol viewBox="0 0 512 512" id="icon-historic"><title>historic</title><path d="M353.1 255.4H159.9v89.22q0 43.65 2.198 57.3 2.198 13.37 10.92 19.92 9.004 6.55 33.83 6.55h9.548v12.55h-166.4v-12.55h9.548q23.74 0 32.74-6.003 9.276-6.005 11.73-18.56 2.72-12.82 2.72-59.21v-181.4q0-44.2-2.72-57.03-2.47-12.82-10.93-17.74-8.184-4.91-36.29-4.91h-6.82v-12.55h166.4v12.55h-6.822q-27.01 0-35.47 4.638-8.46 4.366-11.46 16.64-2.72 12.28-2.72 58.39v73.4h193.2v-73.4q0-44.2-2.458-57.03-2.458-12.82-10.91-17.74-8.188-4.91-36.29-4.91h-9.82v-12.55h168.3v12.55h-5.458q-27.28 0-35.74 4.638-8.46 4.366-11.46 16.64-2.72 12.28-2.72 58.39v181.4q0 43.65 1.9 57.3 2.2 13.37 11.19 19.92 9.005 6.55 33.83 6.55h8.457v12.55h-168.3v-12.55h12.82q23.47 0 32.47-6.003 9.276-6.005 11.73-18.56 2.458-12.82 2.458-59.21v-89.22z"/></symbol><symbol viewBox="0 0 512 512" id="icon-info"><title>info</title><path d="M256 90.002c91.74 0 166 74.24 166 165.998 0 91.74-74.245 165.998-166 165.998-91.738 0-166-74.242-166-165.998 0-91.74 74.243-165.998 166-165.998m0-40C142.23 50.002 50 142.228 50 256c0 113.77 92.23 205.998 206 205.998S462 369.768 462 256c0-113.772-92.23-205.998-206-205.998zm-3.434 321.806c-28.21 9.913-51.466-1.455-46.8-28.547 4.666-27.097 31.435-85.108 35.254-96.078 3.816-10.97-3.502-13.977-11.346-9.513-4.524 2.61-11.248 7.84-17.02 12.924-1.6-3.223-3.852-6.906-5.542-10.433 9.42-9.438 25.164-22.093 43.803-26.68 22.27-5.497 59.492 3.29 43.494 45.858-11.425 30.34-19.504 51.276-24.595 66.868-5.088 15.598.955 18.868 9.863 12.79 6.96-4.75 14.372-11.213 19.806-16.225 2.515 4.087 3.32 5.39 5.806 10.085-9.433 9.67-34.108 32.296-52.724 38.953zm58.45-187.68c-12.795 10.89-31.76 10.654-42.37-.533-10.607-11.18-8.837-29.076 3.955-39.97 12.795-10.89 31.764-10.653 42.37.526 10.607 11.187 8.84 29.08-3.954 39.977z"/></symbol><symbol viewBox="0 0 512 512" id="icon-layers"><title>layers</title><path d="M422.486 232.958L462 256 255.966 376.166 50 256l39.497-23.042 166.47 97.125 166.52-97.125zm-166.52 182.957L89.496 318.8 50 341.833 255.966 462 462 341.834 422.486 318.8l-166.52 97.115zM462 170.167L255.966 50 50 170.167l205.966 120.167L462 170.167z"/></symbol><symbol viewBox="0 0 512 512" id="icon-list"><title>list</title><path d="M123.027 413.5H50v-65h73.027v65zm0-190H50v65h73.027v-65zm0-125H50v65h73.027v-65zm45 0v65H462v-65H168.027zm0 190H462v-65H168.027v65zm0 125H462v-65H168.027v65z"/></symbol><symbol viewBox="0 0 512 512" id="icon-locate"><title>locate</title><path d="M462 256c0-7.738-.502-15.36-1.35-22.89h-23.14c-10.3-82.8-75.8-148.3-158.6-158.6V51.39c-7.5-.88-15.2-1.38-22.9-1.38-7.738 0-15.36.502-22.89 1.347v23.14c-82.8 10.32-148.3 75.81-158.6 158.6H51.4c-.88 7.5-1.38 15.2-1.38 22.9 0 7.738.503 15.36 1.35 22.89h23.14c10.32 82.78 75.83 148.3 158.6 158.6v23.14c7.53.803 15.15 1.326 22.89 1.326 7.736 0 15.36-.502 22.89-1.347v-23.14c82.77-10.35 148.3-75.84 158.6-158.6h23.14c.9-7.5 1.4-15.1 1.4-22.9zM278.9 391.3v-20.83c0-12.66-10.26-22.89-22.89-22.89s-22.89 10.23-22.89 22.89v20.83c-57.4-9.7-102.7-54.9-112.3-112.4h20.8c12.66 0 22.89-10.26 22.89-22.89s-10.23-22.89-22.89-22.89h-20.83c9.6-57.4 54.9-102.7 112.3-112.4v20.83c0 12.63 10.26 22.89 22.89 22.89s22.89-10.26 22.89-22.89v-20.83c57.47 9.667 102.7 54.92 112.4 112.4h-20.83c-12.66 0-22.89 10.26-22.89 22.89s10.23 22.89 22.89 22.89h20.83c-9.7 57.5-54.9 102.7-112.4 112.4z"/></symbol><symbol viewBox="0 0 512 512" id="icon-lodging"><title>lodging</title><path d="M83.58 317.5h344.3v63.96h33.58v-95.94H83.56v-138.6q0-16.52-16.52-16.52-17.06 0-17.06 16.52v234.5h33.58v-63.96zm51.7-102.9q12.79 0 21.59-8.795 8.795-8.794 8.795-21.59 0-12.79-8.795-21.59-8.794-8.794-21.59-8.794-12.79 0-21.59 8.795-8.794 8.795-8.794 21.59 0 12.79 8.794 21.59 8.795 8.795 21.59 8.795zm-29.85 30.91q0 14.92 14.92 14.92h341.7v-41.57q0-21.85-23.98-23.98l-238.8-23.8q-.533 0-1.066-.533-15.46 0-15.46 14.92v45.3h-62.36q-14.92 0-14.92 14.92z"/></symbol><symbol viewBox="0 0 512 512" id="icon-mainpoints"><title>mainpoints</title><path d="M256 60.082l62.98 129.92L462 209.75 357.9 309.793l25.415 142.125L256 383.828l-127.315 68.09L154.1 309.793 50 209.75l143.02-19.748z"/></symbol><symbol viewBox="0 0 512 512" id="icon-map-pin-wide-empty"><title>map-pin-wide-empty</title><path d="M256.002 50c-77.07 0-139.55 62.48-139.55 139.544 0 1.653.05 3.333.125 5.03.523 14.66 3.287 28.738 7.988 41.91C154.335 334.342 256.002 462 256.002 462S357.654 334.354 387.43 236.496c4.71-13.172 7.47-27.262 7.988-41.92.08-1.7.128-3.375.128-5.032C395.546 112.48 333.07 50 256.002 50z"/></symbol><symbol viewBox="0 0 100 100" id="icon-map-pin"><title>map-pin</title><path d="M50 0C31.294 0 16.13 15.165 16.13 33.87c0 .4.01.81.03 1.22.126 3.56.797 6.976 1.938 10.173C25.324 69.015 50 100 50 100s24.673-30.982 31.9-54.734c1.143-3.197 1.813-6.617 1.94-10.175.02-.41.03-.818.03-1.22C83.87 15.165 68.706 0 50 0zm0 50.46c-9.16 0-16.59-7.43-16.59-16.59S40.84 17.282 50 17.282c9.162 0 16.59 7.428 16.59 16.588S59.16 50.46 50 50.46z"/></symbol><symbol viewBox="0 0 512 512" id="icon-maple-leaf"><title>maple-leaf</title><path d="M256 50l-31.86 62.13c-3.617 6.753-10.09 6.127-16.58 2.357l-23.07-12.49 17.19 95.44c3.617 17.44-7.985 17.44-13.71 9.9l-40.26-47.12-6.54 23.93c-.75 3.14-4.06 6.44-9.034 5.656l-50.88-11.2 13.38 50.8c2.86 11.31 5.096 15.99-2.888 18.98l-18.14 8.916 87.63 74.42c3.47 2.813 5.224 7.877 3.988 12.46l-7.672 26.32c30.18-3.643 57.23-6.898 87.4-10.53 2.678-.04 7.123 2.343 7.102 5.577l-3.996 96.41h14.67l-2.307-96.2c-.02-3.234 4.014-5.822 6.695-5.784 30.17 3.63 57.23 6.884 87.4 10.53l-7.664-26.32c-1.236-4.58.515-9.65 3.985-12.46l87.64-74.42-18.15-8.916c-7.984-2.983-5.75-7.667-2.885-18.98l13.37-50.83-50.91 11.19c-4.972.783-8.29-2.513-9.04-5.656l-6.537-23.93-40.26 47.12c-5.728 7.54-17.33 7.54-13.71-9.9l17.19-95.44-23.07 12.49c-6.478 3.775-12.96 4.397-16.57-2.356l-31.9-62z"/></symbol><symbol viewBox="0 0 512 512" id="icon-mountain"><title>mountain</title><path d="M333.5 434.6H73.2c43.38-75.13 86.76-150.3 130.1-225.4 43.38 75.13 86.76 150.3 130.1 225.4zM462 401.5L328.8 156.1l-69.1 125.8 69.1 119.6zM252.3 270.8l-49-80.9-98.7 167.9H50L211.9 77.4l75.7 131.1z"/></symbol><symbol viewBox="0 0 512 512" id="icon-other-comm"><title>other-comm</title><g transform="translate(0 -540.4)" color="#000" fill-rule="evenodd"><circle r="53.7" style="text-decoration-color:#000000;solid-color:#000000;text-decoration-line:none;mix-blend-mode:normal;white-space:normal;text-decoration-style:solid;isolation:auto" cx="103.7" cy="796.4"/><circle cx="256" cy="796.4" r="53.7" style="text-decoration-color:#000000;solid-color:#000000;text-decoration-line:none;mix-blend-mode:normal;white-space:normal;text-decoration-style:solid;isolation:auto"/><circle r="53.7" style="text-decoration-color:#000000;solid-color:#000000;text-decoration-line:none;mix-blend-mode:normal;white-space:normal;text-decoration-style:solid;isolation:auto" cx="408.3" cy="796.4"/></g></symbol><symbol viewBox="0 0 512 512" id="icon-other-feat"><title>other-feat</title><g transform="translate(0 -540.4)" color="#000" fill-rule="evenodd"><circle r="53.7" style="text-decoration-color:#000000;solid-color:#000000;text-decoration-line:none;mix-blend-mode:normal;white-space:normal;text-decoration-style:solid;isolation:auto" cx="103.7" cy="796.4"/><circle cx="256" cy="796.4" r="53.7" style="text-decoration-color:#000000;solid-color:#000000;text-decoration-line:none;mix-blend-mode:normal;white-space:normal;text-decoration-style:solid;isolation:auto"/><circle r="53.7" style="text-decoration-color:#000000;solid-color:#000000;text-decoration-line:none;mix-blend-mode:normal;white-space:normal;text-decoration-style:solid;isolation:auto" cx="408.3" cy="796.4"/></g></symbol><symbol viewBox="0 0 512 512" id="icon-other"><title>other</title><g transform="translate(0 -540.4)" color="#000" fill-rule="evenodd"><circle r="53.7" style="text-decoration-color:#000000;solid-color:#000000;text-decoration-line:none;mix-blend-mode:normal;white-space:normal;text-decoration-style:solid;isolation:auto" cx="103.7" cy="796.4"/><circle cx="256" cy="796.4" r="53.7" style="text-decoration-color:#000000;solid-color:#000000;text-decoration-line:none;mix-blend-mode:normal;white-space:normal;text-decoration-style:solid;isolation:auto"/><circle r="53.7" style="text-decoration-color:#000000;solid-color:#000000;text-decoration-line:none;mix-blend-mode:normal;white-space:normal;text-decoration-style:solid;isolation:auto" cx="408.3" cy="796.4"/></g></symbol><symbol viewBox="0 0 512 512" id="icon-parking"><title>parking</title><path d="M272.3 250.2h-90.83V126.3h90.83q25.86 0 43.91 18.04t18.05 43.91q0 25.86-18.05 43.91-18.04 18.04-43.91 18.04zm-1.203-200.3h-170.2v412h80.6V329.6h89.62q58.35 0 99.25-40.9t40.9-98.65q0-58.35-40.9-99.25t-99.25-40.9z"/></symbol><symbol viewBox="0 0 2560 2560" id="icon-ranger"><title>ranger</title><path d="M1486.006 574.434h166.498q45.152 0 67.728 25.398 11.288 14.11 22.576 31.042 42.33 39.508 81.838 39.508h183.43V258.37h-183.43q-39.508 0-81.838-39.508-11.288-16.932-22.576-31.042-22.576-22.576-67.728-22.576h-253.98v838.134L1280 927.184l-1030.03 663.17h242.692v804.27h584.154v-637.772h406.368v623.662h584.154v-790.16h242.692l-824.024-530.536V574.434z"/></symbol><symbol viewBox="0 0 512 512" id="icon-restroom"><title>restroom</title><path d="M251.3 420.4h26.09V91.6H251.3v328.8zm-93.03-268.7h-52.66q-12.31 0-22.15 8.86-7.383 6.89-9.844 15.26l-22.64 75.31q-.984 2.46-.984 4.43 0 11.32 11.32 11.32 7.875 0 10.34-8.86l20.67-68.91h11.32l-33.96 122.6h32.98v95.49q0 12.8 12.3 12.8t12.3-12.8v-95.98h12.3v96.47q0 12.3 12.3 12.3t12.3-12.3v-95.98h32.98l-34.45-122.6h11.81l20.67 68.91q2.46 8.86 10.34 8.86 11.32 0 11.32-11.32 0-2.462-.985-4.43l-22.64-75.31q-2.46-7.877-11.32-15.26-10.83-8.86-23.63-8.86zm-25.1-5.414q11.32 0 19.2-7.876 7.875-7.875 7.875-18.7 0-11.32-7.875-19.2-7.876-7.875-19.2-7.875-10.83 0-18.7 7.875-7.875 7.875-7.875 19.2 0 10.83 7.875 18.7 7.875 7.876 18.7 7.876zm259.4-.493q10.83 0 18.7-7.875 7.875-7.875 7.875-18.7 0-11.32-7.875-18.95-7.875-7.63-18.7-7.63-10.83 0-18.7 7.63-7.876 7.63-7.876 18.95 0 10.83 7.876 18.7 7.875 7.875 18.7 7.875zm34.95 5.415h-70.38q-14.27 0-24.36 10.09t-10.09 24.86v81.7q0 11.81 10.83 11.81 10.34 0 10.34-11.81v-79.74h12.8v216.6q0 14.77 14.77 14.77t14.77-14.77v-125.5H399v125.5q0 14.77 14.77 14.77 15.26 0 15.26-14.77v-216.6h12.3v79.74q0 12.3 10.34 12.3t10.34-12.3v-81.21q0-14.27-9.597-24.86-9.598-10.58-24.86-10.58z"/></symbol><symbol viewBox="0 0 512 512" id="icon-services"><title>services</title><path d="M447.087 375.073L281.4 209.387c-11.353-11.353-17.2-27.142-15.962-43.15 2.345-30.324-8.074-61.45-31.268-84.643-30.19-30.19-73.82-38.74-111.63-25.666l68.647 68.647c1.576 26.78-39.832 68.188-66.612 66.612L55.93 122.54c-13.077 37.81-4.526 81.44 25.664 111.63 23.193 23.194 54.32 33.612 84.645 31.268 16.023-1.24 31.784 4.598 43.15 15.962l165.686 165.686c19.885 19.886 52.126 19.886 72.013 0 19.882-19.886 19.882-52.127-.003-72.013zm-38.49 53.887c-11.59 0-20.985-9.396-20.985-20.987 0-11.59 9.396-20.985 20.985-20.985 11.59 0 20.987 9.396 20.987 20.985 0 11.59-9.397 20.987-20.987 20.987z"/></symbol><symbol viewBox="0 0 512 512" id="icon-shopping"><title>shopping</title><path d="M346.914 143.61H50.168l53.563 121.165h205.086l38.098-121.166zm114.918-38.5l-12.746 40h-29.98l-59.178 188.165H132.856l-17.625-40h215.45l59.18-188.166h71.972zM316.816 380c0 14.852-12.04 26.89-26.89 26.89s-26.89-12.038-26.89-26.89 12.038-26.89 26.89-26.89 26.89 12.038 26.89 26.89zm-88.883 0c0 14.852-12.04 26.89-26.893 26.89-14.852 0-26.89-12.038-26.89-26.89s12.038-26.89 26.89-26.89c14.853 0 26.893 12.038 26.893 26.89z"/></symbol><symbol viewBox="0 0 512 512" id="icon-sign"><title>sign</title><path d="M136.95 189.96l-56.596-54.753 56.596-53.595h98.494V50h55.618v31.612h114.055V189.96H136.95zM235.444 462h55.618V351.498h-55.618V462zM375.05 217.195H106.883v108.348H375.05l56.596-54.174-56.596-54.175z"/></symbol><symbol viewBox="0 0 512 512" id="icon-signage"><title>signage</title><path d="M136.95 189.96l-56.596-54.753 56.596-53.595h98.494V50h55.618v31.612h114.055V189.96H136.95zM235.444 462h55.618V351.498h-55.618V462zM375.05 217.195H106.883v108.348H375.05l56.596-54.174-56.596-54.175z"/></symbol><symbol viewBox="0 0 512 512" id="icon-signs"><title>signs</title><path d="M136.95 189.96l-56.596-54.753 56.596-53.595h98.494V50h55.618v31.612h114.055V189.96H136.95zM235.444 462h55.618V351.498h-55.618V462zM375.05 217.195H106.883v108.348H375.05l56.596-54.174-56.596-54.175z"/></symbol><symbol viewBox="0 0 512 512" id="icon-snowflake"><title>snowflake</title><path d="M443.8 230.1l-42.3.06 8.417-13.29c5.36-8.462 2.855-19.66-5.595-25.01-8.466-5.382-19.66-2.854-25.01 5.583l-20.75 32.78-71.3.103 35.62-62.62 49.19-2.677c10.02-.54 17.68-9.073 17.12-19.1-.536-10-9.064-17.68-19.08-17.12l-25.91 1.388 11.41-20.05c4.948-8.7 1.912-19.76-6.78-24.74-8.707-4.953-19.75-1.913-24.72 6.812l-11.4 20.13-7.1-12.89c-4.813-8.79-15.84-11.97-24.63-7.133-8.748 4.828-11.93 15.86-7.112 24.63l17.77 32.33-35.63 62.65-35.64-62.64 17.77-32.33c4.82-8.767 1.64-19.8-7.11-24.63-8.79-4.834-19.81-1.654-24.62 7.134l-7.2 12.9-11.5-20.21c-4.97-8.725-16.02-11.77-24.72-6.812-8.69 4.97-11.73 16.03-6.783 24.74l11.41 20.05-25.91-1.39c-10.01-.56-18.54 7.12-19.08 17.12-.552 10.02 7.11 18.56 17.13 19.1l49.19 2.678 35.62 62.62-71.3-.107-20.75-32.78c-5.356-8.438-16.55-10.96-25.01-5.584-8.45 5.352-10.95 16.55-5.594 25.01l8.412 13.29-42.3-.06c-10.01 0-18.14 8.108-18.17 18.13 0 10.01 8.088 18.17 18.09 18.17l41.66.06-13.15 21.16c-5.274 8.49-2.674 19.67 5.817 25 8.495 5.275 19.68 2.68 24.96-5.856l25.02-40.23 72.43.103-34.62 60.62-37.4 2.148c-9.99.607-17.63 9.148-17.05 19.14.58 9.997 9.134 17.68 19.12 17.07l13.88-.79-21.16 37.06c-4.944 8.717-1.928 19.8 6.753 24.75 8.677 5.002 19.75 1.98 24.72-6.747l21.98-38.48 13 23.35c4.882 8.78 15.9 11.94 24.65 7.027 8.726-4.858 11.89-15.89 7.02-24.66l-23.66-42.52 33.89-59.34.05.09.05-.09 33.89 59.34-23.64 42.52c-4.873 8.763-1.705 19.8 7.02 24.66 8.748 4.903 19.77 1.753 24.65-7.027l13-23.35 21.98 38.48c4.966 8.726 16.04 11.75 24.72 6.746 8.682-4.954 11.7-16.03 6.753-24.75l-21.16-37.06 13.88.79c9.99.615 18.54-7.072 19.12-17.07.585-9.995-7.06-18.53-17.06-19.14l-37.41-2.148-34.61-60.62 72.43-.103 25.02 40.23c5.274 8.536 16.46 11.13 24.96 5.855 8.49-5.332 11.1-16.51 5.82-25l-13.16-21.16 41.66-.06c10 0 18.09-8.157 18.09-18.17-.04-10.02-8.16-18.13-18.17-18.13z"/></symbol><symbol viewBox="0 0 512 512" id="icon-spring"><title>spring</title><path d="M108.8 90.46c1.5 89.08 34.5 146.8 47.1 264.1-29.8-82.4-75-166.9-93.38-189.8 10.12 86.5 82.78 174.9 89.18 297.1 71.67.356 127.2-.54 197 0 28.1-94.8 55.5-192.3 100.8-281.7-46.8 57.2-85.7 108.3-116 152.5 27.1-72 55-133.6 78.1-195.6-31.5 27.08-76.4 108.1-114.7 191.1 9.3-87.5 27-166.9 28.2-235.1-14.9 25.45-44.4 99.19-68.1 179.3-4.8-96.23-12.8-188.3-24.4-222.4 1.5 76.34-2.4 160.6-8 255.2-13.6-53.3-34.1-115.1-63.4-184.6 11.6 81.41 31.8 168.2 38.6 254.5-18.9-128.6-66.2-242-91-284.6z"/></symbol><symbol viewBox="-1 -1.167 512 512" id="icon-summer"><title>summer</title><path d="M255 144.6c-6.9 0-12.49-5.587-12.49-12.49V61.36c0-6.894 5.587-12.49 12.49-12.49 6.895 0 12.48 5.592 12.48 12.49v70.75c0 6.895-5.587 12.48-12.48 12.48zM255 460.8c-6.9 0-12.49-5.587-12.49-12.49v-70.74c0-6.895 5.587-12.49 12.49-12.49 6.895 0 12.48 5.59 12.48 12.49v70.75c0 6.895-5.587 12.48-12.48 12.48zM448.5 267.3h-70.75c-6.894 0-12.49-5.583-12.49-12.48 0-6.895 5.592-12.49 12.49-12.49h70.75c6.895 0 12.49 5.59 12.49 12.49s-5.596 12.48-12.49 12.48zM132.2 267.3H61.45c-6.86 0-12.45-5.6-12.45-12.5 0-6.894 5.587-12.49 12.48-12.49h70.75c6.894 0 12.49 5.592 12.49 12.49 0 6.895-5.592 12.48-12.49 12.48zM391.8 404.2c-3.195 0-6.39-1.22-8.83-3.658l-50-50c-4.876-4.877-4.876-12.78 0-17.65 4.873-4.877 12.78-4.877 17.65 0l50.03 50.02c4.878 4.877 4.878 12.78 0 17.65-2.433 2.44-5.632 3.658-8.827 3.658zM168.2 180.5c-3.19 0-6.386-1.22-8.824-3.66l-50.03-50.02c-4.876-4.872-4.876-12.78 0-17.65 4.877-4.875 12.78-4.875 17.66 0l50.03 50.02c4.877 4.873 4.877 12.78 0 17.66-2.442 2.437-5.637 3.656-8.832 3.656zM118.2 404.2c-3.195 0-6.39-1.22-8.83-3.657-4.875-4.873-4.875-12.78 0-17.65l50.02-50.02c4.877-4.876 12.78-4.876 17.65 0 4.878 4.873 4.878 12.77 0 17.65l-50.02 50.03c-2.43 2.438-5.628 3.657-8.824 3.657zM341.8 180.5c-3.195 0-6.395-1.22-8.83-3.658-4.875-4.873-4.875-12.78 0-17.66l50.02-50.03c4.877-4.88 12.78-4.88 17.65 0 4.878 4.872 4.878 12.78 0 17.65l-50.02 50.03c-2.437 2.443-5.628 3.662-8.823 3.662zM255 336.2c-44.88 0-81.39-36.52-81.39-81.4s36.52-81.4 81.39-81.4c44.88 0 81.39 36.52 81.39 81.4s-36.51 81.4-81.39 81.4zm0-137.8c-31.11 0-56.43 25.31-56.43 56.42s25.31 56.43 56.43 56.43c31.11 0 56.42-25.31 56.42-56.43S286.11 198.4 255 198.4z"/></symbol><symbol viewBox="-1 -1.167 512 512" id="icon-sun"><title>sun</title><path d="M255 144.6c-6.9 0-12.49-5.587-12.49-12.49V61.36c0-6.894 5.587-12.49 12.49-12.49 6.895 0 12.48 5.592 12.48 12.49v70.75c0 6.895-5.587 12.48-12.48 12.48zM255 460.8c-6.9 0-12.49-5.587-12.49-12.49v-70.74c0-6.895 5.587-12.49 12.49-12.49 6.895 0 12.48 5.59 12.48 12.49v70.75c0 6.895-5.587 12.48-12.48 12.48zM448.5 267.3h-70.75c-6.894 0-12.49-5.583-12.49-12.48 0-6.895 5.592-12.49 12.49-12.49h70.75c6.895 0 12.49 5.59 12.49 12.49s-5.596 12.48-12.49 12.48zM132.2 267.3H61.45c-6.86 0-12.45-5.6-12.45-12.5 0-6.894 5.587-12.49 12.48-12.49h70.75c6.894 0 12.49 5.592 12.49 12.49 0 6.895-5.592 12.48-12.49 12.48zM391.8 404.2c-3.195 0-6.39-1.22-8.83-3.658l-50-50c-4.876-4.877-4.876-12.78 0-17.65 4.873-4.877 12.78-4.877 17.65 0l50.03 50.02c4.878 4.877 4.878 12.78 0 17.65-2.433 2.44-5.632 3.658-8.827 3.658zM168.2 180.5c-3.19 0-6.386-1.22-8.824-3.66l-50.03-50.02c-4.876-4.872-4.876-12.78 0-17.65 4.877-4.875 12.78-4.875 17.66 0l50.03 50.02c4.877 4.873 4.877 12.78 0 17.66-2.442 2.437-5.637 3.656-8.832 3.656zM118.2 404.2c-3.195 0-6.39-1.22-8.83-3.657-4.875-4.873-4.875-12.78 0-17.65l50.02-50.02c4.877-4.876 12.78-4.876 17.65 0 4.878 4.873 4.878 12.77 0 17.65l-50.02 50.03c-2.43 2.438-5.628 3.657-8.824 3.657zM341.8 180.5c-3.195 0-6.395-1.22-8.83-3.658-4.875-4.873-4.875-12.78 0-17.66l50.02-50.03c4.877-4.88 12.78-4.88 17.65 0 4.878 4.872 4.878 12.78 0 17.65l-50.02 50.03c-2.437 2.443-5.628 3.662-8.823 3.662zM255 336.2c-44.88 0-81.39-36.52-81.39-81.4s36.52-81.4 81.39-81.4c44.88 0 81.39 36.52 81.39 81.4s-36.51 81.4-81.39 81.4zm0-137.8c-31.11 0-56.43 25.31-56.43 56.42s25.31 56.43 56.43 56.43c31.11 0 56.42-25.31 56.42-56.43S286.11 198.4 255 198.4z"/></symbol><symbol viewBox="0 0 512 512" id="icon-tools"><title>tools</title><path d="M158.055 249.342l160.08 160.08c13.483 13.482 35.338 13.48 48.82 0 13.48-13.48 13.48-35.337 0-48.82l-160.08-160.08c-7.697-7.695-11.66-18.4-10.82-29.25 1.59-20.56-5.475-41.66-21.198-57.384-20.37-20.37-49.916-26.31-75.68-17.4l46.54 46.54c1.068 18.162-27.02 46.232-45.16 45.158l-46.537-46.54c-8.864 25.632-3.067 55.21 17.398 75.678 14.28 14.28 32.994 21.416 51.71 21.416 5.156 0 21.16-3.163 34.927 10.602zM340.86 368.68c7.857 0 14.23 6.368 14.23 14.227s-6.372 14.23-14.23 14.23c-7.856 0-14.227-6.37-14.227-14.23s6.37-14.228 14.228-14.228zM219.445 115.33s88.328-43.475 146.982.69c33.28 25.058 28.81 47.44 43.82 62.45 13.8 13.8 30.705 2.416 30.705 2.416L462 201.933l-67.28 67.28-21.048-21.046s9.086-12.995-1.727-23.806c-9.773-9.775-21.966-7.016-34.732 5.75l-30.984 30.986-46.995-46.995 31.347-31.347c29.022-29.022-.936-60.408-71.138-67.424zm-.89 233.055l-61.475 61.15c-12.964 12.965-33.98 12.965-46.94 0-12.963-12.96-12.963-33.977 0-46.937l61.474-61.153 46.94 46.94z"/></symbol><symbol viewBox="0 0 512 512" id="icon-trail-cond"><title>trail-cond</title><path d="M429.9 436.7H115.6v13.21h314.3q13.21 0 22.65-9.438 9.438-9.438 9.438-22.65h-12.74q0 8.023-5.663 13.45t-13.68 5.427zm-74.56-311.5q12.74 0 22.18-9.202 9.438-9.202 9.438-22.42 0-13.21-9.438-22.42-9.438-9.202-22.18-9.202-13.21 0-22.42 9.202-9.202 9.202-9.202 22.42 0 13.21 9.202 22.42 9.202 9.202 22.42 9.202zm-207.6 283.1q5.19 4.72 12.74 4.72 8.494 0 17.93-6.607l-9.438-9.91q-4.247 2.83-8.022 2.83-3.776 0-5.663-1.886l-.472-.472-104.8-105.2v18.4zm10.38-210H51.02v12.74h107.1V198.3zm181.2 219.9l122.2-245.4-12.27-5.19-123.6 250.6h13.68zM93.42 273.9q-8.966 0-15.1 5.663-6.135 5.662-6.135 14.63 0 8.495 6.135 14.39 6.135 5.9 14.63 5.9h85.41q5.19 0 9.438-.945 10.85-1.887 15.1-6.606l42-46.72 49.08 47.19-19.82 88.24q-.944 2.83-.944 4.72 0 8.493 6.135 14.63 6.133 6.134 14.63 6.134 16.04 0 19.82-16.52l24.07-107.1q4.246-16.99-3.776-25.01l-42.94-42.94 46.72-54.27 30.2 30.2q4.72 4.72 10.85 4.72 8.023 0 15.57-7.08l49.08-49.08q3.775-4.718 3.775-10.38 0-7.077-4.956-11.8-4.955-4.718-11.56-4.718-6.606 0-10.38 3.775l-40.58 40.58-49.08-49.08q-5.663-5.663-14.16-5.663h-76.92q-7.08 0-12.27 5.663l-52.85 60.88q-5.663 4.72-5.663 11.8 0 6.607 4.72 11.33 4.72 4.72 11.33 4.72 7.078 0 12.27-5.664l49.08-57.1 28.31.47-108.1 125.5z"/></symbol><symbol viewBox="-0.258 -0.548 512.195 512.162" id="icon-trail"><title>trail</title><path d="M136.7 434.3c-.306 1.533-.4 3.062-.4 4.595 0 12.62 10.17 22.76 22.79 22.76 10.36 0 19.05-6.893 21.84-16.26l39.15-162.1 37.31 161.1c2.388 9.955 11.39 17.22 21.99 17.22 12.65 0 22.79-10.14 22.79-22.76 0-1.745-.184-3.368-.49-4.992l-51.17-214.4 4.29-18.87 3.367 14.82c3.062 9.68 11.85 10.63 11.85 10.63l52.74 13.42c1.043.185 2.113.275 3.156.275 8.607 0 15.59-6.893 15.59-15.5 0-7.383-5.054-13.6-11.95-15.22l-45.6-11.5-12.6-50.9c-5.944-28.43-33.11-27.75-33.11-27.75-26.4-.675-33.02 27.11-33.02 27.11l-68.5 287.9zm180.9 19.2c0 .196-.09.353-.09.46 0 4.136 3.368 7.472 7.474 7.472 3.736 0 6.893-2.878 7.35-6.493l54.42-294.9v-.58c0-4.012-3.276-7.384-7.382-7.384-3.736 0-6.618 2.878-7.383 6.524l-54.42 295.2zM193 119.6c1.254-4.99-1.898-9.955-6.8-11.21l-26.99-6.493c-5.053-1.164-10.04 1.808-11.18 6.772l-22.74 93.9c-1.253 4.99 1.81 9.954 6.8 11.21l27.08 6.492c4.9 1.255 9.955-1.807 11.12-6.8l22.66-93.9zm54.7-5.3c17.89 0 32.35-14.55 32.35-32.47 0-17.89-14.46-32.35-32.35-32.35s-32.44 14.46-32.44 32.35c0 17.92 14.55 32.46 32.42 32.46z"/></symbol><symbol viewBox="-0.258 -0.548 512.195 512.162" id="icon-trails"><title>trails</title><path d="M136.7 434.3c-.306 1.533-.4 3.062-.4 4.595 0 12.62 10.17 22.76 22.79 22.76 10.36 0 19.05-6.893 21.84-16.26l39.15-162.1 37.31 161.1c2.388 9.955 11.39 17.22 21.99 17.22 12.65 0 22.79-10.14 22.79-22.76 0-1.745-.184-3.368-.49-4.992l-51.17-214.4 4.29-18.87 3.367 14.82c3.062 9.68 11.85 10.63 11.85 10.63l52.74 13.42c1.043.185 2.113.275 3.156.275 8.607 0 15.59-6.893 15.59-15.5 0-7.383-5.054-13.6-11.95-15.22l-45.6-11.5-12.6-50.9c-5.944-28.43-33.11-27.75-33.11-27.75-26.4-.675-33.02 27.11-33.02 27.11l-68.5 287.9zm180.9 19.2c0 .196-.09.353-.09.46 0 4.136 3.368 7.472 7.474 7.472 3.736 0 6.893-2.878 7.35-6.493l54.42-294.9v-.58c0-4.012-3.276-7.384-7.382-7.384-3.736 0-6.618 2.878-7.383 6.524l-54.42 295.2zM193 119.6c1.254-4.99-1.898-9.955-6.8-11.21l-26.99-6.493c-5.053-1.164-10.04 1.808-11.18 6.772l-22.74 93.9c-1.253 4.99 1.81 9.954 6.8 11.21l27.08 6.492c4.9 1.255 9.955-1.807 11.12-6.8l22.66-93.9zm54.7-5.3c17.89 0 32.35-14.55 32.35-32.47 0-17.89-14.46-32.35-32.35-32.35s-32.44 14.46-32.44 32.35c0 17.92 14.55 32.46 32.42 32.46z"/></symbol><symbol viewBox="0 0 512 512" id="icon-tree"><title>tree</title><path d="M236.29 408.44V462h41.2v-53.56h132.664l-62.542-119.48h36.668l-79.02-119.48h36.708L257.302 50 170.04 169.48h36.71l-79.022 119.48h36.668l-62.542 119.48z"/></symbol><symbol viewBox="0 0 512 512" id="icon-vista"><title>vista</title><path d="M213.6 91h14.73V76.27H75.73v42.62l137.9-11.58V91zm78.4 28.94q14.73 0 25-10.26 10.26-10.26 10.26-24.47 0-14.73-10.26-24.99t-25-10.26q-14.21 0-24.73 10.26t-10.52 24.99q0 14.21 10.52 24.47T292 119.94zm63.14-1.58q-7.366-7.892-17.89-7.892-11.05 0-18.42 7.893l-51 51.1-36.8-37.4q-6.314-6.313-14.21-6.313-16.84 0-16.84 17.36 0 6.84 4.736 11.58l48.94 48.94q5.262 5.79 12.63 5.79 8.42 0 13.68-6.316l28.42-28.42 70.51 71.04v187.9q0 12.1 8.42 20.26 8.42 8.158 20.52 8.158 11.58 0 20-8.157 8.42-8.155 8.42-20.26v-227.8q0-6.84-4.737-11.58zm-172.1 78.93l-12.1-68.41q-1.052-5.787-7.366-5.787-6.315 0-7.367 6.314l-11.58 67.88v263.1h100.5v-37.36h-62.09v-225.7z"/></symbol><symbol viewBox="0 0 512 512" id="icon-water"><title>water</title><path d="M183.9 130q24.72 0 35.9-17.07Q231.57 130 255.12 130q24.72 0 35.9-17.07Q302.79 130 326.34 130q18.84 0 29.43-10.01l6.475-41.79q-12.95 19.42-35.9 19.42-22.37 0-35.32-18.84-12.36 18.84-35.9 18.84-22.37 0-35.32-18.84-12.36 18.84-35.9 18.84-20.6 0-33.55-17.07l5.886 40.61q10.01 8.83 27.66 8.83zM367 462l64.16-412-42.97.59-58.86 367.9h-146l-58.86-367.9L80.91 50l64.75 412h221.3z"/></symbol><symbol viewBox="0 0 512 512" id="icon-winter"><title>winter</title><path d="M443.8 230.1l-42.3.06 8.417-13.29c5.36-8.462 2.855-19.66-5.595-25.01-8.466-5.382-19.66-2.854-25.01 5.583l-20.75 32.78-71.3.103 35.62-62.62 49.19-2.677c10.02-.54 17.68-9.073 17.12-19.1-.536-10-9.064-17.68-19.08-17.12l-25.91 1.388 11.41-20.05c4.948-8.7 1.912-19.76-6.78-24.74-8.707-4.953-19.75-1.913-24.72 6.812l-11.4 20.13-7.1-12.89c-4.813-8.79-15.84-11.97-24.63-7.133-8.748 4.828-11.93 15.86-7.112 24.63l17.77 32.33-35.63 62.65-35.64-62.64 17.77-32.33c4.82-8.767 1.64-19.8-7.11-24.63-8.79-4.834-19.81-1.654-24.62 7.134l-7.2 12.9-11.5-20.21c-4.97-8.725-16.02-11.77-24.72-6.812-8.69 4.97-11.73 16.03-6.783 24.74l11.41 20.05-25.91-1.39c-10.01-.56-18.54 7.12-19.08 17.12-.552 10.02 7.11 18.56 17.13 19.1l49.19 2.678 35.62 62.62-71.3-.107-20.75-32.78c-5.356-8.438-16.55-10.96-25.01-5.584-8.45 5.352-10.95 16.55-5.594 25.01l8.412 13.29-42.3-.06c-10.01 0-18.14 8.108-18.17 18.13 0 10.01 8.088 18.17 18.09 18.17l41.66.06-13.15 21.16c-5.274 8.49-2.674 19.67 5.817 25 8.495 5.275 19.68 2.68 24.96-5.856l25.02-40.23 72.43.103-34.62 60.62-37.4 2.148c-9.99.607-17.63 9.148-17.05 19.14.58 9.997 9.134 17.68 19.12 17.07l13.88-.79-21.16 37.06c-4.944 8.717-1.928 19.8 6.753 24.75 8.677 5.002 19.75 1.98 24.72-6.747l21.98-38.48 13 23.35c4.882 8.78 15.9 11.94 24.65 7.027 8.726-4.858 11.89-15.89 7.02-24.66l-23.66-42.52 33.89-59.34.05.09.05-.09 33.89 59.34-23.64 42.52c-4.873 8.763-1.705 19.8 7.02 24.66 8.748 4.903 19.77 1.753 24.65-7.027l13-23.35 21.98 38.48c4.966 8.726 16.04 11.75 24.72 6.746 8.682-4.954 11.7-16.03 6.753-24.75l-21.16-37.06 13.88.79c9.99.615 18.54-7.072 19.12-17.07.585-9.995-7.06-18.53-17.06-19.14l-37.41-2.148-34.61-60.62 72.43-.103 25.02 40.23c5.274 8.536 16.46 11.13 24.96 5.855 8.49-5.332 11.1-16.51 5.82-25l-13.16-21.16 41.66-.06c10 0 18.09-8.157 18.09-18.17-.04-10.02-8.16-18.13-18.17-18.13z"/></symbol><symbol viewBox="0 0 512 512" id="icon-x"><title>x</title><path d="M438.393 374.595L319.757 255.977l118.62-118.63-63.782-63.74-118.6 118.618-118.62-118.603-63.768 63.73 118.64 118.63L73.62 374.626l63.73 63.768 118.65-118.66 118.65 118.645z"/></symbol><symbol viewBox="0 0 512 512" id="icon-zoom-home"><title>zoom-home</title><path d="M419.492 275.815v166.213H300.725v-90.33h-89.45v90.33H92.506V275.815H50L256 69.972l206 205.844h-42.508zm-25.42-187.343h-47.917v38.31l47.917 48.024V88.472z"/></symbol><symbol viewBox="0 0 512 512" id="icon-zoom-in"><title>zoom-in</title><path d="M460.475 408.443L351.4 299.37c15.95-25.137 25.2-54.923 25.2-86.833C376.6 122.914 303.687 50 214.062 50 124.44 50 51.525 122.914 51.525 212.537s72.914 162.537 162.537 162.537c30.326 0 58.733-8.356 83.055-22.876L406.917 462l53.558-53.557zM96.315 212.538c0-64.927 52.82-117.748 117.746-117.748 64.927 0 117.75 52.82 117.75 117.748 0 64.926-52.823 117.747-117.75 117.747-64.925 0-117.745-52.82-117.745-117.747zm185.96 19.344h-47.728v47.73h-36.86v-47.73h-47.73v-36.86h47.73v-47.73h36.86v47.73h47.73v36.86z"/></symbol><symbol viewBox="0 0 512 512" id="icon-zoom-out"><title>zoom-out</title><path d="M460.475 408.443L351.4 299.37c15.95-25.137 25.2-54.923 25.2-86.833C376.6 122.914 303.687 50 214.062 50 124.44 50 51.525 122.914 51.525 212.537s72.914 162.537 162.537 162.537c30.325 0 58.732-8.356 83.055-22.876L406.917 462l53.558-53.557zM96.315 212.538c0-64.927 52.82-117.748 117.746-117.748 64.927 0 117.75 52.82 117.75 117.748 0 64.926-52.823 117.747-117.75 117.747-64.925 0-117.745-52.82-117.745-117.747zm185.96 19.344H149.958v-36.86h132.32v36.86z"/></symbol></svg>