<svg xmlns="http://www.w3.org/2000/svg"><symbol viewBox="0 0 580 580" id="icon-accommodation_camping"><title>accommodation_camping</title><path fill="param(fill) #FFF" stroke="param(outline) #000" stroke-width="param(outline-width) 1" d="M504.91 519.52l.714-.006-10.927-19.284-190.172-360.682 35.603-67.26L316.9 59.995l-27.213 51.412-28.368-53.804-23.247 12.257 36.007 68.29c-15.495 32.075-121.49 230.256-192.826 362.817l-10.44 19.403 94.236-.156 23.41.18.115-.22 202.6-.335.29.555 91.77-.708 21.746-.036-.07-.13zM289.963 285.86c21.655 72.986 67.317 167.25 87.688 207.722l-175.523.29c20.298-40.308 66.127-134.848 87.835-208.013z"/></symbol><symbol viewBox="0 0 580 580" id="icon-airplane"><title>airplane</title><path fill="param(fill) #FFF" stroke="param(outline) #000" stroke-width="param(outline-width) 1" d="M516.75 400.364v-52.717L316.983 227.584V84.892c.034-34.958-51.215-34.958-51.274-.958v143.65L68.8 347.648v52.717l198.827-65.43V441.58l-45.53 35.945v41.694l70.93-22.048 70.926 22.047v-41.695l-46.01-35.944V334.936l198.806 65.43z"/></symbol><symbol viewBox="0 0 579.997 579.997" id="icon-amenity=parking"><title>amenity=parking</title><path fill="param(fill) #FFF" stroke="param(outline) #000" stroke-width="param(outline-width) 1" d="M377.692 98.52C350.74 76.67 306.615 65.73 245.197 65.73H124.473v445.004h87.93v-166.61H245.2c61.418 0 105.542-10.94 132.495-32.792 26.883-21.852 40.395-57.318 40.395-106.404s-13.513-84.553-40.396-106.405zM309.15 255.595c-11.648 9.748-31.88 14.604-60.68 14.604h-36.067V139.654h36.066c28.8 0 49.03 4.89 60.68 14.604 11.61 9.746 17.416 26.635 17.416 50.668 0 24.068-5.805 40.957-17.417 50.668z"/></symbol><symbol viewBox="0 0 580 580" id="icon-amenity_bench"><title>amenity_bench</title><path fill="param(fill) #FFF" stroke="param(outline) #000" stroke-width="param(outline-width) 1" d="M529.47 221.775H62.93v40h69.627v103.4h30v-103.4H429.84v103.4h30v-103.4h69.63z"/></symbol><symbol viewBox="0 0 580 580" id="icon-amenity_toilets"><title>amenity_toilets</title><path fill="param(fill) #FFF" stroke="param(outline) #000" stroke-width="param(outline-width) 1" d="M140.513 136.156c10.35 0 19.13-3.6 26.338-10.804 7.21-7.202 10.814-15.758 10.814-25.668 0-10.363-3.604-19.146-10.813-26.35-7.208-7.2-15.988-10.802-26.337-10.803-9.91.002-18.47 3.603-25.678 10.805-7.21 7.203-10.814 15.985-10.814 26.35 0 9.91 3.605 18.465 10.815 25.667 7.208 7.203 15.768 10.804 25.678 10.804zM456.528 135.496c9.91 0 18.47-3.604 25.678-10.813 7.21-7.21 10.813-15.768 10.814-25.68 0-10.348-3.605-19.014-10.814-25.997-7.21-6.982-15.77-10.473-25.678-10.474-9.91 0-18.467 3.492-25.67 10.474-7.2 6.983-10.803 15.65-10.802 25.998 0 9.91 3.6 18.47 10.803 25.68 7.202 7.208 15.757 10.813 25.668 10.812zM538.625 157.443c-8.783-9.683-20.157-14.524-34.12-14.524h-96.612c-13.058 0-24.205 4.618-33.44 13.853-9.237 9.237-13.855 20.61-13.855 34.12V303.03c0 10.817 4.955 16.226 14.865 16.226 9.456 0 14.184-5.408 14.185-16.226V193.595h17.565V490.85c0 13.512 6.755 20.268 20.267 20.268 13.51 0 20.267-6.756 20.267-20.267V318.577h17.565V490.85c0 13.512 6.755 20.268 20.267 20.268 13.964 0 20.945-6.756 20.946-20.267V193.596h16.886V303.03c0 11.257 4.728 16.886 14.185 16.886 9.47 0 14.204-5.63 14.205-16.886V191.554c-.003-13.057-4.395-24.427-13.177-34.11zM222.92 176.71c-2.255-7.216-7.43-14.198-15.525-20.947-9.91-8.11-20.72-12.164-32.43-12.164H102.68c-11.27 0-21.407 4.054-30.41 12.163-6.762 6.295-11.263 13.278-13.503 20.947l-31.09 103.353c-.894 2.254-1.34 4.282-1.34 6.082 0 10.364 5.175 15.545 15.525 15.545 7.216 0 11.95-4.055 14.205-12.164l28.37-94.59H99.96L53.344 363.148H98.62V494.21c0 11.71 5.627 17.566 16.884 17.566s16.885-5.855 16.885-17.566V362.49h16.905v132.402c0 11.257 5.628 16.886 16.885 16.886 11.256 0 16.885-5.63 16.885-16.886V363.15h45.254l-47.276-168.215h16.205l28.368 94.59c2.254 8.11 6.982 12.165 14.185 12.165 10.363 0 15.545-5.182 15.545-15.545 0-2.254-.447-4.28-1.34-6.082l-31.09-103.353zM282.646 61.172h35.812v451.286h-35.812z"/></symbol><symbol viewBox="0 0 580 580" id="icon-amenity_toilets_disabled"><title>amenity_toilets_disabled</title><path fill="param(fill) #FFF" stroke="param(outline) #000" stroke-width="param(outline-width) 1" d="M474.162 442.77c-9.593.592-27.915 14.387-53.152 17.338-24.026-47.04-46.925-95.01-70.725-142.32-41.396-.033-109.153.084-150.672-.11.06-1.567-6.377-16.904 1.77-35.117H311.67V247.45c-37.53-.497-75.34 1.64-112.646-1.26-1.68-26.597-1.07-53.32-.406-79.954 9.25-12.574 36.665-18.125 35.463-40.93 4.467-28.866-29.385-53.447-56.824-42.515-27.716 7.865-38.153 44.484-18.226 64.736.59 67.315.84 134.635 1.826 201.945 32.025.005 142.775-3.876 163.924.776 21.278 42.334 72.508 146.458 78.224 155.415 22.665-7.5 58.237-24.464 80.776-32.312 1.163.966.894-31.458-9.618-30.58zM330.74 437.232c-22.29 35.193-55.842 66.11-98.19 76.403-56.485 15.37-119.806-16.137-144.833-66.36-23.657-44.2-15.458-103.365 21.967-138.05 5.303-7.307 19.785-10.208 17.653-20.778-1.43-12.183 3.95-30.67-4.048-37.834-50.39 24.21-88.448 74.112-91.267 129.25-5.815 48.633 16.004 97.818 53.77 129.66 26.412 22.945 61.03 37.255 110.528 42.582 55.033 3.674 109.497-22.227 143.49-63.523 20.114-13.506.25-44.12-9.07-51.35zM521.78 103.83c-1.723 7.98-4.492 14.064-8.31 18.255-3.817 4.19-9.457 6.286-16.92 6.286-7.692 0-13.662-2.597-17.91-7.79-4.248-5.196-6.372-14.797-6.372-28.804 0-11.31 1.78-19.604 5.34-24.885 4.706-7.117 11.48-10.676 20.32-10.676 3.903 0 7.434.804 10.59 2.41 3.158 1.608 5.828 3.905 8.01 6.89 1.32 1.78 2.583 4.592 3.788 8.438l34.443-7.664c-4.422-13.318-11.18-23.19-20.28-29.62s-21.598-9.645-37.5-9.645c-20.32 0-36.035 5.61-47.143 16.834-11.108 11.223-16.662 27.282-16.662 48.177 0 15.672 3.157 28.53 9.472 38.576s13.82 17.063 22.518 21.053c8.696 3.99 19.905 5.984 33.625 5.984 11.31 0 20.622-1.636 27.94-4.908s13.448-8.124 18.385-14.553c4.937-6.43 8.554-14.437 10.85-24.023L521.78 103.83zM314.692 155.408l22.043-79.477 22.13 79.478h38.232L424.91 29.175h-36.854L374.71 99.697l-19.547-70.522h-36.94l-19.46 70.522-13.347-70.522H248.39l28.07 126.233z"/></symbol><symbol viewBox="0 0 512 512" id="icon-back"><title>back</title><path d="M68.7 256L275 50v67.8h168.32v276.4H275V462z"/></symbol><symbol viewBox="0 0 512 512" id="icon-camera"><title>camera</title><path d="M339.652 277.48c0 29.39-23.91 53.298-53.3 53.298-29.388 0-53.297-23.91-53.297-53.3 0-29.388 23.91-53.297 53.298-53.297 29.39 0 53.3 23.91 53.3 53.3zM462 148.124v267H50v-267h113.22c11.252 0 21.56-6.297 26.693-16.31l17.92-34.94h153.664l19.82 35.785c5.285 9.543 15.334 15.465 26.243 15.465H462zm-307.17 58.25c0-11.322-9.177-20.5-20.5-20.5s-20.5 9.178-20.5 20.5 9.18 20.5 20.5 20.5 20.5-9.178 20.5-20.5zM385.5 277.48c0-54.67-44.477-96.855-99.146-96.855-54.67 0-99.146 42.185-99.146 96.854 0 54.67 44.477 99.145 99.146 99.145 54.67 0 99.146-44.477 99.146-99.146zM142.33 104.624h-65.5v27h65.5v-27z"/></symbol><symbol viewBox="0 0 512 512" id="icon-chevron-down"><title>chevron-down</title><path d="M256 294.7L113.9 153.3V50L256 191.5 398.1 50v103.3L256 294.7zm142.1 25.83v-103.3L256 358.73l-142.1-141.4v103.3L256 462.03l142.1-141.5z"/></symbol><symbol viewBox="0 0 579.997 579.997" id="icon-cross"><title>cross</title><path fill="param(fill) #000" stroke="param(outline) #FFF" stroke-width="param(outline-width) 0" d="M26.93 29.26v521.476h526.137V29.26H26.93zM524.42 522.09H55.575V57.907h468.848V522.09zM214.31 486.524h151.377V368.166h114.478V211.832H365.687V93.472H214.31v118.36H99.83v156.334h114.48z"/></symbol><symbol viewBox="0 0 512 512" id="icon-enable-full"><title>enable-full</title><path d="M157.943 426.942L192.94 462H50V319.062l35.058 34.997 57.253-57.255 72.885 72.886-57.252 57.252zM319.063 50l34.996 35.058-56.08 56.08 72.884 72.884 56.08-56.08L462 192.938V50H319.062zM85.057 157.943L50 192.94V50h142.938L157.94 85.058l57.254 57.253-72.886 72.885-57.25-57.252zM462 319.063l-35.058 34.996-56.08-56.08-72.884 72.884 56.08 56.08L319.062 462H462V319.062z"/></symbol><symbol viewBox="0 0 579.997 579.997" id="icon-food"><title>food</title><path fill="param(fill) #000" stroke="param(outline) #FFF" stroke-width="param(outline-width) 0" d="M232.58 71.326c-2.587 10.068-4.074 23.513-5.512 36.514-2.61 23.602-5.57 50.353-14.917 50.643-12.016 0-16.713-36.31-20.143-62.82-1.155-8.93-2.246-17.362-3.52-24.17l-2.487.463-2.41-.77c-3.807 11.906-5.844 26.803-7.814 41.208-3.098 22.658-6.302 46.088-15.848 46.09-9.426-.292-12.385-27.042-14.995-50.643-1.438-13-2.925-26.445-5.512-36.515l-4.93.12c-.735 3.58-18.03 88.1-18.03 123.57 0 18.31 11.62 37.836 22.855 56.72 11.262 18.925 22.907 38.495 22.907 56.63 0 16.75-.59 30.486-1.214 45.03-.766 17.835-1.633 38.05-1.633 68.314 0 29.444 2.313 58.972 6.35 81.01 5.093 27.817 12.173 41.34 21.645 41.34 9.35 0 16.634-13.677 21.646-40.65 4.036-21.715 6.35-50.996 6.35-80.336 0-30.312-1.704-50.97-3.21-69.194-1.223-14.817-2.38-28.813-2.38-45.515 0-18.135 11.647-37.705 22.908-56.63 11.235-18.884 22.854-38.41 22.854-56.72 0-35.472-17.294-119.99-18.03-123.57l-4.93-.12zM443.7 386.017c-.354-13.346-.386-26.93-.416-40.07-.063-27.207-.127-55.34-3.063-83.076-1.09-69.588-2.184-139.178-3.27-208.764l-.042-2.7-2.692.217c-2.192.177-4.4.278-6.737.386-12.733.583-27.164 1.246-39.46 15.363-13.556 15.566-22.398 45.66-27.03 92.004l-.02.19.01.188c2.516 50.214 8.314 89.633 28.336 118.523-2.772 28.047-1.43 58.166-.128 87.305.432 9.683.84 18.83 1.104 27.86.147 41.13 2.9 78.9 7.75 106.353 5.658 32.032 13.415 47.604 23.713 47.606h.003c.465 0 .938-.035 1.407-.103 2.863 0 5.474-1.2 7.758-3.568 15.73-16.3 15.09-92.86 12.777-157.715z"/></symbol><symbol viewBox="0 0 580 580" id="icon-food_bar"><title>food_bar</title><path fill="param(fill) #FFF" stroke="param(outline) #000" stroke-width="param(outline-width) 1" d="M468.232 97.93h-.25c.285-.248.443-.498.443-.75 0-5.937-81.066-10.75-181.07-10.75-100.002 0-181.07 4.813-181.07 10.75 0 .252.158.502.446.75h-.445L266.76 246.465v168.073l-103.962 74.32h.255c-.5.27-.765.544-.765.82 0 4.103 55.996 7.426 125.07 7.426 69.075 0 125.07-3.323 125.07-7.426 0-.276-.266-.552-.765-.82h.06l-103.962-74.32V246.466L468.233 97.93zm-175.71 119.64c-2.896 2.678-7.63 2.678-10.526 0L204.46 145.8c-2.894-2.678-2.035-4.87 1.91-4.87h161.78c3.942 0 4.803 2.19 1.907 4.87l-77.536 71.77z"/></symbol><symbol viewBox="0 0 580 580" id="icon-food_fastfood"><title>food_fastfood</title><path fill="param(fill) #FFF" stroke="param(outline) #000" stroke-width="param(outline-width) 1" d="M297.226 363.07c3.13-27.416-17.623-42.296-62.26-44.64h-107.51c-44.638 2.344-65.588 17.224-62.852 44.64h232.622zM523.984 81.687l-18.213-5.29-31.138 109.858h-158.6l38.184 303.11h129.81l38.776-303.11h-29.365zM64.604 445.32c-2.737 27.403 18.214 42.086 62.853 44.046h107.508c44.638-1.96 65.392-16.643 62.26-44.047H64.606zM287.24 384.224H73.998c-5.474 0-10.17 1.958-14.09 5.87-3.92 3.916-5.88 8.418-5.88 13.51 0 5.88 1.96 10.678 5.88 14.395 3.92 3.717 8.616 5.575 14.09 5.574H287.24c5.485 0 10.186-1.857 14.1-5.575 3.914-3.718 5.87-8.516 5.87-14.396 0-5.092-1.956-9.594-5.87-13.51-3.914-3.912-8.614-5.87-14.1-5.87z"/></symbol><symbol viewBox="0 0 579.997 579.997" id="icon-gas"><title>gas</title><path fill="param(fill) #000" stroke="param(outline) #FFF" stroke-width="param(outline-width) 0" d="M474.745 442.244c-.02-.663-.038-1.254-.04-1.77-.144-51.11-47.357-80.054-71.96-91.67l-1.614-146.978-69.725-58.71v-96.91h-226.23v487.583h226.23v-1.216c.376 0 .762.008 1.136.008 59.266 0 99.232-11.302 122.064-34.484 21.112-21.437 20.406-46.44 20.14-55.854zM289.152 93.61v105.627H147.417V93.61h141.735zm134.843 374.345c-8.114 8.24-30.886 21.834-92.59 21.665V199.278l26.983 22.72 1.72 156.605 14.412 4.888c.57.195 57.122 20.4 57.225 57.103.003.83.026 1.79.057 2.864.192 6.797.454 16.108-7.807 24.498z"/></symbol><symbol viewBox="0 0 512 512" id="icon-grass"><title>grass</title><path d="M108.796 90.46c1.5 89.08 34.5 146.8 47.1 264.1-29.8-82.4-75-166.9-93.38-189.8 10.12 86.5 82.78 174.9 89.18 297.1 71.67.356 127.2-.54 197 0 28.1-94.8 55.5-192.3 100.8-281.7-46.8 57.2-85.7 108.3-116 152.5 27.1-72 55-133.6 78.1-195.6-31.5 27.08-76.4 108.1-114.7 191.1 9.3-87.5 27-166.9 28.2-235.1-14.9 25.45-44.4 99.19-68.1 179.3-4.8-96.23-12.8-188.3-24.4-222.4 1.5 76.34-2.4 160.6-8 255.2-13.6-53.3-34.1-115.1-63.4-184.6 11.6 81.41 31.8 168.2 38.6 254.5-18.9-128.6-66.2-242-91-284.6z"/></symbol><symbol viewBox="-0.258 -0.548 512.195 512.162" id="icon-hiker"><title>hiker</title><path d="M247.7 114.3c17.89 0 32.35-14.55 32.35-32.47 0-17.89-14.46-32.35-32.35-32.35s-32.44 14.46-32.44 32.35c0 17.92 14.55 32.46 32.42 32.46zM193 119.6c1.254-4.99-1.898-9.955-6.8-11.21l-26.99-6.493c-5.053-1.164-10.04 1.808-11.18 6.772l-22.74 93.9c-1.253 4.99 1.81 9.954 6.8 11.21l27.08 6.492c4.9 1.255 9.955-1.807 11.12-6.8l22.66-93.9zM317.6 453.5c0 .196-.09.353-.09.46 0 4.136 3.368 7.472 7.474 7.472 3.736 0 6.893-2.878 7.35-6.493l54.42-294.9v-.58c0-4.012-3.276-7.384-7.382-7.384-3.736 0-6.618 2.878-7.383 6.524l-54.42 295.2zM136.7 434.3c-.306 1.533-.4 3.062-.4 4.595 0 12.62 10.17 22.76 22.79 22.76 10.36 0 19.05-6.893 21.84-16.26l39.15-162.1 37.31 161.1c2.388 9.955 11.39 17.22 21.99 17.22 12.65 0 22.79-10.14 22.79-22.76 0-1.745-.184-3.368-.49-4.992l-51.17-214.4 4.29-18.87 3.367 14.82c3.062 9.68 11.85 10.63 11.85 10.63l52.74 13.42c1.043.185 2.113.275 3.156.275 8.607 0 15.59-6.893 15.59-15.5 0-7.383-5.054-13.6-11.95-15.22l-45.6-11.5-12.6-50.9c-5.944-28.43-33.11-27.75-33.11-27.75-26.4-.675-33.02 27.11-33.02 27.11l-68.5 287.9z"/></symbol><symbol viewBox="0 0 512 512" id="icon-info"><title>info</title><path d="M256 90.002c91.74 0 166 74.24 166 165.998 0 91.74-74.245 165.998-166 165.998-91.738 0-166-74.242-166-165.998 0-91.74 74.243-165.998 166-165.998m0-40C142.23 50.002 50 142.228 50 256c0 113.77 92.23 205.998 206 205.998S462 369.768 462 256c0-113.772-92.23-205.998-206-205.998zm-3.434 321.806c-28.21 9.913-51.466-1.455-46.8-28.547 4.666-27.097 31.435-85.108 35.254-96.078 3.816-10.97-3.502-13.977-11.346-9.513-4.524 2.61-11.248 7.84-17.02 12.924-1.6-3.223-3.852-6.906-5.542-10.433 9.42-9.438 25.164-22.093 43.803-26.68 22.27-5.497 59.492 3.29 43.494 45.858-11.425 30.34-19.504 51.276-24.595 66.868-5.088 15.598.955 18.868 9.863 12.79 6.96-4.75 14.372-11.213 19.806-16.225 2.515 4.087 3.32 5.39 5.806 10.085-9.433 9.67-34.108 32.296-52.724 38.953zm58.45-187.68c-12.795 10.89-31.76 10.654-42.37-.533-10.607-11.18-8.837-29.076 3.955-39.97 12.795-10.89 31.764-10.653 42.37.526 10.607 11.187 8.84 29.08-3.954 39.977z"/></symbol><symbol viewBox="0 0 512 512" id="icon-layers"><title>layers</title><path d="M422.486 232.958L462 256 255.966 376.166 50 256l39.497-23.042 166.47 97.125 166.52-97.125zm-166.52 182.957L89.496 318.8 50 341.833 255.966 462 462 341.834 422.486 318.8l-166.52 97.115zM462 170.167L255.966 50 50 170.167l205.966 120.167L462 170.167z"/></symbol><symbol viewBox="0 0 512 512" id="icon-list"><title>list</title><path d="M123.027 413.5H50v-65h73.027v65zm0-190H50v65h73.027v-65zm0-125H50v65h73.027v-65zm45 0v65H462v-65H168.027zm0 190H462v-65H168.027v65zm0 125H462v-65H168.027v65z"/></symbol><symbol viewBox="0 0 512 512" id="icon-locate"><title>locate</title><path d="M462 256c0-7.738-.502-15.36-1.35-22.89h-23.14c-10.3-82.8-75.8-148.3-158.6-158.6V51.39c-7.5-.88-15.2-1.38-22.9-1.38-7.738 0-15.36.502-22.89 1.347v23.14c-82.8 10.32-148.3 75.81-158.6 158.6H51.4c-.88 7.5-1.38 15.2-1.38 22.9 0 7.738.503 15.36 1.35 22.89h23.14c10.32 82.78 75.83 148.3 158.6 158.6v23.14c7.53.803 15.15 1.326 22.89 1.326 7.736 0 15.36-.502 22.89-1.347v-23.14c82.77-10.35 148.3-75.84 158.6-158.6h23.14c.9-7.5 1.4-15.1 1.4-22.9zM278.9 391.3v-20.83c0-12.66-10.26-22.89-22.89-22.89s-22.89 10.23-22.89 22.89v20.83c-57.4-9.7-102.7-54.9-112.3-112.4h20.8c12.66 0 22.89-10.26 22.89-22.89s-10.23-22.89-22.89-22.89h-20.83c9.6-57.4 54.9-102.7 112.3-112.4v20.83c0 12.63 10.26 22.89 22.89 22.89s22.89-10.26 22.89-22.89v-20.83c57.47 9.667 102.7 54.92 112.4 112.4h-20.83c-12.66 0-22.89 10.26-22.89 22.89s10.23 22.89 22.89 22.89h20.83c-9.7 57.5-54.9 102.7-112.4 112.4z"/></symbol><symbol viewBox="0 0 100 100" id="icon-map-pin-wide"><title>map-pin-wide</title><path d="M50 0C31.294 0 16.13 15.165 16.13 33.87c0 .4.01.81.03 1.22.126 3.56.797 6.976 1.938 10.173C25.324 69.015 50 100 50 100s24.673-30.982 31.9-54.734c1.143-3.197 1.813-6.617 1.94-10.175.02-.41.03-.818.03-1.22C83.87 15.165 68.706 0 50 0zm0 50.46c-9.16 0-16.59-7.43-16.59-16.59S40.84 17.282 50 17.282c9.162 0 16.59 7.428 16.59 16.588S59.16 50.46 50 50.46z"/></symbol><symbol viewBox="0 0 100 100" id="icon-map-pin"><title>map-pin</title><path d="M50 0C31.294 0 16.13 15.165 16.13 33.87c0 .4.01.81.03 1.22.126 3.56.797 6.976 1.938 10.173C25.324 69.015 50 100 50 100s24.673-30.982 31.9-54.734c1.143-3.197 1.813-6.617 1.94-10.175.02-.41.03-.818.03-1.22C83.87 15.165 68.706 0 50 0zm0 50.46c-9.16 0-16.59-7.43-16.59-16.59S40.84 17.282 50 17.282c9.162 0 16.59 7.428 16.59 16.588S59.16 50.46 50 50.46z"/></symbol><symbol viewBox="0 0 512 512" id="icon-maple-leaf"><title>maple-leaf</title><path d="M256 50l-31.86 62.13c-3.617 6.753-10.09 6.127-16.58 2.357l-23.07-12.49 17.19 95.44c3.617 17.44-7.985 17.44-13.71 9.9l-40.26-47.12-6.54 23.93c-.75 3.14-4.06 6.44-9.034 5.656l-50.88-11.2 13.38 50.8c2.86 11.31 5.096 15.99-2.888 18.98l-18.14 8.916 87.63 74.42c3.47 2.813 5.224 7.877 3.988 12.46l-7.672 26.32c30.18-3.643 57.23-6.898 87.4-10.53 2.678-.04 7.123 2.343 7.102 5.577l-3.996 96.41h14.67l-2.307-96.2c-.02-3.234 4.014-5.822 6.695-5.784 30.17 3.63 57.23 6.884 87.4 10.53l-7.664-26.32c-1.236-4.58.515-9.65 3.985-12.46l87.64-74.42-18.15-8.916c-7.984-2.983-5.75-7.667-2.885-18.98l13.37-50.83-50.91 11.19c-4.972.783-8.29-2.513-9.04-5.656l-6.537-23.93-40.26 47.12c-5.728 7.54-17.33 7.54-13.71-9.9l17.19-95.44-23.07 12.49c-6.478 3.775-12.96 4.397-16.57-2.356l-31.9-62z"/></symbol><symbol viewBox="0 0 512 512" id="icon-mountain"><title>mountain</title><path d="M333.5 434.6H73.2c43.38-75.13 86.76-150.3 130.1-225.4 43.38 75.13 86.76 150.3 130.1 225.4zM462 401.5L328.8 156.1l-69.1 125.8 69.1 119.6zM252.3 270.8l-49-80.9-98.7 167.9H50L211.9 77.4l75.7 131.1z"/></symbol><symbol viewBox="0 0 580 580" id="icon-shopping_supermarket"><title>shopping_supermarket</title><path fill="param(fill) #FFF" stroke="param(outline) #000" stroke-width="param(outline-width) 1" d="M551.012 83.98c-3.835-6.77-12.432-9.145-19.2-5.312l-49.41 27.997c-3.417 1.937-5.87 5.21-6.77 9.036l-8.17 34.79H56.197c-4.353 0-8.46 2.013-11.128 5.452-2.668 3.438-3.598 7.917-2.518 12.133L92.218 361.9c1.42 5.536 6.04 9.667 11.7 10.456l308.018 42.937v16.32h-274.79c-6.052 0-11.2 3.825-13.192 9.184-4.206 2.108-8.082 4.96-11.47 8.503-7.77 8.124-12.05 18.894-12.05 30.326-.002 23.772 18.688 43.115 41.664 43.118h.004c11.212 0 21.73-4.54 29.617-12.784 7.77-8.124 12.05-18.894 12.05-30.326v-.008c0-7.15-1.703-13.895-4.694-19.838H351.14c-3.73 6.552-5.726 14.04-5.727 21.838 0 23.773 18.69 43.115 41.665 43.118h.005c11.212 0 21.73-4.54 29.616-12.784 7.77-8.124 12.05-18.894 12.05-30.326v-.008c0-7.966-2.11-15.43-5.766-21.838h3.037c7.78 0 14.088-6.307 14.088-14.087v-43.98l52.7-234.048c.248-1.098.353-2.21.336-3.313l8.505-36.22 44.05-24.96c6.77-3.835 9.148-12.43 5.312-19.2zM137.46 331.476h68.3v26.63l-69.85-9.737c.977-1.482 1.55-3.255 1.55-5.162v-11.732zm-44.22-79.084h25.438v60.302h-9.984L93.24 252.392zm44.22 0h68.3v60.302h-68.3v-60.302zm289.915 60.302H404.71v-60.302h38.823l-14.21 60.507c-.63-.133-1.28-.206-1.948-.206zm-41.445 0h-70.303v-60.302h70.303v60.302zm-89.084 0h-72.302v-60.302h72.302v60.302zm18.78-79.084v-54.946h70.304v54.946h-70.303zm-18.78 0h-72.302v-54.946h72.302v54.946zm-91.085 0h-68.3v-54.946h68.3v54.946zm18.783 97.866h72.302v39.326l-72.302-10.078v-29.248zm91.084 40.683v-40.685h70.303v51.745l-70.396-9.813c.055-.41.093-.824.093-1.248zm89.084 13.36v-54.045h20.25l-12.65 53.875c-.117.5-.202 1.004-.264 1.512l-7.35-1.025c.002-.107.015-.21.015-.316zM447.854 234c-.844-.25-1.735-.388-2.66-.388h-40.48v-54.946h56.135l-12.995 55.334zm-329.175-55.334v54.946h-30.25l-14.08-54.946h44.33zm-5.172 152.812h5.172v11.73c0 .983.152 1.93.432 2.82l-1.944-.27-3.66-14.28zm50.265 148.15v.004c0 6.258-2.31 12.12-6.503 16.504-4.076 4.262-9.46 6.608-15.164 6.608h-.002c-11.947 0-21.666-10.37-21.665-23.116 0-6.26 2.31-12.12 6.504-16.504 1.636-1.712 3.492-3.098 5.487-4.164 1.478.526 3.062.828 4.72.828h16.055c6.324 4.04 10.57 11.42 10.57 19.84zm244.982 2v.004c0 6.258-2.31 12.12-6.504 16.504-4.077 4.262-9.462 6.608-15.163 6.608h-.003c-11.948 0-21.668-10.37-21.667-23.116 0-6.258 2.31-12.12 6.504-16.504 2.337-2.443 5.112-4.233 8.123-5.336h14.117c8.482 3.136 14.59 11.74 14.592 21.84z"/></symbol><symbol viewBox="0 0 512 512" id="icon-snowflake"><title>snowflake</title><path d="M443.8 230.1l-42.3.06 8.417-13.29c5.36-8.462 2.855-19.66-5.595-25.01-8.466-5.382-19.66-2.854-25.01 5.583l-20.75 32.78-71.3.103 35.62-62.62 49.19-2.677c10.02-.54 17.68-9.073 17.12-19.1-.536-10-9.064-17.68-19.08-17.12l-25.91 1.388 11.41-20.05c4.948-8.7 1.912-19.76-6.78-24.74-8.707-4.953-19.75-1.913-24.72 6.812l-11.4 20.13-7.1-12.89c-4.813-8.79-15.84-11.97-24.63-7.133-8.748 4.828-11.93 15.86-7.112 24.63l17.77 32.33-35.63 62.65-35.64-62.64 17.77-32.33c4.82-8.767 1.64-19.8-7.11-24.63-8.79-4.834-19.81-1.654-24.62 7.134l-7.2 12.9-11.5-20.21c-4.97-8.725-16.02-11.77-24.72-6.812-8.69 4.97-11.73 16.03-6.783 24.74l11.41 20.05-25.91-1.39c-10.01-.56-18.54 7.12-19.08 17.12-.552 10.02 7.11 18.56 17.13 19.1l49.19 2.678 35.62 62.62-71.3-.107-20.75-32.78c-5.356-8.438-16.55-10.96-25.01-5.584-8.45 5.352-10.95 16.55-5.594 25.01l8.412 13.29-42.3-.06c-10.01 0-18.14 8.108-18.17 18.13 0 10.01 8.088 18.17 18.09 18.17l41.66.06-13.15 21.16c-5.274 8.49-2.674 19.67 5.817 25 8.495 5.275 19.68 2.68 24.96-5.856l25.02-40.23 72.43.103-34.62 60.62-37.4 2.148c-9.99.607-17.63 9.148-17.05 19.14.58 9.997 9.134 17.68 19.12 17.07l13.88-.79-21.16 37.06c-4.944 8.717-1.928 19.8 6.753 24.75 8.677 5.002 19.75 1.98 24.72-6.747l21.98-38.48 13 23.35c4.882 8.78 15.9 11.94 24.65 7.027 8.726-4.858 11.89-15.89 7.02-24.66l-23.66-42.52 33.89-59.34.05.09.05-.09 33.89 59.34-23.64 42.52c-4.873 8.763-1.705 19.8 7.02 24.66 8.748 4.903 19.77 1.753 24.65-7.027l13-23.35 21.98 38.48c4.966 8.726 16.04 11.75 24.72 6.746 8.682-4.954 11.7-16.03 6.753-24.75l-21.16-37.06 13.88.79c9.99.615 18.54-7.072 19.12-17.07.585-9.995-7.06-18.53-17.06-19.14l-37.41-2.148-34.61-60.62 72.43-.103 25.02 40.23c5.274 8.536 16.46 11.13 24.96 5.855 8.49-5.332 11.1-16.51 5.82-25l-13.16-21.16 41.66-.06c10 0 18.09-8.157 18.09-18.17-.04-10.02-8.16-18.13-18.17-18.13z"/></symbol><symbol viewBox="-1 -1.167 100 100" id="icon-sun-2"><title>sun-2</title><path d="M49 22.768c-1.64 0-2.97-1.33-2.97-2.97V2.97C46.03 1.33 47.36 0 49 0c1.64 0 2.97 1.33 2.97 2.97V19.8c0 1.64-1.33 2.968-2.97 2.968zM49 98c-1.64 0-2.97-1.33-2.97-2.97V78.203c0-1.64 1.33-2.97 2.97-2.97 1.64 0 2.97 1.33 2.97 2.97V95.03c0 1.64-1.33 2.97-2.97 2.97zM95.032 51.968h-16.83c-1.64 0-2.97-1.328-2.97-2.97 0-1.64 1.33-2.97 2.97-2.97h16.83c1.64 0 2.97 1.33 2.97 2.97 0 1.642-1.33 2.97-2.97 2.97zM19.798 51.968H2.968C1.33 51.968 0 50.64 0 49s1.33-2.97 2.97-2.97h16.828c1.64 0 2.97 1.33 2.97 2.97 0 1.64-1.33 2.968-2.97 2.968zM81.55 84.52c-.76 0-1.52-.29-2.1-.87l-11.9-11.9c-1.16-1.16-1.16-3.04 0-4.198 1.16-1.16 3.04-1.16 4.2 0l11.9 11.898c1.16 1.16 1.16 3.04 0 4.2-.58.58-1.34.87-2.1.87zM28.353 31.32c-.76 0-1.52-.29-2.1-.87l-11.9-11.898c-1.16-1.16-1.16-3.04 0-4.2 1.16-1.16 3.04-1.16 4.2 0l11.9 11.9c1.16 1.16 1.16 3.04 0 4.2-.58.58-1.34.87-2.1.87zM16.454 84.52c-.76 0-1.52-.29-2.1-.87-1.16-1.158-1.16-3.038 0-4.198l11.9-11.9c1.16-1.16 3.038-1.16 4.198 0 1.16 1.16 1.16 3.04 0 4.2l-11.9 11.9c-.577.58-1.338.87-2.098.87zM69.652 31.324c-.76 0-1.52-.29-2.1-.87-1.16-1.16-1.16-3.04 0-4.2l11.9-11.9c1.16-1.16 3.04-1.16 4.198 0 1.16 1.16 1.16 3.04 0 4.2l-11.9 11.9c-.58.58-1.338.87-2.098.87zM49 68.362c-10.674 0-19.36-8.686-19.36-19.362 0-10.675 8.686-19.36 19.36-19.36 10.677 0 19.362 8.685 19.362 19.36 0 10.676-8.685 19.362-19.36 19.362zm0-32.783c-7.4 0-13.42 6.02-13.42 13.42S41.6 62.422 49 62.422c7.402 0 13.422-6.02 13.422-13.422 0-7.4-6.02-13.42-13.42-13.42z"/></symbol><symbol viewBox="-1 -1.167 512 512" id="icon-sun"><title>sun</title><path d="M255 144.6c-6.9 0-12.49-5.587-12.49-12.49V61.36c0-6.894 5.587-12.49 12.49-12.49 6.895 0 12.48 5.592 12.48 12.49v70.75c0 6.895-5.587 12.48-12.48 12.48zM255 460.8c-6.9 0-12.49-5.587-12.49-12.49v-70.74c0-6.895 5.587-12.49 12.49-12.49 6.895 0 12.48 5.59 12.48 12.49v70.75c0 6.895-5.587 12.48-12.48 12.48zM448.5 267.3h-70.75c-6.894 0-12.49-5.583-12.49-12.48 0-6.895 5.592-12.49 12.49-12.49h70.75c6.895 0 12.49 5.59 12.49 12.49s-5.596 12.48-12.49 12.48zM132.2 267.3H61.45c-6.86 0-12.45-5.6-12.45-12.5 0-6.894 5.587-12.49 12.48-12.49h70.75c6.894 0 12.49 5.592 12.49 12.49 0 6.895-5.592 12.48-12.49 12.48zM391.8 404.2c-3.195 0-6.39-1.22-8.83-3.658l-50-50c-4.876-4.877-4.876-12.78 0-17.65 4.873-4.877 12.78-4.877 17.65 0l50.03 50.02c4.878 4.877 4.878 12.78 0 17.65-2.433 2.44-5.632 3.658-8.827 3.658zM168.2 180.5c-3.19 0-6.386-1.22-8.824-3.66l-50.03-50.02c-4.876-4.872-4.876-12.78 0-17.65 4.877-4.875 12.78-4.875 17.66 0l50.03 50.02c4.877 4.873 4.877 12.78 0 17.66-2.442 2.437-5.637 3.656-8.832 3.656zM118.2 404.2c-3.195 0-6.39-1.22-8.83-3.657-4.875-4.873-4.875-12.78 0-17.65l50.02-50.02c4.877-4.876 12.78-4.876 17.65 0 4.878 4.873 4.878 12.77 0 17.65l-50.02 50.03c-2.43 2.438-5.628 3.657-8.824 3.657zM341.8 180.5c-3.195 0-6.395-1.22-8.83-3.658-4.875-4.873-4.875-12.78 0-17.66l50.02-50.03c4.877-4.88 12.78-4.88 17.65 0 4.878 4.872 4.878 12.78 0 17.65l-50.02 50.03c-2.437 2.443-5.628 3.662-8.823 3.662zM255 336.2c-44.88 0-81.39-36.52-81.39-81.4s36.52-81.4 81.39-81.4c44.88 0 81.39 36.52 81.39 81.4s-36.51 81.4-81.39 81.4zm0-137.8c-31.11 0-56.43 25.31-56.43 56.42s25.31 56.43 56.43 56.43c31.11 0 56.42-25.31 56.42-56.43S286.11 198.4 255 198.4z"/></symbol><symbol viewBox="0 0 512 512" id="icon-tools"><title>tools</title><path d="M158.055 249.342l160.08 160.08c13.483 13.482 35.338 13.48 48.82 0 13.48-13.48 13.48-35.337 0-48.82l-160.08-160.08c-7.697-7.695-11.66-18.4-10.82-29.25 1.59-20.56-5.475-41.66-21.198-57.384-20.37-20.37-49.916-26.31-75.68-17.4l46.54 46.54c1.068 18.162-27.02 46.232-45.16 45.158l-46.537-46.54c-8.864 25.632-3.067 55.21 17.398 75.678 14.28 14.28 32.994 21.416 51.71 21.416 5.156 0 21.16-3.163 34.927 10.602zM340.86 368.68c7.857 0 14.23 6.368 14.23 14.227s-6.372 14.23-14.23 14.23c-7.856 0-14.227-6.37-14.227-14.23s6.37-14.228 14.228-14.228zM219.445 115.33s88.328-43.475 146.982.69c33.28 25.058 28.81 47.44 43.82 62.45 13.8 13.8 30.705 2.416 30.705 2.416L462 201.933l-67.28 67.28-21.048-21.046s9.086-12.995-1.727-23.806c-9.773-9.775-21.966-7.016-34.732 5.75l-30.984 30.986-46.995-46.995 31.347-31.347c29.022-29.022-.936-60.408-71.138-67.424zm-.89 233.055l-61.475 61.15c-12.964 12.965-33.98 12.965-46.94 0-12.963-12.96-12.963-33.977 0-46.937l61.474-61.153 46.94 46.94z"/></symbol><symbol viewBox="0 0 580 580" id="icon-tourist_museum"><title>tourist_museum</title><path fill="param(fill) #FFF" stroke="param(outline) #000" stroke-width="param(outline-width) 1" d="M501.772 419.162v-211.34h52.274v-58.905h3.85l-3.85-1.305v-13.38h-39.45L293.68 59.313l-225.108 74.92h-40.46V147.7l-3.66 1.218h3.66v58.906h48.995v211.34H54.205L23.16 470.466l534.483-.93-29.084-50.375H501.77zm-302.06-211.34v211.34h-74.117v-211.34h74.117zm48.487 0h82.48v211.34H248.2v-211.34zm130.968 0h74.118v211.34h-74.118v-211.34z"/></symbol><symbol viewBox="0 0 580 580" id="icon-tourist_picnic"><title>tourist_picnic</title><path fill="param(fill) #FFF" stroke="param(outline) #000" stroke-width="param(outline-width) 1" d="M531.26 284.476H414.355l-47.578-116.902h79.29V124.1H131.79v43.473h78.718l-47.58 116.902H46.62v43.455h98.69l-54.625 136.3h53.458l55.216-136.3h178.57l55.216 136.3h54.05l-55.215-136.3h99.28v-43.454zm-319.57 0l47.58-116.902h48.762l47.578 116.902H211.69z"/></symbol><symbol viewBox="0 0 580 580" id="icon-transport_lighthouse"><title>transport_lighthouse</title><g opacity=".5" fill="param(fill) #FFF" stroke="param(outline) #000" stroke-width="param(outline-width) 1"><path d="M239.81 100.792L36.553 74.942c-1.432-.185-2.87.262-3.95 1.218-1.078.957-1.69 2.333-1.68 3.775l.59 85.763c.01 1.428.63 2.783 1.703 3.725.917.804 2.09 1.24 3.297 1.24.206 0 .412-.012.618-.038l202.667-25.26c2.503-.31 4.382-2.438 4.382-4.96v-34.653c0-2.518-1.873-4.643-4.37-4.96zM551.852 76.148c-1.078-.95-2.508-1.39-3.938-1.208L345.25 100.79c-2.497.32-4.368 2.444-4.368 4.96v34.062c0 2.517 1.87 4.64 4.367 4.96l202.664 25.85c.21.028.423.04.633.04 1.21 0 2.386-.438 3.305-1.247 1.077-.95 1.695-2.316 1.695-3.752V79.9c0-1.436-.618-2.802-1.695-3.752z"/></g><g fill="param(fill) #FFF" stroke="param(outline) #000" stroke-width="param(outline-width) 1"><path d="M220.736 85.72h140.98c5.893 0 8.53-3.987 8.53-7.94 0-2.873-1.418-5.396-3.99-7.105-.114-.075-.23-.145-.348-.21l-72.264-39.94c-1.51-.835-3.344-.833-4.854.008l-71.655 39.94c-.106.06-.21.123-.31.19-2.6 1.707-4.03 4.236-4.03 7.117 0 2.928 1.195 4.738 2.2 5.742 1.004 1.003 2.814 2.2 5.74 2.2zM405.45 543.024l-46.84-357.42h6.637c7.063 0 11.45-4.388 11.453-11.455-.002-7.077-4.39-11.472-11.454-11.472h-147.45c-3.52 0-6.338 1.04-8.38 3.087-2.04 2.045-3.074 4.866-3.074 8.384 0 3.515 1.035 6.333 3.078 8.375s4.86 3.078 8.376 3.078h6.626l-47.42 357.413c-.188 1.428.247 2.868 1.197 3.952.948 1.084 2.32 1.705 3.76 1.705h218.53c1.44 0 2.81-.62 3.76-1.702s1.386-2.52 1.2-3.946zM255.322 123.394c0 20.463 16.648 37.112 37.112 37.112 20.463 0 37.11-16.648 37.11-37.112s-16.647-37.112-37.11-37.112-37.112 16.65-37.112 37.112z"/></g></symbol><symbol viewBox="0 0 580 580" id="icon-transport_marina"><title>transport_marina</title><path fill="param(fill) #FFF" stroke="param(outline) #000" stroke-width="param(outline-width) 1" d="M500.816 383.164l-14.09-88.703c-1.567-9.405-7.44-14.107-17.623-14.107-4.71 0-9.02 1.96-12.926 5.88l-65.22 61.096c-4.696 3.907-7.045 8.603-7.044 14.09 0 9.405 4.308 15.477 12.925 18.214l16.457 5.288c-8.223 22.325-21.342 41.417-39.358 57.276-18.017 15.86-38.773 26.138-62.27 30.835V183.44c26.232-11.366 39.35-31.343 39.35-59.93 0-17.617-6.364-32.79-19.092-45.518-12.73-12.728-28.1-19.092-46.11-19.092-17.627 0-32.803 6.365-45.524 19.092-12.722 12.73-19.082 27.9-19.082 45.517 0 28.587 13.313 48.563 39.94 59.93v290.185c-23.89-4.697-45.235-14.98-64.034-30.844-18.8-15.864-32.31-35.15-40.533-57.858l16.458-5.288c8.604-2.737 12.907-8.81 12.907-18.215 0-5.092-2.15-9.788-6.454-14.09l-65.79-61.097c-3.92-3.92-8.23-5.88-12.926-5.88-10.183 0-16.057 4.703-17.622 14.108l-14.09 88.704c-.396 1.948-.592 3.316-.592 4.105 0 12.536 6.46 18.804 19.38 18.804 1.96 0 3.722-.197 5.288-.592l15.274-5.287c12.537 37.6 34.958 68.34 67.262 92.225 32.304 23.885 68.822 35.827 109.552 35.827 40.335 0 76.954-12.137 109.856-36.41 31.72-23.496 53.847-54.043 66.384-91.642l15.274 5.287c1.565.395 3.328.592 5.288.592 12.92 0 19.38-6.268 19.38-18.805 0-.79-.198-2.158-.592-4.106zm-215-232.62c-7.05 0-13.22-2.645-18.508-7.934-5.29-5.288-7.933-11.655-7.933-19.1 0-7.052 2.644-13.22 7.933-18.502 5.288-5.282 11.458-7.923 18.51-7.924 7.445 0 13.81 2.642 19.09 7.924 5.283 5.283 7.925 11.45 7.925 18.5 0 7.447-2.642 13.814-7.924 19.102-5.283 5.288-11.647 7.933-19.093 7.933z"/></symbol><symbol viewBox="0 0 100 100" id="icon-tree"><title>tree</title><path d="M87.195 87l-15.18-29h8.906L61.74 29h8.907L50.1 0 28.92 29h8.908l-19.18 29h8.906l-15.18 29H45v13h10V87z"/></symbol><symbol viewBox="0 0 512 512" id="icon-x"><title>x</title><path d="M438.393 374.595L319.757 255.977l118.62-118.63-63.782-63.74-118.6 118.618-118.62-118.603-63.768 63.73 118.64 118.63L73.62 374.626l63.73 63.768 118.65-118.66 118.65 118.645z"/></symbol><symbol viewBox="0 0 512 512" id="icon-zoom-home"><title>zoom-home</title><path d="M419.492 275.815v166.213H300.725v-90.33h-89.45v90.33H92.506V275.815H50L256 69.972l206 205.844h-42.508zm-25.42-187.343h-47.917v38.31l47.917 48.024V88.472z"/></symbol><symbol viewBox="0 0 512 512" id="icon-zoom-in"><title>zoom-in</title><path d="M460.475 408.443L351.4 299.37c15.95-25.137 25.2-54.923 25.2-86.833C376.6 122.914 303.687 50 214.062 50 124.44 50 51.525 122.914 51.525 212.537s72.914 162.537 162.537 162.537c30.326 0 58.733-8.356 83.055-22.876L406.917 462l53.558-53.557zM96.315 212.538c0-64.927 52.82-117.748 117.746-117.748 64.927 0 117.75 52.82 117.75 117.748 0 64.926-52.823 117.747-117.75 117.747-64.925 0-117.745-52.82-117.745-117.747zm185.96 19.344h-47.728v47.73h-36.86v-47.73h-47.73v-36.86h47.73v-47.73h36.86v47.73h47.73v36.86z"/></symbol><symbol viewBox="0 0 512 512" id="icon-zoom-out"><title>zoom-out</title><path d="M460.475 408.443L351.4 299.37c15.95-25.137 25.2-54.923 25.2-86.833C376.6 122.914 303.687 50 214.062 50 124.44 50 51.525 122.914 51.525 212.537s72.914 162.537 162.537 162.537c30.325 0 58.732-8.356 83.055-22.876L406.917 462l53.558-53.557zM96.315 212.538c0-64.927 52.82-117.748 117.746-117.748 64.927 0 117.75 52.82 117.75 117.748 0 64.926-52.823 117.747-117.75 117.747-64.925 0-117.745-52.82-117.745-117.747zm185.96 19.344H149.958v-36.86h132.32v36.86z"/></symbol></svg>