<svg xmlns="http://www.w3.org/2000/svg"><symbol viewBox="0 0 512 512" id="icon-_bb"><title>_bb</title><g><path d="M336.178 285.084H263.45c-18.475-42.72-33.136-87.242-35.66-161.39h144.047c-2.5 73.517-17.65 119.957-35.66 161.39zm50.58 399.856c-.386 5.42-.832 10.75-1.355 16.002h22.907c-5.387 19.276-16.46 37.758-31.132 51.73-1.808 8.122-3.842 16.235-6.538 25.41 32.624-20.958 53.69-58.24 56.862-93.142H386.76zm-78.176-28.985c44.398-40.02-9.188-37.908 1.09-65.595-35.432 35.77 13.21 36.57-1.09 65.595zm-26.074 0c29.574-26.48-6.2-29.07.84-47.778-24.742 26.104 8.9 26.783-.84 47.778z"/><path d="M110.935 411.684h270.83V462h26.417v-75.472H110.935v-109.02q0-12.997-13.023-12.997-13.414 0-13.414 12.997V461.97h26.437v-50.316zm40.66 459.418q10.08 0 17.002-6.917 6.923-6.916 6.923-16.982 0-10.06-6.923-16.985-6.922-6.918-17-6.918-10.08 0-17 6.918-6.886 6.92-6.886 16.985 0 10.062 6.887 16.982 6.92 6.917 17 6.917zm-23.493 24.314q0 11.737 11.77 11.737h268.77v-32.697q0-17.187-18.86-18.86l-187.83-18.725q-.433 0-.866-.432-12.156 0-12.156 11.738v35.633h-49.057q-11.727 0-11.727 11.737z"/></g></symbol><symbol viewBox="0 0 512 512" id="icon-activities"><title>activities</title><path d="M342.6 134.6q12.13 0 20.62-8.493 8.493-8.493 8.493-20.62t-8.493-20.63q-8.493-8.493-20.62-8.493-11.65 0-20.38 8.493-8.735 8.493-8.735 20.63 0 12.13 8.493 20.62 8.492 8.493 20.62 8.493zm93.66-66l-71.82 72.31h-42.71L249.42 68.6q-4.368-4.368-10.68-4.368-15.04 0-15.04 15.04 0 5.824 4.368 9.706l75.71 76.19v250.9q0 6.794 4.61 11.65 4.61 4.853 11.4 4.853 16.5 0 16.5-16.5v-136.4h13.1v136.4q0 6.795 4.853 11.65 4.854 4.854 11.65 4.854 6.795 0 11.65-4.853 4.854-4.852 4.854-11.65v-250.9l75.71-76.19q3.883-3.88 3.883-9.705 0-15.04-14.56-15.04-6.31 0-11.16 4.368zm-186.4 265q4.368 4.368 11.16 4.368 14.56 0 14.56-14.56 0-6.31-4.367-10.19l-60.66-61.15q-7.28-7.28-17.47-7.28h-60.66q-10.19 0-16.99 7.28l-61.15 61.15q-4.368 3.883-4.368 9.706 0 15.04 15.04 15.04 6.31 0 10.68-4.368l47.56-47.56v63.57h-53.38q-7.28 0-12.38 5.096-5.096 5.095-5.096 12.38 0 7.28 5.337 12.62l59.69 60.18q5.338 7.764 15.04 7.764 7.28 0 12.62-5.338 5.338-5.338 5.338-12.62 0-4.853-2.427-9.22l-33.48-33.97h98.03l-33.97 33.97q-2.426 4.367-2.426 9.22 0 7.28 5.096 12.62 5.095 5.338 12.86 5.338 9.706 0 15.04-7.764l59.69-59.69q5.338-5.34 5.338-13.1 0-7.28-5.095-12.38-5.095-5.096-12.38-5.096h-53.38v-62.6zm-86.38-95.12q12.13 0 20.62-8.493 8.493-8.492 8.493-20.62t-8.493-20.62q-8.492-8.493-20.62-8.493t-20.62 8.493q-8.493 8.493-8.493 20.62t8.493 20.62q8.493 8.493 20.62 8.493z"/></symbol><symbol viewBox="0 0 580 580" id="icon-amenity_bench"><title>amenity_bench</title><path stroke-width="param(outline-width) 1" d="M529.47 221.775H62.93v40h69.627v103.4h30v-103.4H429.84v103.4h30v-103.4h69.63z"/></symbol><symbol viewBox="0 0 512 512" id="icon-audio_link"><title>audio_link</title><path d="M135.704 333.428h-57.72c-15.455 0-27.984-12.53-27.984-27.985v-98.886c0-15.455 12.53-27.984 27.983-27.984h57.72v154.855zm31.45-161.795V340.37l135.238 77.862V93.768l-135.238 77.865zm172.837 25.173c15.103 15.134 24.426 36.036 24.386 59.11-.026 23.066-9.407 43.943-24.544 59.04l24.828 24.915c21.512-21.452 34.856-51.132 34.902-83.914.05-32.788-13.195-62.474-34.646-83.984l-24.925 24.834zm43.62-43.46c26.23 26.294 42.393 62.564 42.33 102.635-.053 40.07-16.37 76.35-42.665 102.58l25.443 25.546c32.83-32.752 53.212-78.06 53.28-128.09.078-50.027-20.1-95.294-52.838-128.12l-25.55 25.45z"/></symbol><symbol viewBox="0 0 512 512" id="icon-back"><title>back</title><path d="M68.7 256L275 50v67.8h168.32v276.4H275V462z"/></symbol><symbol viewBox="0 0 512 512" id="icon-bb"><title>bb</title><path d="M270.973 462H143.477c-32.3-74.87-58.074-152.9-62.494-282.84h252.484c-4.38 128.83-30.93 210.226-62.494 282.84zm88.644-246.24c-.658 9.5-1.455 18.84-2.38 28.043h40.153c-9.45 33.785-28.857 66.17-54.56 90.657-3.175 14.24-6.74 28.452-11.46 44.53 57.17-36.73 94.092-102.065 99.646-163.23h-71.4zM222.61 164.953c77.81-70.13-16.1-66.428 1.91-114.953-62.113 62.687 23.145 64.093-1.91 114.953zm-45.665.02c51.797-46.404-10.915-50.953 1.427-83.74-43.394 45.754 15.617 46.95-1.427 83.74z"/></symbol><symbol viewBox="0 0 512 512" id="icon-beach"><title>beach</title><path d="M184.9 355.4c-14.58 0-22.43-8.027-27.62-13.34-4.493-4.595-6.112-6.05-10.3-6.05-4.178 0-5.802 1.455-10.3 6.05-5.19 5.31-13.04 13.34-27.62 13.34s-22.43-8.03-27.63-13.34c-4.5-4.59-6.12-6.05-10.31-6.05-6.694 0-12.12-5.424-12.12-12.12 0-6.694 5.424-12.12 12.12-12.12 14.58 0 22.43 8.027 27.63 13.34 4.493 4.595 6.117 6.05 10.3 6.05 4.178 0 5.802-1.455 10.3-6.05 5.19-5.312 13.04-13.34 27.62-13.34s22.43 8.027 27.62 13.34c4.498 4.595 6.117 6.05 10.3 6.05 4.18 0 5.802-1.455 10.3-6.05 5.196-5.312 13.04-13.34 27.62-13.34 6.694 0 12.12 5.424 12.12 12.12 0 6.694-5.424 12.12-12.12 12.12-4.178 0-5.797 1.454-10.29 6.05-5.2 5.31-13 13.34-27.6 13.34zm218.1 0c-14.58 0-22.43-8.027-27.62-13.34-4.498-4.595-6.112-6.05-10.3-6.05-4.178 0-5.797 1.455-10.3 6.05-5.2 5.31-13 13.34-27.6 13.34-14.58 0-22.43-8.027-27.63-13.33-4.498-4.6-6.122-6.054-10.31-6.054-6.694 0-12.12-5.424-12.12-12.12 0-6.694 5.424-12.12 12.12-12.12 14.58 0 22.44 8.027 27.63 13.34 4.498 4.595 6.122 6.05 10.3 6.05s5.797-1.455 10.3-6.05c5.19-5.312 13.04-13.34 27.62-13.34s22.43 8.027 27.62 13.34c4.498 4.595 6.117 6.05 10.3 6.05 4.178 0 5.797-1.455 10.3-6.05 5.196-5.312 13.04-13.34 27.62-13.34 6.693 0 12.12 5.424 12.12 12.12 0 6.694-5.424 12.12-12.12 12.12-4.18 0-5.797 1.454-10.3 6.05-5.3 5.3-13.1 13.33-27.7 13.33zm-72.8-77.55c-14.58 0-22.44-8.027-27.63-13.34-4.5-4.595-6.122-6.05-10.31-6.05-4.173 0-5.797 1.455-10.29 6.045-5.2 5.317-13.05 13.34-27.63 13.34s-22.43-8.027-27.62-13.34c-4.498-4.595-6.117-6.05-10.3-6.05-4.178 0-5.802 1.455-10.3 6.05-5.196 5.312-13.04 13.34-27.62 13.34s-22.42-8.027-27.62-13.34c-4.494-4.59-6.113-6.044-10.29-6.044-6.694 0-12.12-5.423-12.12-12.12 0-6.693 5.424-12.12 12.12-12.12 14.57 0 22.42 8.028 27.61 13.34 4.493 4.596 6.112 6.05 10.29 6.05s5.797-1.454 10.29-6.05c5.196-5.31 13.04-13.34 27.62-13.34s22.43 8.028 27.62 13.34c4.493 4.596 6.117 6.05 10.3 6.05s5.802-1.454 10.3-6.05c5.19-5.31 13.04-13.34 27.61-13.34 14.58 0 22.44 8.028 27.63 13.34 4.498 4.596 6.122 6.05 10.31 6.05 4.183 0 5.806-1.454 10.3-6.05 5.197-5.31 13.05-13.34 27.63-13.34 6.693 0 12.12 5.425 12.12 12.12 0 6.695-5.424 12.12-12.12 12.12-4.188 0-5.812 1.455-10.31 6.055-5.196 5.308-13.05 13.33-27.63 13.33zm119.7-77.56c-15.43 0-23.65-7.397-29.66-12.8-4.876-4.387-7.324-6.587-13.46-6.587-6.132 0-8.58 2.2-13.45 6.587-6.005 5.404-14.24 12.8-29.66 12.8s-23.64-7.4-29.65-12.81c-4.867-4.382-7.315-6.582-13.43-6.582-6.126 0-8.574 2.2-13.44 6.587-6.006 5.4-14.23 12.8-29.66 12.8-15.42 0-23.64-7.4-29.64-12.81-4.872-4.382-7.315-6.582-13.44-6.582-6.117 0-8.56 2.2-13.43 6.582-6.005 5.404-14.22 12.81-29.64 12.81s-23.64-7.4-29.64-12.81c-4.867-4.382-7.31-6.582-13.43-6.582-6.117 0-8.56 2.2-13.43 6.582-6.006 5.404-14.22 12.81-29.64 12.81s-23.64-7.4-29.64-12.81c-4.866-4.382-7.31-6.582-13.43-6.582-6.694 0-12.12-5.424-12.12-12.12 0-6.694 5.424-12.12 12.12-12.12 15.42 0 23.64 7.4 29.64 12.81 4.866 4.38 7.31 6.582 13.43 6.582 6.117 0 8.56-2.2 13.43-6.582 6.006-5.405 14.23-12.81 29.64-12.81 15.42 0 23.64 7.4 29.64 12.81 4.867 4.38 7.31 6.582 13.42 6.582 6.112 0 8.56-2.2 13.43-6.582 6.006-5.405 14.23-12.81 29.64-12.81 15.42 0 23.64 7.4 29.65 12.81 4.87 4.38 7.314 6.582 13.43 6.582 6.127 0 8.57-2.2 13.44-6.582 6.01-5.405 14.23-12.81 29.66-12.81 15.42 0 23.64 7.4 29.64 12.81 4.866 4.38 7.314 6.582 13.44 6.582 6.132 0 8.58-2.2 13.45-6.587 6.005-5.405 14.24-12.8 29.66-12.8s23.65 7.396 29.66 12.8c4.876 4.386 7.324 6.587 13.46 6.587 6.694 0 12.12 5.424 12.12 12.12 0 6.694-5.424 12.12-12.12 12.12z"/></symbol><symbol viewBox="0 0 580 580" id="icon-bench"><title>bench</title><path stroke-width="param(outline-width) 1" d="M529.47 221.775H62.93v40h69.627v103.4h30v-103.4H429.84v103.4h30v-103.4h69.63z"/></symbol><symbol viewBox="0 0 580 580" id="icon-benches"><title>benches</title><path stroke-width="param(outline-width) 1" d="M529.47 221.775H62.93v40h69.627v103.4h30v-103.4H429.84v103.4h30v-103.4h69.63z"/></symbol><symbol viewBox="0 0 512 512" id="icon-bpark"><title>bpark</title><path d="M172.8 328.4q24.62 0 42.05 17.44 17.44 17.44 17.44 42.05 0 25.03-17.44 42.46-17.44 17.44-42.05 17.44-24.62 0-42.06-17.44t-17.44-42.46q0-24.62 17.44-42.05 17.44-17.44 42.06-17.44zm0 132.5q30.36 0 51.69-21.34 21.34-21.34 21.34-51.7 0-29.95-21.34-51.28-21.34-21.34-51.69-21.34-29.95 0-51.49 21.34t-21.54 51.28q0 30.36 21.54 51.7t51.49 21.34zm215-131.7q24.62 0 42.05 17.44 17.44 17.44 17.44 42.05 0 24.62-17.44 42.05-17.44 17.44-42.05 17.44-24.62 0-42.05-17.44-17.44-17.44-17.44-42.05 0-24.62 17.44-42.05 17.44-17.44 42.05-17.44zm-73.01 59.47q0 30.36 21.34 51.69 21.34 21.34 51.7 21.34t51.69-21.34q21.34-21.34 21.34-51.69 0-30.36-21.34-51.69-21.34-21.34-51.69-21.34-30.36 0-51.7 21.34t-21.34 51.69zm.41-178.1q11.08 0 19.28-8.002 8.21-8.003 8.21-19.49t-8.21-19.49q-8.207-8.002-19.28-8.002-11.49 0-19.49 8.002-8.002 8.002-8.002 19.49t8.003 19.49q8.003 8.002 19.49 8.002zm-109.9 87.82l59.08 32.82v61.95q0 6.564 4.72 11.28 4.717 4.718 11.28 4.718 6.566 0 11.28-4.718 4.716-4.718 4.716-11.28v-77.12q1.64-11.49-12.3-19.28l-34.05-18.05 36.92-36.51 17.64 27.9q4.513 6.975 11.49 6.975h53.33q12.31 0 12.31-10.67t-12.31-10.67h-45.95l-29.95-47.18q-6.153-9.845-18.87-10.67-9.023-1.23-17.23 6.974l-57.85 57.85q-6.153 6.152-6.153 15.59 0 13.54 11.89 20.1zm-59.77-138.6H95.58V91.61h49.95q14.23 0 24.15 9.924 9.925 9.924 9.925 24.15t-9.924 24.15q-9.923 9.924-24.15 9.924zm-.66-110.2H51.25v226.6h44.33v-72.77h49.29q32.09 0 54.58-22.5 22.5-22.5 22.5-54.26 0-32.09-22.5-54.58-22.5-22.5-54.58-22.5z"/></symbol><symbol viewBox="0 0 512 512" id="icon-calendar"><title>calendar</title><path d="M197.453 295.95h-58.905v-58.903h58.905v58.904zm89-58.903h-58.905v58.904h58.904v-58.903zm89 0h-58.906v58.904h58.905v-58.903zm-178 86h-58.905v58.906h58.905v-58.906zm89 0h-58.905v58.906h58.904v-58.906zm88.998 0h-58.903v58.906h58.904v-58.906zm21.94-204.916c0 10.036-8.136 18.172-18.17 18.172s-18.172-8.136-18.172-18.17V72.4c0-10.034 8.136-18.17 18.17-18.17s18.17 8.136 18.17 18.17v45.73zm-245.5-45.81c0-10.035-8.137-18.17-18.17-18.17-10.037 0-18.172 8.135-18.172 18.17v45.728c0 10.035 8.135 18.17 18.17 18.17 10.035 0 18.17-8.135 18.17-18.17V72.32zM419.35 98.85v18.617c0 22.13-18.004 40.134-40.133 40.134-22.13 0-40.135-18.003-40.135-40.133V98.85H173.852v18.534c0 22.13-18.004 40.134-40.133 40.134-22.13 0-40.135-18.004-40.135-40.134V98.85H50v359h412v-359h-42.648zm2.648 319H90V195.38h332v222.47z"/></symbol><symbol viewBox="0 0 512 512" id="icon-camera"><title>camera</title><path d="M339.652 277.48c0 29.39-23.91 53.298-53.3 53.298-29.388 0-53.297-23.91-53.297-53.3 0-29.388 23.91-53.297 53.298-53.297 29.39 0 53.3 23.91 53.3 53.3zM462 148.124v267H50v-267h113.22c11.252 0 21.56-6.297 26.693-16.31l17.92-34.94h153.664l19.82 35.785c5.285 9.543 15.334 15.465 26.243 15.465H462zm-307.17 58.25c0-11.322-9.177-20.5-20.5-20.5s-20.5 9.178-20.5 20.5 9.18 20.5 20.5 20.5 20.5-9.178 20.5-20.5zM385.5 277.48c0-54.67-44.477-96.855-99.146-96.855-54.67 0-99.146 42.185-99.146 96.854 0 54.67 44.477 99.145 99.146 99.145 54.67 0 99.146-44.477 99.146-99.146zM142.33 104.624h-65.5v27h65.5v-27z"/></symbol><symbol viewBox="0 0 512 512" id="icon-caution"><title>caution</title><path d="M256 461.916L50.557 256.472 256 51.027 461.444 256.47 256 461.917zM107.125 256.472L256 405.348l148.876-148.876L256 107.596 107.124 256.472zm128.81-91.513h40.133V286.67h-40.133V164.96zM256 347.982c-11.96 0-21.656-9.694-21.656-21.656 0-11.96 9.695-21.656 21.656-21.656 11.96 0 21.656 9.697 21.656 21.657 0 11.962-9.697 21.656-21.656 21.656z"/></symbol><symbol viewBox="0 0 512 512" id="icon-chevron-down"><title>chevron-down</title><path d="M256 294.7L113.9 153.3V50L256 191.5 398.1 50v103.3L256 294.7zm142.1 25.83v-103.3L256 358.73l-142.1-141.4v103.3L256 462.03l142.1-141.5z"/></symbol><symbol viewBox="0 0 512 512" id="icon-coffee"><title>coffee</title><path d="M270.973 462H143.477c-32.3-74.87-58.074-152.9-62.494-282.84h252.484c-4.38 128.83-30.93 210.226-62.494 282.84zm88.644-246.24c-.658 9.5-1.455 18.84-2.38 28.043h40.153c-9.45 33.785-28.857 66.17-54.56 90.657-3.175 14.24-6.74 28.452-11.46 44.53 57.17-36.73 94.092-102.065 99.646-163.23h-71.4zM222.61 164.953c77.81-70.13-16.1-66.428 1.91-114.953-62.113 62.687 23.145 64.093-1.91 114.953zm-45.665.02c51.797-46.404-10.915-50.953 1.427-83.74-43.394 45.754 15.617 46.95-1.427 83.74z"/></symbol><symbol viewBox="0 0 512 512" id="icon-comm-svc"><title>comm-svc</title><path d="M149.6 204.6l1.125-1.12 105.1-105.1.478-.488 108.8 108.8 48.09 48.1 23.94-23.93-72-72.1-67-67.02-41.8-41.78-41.8 41.78-63.8 63.82-75.81 75.8 23.94 23.9zm1.125 12.17l-1.13 1.12v244.1h76.68v-69.01h57.5v69.01h80.51v-242.1l-108.4-108.3-105.1 105.1zm94.72 153.2h-57.51V316.3h57.5v53.67zm0-72.84h-57.51v-53.68h57.5v53.68zm80.5 72.84h-57.51V316.3h57.51v53.67zm0-72.84h-57.51v-53.68h57.51v53.68zm-30.24-125.7v22.99h-27.27v27.27h-22.99v-27.27h-27.27v-22.99h27.27v-27.27h22.99v27.27h27.27z"/></symbol><symbol viewBox="0 0 512 512" id="icon-commserv"><title>commserv</title><path d="M149.6 204.6l1.125-1.12 105.1-105.1.478-.488 108.8 108.8 48.09 48.1 23.94-23.93-72-72.1-67-67.02-41.8-41.78-41.8 41.78-63.8 63.82-75.81 75.8 23.94 23.9zm1.125 12.17l-1.13 1.12v244.1h76.68v-69.01h57.5v69.01h80.51v-242.1l-108.4-108.3-105.1 105.1zm94.72 153.2h-57.51V316.3h57.5v53.67zm0-72.84h-57.51v-53.68h57.5v53.68zm80.5 72.84h-57.51V316.3h57.51v53.67zm0-72.84h-57.51v-53.68h57.51v53.68zm-30.24-125.7v22.99h-27.27v27.27h-22.99v-27.27h-27.27v-22.99h27.27v-27.27h22.99v27.27h27.27z"/></symbol><symbol viewBox="0 0 512 512" id="icon-conc"><title>conc</title><path d="M391 120.666H201.66c2.24-11.363 6.163-22.283 11.89-32h-61.318c-5.523 8.822-9.618 17.526-11.974 32H121L74.667 304h362.666L391 120.666zM146.747 267.084h-21.74l3.41-15.09 21.2.038-2.87 15.052zm4.27-22.39l-20.938-.058 3.41-15.09 20.398.096-2.87 15.052zm4.4-23.08l-20.108-.116 3.41-15.09 19.57.155-2.87 15.05zm25.844 45.47h-21.74l2.552-15.03 21.202.04-2.014 14.99zm2.995-22.3l-20.938-.056 2.553-15.03 20.398.097-2.013 14.99zm3.088-22.984l-20.11-.116 2.553-15.03 19.57.156-2.013 14.99zm2.68-58.134h-39.453c-3.475-23.287-.513-49.897 7.79-65h38.6c-8.707 17.634-9.542 47.163-6.937 65zm194.235 81.668l-20.938-.057-2.603-14.66 20.396.096 3.144 14.62zm-4.82-22.42l-20.11-.116-2.604-14.66 19.57.155 3.144 14.62zM221 150.666h142.167l6 28.5H218.5l2.5-28.5zm46.652 79.513l.14 14.836-20.938-.06.4-14.874 20.398.097zm-20.185-8.032l.4-14.874 19.57.155.14 14.835-20.11-.117zm-13.98 44.936h-21.74l1.256-14.936 21.2.038-.716 14.898zm1.067-22.16l-20.938-.058 1.257-14.937 20.398.095-.716 14.9zm1.098-22.844l-20.11-.116 1.257-14.937 19.57.155-.718 14.898zm10.608 45.004l.4-14.875 21.2.038.14 14.836h-21.74zm31.94-59.57l19.57.156.977 14.776-20.11-.117-.436-14.815zm.67 22.717l20.398.097.977 14.776-20.938-.057-.436-14.815zm1.088 36.854l-.437-14.814 21.2.038.978 14.776h-21.74zm46.435-59.187l19.57.155 2.306 14.68-20.11-.115-1.767-14.72zm2.708 22.57l20.398.097 2.308 14.683-20.938-.06-1.767-14.72zm2.63 21.897l54.06.1 3.145 14.62h-55.44l-1.766-14.72zM50 333.666v89.668h412v-89.668H50zM256 391c-6.904 0-12.5-5.596-12.5-12.5 0-6.902 5.596-12.5 12.5-12.5 6.903 0 12.5 5.598 12.5 12.5 0 6.904-5.597 12.5-12.5 12.5zm-6.625-15h13.438v5h-13.438v-5z"/></symbol><symbol viewBox="0 0 512 512" id="icon-concession"><title>concession</title><path d="M391 120.666H201.66c2.24-11.363 6.163-22.283 11.89-32h-61.318c-5.523 8.822-9.618 17.526-11.974 32H121L74.667 304h362.666L391 120.666zM146.747 267.084h-21.74l3.41-15.09 21.2.038-2.87 15.052zm4.27-22.39l-20.938-.058 3.41-15.09 20.398.096-2.87 15.052zm4.4-23.08l-20.108-.116 3.41-15.09 19.57.155-2.87 15.05zm25.844 45.47h-21.74l2.552-15.03 21.202.04-2.014 14.99zm2.995-22.3l-20.938-.056 2.553-15.03 20.398.097-2.013 14.99zm3.088-22.984l-20.11-.116 2.553-15.03 19.57.156-2.013 14.99zm2.68-58.134h-39.453c-3.475-23.287-.513-49.897 7.79-65h38.6c-8.707 17.634-9.542 47.163-6.937 65zm194.235 81.668l-20.938-.057-2.603-14.66 20.396.096 3.144 14.62zm-4.82-22.42l-20.11-.116-2.604-14.66 19.57.155 3.144 14.62zM221 150.666h142.167l6 28.5H218.5l2.5-28.5zm46.652 79.513l.14 14.836-20.938-.06.4-14.874 20.398.097zm-20.185-8.032l.4-14.874 19.57.155.14 14.835-20.11-.117zm-13.98 44.936h-21.74l1.256-14.936 21.2.038-.716 14.898zm1.067-22.16l-20.938-.058 1.257-14.937 20.398.095-.716 14.9zm1.098-22.844l-20.11-.116 1.257-14.937 19.57.155-.718 14.898zm10.608 45.004l.4-14.875 21.2.038.14 14.836h-21.74zm31.94-59.57l19.57.156.977 14.776-20.11-.117-.436-14.815zm.67 22.717l20.398.097.977 14.776-20.938-.057-.436-14.815zm1.088 36.854l-.437-14.814 21.2.038.978 14.776h-21.74zm46.435-59.187l19.57.155 2.306 14.68-20.11-.115-1.767-14.72zm2.708 22.57l20.398.097 2.308 14.683-20.938-.06-1.767-14.72zm2.63 21.897l54.06.1 3.145 14.62h-55.44l-1.766-14.72zM50 333.666v89.668h412v-89.668H50zM256 391c-6.904 0-12.5-5.596-12.5-12.5 0-6.902 5.596-12.5 12.5-12.5 6.903 0 12.5 5.598 12.5 12.5 0 6.904-5.597 12.5-12.5 12.5zm-6.625-15h13.438v5h-13.438v-5z"/></symbol><symbol viewBox="0 0 512 512" id="icon-copy"><title>copy</title><path d="M294.737 264.133l11.585-35.25 49.854 97.16-97.242 49.683 11.148-35.057s-128.158-67.1-117.645-188.437c36.145 76.956 142.3 111.9 142.3 111.9zm65.54-112.27V50H50V360.14h101.723v101.86H462V151.863H360.277zM422 421.998H191.723V318.823c-16.594-16.263-29.747-32.96-40-49.757v51.07H90V90h230.277v61.862h-133.85c9.814 15.492 23.18 28.824 37.402 40H422V422z"/></symbol><symbol viewBox="0 0 512 512" id="icon-cottage"><title>cottage</title><path d="M95.165 425.918c0-10.264 8.32-18.586 18.585-18.586h287.3c10.264 0 18.584 8.322 18.584 18.586s-8.32 18.586-18.585 18.586h-287.3c-10.264 0-18.585-8.322-18.585-18.586zm162.3-358.422L56.52 246.764c-8.368 7.46-8.713 20.402-.848 28.31 7.26 7.3 18.94 7.7 26.684.915L257.39 122.443l172.227 151.42c7.725 6.794 19.398 6.42 26.673-.856 7.916-7.916 7.552-20.858-.78-28.322L257.465 67.496zM113.75 289.626c-10.264 0-18.585 8.32-18.585 18.586 0 10.264 8.32 18.584 18.585 18.584h51.713v22.715H113.75c-10.264 0-18.585 8.323-18.585 18.587s8.32 18.586 18.585 18.586h107.17v-97.058H113.75zm287.3 37.17c10.264 0 18.584-8.32 18.584-18.584 0-10.267-8.32-18.587-18.585-18.587H293.88v97.058h107.17c10.264 0 18.584-8.322 18.584-18.586s-8.32-18.586-18.585-18.586h-51.714v-22.714h51.713zm7.248-152.09l-48.444-45.453V91.76h48.444v82.946zM387.19 267.94H128.686l128.74-112.418 129.764 112.42zm-106.428-45.524c0-13.116-10.634-23.75-23.75-23.75s-23.746 10.634-23.746 23.75c0 13.115 10.632 23.748 23.747 23.748s23.75-10.633 23.75-23.748z"/></symbol><symbol viewBox="0 0 512 512" id="icon-directions"><title>directions</title><path d="M452.066 219.233L404.98 320.828l-15.2-37.735c-71.323 36.73-92.73 92.188-97.384 178.907l-71.89-.28c5.618-110.214 35.724-193.184 142.32-245.472l-15.337-38.08 104.576 41.065zm-231.504 4.446c13.35 10.717 25.242 22.365 35.78 34.986 10.64-12.54 22.642-24.09 36.08-34.706v-90.41h41.32L257.993 50l-78.07 83.028 40.64.19v90.46zm16.844 60.558c-20.756-26.736-49.012-49.73-87.19-68.834l15.647-37.953-105.93 39.21 47.298 102.988 15.51-37.613c41.237 21.65 65.597 49.483 79.558 85.997 7.502-30.347 18.67-58.135 35.108-83.794z"/></symbol><symbol viewBox="0 0 399.904 20" id="icon-divider"><title>divider</title><path d="M191.6 10.7c5.218 6.63 26.29-2.085 10.28-3.39-2.638.303-10.97-.97-10.28 3.39zm-370.94 500.473c-6.524.836-16.88-1.114-3.594-1.77 1.03.358 3.302.206 3.594 1.77zM3.2 10.4c60.22.757 120.4 1.876 180.7 2.405C199.18 9 176.315 5.25 170.83 7.41c-56.92.927-113.9.93-170.8 2.436.1 1.336 3.09-.352 3.21.554zm-202.1 500.787h-115.4c14.14-1.457 28.8-.496 43.16-.975 23.54.03 47.13-.89 70.64-.252l1.495.89.09.337zM396.67 10.4c-60.22.757-120.4 1.876-180.7 2.405C200.69 9 223.555 5.25 229.04 7.41c56.92.927 113.9.93 170.8 2.436-.1 1.336-3.088-.352-3.208.554zm-567.7 500.787h115.4c-14.14-1.457-28.8-.496-43.15-.975-23.54.03-47.13-.89-70.64-.252l-1.494.89-.09.337z"/></symbol><symbol viewBox="0 0 512 512" id="icon-drawing"><title>drawing</title><g><path d="M336.178 285.084H263.45c-18.475-42.72-33.136-87.242-35.66-161.39h144.047c-2.5 73.517-17.65 119.957-35.66 161.39zm50.58 399.856c-.386 5.42-.832 10.75-1.355 16.002h22.907c-5.387 19.276-16.46 37.758-31.132 51.73-1.808 8.122-3.842 16.235-6.538 25.41 32.624-20.958 53.69-58.24 56.862-93.142H386.76zm-78.176-28.985c44.398-40.02-9.188-37.908 1.09-65.595-35.432 35.77 13.21 36.57-1.09 65.595zm-26.074 0c29.574-26.48-6.2-29.07.84-47.778-24.742 26.104 8.9 26.783-.84 47.778z"/><path d="M110.935 411.684h270.83V462h26.417v-75.472H110.935v-109.02q0-12.997-13.023-12.997-13.414 0-13.414 12.997V461.97h26.437v-50.316zm40.66 459.418q10.08 0 17.002-6.917 6.923-6.916 6.923-16.982 0-10.06-6.923-16.985-6.922-6.918-17-6.918-10.08 0-17 6.918-6.886 6.92-6.886 16.985 0 10.062 6.887 16.982 6.92 6.917 17 6.917zm-23.493 24.314q0 11.737 11.77 11.737h268.77v-32.697q0-17.187-18.86-18.86l-187.83-18.725q-.433 0-.866-.432-12.156 0-12.156 11.738v35.633h-49.057q-11.727 0-11.727 11.737z"/></g></symbol><symbol viewBox="0 0 512 512" id="icon-email"><title>email</title><path d="M49.744 103.407v305.186h412.512V103.407H49.744zm365.79 35L255.946 260.465 96.473 138.407h319.06zm-330.79 35.1l85.504 65.44-85.504 85.503V173.506zm.356 200.086l113.186-113.186 57.654 44.127 57.375-43.882 112.94 112.94H85.1zm342.156-48.496L341.36 239.2l85.896-65.694v151.59z"/></symbol><symbol viewBox="0 0 512 512" id="icon-enable-full"><title>enable-full</title><path d="M157.943 426.942L192.94 462H50V319.062l35.058 34.997 57.253-57.255 72.885 72.886-57.252 57.252zM319.063 50l34.996 35.058-56.08 56.08 72.884 72.884 56.08-56.08L462 192.938V50H319.062zM85.057 157.943L50 192.94V50h142.938L157.94 85.058l57.254 57.253-72.886 72.885-57.25-57.252zM462 319.063l-35.058 34.996-56.08-56.08-72.884 72.884 56.08 56.08L319.062 462H462V319.062z"/></symbol><symbol viewBox="0 0 512 512" id="icon-event"><title>event</title><path d="M197.453 295.95h-58.905v-58.903h58.905v58.904zm89-58.903h-58.905v58.904h58.904v-58.903zm89 0h-58.906v58.904h58.905v-58.903zm-178 86h-58.905v58.906h58.905v-58.906zm89 0h-58.905v58.906h58.904v-58.906zm88.998 0h-58.903v58.906h58.904v-58.906zm21.94-204.916c0 10.036-8.136 18.172-18.17 18.172s-18.172-8.136-18.172-18.17V72.4c0-10.034 8.136-18.17 18.17-18.17s18.17 8.136 18.17 18.17v45.73zm-245.5-45.81c0-10.035-8.137-18.17-18.17-18.17-10.037 0-18.172 8.135-18.172 18.17v45.728c0 10.035 8.135 18.17 18.17 18.17 10.035 0 18.17-8.135 18.17-18.17V72.32zM419.35 98.85v18.617c0 22.13-18.004 40.134-40.133 40.134-22.13 0-40.135-18.003-40.135-40.133V98.85H173.852v18.534c0 22.13-18.004 40.134-40.133 40.134-22.13 0-40.135-18.004-40.135-40.134V98.85H50v359h412v-359h-42.648zm2.648 319H90V195.38h332v222.47z"/></symbol><symbol viewBox="0 0 512 512" id="icon-face"><title>face</title><path d="M256 90c91.74 0 166 74.243 166 166 0 91.742-74.243 166-166 166-91.74 0-166-74.243-166-166 0-91.74 74.244-166 166-166m0-40C142.23 50 50 142.23 50 256s92.23 206 206 206 206-92.23 206-206S369.77 50 256 50zm-56.334 131.5c-17.12 0-31 13.88-31 31s13.88 31 31 31c17.12 0 31-13.88 31-31s-13.88-31-31-31zm116.667 0c-17.12 0-31 13.88-31 31s13.88 31 31 31 31-13.88 31-31-13.88-31-31-31zm40 102.834c-27 21.333-56.666 34.47-98.333 34.47s-71.333-13.137-98.334-34.47l-8.79 8.79C171 323.835 208 356.805 258 356.805s87-32.97 107.125-63.68l-8.79-8.79z"/></symbol><symbol viewBox="0 0 512 512" id="icon-facebook"><title>facebook</title><path d="M204.067 184.692h-43.144v70.426h43.144V462h82.965V254.238h57.882l6.162-69.546h-64.044v-39.615c0-16.398 3.302-22.89 19.147-22.89h44.895V50h-57.44c-61.735 0-89.568 27.18-89.568 79.23v55.462z"/></symbol><symbol viewBox="0 0 512 512" id="icon-fall"><title>fall</title><path d="M256 50l-31.86 62.13c-3.617 6.753-10.09 6.127-16.58 2.357l-23.07-12.49 17.19 95.44c3.617 17.44-7.985 17.44-13.71 9.9l-40.26-47.12-6.54 23.93c-.75 3.14-4.06 6.44-9.034 5.656l-50.88-11.2 13.38 50.8c2.86 11.31 5.096 15.99-2.888 18.98l-18.14 8.916 87.63 74.42c3.47 2.813 5.224 7.877 3.988 12.46l-7.672 26.32c30.18-3.643 57.23-6.898 87.4-10.53 2.678-.04 7.123 2.343 7.102 5.577l-3.996 96.41h14.67l-2.307-96.2c-.02-3.234 4.014-5.822 6.695-5.784 30.17 3.63 57.23 6.884 87.4 10.53l-7.664-26.32c-1.236-4.58.515-9.65 3.985-12.46l87.64-74.42-18.15-8.916c-7.984-2.983-5.75-7.667-2.885-18.98l13.37-50.83-50.91 11.19c-4.972.783-8.29-2.513-9.04-5.656l-6.537-23.93-40.26 47.12c-5.728 7.54-17.33 7.54-13.71-9.9l17.19-95.44-23.07 12.49c-6.478 3.775-12.96 4.397-16.57-2.356l-31.9-62z"/></symbol><symbol viewBox="0 0 512 512" id="icon-financial"><title>financial</title><path d="M245.928 201.576c-26.987-13.494-24.12-42.73 15.91-44.978 32.403-1.82 66.145 10.462 86.79 17.485 0 0 12.925-56.687 15.918-69.75-29.897-9.35-55.788-14.038-81.168-15.78V50h-59.225v42.012c-65.233 14.24-91.493 62.386-91.493 97.42 0 84.558 101.107 98.352 130.492 111.545 34.783 14.993 27.338 41.527-2.22 47.978-33.793 7.374-79.486-7.985-110.804-20.204l-19.595 68.253c27.656 15.242 65.194 25.543 93.62 27.977V462h59.225v-41.39c53.217-7.486 98.167-40.344 98.088-98.043 0-74.663-80.177-95.953-135.538-120.99z"/></symbol><symbol viewBox="0 0 512 512" id="icon-food"><title>food</title><path d="M165.9 211.8v226.3q0 23.85 21.82 23.85t21.82-23.85V211.8q11.67 0 20.04-8.625 8.372-8.626 8.372-18.77v-126.3q0-8.118-8.12-8.118-7.61 0-7.61 7.61v92.85h-27.91v-92.35q0-8.117-7.103-8.117-7.612 0-7.612 7.61v92.85h-26.89V58.6q0-8.625-7.61-8.625-8.12 0-8.12 8.118v124.3q0 13.19 8.626 21.31 8.626 8.118 20.3 8.118zm164.9 226.3q0 23.34 22.33 23.34 21.82 0 21.82-23.34V87q0-17.25-10.66-27.91-9.64-9.133-22.83-9.133-13.7 0-23.34 9.133Q307.46 69.75 307.46 87v211.6h23.34v139.5z"/></symbol><symbol viewBox="0 0 512 512" id="icon-gallery"><title>gallery</title><path d="M204.45 290.082c.168 18.96-15.104 34.466-34.09 34.583-18.976.15-34.424-15.104-34.525-34.063-.168-18.97 15.096-34.417 34.023-34.593 18.984-.128 34.49 15.144 34.592 34.072zm-16.79-68.432c-18.96.134-34.475-15.113-34.592-34.115-.15-18.926 15.063-34.392 34.056-34.517 18.918-.176 34.476 15.054 34.543 34.03.2 18.995-15.105 34.427-34.006 34.602zm137.005-68.91c.066 18.928-15.12 34.477-34.08 34.602-18.978.16-34.468-15.104-34.585-34.056-.185-18.985 15.07-34.433 34.082-34.584 18.893-.11 34.415 15.12 34.583 34.04zM118.668 424.78c78.74 6.52 50.544-77.114 123.4-77.886l31.55 26.32c7.862 95.054-108.413 116.276-154.95 51.566zM360.12 302.64c24.494-38.434 100.368-167.333 100.368-167.333 6.035-10.687-7.377-21.852-16.748-13.965 0 0-112.822 98.087-146.098 129.176-26.304 24.584-26.412 35.817-34.93 76.343l28.826 24.024c38.223-15.69 49.22-17.836 68.583-48.245zm-216.675 82.51c-35.774-31.248-58.708-76.914-59.102-127.843C83.59 162.724 159.983 85.13 254.64 84.36c65.884-.352 111.23 32.7 111.516 59.17 10.41-9.13 20.15-17.645 28.55-24.987-17.334-38.156-71.785-69.437-140.35-68.523-113.72.93-205.25 93.81-204.345 207.564.395 49.982 18.584 95.614 48.458 131.054 16.445 8.45 36.444 5.65 44.977-3.487zm219.677-32.723c18.172 33.83-23.2 57.837-60.853 68.53-5.23 15.66-13.782 29.54-23.59 39.666 90.21-10.126 155.555-73.88 107.56-135.42-7.88 11.75-15.39 20.552-23.118 27.224z"/></symbol><symbol viewBox="0 0 579.997 579.997" id="icon-gas"><title>gas</title><path stroke-width="param(outline-width) 0" d="M474.745 442.244c-.02-.663-.038-1.254-.04-1.77-.144-51.11-47.357-80.054-71.96-91.67l-1.614-146.978-69.725-58.71v-96.91h-226.23v487.583h226.23v-1.216c.376 0 .762.008 1.136.008 59.266 0 99.232-11.302 122.064-34.484 21.112-21.437 20.406-46.44 20.14-55.854zM289.152 93.61v105.627H147.417V93.61h141.735zm134.843 374.345c-8.114 8.24-30.886 21.834-92.59 21.665V199.278l26.983 22.72 1.72 156.605 14.412 4.888c.57.195 57.122 20.4 57.225 57.103.003.83.026 1.79.057 2.864.192 6.797.454 16.108-7.807 24.498z"/></symbol><symbol viewBox="0 0 512 512" id="icon-google"><title>google</title><path d="M462 141.347h-54.62v54.622h-27.312v-54.623h-54.622v-27.31h54.622v-54.62h27.31v54.62H462v27.31zM307.583 367.26c0 40.943-37.384 90.787-131.434 90.787-68.785 0-126.15-29.668-126.15-79.57 0-38.513 24.383-88.51 138.323-88.51-16.922-13.792-21.075-33.077-10.733-53.96-66.714 0-100.88-39.22-100.88-89.022 0-48.73 36.243-93.032 110.15-93.032h118.4L278.8 81.723h-31.08c21.926 12.562 33.587 38.433 33.587 66.95 0 26.174-14.414 47.374-34.984 63.278-36.503 28.223-27.158 43.98 11.087 71.873 37.708 28.25 50.17 50.06 50.17 83.437zm-73.845-216.807c-5.506-41.905-32.806-76.284-64.704-77.243-31.91-.95-53.31 31.12-47.798 73.035 5.51 41.905 35.834 71.178 67.75 72.14 31.896.948 50.256-26.022 44.752-67.932zm32.893 221.01c0-34.466-31.44-67.317-84.19-67.317-47.543-.523-87.833 30.042-87.833 65.47 0 36.155 34.335 66.25 81.88 66.25 60.78 0 90.144-28.25 90.144-64.403z"/></symbol><symbol viewBox="0 0 512 512" id="icon-grade"><title>grade</title><path d="M127.2 249.5c9.986-7.84 21.29-11.01 33.92-9.488 12.63 1.517 22.87 7.27 30.71 17.26 7.975 10.16 11.2 21.54 9.682 34.17s-7.27 22.87-17.26 30.7c-9.988 7.847-21.3 11-33.92 9.49-12.63-1.52-22.93-7.357-30.9-17.51-7.843-9.983-11.01-21.29-9.487-33.92 1.518-12.63 7.27-22.87 17.26-30.71zm63.34 80.65c12.32-9.673 19.4-22.23 21.26-37.69 1.857-15.45-2.052-29.34-11.72-41.65-9.542-12.15-22.04-19.15-37.49-21.01-15.45-1.862-29.34 2.046-41.65 11.72-12.15 9.54-19.2 22.07-21.14 37.59-1.94 15.52 1.858 29.35 11.4 41.5 9.672 12.31 22.28 19.37 37.81 21.16 15.54 1.794 29.38-2.08 41.53-11.62zm67.88-182.9c9.99-7.843 21.3-11.01 33.93-9.486 12.62 1.516 22.86 7.268 30.7 17.26 7.845 9.987 11.01 21.29 9.492 33.92-1.516 12.63-7.272 22.87-17.26 30.71-9.985 7.84-21.29 11-33.92 9.488-12.63-1.518-22.86-7.272-30.71-17.26-7.846-9.988-11.01-21.29-9.49-33.92 1.52-12.63 7.27-22.87 17.26-30.71zm-16.01 71.08c9.676 12.32 22.24 19.4 37.69 21.26s29.34-2.05 41.65-11.72c12.32-9.676 19.4-22.23 21.26-37.69 1.857-15.46-2.052-29.34-11.72-41.66-9.67-12.32-22.23-19.4-37.68-21.26-15.38-2.57-29.33 1.925-41.66 11.72-12.26 9.74-19.4 22.23-21.26 37.69-1.86 15.45 2.045 29.34 11.72 41.65zm-84.8-108.6c4.49-3.526 7.128-8.22 7.908-14.08.778-5.86-.664-11.12-4.322-15.78-3.662-4.662-8.428-7.307-14.3-7.934-5.88-.634-11.06.814-15.56 4.344-4.66 3.662-7.34 8.39-8.033 14.18-.7 5.8.783 11.02 4.443 15.68 3.657 4.662 8.385 7.34 14.18 8.037 5.795.697 11.02-.787 15.68-4.447zm-24.93 106l51.64-8.267 29.61 37.7c2.09 2.667 4.843 4.2 8.26 4.613 3.416.41 6.46-.43 9.12-2.52 2.666-2.093 4.2-4.847 4.613-8.265.408-3.415-.428-6.454-2.524-9.12l-36.85-46.93c-2.996-5.183-8.563-7.135-16.7-5.854l-29.34 5.302 5.015-39.86 24.07 8.544c4.052 1.39 7.49.976 10.32-1.25l32.4-25.5c4.993-3.918 5.793-8.042 2.395-12.37-3.403-4.327-7.598-4.53-12.59-.61l-27.96 21.96-40.77-14.4c-5.633-2.034-11.16-1.193-16.58 2.526-4.053 2.373-6.435 6.532-7.152 12.48l-7.555 62.85c-.535 4.457.698 8.595 3.705 12.43 4.314 5.487 9.93 7.67 16.84 6.54zm329.3-94.04s.387 249.2-.213 318.1c-145.5.717-411.7 0-411.7 0z"/></symbol><symbol viewBox="0 0 512 512" id="icon-grass"><title>grass</title><path d="M108.8 90.46c1.5 89.08 34.5 146.8 47.1 264.1-29.8-82.4-75-166.9-93.38-189.8 10.12 86.5 82.78 174.9 89.18 297.1 71.67.356 127.2-.54 197 0 28.1-94.8 55.5-192.3 100.8-281.7-46.8 57.2-85.7 108.3-116 152.5 27.1-72 55-133.6 78.1-195.6-31.5 27.08-76.4 108.1-114.7 191.1 9.3-87.5 27-166.9 28.2-235.1-14.9 25.45-44.4 99.19-68.1 179.3-4.8-96.23-12.8-188.3-24.4-222.4 1.5 76.34-2.4 160.6-8 255.2-13.6-53.3-34.1-115.1-63.4-184.6 11.6 81.41 31.8 168.2 38.6 254.5-18.9-128.6-66.2-242-91-284.6z"/></symbol><symbol viewBox="0 0 512 512" id="icon-grocery"><title>grocery</title><path d="M346.914 143.61H50.168l53.563 121.165h205.086l38.098-121.166zm114.918-38.5l-12.746 40h-29.98l-59.178 188.165H132.856l-17.625-40h215.45l59.18-188.166h71.972zM316.816 380c0 14.852-12.04 26.89-26.89 26.89s-26.89-12.038-26.89-26.89 12.038-26.89 26.89-26.89 26.89 12.038 26.89 26.89zm-88.883 0c0 14.852-12.04 26.89-26.893 26.89-14.852 0-26.89-12.038-26.89-26.89s12.038-26.89 26.89-26.89c14.853 0 26.893 12.038 26.893 26.89z"/></symbol><symbol viewBox="0 0 512 512" id="icon-hardware"><title>hardware</title><path d="M298.285 197.22l85.974-85.974c17.783-17.785 46.618-17.785 64.402 0 17.783 17.785 17.783 46.617 0 64.403l-85.975 85.972-15.77-15.767 82.025-82.026c2.564-2.563 2.564-6.717 0-9.282-2.56-2.56-6.715-2.56-9.278.002l-82.026 82.025-13.498-13.5 82.023-82.026c2.563-2.563 2.563-6.717.002-9.28-2.563-2.563-6.717-2.563-9.28 0l-82.026 82.025-16.575-16.574zm-47.692 133.715l-63.186 63.188c-3.48 3.48-6.41 7.468-8.688 11.83l-4.613 8.83-31.97 16.33-12.65-12.648 15.64-32.664 8.83-4.61c4.362-2.276 8.352-5.207 11.83-8.688l63.186-63.187 21.62 21.62zM124.55 272.577L50 198.03l23.32-23.32s18.733 12.615 34.024-2.678c16.63-16.63 11.68-41.432 48.553-69.197 64.99-48.935 162.86-.765 162.86-.765-77.787 7.772-110.98 42.55-78.822 74.707l10.85 10.85-52.07 52.073s-2.548-2.55-10.448-10.45c-14.146-14.146-27.654-17.204-38.484-6.372-11.98 11.98-1.913 26.378-1.913 26.378l-23.32 23.32zm138.645-72.54l-52.01 52.01L379.11 419.974c14.362 14.363 37.647 14.363 52.01 0 14.36-14.36 14.36-37.648 0-52.01L263.195 200.04z"/></symbol><symbol viewBox="0 0 100 100" id="icon-health"><title>health</title><path fill-rule="evenodd" clip-rule="evenodd" d="M50 1.24c6.746 0 12.743 5.245 12.743 11.99 0 7.497-5.997 12.743-12.743 12.743S38.008 20.727 38.008 13.23c0-6.745 5.246-11.99 11.992-11.99zM38.756 28.97H61.993c3 0 4.497 0 7.495 4.5 2.998 3.748 6.747 12.74 8.245 19.487 1.5 6.746 2.25 8.994-3.747 12.742S58.246 71.695 50 71.695c-8.245 0-17.988-2.25-23.984-5.997s-4.498-5.997-2.998-12.743c1.5-6.747 5.247-15.74 8.245-19.488 2.247-4.5 3.746-4.5 7.493-4.5zM50.75 61.203h9.744c0 2.998-4.497 5.247-9.744 5.247-5.997 0-10.494-2.25-10.494-5.248H50.75zM50 76.756M50 76.756c-9.744.75-14.99-5.06-19.488-5.81-5.246-.75-5.996 0-10.493 2.998-4.5 2.998-13.493 10.494-15.74 15.74-3 5.247-.75 9.744 8.243 8.995 8.994-1.5 20.237-3.75 28.48-5.998 3.75-.75 3.75-1.5 8.996-1.5 5.247 0 5.247.75 8.995 1.5 8.244 2.25 19.486 4.497 28.48 5.997 8.995.748 11.244-3.75 8.245-8.996-2.25-5.246-11.242-12.742-15.74-15.74s-5.246-3.748-10.493-2.998c-4.496.75-9.744 6.56-19.487 5.81"/></symbol><symbol viewBox="0 0 512 512" id="icon-historic"><title>historic</title><path d="M353.1 255.4H159.9v89.22q0 43.65 2.198 57.3 2.198 13.37 10.92 19.92 9.004 6.55 33.83 6.55h9.548v12.55h-166.4v-12.55h9.548q23.74 0 32.74-6.003 9.276-6.005 11.73-18.56 2.72-12.82 2.72-59.21v-181.4q0-44.2-2.72-57.03-2.47-12.82-10.93-17.74-8.184-4.91-36.29-4.91h-6.82v-12.55h166.4v12.55h-6.822q-27.01 0-35.47 4.638-8.46 4.366-11.46 16.64-2.72 12.28-2.72 58.39v73.4h193.2v-73.4q0-44.2-2.458-57.03-2.458-12.82-10.91-17.74-8.188-4.91-36.29-4.91h-9.82v-12.55h168.3v12.55h-5.458q-27.28 0-35.74 4.638-8.46 4.366-11.46 16.64-2.72 12.28-2.72 58.39v181.4q0 43.65 1.9 57.3 2.2 13.37 11.19 19.92 9.005 6.55 33.83 6.55h8.457v12.55h-168.3v-12.55h12.82q23.47 0 32.47-6.003 9.276-6.005 11.73-18.56 2.458-12.82 2.458-59.21v-89.22z"/></symbol><symbol viewBox="0 0 512 512" id="icon-info"><title>info</title><path d="M256 90.002c91.74 0 166 74.24 166 165.998 0 91.74-74.245 165.998-166 165.998-91.738 0-166-74.242-166-165.998 0-91.74 74.243-165.998 166-165.998m0-40C142.23 50.002 50 142.228 50 256c0 113.77 92.23 205.998 206 205.998S462 369.768 462 256c0-113.772-92.23-205.998-206-205.998zm-3.434 321.806c-28.21 9.913-51.466-1.455-46.8-28.547 4.666-27.097 31.435-85.108 35.254-96.078 3.816-10.97-3.502-13.977-11.346-9.513-4.524 2.61-11.248 7.84-17.02 12.924-1.6-3.223-3.852-6.906-5.542-10.433 9.42-9.438 25.164-22.093 43.803-26.68 22.27-5.497 59.492 3.29 43.494 45.858-11.425 30.34-19.504 51.276-24.595 66.868-5.088 15.598.955 18.868 9.863 12.79 6.96-4.75 14.372-11.213 19.806-16.225 2.515 4.087 3.32 5.39 5.806 10.085-9.433 9.67-34.108 32.296-52.724 38.953zm58.45-187.68c-12.795 10.89-31.76 10.654-42.37-.533-10.607-11.18-8.837-29.076 3.955-39.97 12.795-10.89 31.764-10.653 42.37.526 10.607 11.187 8.84 29.08-3.954 39.977z"/></symbol><symbol viewBox="0 0 512 512" id="icon-layers"><title>layers</title><path d="M422.486 232.958L462 256 255.966 376.166 50 256l39.497-23.042 166.47 97.125 166.52-97.125zm-166.52 182.957L89.496 318.8 50 341.833 255.966 462 462 341.834 422.486 318.8l-166.52 97.115zM462 170.167L255.966 50 50 170.167l205.966 120.167L462 170.167z"/></symbol><symbol viewBox="0 0 512 512" id="icon-link"><title>link</title><path d="M156.226 199.68c7.54-7.54 15.902-13.758 24.794-18.66 49.556-27.318 113.117-12.788 144.97 35.518l-38.547 38.547c-11.06-25.227-38.5-39.565-65.813-33.456-10.282 2.3-20.054 7.426-28.04 15.412l-73.897 73.896c-22.433 22.433-22.432 58.936.002 81.37 22.433 22.432 58.935 22.432 81.368 0l22.78-22.78c20.71 8.217 42.938 11.508 64.862 9.863l-50.278 50.28c-43.105 43.104-112.99 43.104-156.096 0-43.104-43.105-43.105-112.992 0-156.097l73.896-73.894zM273.574 82.33l-50.278 50.278c21.928-1.643 44.152 1.648 64.863 9.865l22.778-22.78c22.434-22.434 58.936-22.434 81.37 0 22.434 22.434 22.434 58.936 0 81.37l-73.897 73.895c-22.5 22.5-59.06 22.31-81.367 0-5.202-5.2-9.694-11.678-12.484-18.04l-38.547 38.546c4.05 6.142 8.26 11.453 13.666 16.858 13.948 13.95 31.697 24.34 52.116 29.25 26.466 6.37 54.823 2.84 79.185-10.59 8.893-4.904 17.255-11.12 24.795-18.66l73.896-73.895c43.106-43.105 43.106-112.99.002-156.097-43.106-43.105-112.992-43.105-156.098 0z"/></symbol><symbol viewBox="0 0 512 512" id="icon-list"><title>list</title><path d="M123.027 413.5H50v-65h73.027v65zm0-190H50v65h73.027v-65zm0-125H50v65h73.027v-65zm45 0v65H462v-65H168.027zm0 190H462v-65H168.027v65zm0 125H462v-65H168.027v65z"/></symbol><symbol viewBox="0 0 512 512" id="icon-locate"><title>locate</title><path d="M462 256c0-7.738-.502-15.36-1.35-22.89h-23.14c-10.3-82.8-75.8-148.3-158.6-158.6V51.39c-7.5-.88-15.2-1.38-22.9-1.38-7.738 0-15.36.502-22.89 1.347v23.14c-82.8 10.32-148.3 75.81-158.6 158.6H51.4c-.88 7.5-1.38 15.2-1.38 22.9 0 7.738.503 15.36 1.35 22.89h23.14c10.32 82.78 75.83 148.3 158.6 158.6v23.14c7.53.803 15.15 1.326 22.89 1.326 7.736 0 15.36-.502 22.89-1.347v-23.14c82.77-10.35 148.3-75.84 158.6-158.6h23.14c.9-7.5 1.4-15.1 1.4-22.9zM278.9 391.3v-20.83c0-12.66-10.26-22.89-22.89-22.89s-22.89 10.23-22.89 22.89v20.83c-57.4-9.7-102.7-54.9-112.3-112.4h20.8c12.66 0 22.89-10.26 22.89-22.89s-10.23-22.89-22.89-22.89h-20.83c9.6-57.4 54.9-102.7 112.3-112.4v20.83c0 12.63 10.26 22.89 22.89 22.89s22.89-10.26 22.89-22.89v-20.83c57.47 9.667 102.7 54.92 112.4 112.4h-20.83c-12.66 0-22.89 10.26-22.89 22.89s10.23 22.89 22.89 22.89h20.83c-9.7 57.5-54.9 102.7-112.4 112.4z"/></symbol><symbol viewBox="0 0 512 512" id="icon-lodging"><title>lodging</title><path d="M83.58 317.5h344.3v63.96h33.58v-95.94H83.56v-138.6q0-16.52-16.52-16.52-17.06 0-17.06 16.52v234.5h33.58v-63.96zm51.7-102.9q12.79 0 21.59-8.795 8.795-8.794 8.795-21.59 0-12.79-8.795-21.59-8.794-8.794-21.59-8.794-12.79 0-21.59 8.795-8.794 8.795-8.794 21.59 0 12.79 8.794 21.59 8.795 8.795 21.59 8.795zm-29.85 30.91q0 14.92 14.92 14.92h341.7v-41.57q0-21.85-23.98-23.98l-238.8-23.8q-.533 0-1.066-.533-15.46 0-15.46 14.92v45.3h-62.36q-14.92 0-14.92 14.92z"/></symbol><symbol viewBox="0 0 512 512" id="icon-mainpoints"><title>mainpoints</title><path d="M256 60.082l62.98 129.92L462 209.75 357.9 309.793l25.415 142.125L256 383.828l-127.315 68.09L154.1 309.793 50 209.75l143.02-19.748z"/></symbol><symbol viewBox="0 0 512 512" id="icon-map-pin-wide-empty"><title>map-pin-wide-empty</title><path d="M256.002 50c-77.07 0-139.55 62.48-139.55 139.544 0 1.653.05 3.333.125 5.03.523 14.66 3.287 28.738 7.988 41.91C154.335 334.342 256.002 462 256.002 462S357.654 334.354 387.43 236.496c4.71-13.172 7.47-27.262 7.988-41.92.08-1.7.128-3.375.128-5.032C395.546 112.48 333.07 50 256.002 50z"/></symbol><symbol viewBox="0 0 100 100" id="icon-map-pin"><title>map-pin</title><path d="M50 0C31.294 0 16.13 15.165 16.13 33.87c0 .4.01.81.03 1.22.126 3.56.797 6.976 1.938 10.173C25.324 69.015 50 100 50 100s24.673-30.982 31.9-54.734c1.143-3.197 1.813-6.617 1.94-10.175.02-.41.03-.818.03-1.22C83.87 15.165 68.706 0 50 0zm0 50.46c-9.16 0-16.59-7.43-16.59-16.59S40.84 17.282 50 17.282c9.162 0 16.59 7.428 16.59 16.588S59.16 50.46 50 50.46z"/></symbol><symbol viewBox="0 0 512 512" id="icon-maple-leaf"><title>maple-leaf</title><path d="M256 50l-31.86 62.13c-3.617 6.753-10.09 6.127-16.58 2.357l-23.07-12.49 17.19 95.44c3.617 17.44-7.985 17.44-13.71 9.9l-40.26-47.12-6.54 23.93c-.75 3.14-4.06 6.44-9.034 5.656l-50.88-11.2 13.38 50.8c2.86 11.31 5.096 15.99-2.888 18.98l-18.14 8.916 87.63 74.42c3.47 2.813 5.224 7.877 3.988 12.46l-7.672 26.32c30.18-3.643 57.23-6.898 87.4-10.53 2.678-.04 7.123 2.343 7.102 5.577l-3.996 96.41h14.67l-2.307-96.2c-.02-3.234 4.014-5.822 6.695-5.784 30.17 3.63 57.23 6.884 87.4 10.53l-7.664-26.32c-1.236-4.58.515-9.65 3.985-12.46l87.64-74.42-18.15-8.916c-7.984-2.983-5.75-7.667-2.885-18.98l13.37-50.83-50.91 11.19c-4.972.783-8.29-2.513-9.04-5.656l-6.537-23.93-40.26 47.12c-5.728 7.54-17.33 7.54-13.71-9.9l17.19-95.44-23.07 12.49c-6.478 3.775-12.96 4.397-16.57-2.356l-31.9-62z"/></symbol><symbol viewBox="0 0 512 512" id="icon-motel"><title>motel</title><path d="M83.58 317.5h344.3v63.96h33.58v-95.94H83.56v-138.6q0-16.52-16.52-16.52-17.06 0-17.06 16.52v234.5h33.58v-63.96zm51.7-102.9q12.79 0 21.59-8.795 8.795-8.794 8.795-21.59 0-12.79-8.795-21.59-8.794-8.794-21.59-8.794-12.79 0-21.59 8.795-8.794 8.795-8.794 21.59 0 12.79 8.794 21.59 8.795 8.795 21.59 8.795zm-29.85 30.91q0 14.92 14.92 14.92h341.7v-41.57q0-21.85-23.98-23.98l-238.8-23.8q-.533 0-1.066-.533-15.46 0-15.46 14.92v45.3h-62.36q-14.92 0-14.92 14.92z"/></symbol><symbol viewBox="0 0 512 512" id="icon-mountain"><title>mountain</title><path d="M333.5 434.6H73.2c43.38-75.13 86.76-150.3 130.1-225.4 43.38 75.13 86.76 150.3 130.1 225.4zM462 401.5L328.8 156.1l-69.1 125.8 69.1 119.6zM252.3 270.8l-49-80.9-98.7 167.9H50L211.9 77.4l75.7 131.1z"/></symbol><symbol viewBox="0 0 100 100" id="icon-nearby"><title>nearby</title><g><path d="M-192 0H-7v99h-185zM0-36h100v30H0z"/><text transform="translate(66 -19.5)" font-family="&apos;Helvetica&apos;" font-size="2.4">http://thenounproject.com</text><text transform="translate(7.166 -24.5)"><tspan x="0" y="0" font-family="&apos;Helvetica-Bold&apos;" font-size="6.158">The Noun Project</tspan><tspan x="1.12" y="4.8" font-family="&apos;Helvetica-Bold&apos;" font-size="4">Icon Template</tspan></text><text transform="translate(-178.5 10.5)" font-family="&apos;Helvetica-Bold&apos;" font-size="6.158">Reminders</text><path stroke-miterlimit="10" d="M8-14.5h10M-179 16.5h17"/><path d="M-170.802 31.318h8.72v8.642h-8.72zM-164.455 42.312h4.747V37.61h-4.747v4.702zm5.19.437h-5.63v-5.58h5.63v5.58zm-6.956 1.312h8.278V35.86h-8.28v8.202zm8.72.438h-9.163v-9.08h9.163v9.08zM-166.15 44.133l-.142-.142 8.28-8.203.14.142z"/><path d="M-179 58h35v32.5h-35z"/><text transform="translate(-179 60.157)"><tspan x="0" y="0" font-family="&apos;Helvetica-Bold&apos;" font-size="3">Strokes</tspan><tspan x="0" y="5" font-family="&apos;Helvetica&apos;" font-size="2.4">Try to keep strokes at 4px</tspan><tspan x="0" y="10" font-family="&apos;Helvetica&apos;" font-size="2.4">Minimum stroke weight is 2px</tspan><tspan x="0" y="14.5" font-family="&apos;Helvetica&apos;" font-size="2.4">For thicker strokes use even</tspan><tspan x="0" y="17.5" font-family="&apos;Helvetica&apos;" font-size="2.4">numbers: 6px, 8px etc.</tspan><tspan x="0" y="22" font-family="&apos;Helvetica-Bold&apos;" font-size="2.4">Remember to expand strokes</tspan><tspan x="0" y="25" font-family="&apos;Helvetica-Bold&apos;" font-size="2.4">before saving as an SVG</tspan></text><path d="M-136.5 58h35v32.5h-35z"/><text transform="translate(-136.5 60.157)"><tspan x="0" y="0" font-family="&apos;Helvetica-Bold&apos;" font-size="3">Size</tspan><tspan x="0" y="5" font-family="&apos;Helvetica&apos;" font-size="2.4">Cannot be wider or taller than</tspan><tspan x="0" y="8.5" font-family="&apos;Helvetica&apos;" font-size="2.4">100px (artboard size)</tspan><tspan x="0" y="13.5" font-family="&apos;Helvetica&apos;" font-size="2.4">Scale your icon to fill as much of</tspan><tspan x="0" y="16.5" font-family="&apos;Helvetica&apos;" font-size="2.4">the artboard as possible</tspan></text><path d="M-94 58h35v32.5h-35z"/><text transform="translate(-94 60.157)"><tspan x="0" y="0" font-family="&apos;Helvetica-Bold&apos;" font-size="3">Ungroup</tspan><tspan x="0" y="5" font-family="&apos;Helvetica&apos;" font-size="2.4">If your design has more than one</tspan><tspan x="0" y="8" font-family="&apos;Helvetica&apos;" font-size="2.4">shape, make sure to ungroup</tspan></text><path d="M-50 58h35v32.5h-35z"/><text transform="translate(-50 60.157)"><tspan x="0" y="0" font-family="&apos;Helvetica-Bold&apos;" font-size="3">Save as</tspan><tspan x="0" y="5" font-family="&apos;Helvetica&apos;" font-size="2.4">Save as .SVG and make sure</tspan><tspan x="0" y="8" font-family="&apos;Helvetica&apos;" font-size="2.4">&#x201C;Use Artboards&#x201D; is checked</tspan></text><text transform="matrix(1.007 0 0 1 -125.542 30.593)" font-family="&apos;Helvetica&apos;" font-size="2.573">100px</text><text transform="matrix(1.007 0 0 1 -41 39)" font-family="&apos;Helvetica-Bold&apos;" font-size="5.146">.SVG</text><path d="M-126.514 34.815h10.26V45h-10.26zM-126.477 31.766h.522v2.337h-.522zM-116.812 31.766h.523v2.337h-.522zM-127 32.337h11.233v.572H-127zM-83.805 33.844H-73.5V44h-10.305zM-76.81 28.707h3.31v3.26h-3.31z"/><path stroke-miterlimit="10" d="M-178.5 22.5h30v30h-30zM-136.5 22.5h30v30h-30zM-93.5 22.5h30v30h-30zM-49.5 22.5h30v30h-30z"/></g><g><path d="M61.25 64.955l-1.52 1.48c11.25 1.257 19.102 4.978 19.102 9.74 0 6.2-12.603 11.825-29.81 11.825h-.045C31.77 88 19.17 82.374 19.17 76.176c0-4.763 7.852-8.483 19.102-9.74l-1.52-1.48c-15.147 1.5-24.004 6.34-24.004 13.817 0 10.088 16.226 17.06 36.253 17.06s36.254-6.972 36.254-17.06c0-7.48-8.858-12.318-24.004-13.818zM49 80.354l.023.036s24.224-37.17 24.224-49.393C73.247 13.015 60.97 5.19 49 5.167c-11.97.024-24.247 7.848-24.247 25.83 0 12.22 24.224 49.393 24.224 49.393l.023-.036zm-8.398-50.37c0-4.64 3.76-8.4 8.398-8.4 4.64 0 8.398 3.76 8.398 8.4S53.638 38.38 49 38.38c-4.638.002-8.398-3.758-8.398-8.397z"/></g></symbol><symbol viewBox="0 0 512 512" id="icon-organization"><title>organization</title><path d="M461.957 393.573H355.56c-.006-115.8-57.888-60.76-57.888-162.232 0-36.628 23.98-56.51 54.772-56.51 45.495 0 77.158 43.44 34.075 124.667-14.154 26.684 15.07 33.025 46.468 40.268 31.384 7.238 28.97 23.785 28.97 53.808zM289.12 325.89c-39.493-9.11-76.255-17.086-58.45-50.652 54.19-102.17 14.363-156.81-42.863-156.81-58.354 0-97.202 56.735-42.86 156.81 18.336 33.77-19.81 41.738-58.453 50.652-39.476 9.105-36.44 29.918-36.44 67.684H325.56c0-37.766 3.036-58.58-36.44-67.684z"/></symbol><symbol viewBox="0 0 512 512" id="icon-other-comm"><title>other-comm</title><g transform="translate(0 -540.4)" color="#000" fill-rule="evenodd"><circle r="53.7" style="text-decoration-color:#000000;solid-color:#000000;text-decoration-line:none;mix-blend-mode:normal;white-space:normal;text-decoration-style:solid;isolation:auto" cx="103.7" cy="796.4"/><circle cx="256" cy="796.4" r="53.7" style="text-decoration-color:#000000;solid-color:#000000;text-decoration-line:none;mix-blend-mode:normal;white-space:normal;text-decoration-style:solid;isolation:auto"/><circle r="53.7" style="text-decoration-color:#000000;solid-color:#000000;text-decoration-line:none;mix-blend-mode:normal;white-space:normal;text-decoration-style:solid;isolation:auto" cx="408.3" cy="796.4"/></g></symbol><symbol viewBox="0 0 512 512" id="icon-other-feat"><title>other-feat</title><g transform="translate(0 -540.4)" color="#000" fill-rule="evenodd"><circle r="53.7" style="text-decoration-color:#000000;solid-color:#000000;text-decoration-line:none;mix-blend-mode:normal;white-space:normal;text-decoration-style:solid;isolation:auto" cx="103.7" cy="796.4"/><circle cx="256" cy="796.4" r="53.7" style="text-decoration-color:#000000;solid-color:#000000;text-decoration-line:none;mix-blend-mode:normal;white-space:normal;text-decoration-style:solid;isolation:auto"/><circle r="53.7" style="text-decoration-color:#000000;solid-color:#000000;text-decoration-line:none;mix-blend-mode:normal;white-space:normal;text-decoration-style:solid;isolation:auto" cx="408.3" cy="796.4"/></g></symbol><symbol viewBox="0 0 512 512" id="icon-other"><title>other</title><g transform="translate(0 -540.4)" color="#000" fill-rule="evenodd"><circle r="53.7" style="text-decoration-color:#000000;solid-color:#000000;text-decoration-line:none;mix-blend-mode:normal;white-space:normal;text-decoration-style:solid;isolation:auto" cx="103.7" cy="796.4"/><circle cx="256" cy="796.4" r="53.7" style="text-decoration-color:#000000;solid-color:#000000;text-decoration-line:none;mix-blend-mode:normal;white-space:normal;text-decoration-style:solid;isolation:auto"/><circle r="53.7" style="text-decoration-color:#000000;solid-color:#000000;text-decoration-line:none;mix-blend-mode:normal;white-space:normal;text-decoration-style:solid;isolation:auto" cx="408.3" cy="796.4"/></g></symbol><symbol viewBox="0 0 512 512" id="icon-parking"><title>parking</title><path d="M272.3 250.2h-90.83V126.3h90.83q25.86 0 43.91 18.04t18.05 43.91q0 25.86-18.05 43.91-18.04 18.04-43.91 18.04zm-1.203-200.3h-170.2v412h80.6V329.6h89.62q58.35 0 99.25-40.9t40.9-98.65q0-58.35-40.9-99.25t-99.25-40.9z"/></symbol><symbol viewBox="0 0 512 512" id="icon-pinterest"><title>pinterest</title><path d="M265.653 50C153.22 50 96.526 130.612 96.526 197.833c0 40.702 15.41 76.914 48.462 90.41 5.418 2.215 10.275.077 11.846-5.924 1.093-4.154 3.68-14.632 4.835-18.992 1.583-5.936.97-8.018-3.404-13.19-9.53-11.243-15.62-25.796-15.62-46.41 0-59.805 44.745-113.342 116.514-113.342 63.55 0 98.465 38.83 98.465 90.69 0 68.234-30.198 125.824-75.026 125.824-24.76 0-43.29-20.475-37.352-45.585 7.115-29.98 20.894-62.334 20.894-83.975 0-19.37-10.398-35.527-31.918-35.527-25.308 0-45.64 26.182-45.64 61.254 0 22.337 7.55 37.446 7.55 37.446s-25.898 109.737-30.44 128.954c-9.042 38.273-1.36 85.193-.707 89.93.38 2.81 3.99 3.477 5.62 1.355 2.336-3.047 32.48-40.26 42.727-77.44 2.9-10.53 16.648-65.05 16.648-65.05 8.22 15.683 32.25 29.497 57.805 29.497 76.075 0 127.688-69.355 127.688-162.188C415.475 115.374 356.018 50 265.653 50z"/></symbol><symbol viewBox="-13.325 -3.793 100 100" id="icon-professional"><title>professional</title><path d="M68.14 45.96c-.706-2.258-1.286-4.528-1.81-6.81.174-6.344-.537-14.02-1.81-18.18-2.458-7.53-7.48-11.23-14.43-15.3l-1.51-4.25c-.56.612-1.027 1.294-1.455 2.004C42.695-.63 33.905-.3 28.625.5c-8.22 1.175-15.6 5.03-19.46 12.41-3.02 5.87-4.025 11.91-4.025 18.45.153 3.22-.093 6.853 1.4 9.76-.402 1.616-.83 3.227-1.332 4.83C2.86 53.33.345 60.54.008 68.26c-.166 6.542 1.51 14.09 7.382 17.95 4.192 2.85 11.4 5.367 16.27 6.206-1.006-3.355-3.355-6.708-3.02-10.23 2.853 1.006 5.2 3.522 8.388 3.856.67-1.677-.17-3.69-.503-5.2 2.013.337 3.354 2.014 5.366 2.35.933-3.882-1.85-9.324-3.07-13.31-11.01-3.463-19.27-16.73-20.09-29.98 2.132-1.592 3.895-3.662 5.65-5.527 0 1.174 0 2.347.336 3.522 4.193-1.51 7.212-4.362 10.4-7.214.334 1.68.167 3.522.67 5.2 7.44-3.382 13.65-11.09 16.89-19.39.354 6.24 2.095 12.67 3.575 17.11 2.08 6.47 6.07 13.49 11.58 18.28-3.44 8.38-9.695 15.29-17.26 17.82-1.194 3.997-4.065 9.532-3.12 13.47 2.013-.335 3.355-2.012 5.368-2.348-.336 1.51-1.174 3.522-.503 5.2 3.186-.335 5.534-2.852 8.387-3.857.334 3.522-2.013 6.875-3.02 10.23 4.863-.84 12.08-3.355 16.27-6.205 5.87-3.858 7.548-11.41 7.38-17.95-.35-7.7-2.86-14.92-5.21-22.29z"/></symbol><symbol viewBox="0 0 2560 2560" id="icon-ranger"><title>ranger</title><path d="M1486.006 574.434h166.498q45.152 0 67.728 25.398 11.288 14.11 22.576 31.042 42.33 39.508 81.838 39.508h183.43V258.37h-183.43q-39.508 0-81.838-39.508-11.288-16.932-22.576-31.042-22.576-22.576-67.728-22.576h-253.98v838.134L1280 927.184l-1030.03 663.17h242.692v804.27h584.154v-637.772h406.368v623.662h584.154v-790.16h242.692l-824.024-530.536V574.434z"/></symbol><symbol viewBox="0 0 512 512" id="icon-realestate"><title>realestate</title><path d="M394.072 174.805l-47.916-48.023v-38.31h47.916v86.333zM462 275.815h-42.508v166.213H92.508V275.815H50L256 69.972l206 205.843zm-165.153-3.843c-15.81-3.316-29.02 4.086-38.792 19.387-9.77-15.302-22.98-22.704-38.79-19.388-36.745 10.876-36.335 69.543 38.583 113.047 75.06-43.26 75.742-102.172 39-113.048z"/></symbol><symbol viewBox="0 0 512 512" id="icon-recreation"><title>recreation</title><path d="M342.6 134.6q12.13 0 20.62-8.493 8.493-8.493 8.493-20.62t-8.493-20.63q-8.493-8.493-20.62-8.493-11.65 0-20.38 8.493-8.735 8.493-8.735 20.63 0 12.13 8.493 20.62 8.492 8.493 20.62 8.493zm93.66-66l-71.82 72.31h-42.71L249.42 68.6q-4.368-4.368-10.68-4.368-15.04 0-15.04 15.04 0 5.824 4.368 9.706l75.71 76.19v250.9q0 6.794 4.61 11.65 4.61 4.853 11.4 4.853 16.5 0 16.5-16.5v-136.4h13.1v136.4q0 6.795 4.853 11.65 4.854 4.854 11.65 4.854 6.795 0 11.65-4.853 4.854-4.852 4.854-11.65v-250.9l75.71-76.19q3.883-3.88 3.883-9.705 0-15.04-14.56-15.04-6.31 0-11.16 4.368zm-186.4 265q4.368 4.368 11.16 4.368 14.56 0 14.56-14.56 0-6.31-4.367-10.19l-60.66-61.15q-7.28-7.28-17.47-7.28h-60.66q-10.19 0-16.99 7.28l-61.15 61.15q-4.368 3.883-4.368 9.706 0 15.04 15.04 15.04 6.31 0 10.68-4.368l47.56-47.56v63.57h-53.38q-7.28 0-12.38 5.096-5.096 5.095-5.096 12.38 0 7.28 5.337 12.62l59.69 60.18q5.338 7.764 15.04 7.764 7.28 0 12.62-5.338 5.338-5.338 5.338-12.62 0-4.853-2.427-9.22l-33.48-33.97h98.03l-33.97 33.97q-2.426 4.367-2.426 9.22 0 7.28 5.096 12.62 5.095 5.338 12.86 5.338 9.706 0 15.04-7.764l59.69-59.69q5.338-5.34 5.338-13.1 0-7.28-5.095-12.38-5.095-5.096-12.38-5.096h-53.38v-62.6zm-86.38-95.12q12.13 0 20.62-8.493 8.493-8.492 8.493-20.62t-8.493-20.62q-8.492-8.493-20.62-8.493t-20.62 8.493q-8.493 8.493-8.493 20.62t8.493 20.62q8.493 8.493 20.62 8.493z"/></symbol><symbol viewBox="0 0 512 512" id="icon-rental"><title>rental</title><path d="M462 422.75H50V161.084h412V422.75zM201.875 141.084V124.02c0-3.738 3.03-6.77 6.77-6.77h94.71c3.74 0 6.77 3.03 6.77 6.77v17.064h30V110.52c0-11.746-9.522-21.27-21.27-21.27h-125.71c-11.747 0-21.27 9.523-21.27 21.27v30.564h30z"/></symbol><symbol viewBox="0 0 512 512" id="icon-restroom"><title>restroom</title><path d="M251.3 420.4h26.09V91.6H251.3v328.8zm-93.03-268.7h-52.66q-12.31 0-22.15 8.86-7.383 6.89-9.844 15.26l-22.64 75.31q-.984 2.46-.984 4.43 0 11.32 11.32 11.32 7.875 0 10.34-8.86l20.67-68.91h11.32l-33.96 122.6h32.98v95.49q0 12.8 12.3 12.8t12.3-12.8v-95.98h12.3v96.47q0 12.3 12.3 12.3t12.3-12.3v-95.98h32.98l-34.45-122.6h11.81l20.67 68.91q2.46 8.86 10.34 8.86 11.32 0 11.32-11.32 0-2.462-.985-4.43l-22.64-75.31q-2.46-7.877-11.32-15.26-10.83-8.86-23.63-8.86zm-25.1-5.414q11.32 0 19.2-7.876 7.875-7.875 7.875-18.7 0-11.32-7.875-19.2-7.876-7.875-19.2-7.875-10.83 0-18.7 7.875-7.875 7.875-7.875 19.2 0 10.83 7.875 18.7 7.875 7.876 18.7 7.876zm259.4-.493q10.83 0 18.7-7.875 7.875-7.875 7.875-18.7 0-11.32-7.875-18.95-7.875-7.63-18.7-7.63-10.83 0-18.7 7.63-7.876 7.63-7.876 18.95 0 10.83 7.876 18.7 7.875 7.875 18.7 7.875zm34.95 5.415h-70.38q-14.27 0-24.36 10.09t-10.09 24.86v81.7q0 11.81 10.83 11.81 10.34 0 10.34-11.81v-79.74h12.8v216.6q0 14.77 14.77 14.77t14.77-14.77v-125.5H399v125.5q0 14.77 14.77 14.77 15.26 0 15.26-14.77v-216.6h12.3v79.74q0 12.3 10.34 12.3t10.34-12.3v-81.21q0-14.27-9.597-24.86-9.598-10.58-24.86-10.58z"/></symbol><symbol viewBox="0 0 512 512" id="icon-services"><title>services</title><path d="M447.087 375.073L281.4 209.387c-11.353-11.353-17.2-27.142-15.962-43.15 2.345-30.324-8.074-61.45-31.268-84.643-30.19-30.19-73.82-38.74-111.63-25.666l68.647 68.647c1.576 26.78-39.832 68.188-66.612 66.612L55.93 122.54c-13.077 37.81-4.526 81.44 25.664 111.63 23.193 23.194 54.32 33.612 84.645 31.268 16.023-1.24 31.784 4.598 43.15 15.962l165.686 165.686c19.885 19.886 52.126 19.886 72.013 0 19.882-19.886 19.882-52.127-.003-72.013zm-38.49 53.887c-11.59 0-20.985-9.396-20.985-20.987 0-11.59 9.396-20.985 20.985-20.985 11.59 0 20.987 9.396 20.987 20.985 0 11.59-9.397 20.987-20.987 20.987z"/></symbol><symbol viewBox="0 0 512 512" id="icon-share"><title>share</title><path d="M134.02 328.384c36.646-159.582 219.144-196.722 219.144-196.722V82.534L462 191.19 353.164 299.85v-49.128S212.04 244.85 134.02 328.384zm220.03 20.042v40.028H91.01v-170.37h57.562c11.502-14.815 24.562-28.488 38.98-41.012H50v252.394h345.06V307.482l-41.01 40.944z"/></symbol><symbol viewBox="0 0 512 512" id="icon-shopping"><title>shopping</title><path d="M346.914 143.61H50.168l53.563 121.165h205.086l38.098-121.166zm114.918-38.5l-12.746 40h-29.98l-59.178 188.165H132.856l-17.625-40h215.45l59.18-188.166h71.972zM316.816 380c0 14.852-12.04 26.89-26.89 26.89s-26.89-12.038-26.89-26.89 12.038-26.89 26.89-26.89 26.89 12.038 26.89 26.89zm-88.883 0c0 14.852-12.04 26.89-26.893 26.89-14.852 0-26.89-12.038-26.89-26.89s12.038-26.89 26.89-26.89c14.853 0 26.893 12.038 26.893 26.89z"/></symbol><symbol viewBox="16.515 -1.305 69.378 100" id="icon-shops"><title>shops</title><path d="M63.496 31.59c-6.344 4.657-12.07 8.73-12.466 8.73-.395 0-6.057-4.017-12.348-8.634-12.966 5.02-22.167 17.6-22.167 32.333 0 19.15 15.532 34.676 34.69 34.676 19.156 0 34.688-15.525 34.688-34.677 0-14.827-9.304-27.473-22.397-32.43zm-12.29 8.832c13.036 0 23.604 10.563 23.604 23.596 0 13.035-10.568 23.605-23.605 23.605-13.04 0-23.606-10.57-23.606-23.605 0-13.033 10.566-23.596 23.605-23.596z"/><path d="M51.025 39.374c-.905 0-29.67-21.286-29.95-22.164S31.783-.355 32.515-.898c.734-.542 36.29-.542 37.02 0 .734.543 11.722 17.23 11.44 18.108-.278.878-29.042 22.164-29.95 22.164z"/></symbol><symbol viewBox="0 0 512 512" id="icon-sign"><title>sign</title><path d="M136.95 189.96l-56.596-54.753 56.596-53.595h98.494V50h55.618v31.612h114.055V189.96H136.95zM235.444 462h55.618V351.498h-55.618V462zM375.05 217.195H106.883v108.348H375.05l56.596-54.174-56.596-54.175z"/></symbol><symbol viewBox="0 0 512 512" id="icon-signage"><title>signage</title><path d="M136.95 189.96l-56.596-54.753 56.596-53.595h98.494V50h55.618v31.612h114.055V189.96H136.95zM235.444 462h55.618V351.498h-55.618V462zM375.05 217.195H106.883v108.348H375.05l56.596-54.174-56.596-54.175z"/></symbol><symbol viewBox="0 0 512 512" id="icon-signs"><title>signs</title><path d="M136.95 189.96l-56.596-54.753 56.596-53.595h98.494V50h55.618v31.612h114.055V189.96H136.95zM235.444 462h55.618V351.498h-55.618V462zM375.05 217.195H106.883v108.348H375.05l56.596-54.174-56.596-54.175z"/></symbol><symbol viewBox="0 0 512 512" id="icon-snowflake"><title>snowflake</title><path d="M443.8 230.1l-42.3.06 8.417-13.29c5.36-8.462 2.855-19.66-5.595-25.01-8.466-5.382-19.66-2.854-25.01 5.583l-20.75 32.78-71.3.103 35.62-62.62 49.19-2.677c10.02-.54 17.68-9.073 17.12-19.1-.536-10-9.064-17.68-19.08-17.12l-25.91 1.388 11.41-20.05c4.948-8.7 1.912-19.76-6.78-24.74-8.707-4.953-19.75-1.913-24.72 6.812l-11.4 20.13-7.1-12.89c-4.813-8.79-15.84-11.97-24.63-7.133-8.748 4.828-11.93 15.86-7.112 24.63l17.77 32.33-35.63 62.65-35.64-62.64 17.77-32.33c4.82-8.767 1.64-19.8-7.11-24.63-8.79-4.834-19.81-1.654-24.62 7.134l-7.2 12.9-11.5-20.21c-4.97-8.725-16.02-11.77-24.72-6.812-8.69 4.97-11.73 16.03-6.783 24.74l11.41 20.05-25.91-1.39c-10.01-.56-18.54 7.12-19.08 17.12-.552 10.02 7.11 18.56 17.13 19.1l49.19 2.678 35.62 62.62-71.3-.107-20.75-32.78c-5.356-8.438-16.55-10.96-25.01-5.584-8.45 5.352-10.95 16.55-5.594 25.01l8.412 13.29-42.3-.06c-10.01 0-18.14 8.108-18.17 18.13 0 10.01 8.088 18.17 18.09 18.17l41.66.06-13.15 21.16c-5.274 8.49-2.674 19.67 5.817 25 8.495 5.275 19.68 2.68 24.96-5.856l25.02-40.23 72.43.103-34.62 60.62-37.4 2.148c-9.99.607-17.63 9.148-17.05 19.14.58 9.997 9.134 17.68 19.12 17.07l13.88-.79-21.16 37.06c-4.944 8.717-1.928 19.8 6.753 24.75 8.677 5.002 19.75 1.98 24.72-6.747l21.98-38.48 13 23.35c4.882 8.78 15.9 11.94 24.65 7.027 8.726-4.858 11.89-15.89 7.02-24.66l-23.66-42.52 33.89-59.34.05.09.05-.09 33.89 59.34-23.64 42.52c-4.873 8.763-1.705 19.8 7.02 24.66 8.748 4.903 19.77 1.753 24.65-7.027l13-23.35 21.98 38.48c4.966 8.726 16.04 11.75 24.72 6.746 8.682-4.954 11.7-16.03 6.753-24.75l-21.16-37.06 13.88.79c9.99.615 18.54-7.072 19.12-17.07.585-9.995-7.06-18.53-17.06-19.14l-37.41-2.148-34.61-60.62 72.43-.103 25.02 40.23c5.274 8.536 16.46 11.13 24.96 5.855 8.49-5.332 11.1-16.51 5.82-25l-13.16-21.16 41.66-.06c10 0 18.09-8.157 18.09-18.17-.04-10.02-8.16-18.13-18.17-18.13z"/></symbol><symbol viewBox="0 0 512 512" id="icon-spring"><title>spring</title><path d="M108.8 90.46c1.5 89.08 34.5 146.8 47.1 264.1-29.8-82.4-75-166.9-93.38-189.8 10.12 86.5 82.78 174.9 89.18 297.1 71.67.356 127.2-.54 197 0 28.1-94.8 55.5-192.3 100.8-281.7-46.8 57.2-85.7 108.3-116 152.5 27.1-72 55-133.6 78.1-195.6-31.5 27.08-76.4 108.1-114.7 191.1 9.3-87.5 27-166.9 28.2-235.1-14.9 25.45-44.4 99.19-68.1 179.3-4.8-96.23-12.8-188.3-24.4-222.4 1.5 76.34-2.4 160.6-8 255.2-13.6-53.3-34.1-115.1-63.4-184.6 11.6 81.41 31.8 168.2 38.6 254.5-18.9-128.6-66.2-242-91-284.6z"/></symbol><symbol viewBox="-1 -1.167 512 512" id="icon-summer"><title>summer</title><path d="M255 144.6c-6.9 0-12.49-5.587-12.49-12.49V61.36c0-6.894 5.587-12.49 12.49-12.49 6.895 0 12.48 5.592 12.48 12.49v70.75c0 6.895-5.587 12.48-12.48 12.48zM255 460.8c-6.9 0-12.49-5.587-12.49-12.49v-70.74c0-6.895 5.587-12.49 12.49-12.49 6.895 0 12.48 5.59 12.48 12.49v70.75c0 6.895-5.587 12.48-12.48 12.48zM448.5 267.3h-70.75c-6.894 0-12.49-5.583-12.49-12.48 0-6.895 5.592-12.49 12.49-12.49h70.75c6.895 0 12.49 5.59 12.49 12.49s-5.596 12.48-12.49 12.48zM132.2 267.3H61.45c-6.86 0-12.45-5.6-12.45-12.5 0-6.894 5.587-12.49 12.48-12.49h70.75c6.894 0 12.49 5.592 12.49 12.49 0 6.895-5.592 12.48-12.49 12.48zM391.8 404.2c-3.195 0-6.39-1.22-8.83-3.658l-50-50c-4.876-4.877-4.876-12.78 0-17.65 4.873-4.877 12.78-4.877 17.65 0l50.03 50.02c4.878 4.877 4.878 12.78 0 17.65-2.433 2.44-5.632 3.658-8.827 3.658zM168.2 180.5c-3.19 0-6.386-1.22-8.824-3.66l-50.03-50.02c-4.876-4.872-4.876-12.78 0-17.65 4.877-4.875 12.78-4.875 17.66 0l50.03 50.02c4.877 4.873 4.877 12.78 0 17.66-2.442 2.437-5.637 3.656-8.832 3.656zM118.2 404.2c-3.195 0-6.39-1.22-8.83-3.657-4.875-4.873-4.875-12.78 0-17.65l50.02-50.02c4.877-4.876 12.78-4.876 17.65 0 4.878 4.873 4.878 12.77 0 17.65l-50.02 50.03c-2.43 2.438-5.628 3.657-8.824 3.657zM341.8 180.5c-3.195 0-6.395-1.22-8.83-3.658-4.875-4.873-4.875-12.78 0-17.66l50.02-50.03c4.877-4.88 12.78-4.88 17.65 0 4.878 4.872 4.878 12.78 0 17.65l-50.02 50.03c-2.437 2.443-5.628 3.662-8.823 3.662zM255 336.2c-44.88 0-81.39-36.52-81.39-81.4s36.52-81.4 81.39-81.4c44.88 0 81.39 36.52 81.39 81.4s-36.51 81.4-81.39 81.4zm0-137.8c-31.11 0-56.43 25.31-56.43 56.42s25.31 56.43 56.43 56.43c31.11 0 56.42-25.31 56.42-56.43S286.11 198.4 255 198.4z"/></symbol><symbol viewBox="-1 -1.167 512 512" id="icon-sun"><title>sun</title><path d="M255 144.6c-6.9 0-12.49-5.587-12.49-12.49V61.36c0-6.894 5.587-12.49 12.49-12.49 6.895 0 12.48 5.592 12.48 12.49v70.75c0 6.895-5.587 12.48-12.48 12.48zM255 460.8c-6.9 0-12.49-5.587-12.49-12.49v-70.74c0-6.895 5.587-12.49 12.49-12.49 6.895 0 12.48 5.59 12.48 12.49v70.75c0 6.895-5.587 12.48-12.48 12.48zM448.5 267.3h-70.75c-6.894 0-12.49-5.583-12.49-12.48 0-6.895 5.592-12.49 12.49-12.49h70.75c6.895 0 12.49 5.59 12.49 12.49s-5.596 12.48-12.49 12.48zM132.2 267.3H61.45c-6.86 0-12.45-5.6-12.45-12.5 0-6.894 5.587-12.49 12.48-12.49h70.75c6.894 0 12.49 5.592 12.49 12.49 0 6.895-5.592 12.48-12.49 12.48zM391.8 404.2c-3.195 0-6.39-1.22-8.83-3.658l-50-50c-4.876-4.877-4.876-12.78 0-17.65 4.873-4.877 12.78-4.877 17.65 0l50.03 50.02c4.878 4.877 4.878 12.78 0 17.65-2.433 2.44-5.632 3.658-8.827 3.658zM168.2 180.5c-3.19 0-6.386-1.22-8.824-3.66l-50.03-50.02c-4.876-4.872-4.876-12.78 0-17.65 4.877-4.875 12.78-4.875 17.66 0l50.03 50.02c4.877 4.873 4.877 12.78 0 17.66-2.442 2.437-5.637 3.656-8.832 3.656zM118.2 404.2c-3.195 0-6.39-1.22-8.83-3.657-4.875-4.873-4.875-12.78 0-17.65l50.02-50.02c4.877-4.876 12.78-4.876 17.65 0 4.878 4.873 4.878 12.77 0 17.65l-50.02 50.03c-2.43 2.438-5.628 3.657-8.824 3.657zM341.8 180.5c-3.195 0-6.395-1.22-8.83-3.658-4.875-4.873-4.875-12.78 0-17.66l50.02-50.03c4.877-4.88 12.78-4.88 17.65 0 4.878 4.872 4.878 12.78 0 17.65l-50.02 50.03c-2.437 2.443-5.628 3.662-8.823 3.662zM255 336.2c-44.88 0-81.39-36.52-81.39-81.4s36.52-81.4 81.39-81.4c44.88 0 81.39 36.52 81.39 81.4s-36.51 81.4-81.39 81.4zm0-137.8c-31.11 0-56.43 25.31-56.43 56.42s25.31 56.43 56.43 56.43c31.11 0 56.42-25.31 56.42-56.43S286.11 198.4 255 198.4z"/></symbol><symbol viewBox="0 0 512 512" id="icon-tools"><title>tools</title><path d="M158.055 249.342l160.08 160.08c13.483 13.482 35.338 13.48 48.82 0 13.48-13.48 13.48-35.337 0-48.82l-160.08-160.08c-7.697-7.695-11.66-18.4-10.82-29.25 1.59-20.56-5.475-41.66-21.198-57.384-20.37-20.37-49.916-26.31-75.68-17.4l46.54 46.54c1.068 18.162-27.02 46.232-45.16 45.158l-46.537-46.54c-8.864 25.632-3.067 55.21 17.398 75.678 14.28 14.28 32.994 21.416 51.71 21.416 5.156 0 21.16-3.163 34.927 10.602zM340.86 368.68c7.857 0 14.23 6.368 14.23 14.227s-6.372 14.23-14.23 14.23c-7.856 0-14.227-6.37-14.227-14.23s6.37-14.228 14.228-14.228zM219.445 115.33s88.328-43.475 146.982.69c33.28 25.058 28.81 47.44 43.82 62.45 13.8 13.8 30.705 2.416 30.705 2.416L462 201.933l-67.28 67.28-21.048-21.046s9.086-12.995-1.727-23.806c-9.773-9.775-21.966-7.016-34.732 5.75l-30.984 30.986-46.995-46.995 31.347-31.347c29.022-29.022-.936-60.408-71.138-67.424zm-.89 233.055l-61.475 61.15c-12.964 12.965-33.98 12.965-46.94 0-12.963-12.96-12.963-33.977 0-46.937l61.474-61.153 46.94 46.94z"/></symbol><symbol viewBox="0 0 512 512" id="icon-trail-cond"><title>trail-cond</title><path d="M429.9 436.7H115.6v13.21h314.3q13.21 0 22.65-9.438 9.438-9.438 9.438-22.65h-12.74q0 8.023-5.663 13.45t-13.68 5.427zm-74.56-311.5q12.74 0 22.18-9.202 9.438-9.202 9.438-22.42 0-13.21-9.438-22.42-9.438-9.202-22.18-9.202-13.21 0-22.42 9.202-9.202 9.202-9.202 22.42 0 13.21 9.202 22.42 9.202 9.202 22.42 9.202zm-207.6 283.1q5.19 4.72 12.74 4.72 8.494 0 17.93-6.607l-9.438-9.91q-4.247 2.83-8.022 2.83-3.776 0-5.663-1.886l-.472-.472-104.8-105.2v18.4zm10.38-210H51.02v12.74h107.1V198.3zm181.2 219.9l122.2-245.4-12.27-5.19-123.6 250.6h13.68zM93.42 273.9q-8.966 0-15.1 5.663-6.135 5.662-6.135 14.63 0 8.495 6.135 14.39 6.135 5.9 14.63 5.9h85.41q5.19 0 9.438-.945 10.85-1.887 15.1-6.606l42-46.72 49.08 47.19-19.82 88.24q-.944 2.83-.944 4.72 0 8.493 6.135 14.63 6.133 6.134 14.63 6.134 16.04 0 19.82-16.52l24.07-107.1q4.246-16.99-3.776-25.01l-42.94-42.94 46.72-54.27 30.2 30.2q4.72 4.72 10.85 4.72 8.023 0 15.57-7.08l49.08-49.08q3.775-4.718 3.775-10.38 0-7.077-4.956-11.8-4.955-4.718-11.56-4.718-6.606 0-10.38 3.775l-40.58 40.58-49.08-49.08q-5.663-5.663-14.16-5.663h-76.92q-7.08 0-12.27 5.663l-52.85 60.88q-5.663 4.72-5.663 11.8 0 6.607 4.72 11.33 4.72 4.72 11.33 4.72 7.078 0 12.27-5.664l49.08-57.1 28.31.47-108.1 125.5z"/></symbol><symbol viewBox="-0.258 -0.548 512.195 512.162" id="icon-trail"><title>trail</title><path d="M136.7 434.3c-.306 1.533-.4 3.062-.4 4.595 0 12.62 10.17 22.76 22.79 22.76 10.36 0 19.05-6.893 21.84-16.26l39.15-162.1 37.31 161.1c2.388 9.955 11.39 17.22 21.99 17.22 12.65 0 22.79-10.14 22.79-22.76 0-1.745-.184-3.368-.49-4.992l-51.17-214.4 4.29-18.87 3.367 14.82c3.062 9.68 11.85 10.63 11.85 10.63l52.74 13.42c1.043.185 2.113.275 3.156.275 8.607 0 15.59-6.893 15.59-15.5 0-7.383-5.054-13.6-11.95-15.22l-45.6-11.5-12.6-50.9c-5.944-28.43-33.11-27.75-33.11-27.75-26.4-.675-33.02 27.11-33.02 27.11l-68.5 287.9zm180.9 19.2c0 .196-.09.353-.09.46 0 4.136 3.368 7.472 7.474 7.472 3.736 0 6.893-2.878 7.35-6.493l54.42-294.9v-.58c0-4.012-3.276-7.384-7.382-7.384-3.736 0-6.618 2.878-7.383 6.524l-54.42 295.2zM193 119.6c1.254-4.99-1.898-9.955-6.8-11.21l-26.99-6.493c-5.053-1.164-10.04 1.808-11.18 6.772l-22.74 93.9c-1.253 4.99 1.81 9.954 6.8 11.21l27.08 6.492c4.9 1.255 9.955-1.807 11.12-6.8l22.66-93.9zm54.7-5.3c17.89 0 32.35-14.55 32.35-32.47 0-17.89-14.46-32.35-32.35-32.35s-32.44 14.46-32.44 32.35c0 17.92 14.55 32.46 32.42 32.46z"/></symbol><symbol viewBox="-0.258 -0.548 512.195 512.162" id="icon-trails"><title>trails</title><path d="M136.7 434.3c-.306 1.533-.4 3.062-.4 4.595 0 12.62 10.17 22.76 22.79 22.76 10.36 0 19.05-6.893 21.84-16.26l39.15-162.1 37.31 161.1c2.388 9.955 11.39 17.22 21.99 17.22 12.65 0 22.79-10.14 22.79-22.76 0-1.745-.184-3.368-.49-4.992l-51.17-214.4 4.29-18.87 3.367 14.82c3.062 9.68 11.85 10.63 11.85 10.63l52.74 13.42c1.043.185 2.113.275 3.156.275 8.607 0 15.59-6.893 15.59-15.5 0-7.383-5.054-13.6-11.95-15.22l-45.6-11.5-12.6-50.9c-5.944-28.43-33.11-27.75-33.11-27.75-26.4-.675-33.02 27.11-33.02 27.11l-68.5 287.9zm180.9 19.2c0 .196-.09.353-.09.46 0 4.136 3.368 7.472 7.474 7.472 3.736 0 6.893-2.878 7.35-6.493l54.42-294.9v-.58c0-4.012-3.276-7.384-7.382-7.384-3.736 0-6.618 2.878-7.383 6.524l-54.42 295.2zM193 119.6c1.254-4.99-1.898-9.955-6.8-11.21l-26.99-6.493c-5.053-1.164-10.04 1.808-11.18 6.772l-22.74 93.9c-1.253 4.99 1.81 9.954 6.8 11.21l27.08 6.492c4.9 1.255 9.955-1.807 11.12-6.8l22.66-93.9zm54.7-5.3c17.89 0 32.35-14.55 32.35-32.47 0-17.89-14.46-32.35-32.35-32.35s-32.44 14.46-32.44 32.35c0 17.92 14.55 32.46 32.42 32.46z"/></symbol><symbol viewBox="0 0 512 512" id="icon-tree"><title>tree</title><path d="M236.29 408.44V462h41.2v-53.56h132.664l-62.542-119.48h36.668l-79.02-119.48h36.708L257.302 50 170.04 169.48h36.71l-79.022 119.48h36.668l-62.542 119.48z"/></symbol><symbol viewBox="0 0 512 512" id="icon-twitter"><title>twitter</title><path d="M462 128.223c-15.158 6.724-31.45 11.27-48.547 13.31 17.45-10.46 30.854-27.025 37.164-46.764-16.333 9.686-34.422 16.72-53.676 20.51-15.417-16.428-37.385-26.69-61.697-26.69-54.56 0-94.668 50.915-82.337 103.786-70.25-3.524-132.534-37.177-174.223-88.314-22.142 37.983-11.485 87.69 26.158 112.85-13.853-.438-26.89-4.24-38.284-10.574-.917 39.162 27.146 75.78 67.795 83.95-11.895 3.236-24.925 3.977-38.17 1.446 10.755 33.58 41.973 58.018 78.96 58.7C139.605 378.28 94.847 390.72 50 385.435c37.406 23.982 81.837 37.977 129.57 37.977 156.933 0 245.596-132.55 240.252-251.435 16.517-11.917 30.846-26.804 42.178-43.755z"/></symbol><symbol viewBox="0 0 512 512" id="icon-vacation"><title>vacation</title><path d="M462 422.75H50V161.084h412V422.75zM201.875 141.084V124.02c0-3.738 3.03-6.77 6.77-6.77h94.71c3.74 0 6.77 3.03 6.77 6.77v17.064h30V110.52c0-11.746-9.522-21.27-21.27-21.27h-125.71c-11.747 0-21.27 9.523-21.27 21.27v30.564h30z"/></symbol><symbol viewBox="0 0 512 512" id="icon-video_link"><title>video_link</title><path d="M319 317.084c0 20.94-16.976 37.916-37.916 37.916H87.916C66.976 355 50 338.024 50 317.084V194.916C50 173.976 66.976 157 87.916 157h193.168c20.94 0 37.916 16.976 37.916 37.916v122.168zM462 157l-113 68.5v61L462 355V157z"/></symbol><symbol viewBox="0 0 512 512" id="icon-vista"><title>vista</title><path d="M213.6 91h14.73V76.27H75.73v42.62l137.9-11.58V91zm78.4 28.94q14.73 0 25-10.26 10.26-10.26 10.26-24.47 0-14.73-10.26-24.99t-25-10.26q-14.21 0-24.73 10.26t-10.52 24.99q0 14.21 10.52 24.47T292 119.94zm63.14-1.58q-7.366-7.892-17.89-7.892-11.05 0-18.42 7.893l-51 51.1-36.8-37.4q-6.314-6.313-14.21-6.313-16.84 0-16.84 17.36 0 6.84 4.736 11.58l48.94 48.94q5.262 5.79 12.63 5.79 8.42 0 13.68-6.316l28.42-28.42 70.51 71.04v187.9q0 12.1 8.42 20.26 8.42 8.158 20.52 8.158 11.58 0 20-8.157 8.42-8.155 8.42-20.26v-227.8q0-6.84-4.737-11.58zm-172.1 78.93l-12.1-68.41q-1.052-5.787-7.366-5.787-6.315 0-7.367 6.314l-11.58 67.88v263.1h100.5v-37.36h-62.09v-225.7z"/></symbol><symbol viewBox="0 0 512 512" id="icon-water"><title>water</title><path d="M183.9 130q24.72 0 35.9-17.07Q231.57 130 255.12 130q24.72 0 35.9-17.07Q302.79 130 326.34 130q18.84 0 29.43-10.01l6.475-41.79q-12.95 19.42-35.9 19.42-22.37 0-35.32-18.84-12.36 18.84-35.9 18.84-22.37 0-35.32-18.84-12.36 18.84-35.9 18.84-20.6 0-33.55-17.07l5.886 40.61q10.01 8.83 27.66 8.83zM367 462l64.16-412-42.97.59-58.86 367.9h-146l-58.86-367.9L80.91 50l64.75 412h221.3z"/></symbol><symbol viewBox="0 0 512 512" id="icon-winter"><title>winter</title><path d="M443.8 230.1l-42.3.06 8.417-13.29c5.36-8.462 2.855-19.66-5.595-25.01-8.466-5.382-19.66-2.854-25.01 5.583l-20.75 32.78-71.3.103 35.62-62.62 49.19-2.677c10.02-.54 17.68-9.073 17.12-19.1-.536-10-9.064-17.68-19.08-17.12l-25.91 1.388 11.41-20.05c4.948-8.7 1.912-19.76-6.78-24.74-8.707-4.953-19.75-1.913-24.72 6.812l-11.4 20.13-7.1-12.89c-4.813-8.79-15.84-11.97-24.63-7.133-8.748 4.828-11.93 15.86-7.112 24.63l17.77 32.33-35.63 62.65-35.64-62.64 17.77-32.33c4.82-8.767 1.64-19.8-7.11-24.63-8.79-4.834-19.81-1.654-24.62 7.134l-7.2 12.9-11.5-20.21c-4.97-8.725-16.02-11.77-24.72-6.812-8.69 4.97-11.73 16.03-6.783 24.74l11.41 20.05-25.91-1.39c-10.01-.56-18.54 7.12-19.08 17.12-.552 10.02 7.11 18.56 17.13 19.1l49.19 2.678 35.62 62.62-71.3-.107-20.75-32.78c-5.356-8.438-16.55-10.96-25.01-5.584-8.45 5.352-10.95 16.55-5.594 25.01l8.412 13.29-42.3-.06c-10.01 0-18.14 8.108-18.17 18.13 0 10.01 8.088 18.17 18.09 18.17l41.66.06-13.15 21.16c-5.274 8.49-2.674 19.67 5.817 25 8.495 5.275 19.68 2.68 24.96-5.856l25.02-40.23 72.43.103-34.62 60.62-37.4 2.148c-9.99.607-17.63 9.148-17.05 19.14.58 9.997 9.134 17.68 19.12 17.07l13.88-.79-21.16 37.06c-4.944 8.717-1.928 19.8 6.753 24.75 8.677 5.002 19.75 1.98 24.72-6.747l21.98-38.48 13 23.35c4.882 8.78 15.9 11.94 24.65 7.027 8.726-4.858 11.89-15.89 7.02-24.66l-23.66-42.52 33.89-59.34.05.09.05-.09 33.89 59.34-23.64 42.52c-4.873 8.763-1.705 19.8 7.02 24.66 8.748 4.903 19.77 1.753 24.65-7.027l13-23.35 21.98 38.48c4.966 8.726 16.04 11.75 24.72 6.746 8.682-4.954 11.7-16.03 6.753-24.75l-21.16-37.06 13.88.79c9.99.615 18.54-7.072 19.12-17.07.585-9.995-7.06-18.53-17.06-19.14l-37.41-2.148-34.61-60.62 72.43-.103 25.02 40.23c5.274 8.536 16.46 11.13 24.96 5.855 8.49-5.332 11.1-16.51 5.82-25l-13.16-21.16 41.66-.06c10 0 18.09-8.157 18.09-18.17-.04-10.02-8.16-18.13-18.17-18.13z"/></symbol><symbol viewBox="0 0 512 512" id="icon-x"><title>x</title><path d="M438.393 374.595L319.757 255.977l118.62-118.63-63.782-63.74-118.6 118.618-118.62-118.603-63.768 63.73 118.64 118.63L73.62 374.626l63.73 63.768 118.65-118.66 118.65 118.645z"/></symbol><symbol viewBox="0 0 512 512" id="icon-zoom-home"><title>zoom-home</title><path d="M419.492 275.815v166.213H300.725v-90.33h-89.45v90.33H92.506V275.815H50L256 69.972l206 205.844h-42.508zm-25.42-187.343h-47.917v38.31l47.917 48.024V88.472z"/></symbol><symbol viewBox="0 0 512 512" id="icon-zoom-in"><title>zoom-in</title><path d="M460.475 408.443L351.4 299.37c15.95-25.137 25.2-54.923 25.2-86.833C376.6 122.914 303.687 50 214.062 50 124.44 50 51.525 122.914 51.525 212.537s72.914 162.537 162.537 162.537c30.326 0 58.733-8.356 83.055-22.876L406.917 462l53.558-53.557zM96.315 212.538c0-64.927 52.82-117.748 117.746-117.748 64.927 0 117.75 52.82 117.75 117.748 0 64.926-52.823 117.747-117.75 117.747-64.925 0-117.745-52.82-117.745-117.747zm185.96 19.344h-47.728v47.73h-36.86v-47.73h-47.73v-36.86h47.73v-47.73h36.86v47.73h47.73v36.86z"/></symbol><symbol viewBox="0 0 512 512" id="icon-zoom-out"><title>zoom-out</title><path d="M460.475 408.443L351.4 299.37c15.95-25.137 25.2-54.923 25.2-86.833C376.6 122.914 303.687 50 214.062 50 124.44 50 51.525 122.914 51.525 212.537s72.914 162.537 162.537 162.537c30.325 0 58.732-8.356 83.055-22.876L406.917 462l53.558-53.557zM96.315 212.538c0-64.927 52.82-117.748 117.746-117.748 64.927 0 117.75 52.82 117.75 117.748 0 64.926-52.823 117.747-117.75 117.747-64.925 0-117.745-52.82-117.745-117.747zm185.96 19.344H149.958v-36.86h132.32v36.86z"/></symbol></svg>