<svg xmlns="http://www.w3.org/2000/svg" viewBox="0 0 512 512" height="512" width="512"><g><path d="M336.178 285.084H263.45c-18.475-42.72-33.136-87.242-35.66-161.39h144.047c-2.5 73.517-17.65 119.957-35.66 161.39zm50.58 399.856c-.386 5.42-.832 10.75-1.355 16.002h22.907c-5.387 19.276-16.46 37.758-31.132 51.73-1.808 8.122-3.842 16.235-6.538 25.41 32.624-20.958 53.69-58.24 56.862-93.142H386.76zm-78.176-28.985c44.398-40.02-9.188-37.908 1.09-65.595-35.432 35.77 13.21 36.57-1.09 65.595zm-26.074 0c29.574-26.48-6.2-29.07.84-47.778-24.742 26.104 8.9 26.783-.84 47.778z"/><path d="M110.935 411.684h270.83V462h26.417v-75.472H110.935v-109.02q0-12.997-13.023-12.997-13.414 0-13.414 12.997V461.97h26.437v-50.316zm40.66 459.418q10.08 0 17.002-6.917 6.923-6.916 6.923-16.982 0-10.06-6.923-16.985-6.922-6.918-17-6.918-10.08 0-17 6.918-6.886 6.92-6.886 16.985 0 10.062 6.887 16.982 6.92 6.917 17 6.917zm-23.493 24.314q0 11.737 11.77 11.737h268.77v-32.697q0-17.187-18.86-18.86l-187.83-18.725q-.433 0-.866-.432-12.156 0-12.156 11.738v35.633h-49.057q-11.727 0-11.727 11.737z"/></g></svg>