<svg xmlns="http://www.w3.org/2000/svg" width="579.997" height="579.997" viewBox="0 0 579.997 579.997"><path fill="param(fill) #FFF" stroke="param(outline) #000" stroke-width="param(outline-width) 1" d="M377.692 98.52C350.74 76.67 306.615 65.73 245.197 65.73H124.473v445.004h87.93v-166.61H245.2c61.418 0 105.542-10.94 132.495-32.792 26.883-21.852 40.395-57.318 40.395-106.404s-13.513-84.553-40.396-106.405zM309.15 255.595c-11.648 9.748-31.88 14.604-60.68 14.604h-36.067V139.654h36.066c28.8 0 49.03 4.89 60.68 14.604 11.61 9.746 17.416 26.635 17.416 50.668 0 24.068-5.805 40.957-17.417 50.668z"/></svg>