<svg xmlns="http://www.w3.org/2000/svg" width="580" height="580" viewBox="0 0 580 580"><path fill="param(fill) #FFF" stroke="param(outline) #000" stroke-width="param(outline-width) 1" d="M140.513 136.156c10.35 0 19.13-3.6 26.338-10.804 7.21-7.202 10.814-15.758 10.814-25.668 0-10.363-3.604-19.146-10.813-26.35-7.208-7.2-15.988-10.802-26.337-10.803-9.91.002-18.47 3.603-25.678 10.805-7.21 7.203-10.814 15.985-10.814 26.35 0 9.91 3.605 18.465 10.815 25.667 7.208 7.203 15.768 10.804 25.678 10.804zM456.528 135.496c9.91 0 18.47-3.604 25.678-10.813 7.21-7.21 10.813-15.768 10.814-25.68 0-10.348-3.605-19.014-10.814-25.997-7.21-6.982-15.77-10.473-25.678-10.474-9.91 0-18.467 3.492-25.67 10.474-7.2 6.983-10.803 15.65-10.802 25.998 0 9.91 3.6 18.47 10.803 25.68 7.202 7.208 15.757 10.813 25.668 10.812zM538.625 157.443c-8.783-9.683-20.157-14.524-34.12-14.524h-96.612c-13.058 0-24.205 4.618-33.44 13.853-9.237 9.237-13.855 20.61-13.855 34.12V303.03c0 10.817 4.955 16.226 14.865 16.226 9.456 0 14.184-5.408 14.185-16.226V193.595h17.565V490.85c0 13.512 6.755 20.268 20.267 20.268 13.51 0 20.267-6.756 20.267-20.267V318.577h17.565V490.85c0 13.512 6.755 20.268 20.267 20.268 13.964 0 20.945-6.756 20.946-20.267V193.596h16.886V303.03c0 11.257 4.728 16.886 14.185 16.886 9.47 0 14.204-5.63 14.205-16.886V191.554c-.003-13.057-4.395-24.427-13.177-34.11zM222.92 176.71c-2.255-7.216-7.43-14.198-15.525-20.947-9.91-8.11-20.72-12.164-32.43-12.164H102.68c-11.27 0-21.407 4.054-30.41 12.163-6.762 6.295-11.263 13.278-13.503 20.947l-31.09 103.353c-.894 2.254-1.34 4.282-1.34 6.082 0 10.364 5.175 15.545 15.525 15.545 7.216 0 11.95-4.055 14.205-12.164l28.37-94.59H99.96L53.344 363.148H98.62V494.21c0 11.71 5.627 17.566 16.884 17.566s16.885-5.855 16.885-17.566V362.49h16.905v132.402c0 11.257 5.628 16.886 16.885 16.886 11.256 0 16.885-5.63 16.885-16.886V363.15h45.254l-47.276-168.215h16.205l28.368 94.59c2.254 8.11 6.982 12.165 14.185 12.165 10.363 0 15.545-5.182 15.545-15.545 0-2.254-.447-4.28-1.34-6.082l-31.09-103.353zM282.646 61.172h35.812v451.286h-35.812z"/></svg>