<svg xmlns="http://www.w3.org/2000/svg" width="580" height="580" viewBox="0 0 580 580"><path fill="param(fill) #FFF" stroke="param(outline) #000" stroke-width="param(outline-width) 1" d="M474.162 442.77c-9.593.592-27.915 14.387-53.152 17.338-24.026-47.04-46.925-95.01-70.725-142.32-41.396-.033-109.153.084-150.672-.11.06-1.567-6.377-16.904 1.77-35.117H311.67V247.45c-37.53-.497-75.34 1.64-112.646-1.26-1.68-26.597-1.07-53.32-.406-79.954 9.25-12.574 36.665-18.125 35.463-40.93 4.467-28.866-29.385-53.447-56.824-42.515-27.716 7.865-38.153 44.484-18.226 64.736.59 67.315.84 134.635 1.826 201.945 32.025.005 142.775-3.876 163.924.776 21.278 42.334 72.508 146.458 78.224 155.415 22.665-7.5 58.237-24.464 80.776-32.312 1.163.966.894-31.458-9.618-30.58zM330.74 437.232c-22.29 35.193-55.842 66.11-98.19 76.403-56.485 15.37-119.806-16.137-144.833-66.36-23.657-44.2-15.458-103.365 21.967-138.05 5.303-7.307 19.785-10.208 17.653-20.778-1.43-12.183 3.95-30.67-4.048-37.834-50.39 24.21-88.448 74.112-91.267 129.25-5.815 48.633 16.004 97.818 53.77 129.66 26.412 22.945 61.03 37.255 110.528 42.582 55.033 3.674 109.497-22.227 143.49-63.523 20.114-13.506.25-44.12-9.07-51.35zM521.78 103.83c-1.723 7.98-4.492 14.064-8.31 18.255-3.817 4.19-9.457 6.286-16.92 6.286-7.692 0-13.662-2.597-17.91-7.79-4.248-5.196-6.372-14.797-6.372-28.804 0-11.31 1.78-19.604 5.34-24.885 4.706-7.117 11.48-10.676 20.32-10.676 3.903 0 7.434.804 10.59 2.41 3.158 1.608 5.828 3.905 8.01 6.89 1.32 1.78 2.583 4.592 3.788 8.438l34.443-7.664c-4.422-13.318-11.18-23.19-20.28-29.62s-21.598-9.645-37.5-9.645c-20.32 0-36.035 5.61-47.143 16.834-11.108 11.223-16.662 27.282-16.662 48.177 0 15.672 3.157 28.53 9.472 38.576s13.82 17.063 22.518 21.053c8.696 3.99 19.905 5.984 33.625 5.984 11.31 0 20.622-1.636 27.94-4.908s13.448-8.124 18.385-14.553c4.937-6.43 8.554-14.437 10.85-24.023L521.78 103.83zM314.692 155.408l22.043-79.477 22.13 79.478h38.232L424.91 29.175h-36.854L374.71 99.697l-19.547-70.522h-36.94l-19.46 70.522-13.347-70.522H248.39l28.07 126.233z"/></svg>