<svg xmlns="http://www.w3.org/2000/svg" width="512" height="512" viewBox="0 0 512 512"><path d="M135.704 333.428h-57.72c-15.455 0-27.984-12.53-27.984-27.985v-98.886c0-15.455 12.53-27.984 27.983-27.984h57.72v154.855zm31.45-161.795V340.37l135.238 77.862V93.768l-135.238 77.865zm172.837 25.173c15.103 15.134 24.426 36.036 24.386 59.11-.026 23.066-9.407 43.943-24.544 59.04l24.828 24.915c21.512-21.452 34.856-51.132 34.902-83.914.05-32.788-13.195-62.474-34.646-83.984l-24.925 24.834zm43.62-43.46c26.23 26.294 42.393 62.564 42.33 102.635-.053 40.07-16.37 76.35-42.665 102.58l25.443 25.546c32.83-32.752 53.212-78.06 53.28-128.09.078-50.027-20.1-95.294-52.838-128.12l-25.55 25.45z"/></svg>