<svg xmlns="http://www.w3.org/2000/svg" width="512" height="512" viewBox="0 0 512 512"><path d="M270.973 462H143.477c-32.3-74.87-58.074-152.9-62.494-282.84h252.484c-4.38 128.83-30.93 210.226-62.494 282.84zm88.644-246.24c-.658 9.5-1.455 18.84-2.38 28.043h40.153c-9.45 33.785-28.857 66.17-54.56 90.657-3.175 14.24-6.74 28.452-11.46 44.53 57.17-36.73 94.092-102.065 99.646-163.23h-71.4zM222.61 164.953c77.81-70.13-16.1-66.428 1.91-114.953-62.113 62.687 23.145 64.093-1.91 114.953zm-45.665.02c51.797-46.404-10.915-50.953 1.427-83.74-43.394 45.754 15.617 46.95-1.427 83.74z"/></svg>