<svg xmlns="http://www.w3.org/2000/svg" viewBox="0 0 512 512"><path d="M172.8 328.4q24.62 0 42.05 17.44 17.44 17.44 17.44 42.05 0 25.03-17.44 42.46-17.44 17.44-42.05 17.44-24.62 0-42.06-17.44t-17.44-42.46q0-24.62 17.44-42.05 17.44-17.44 42.06-17.44zm0 132.5q30.36 0 51.69-21.34 21.34-21.34 21.34-51.7 0-29.95-21.34-51.28-21.34-21.34-51.69-21.34-29.95 0-51.49 21.34t-21.54 51.28q0 30.36 21.54 51.7t51.49 21.34zm215-131.7q24.62 0 42.05 17.44 17.44 17.44 17.44 42.05 0 24.62-17.44 42.05-17.44 17.44-42.05 17.44-24.62 0-42.05-17.44-17.44-17.44-17.44-42.05 0-24.62 17.44-42.05 17.44-17.44 42.05-17.44zm-73.01 59.47q0 30.36 21.34 51.69 21.34 21.34 51.7 21.34t51.69-21.34q21.34-21.34 21.34-51.69 0-30.36-21.34-51.69-21.34-21.34-51.69-21.34-30.36 0-51.7 21.34t-21.34 51.69zm.41-178.1q11.08 0 19.28-8.002 8.21-8.003 8.21-19.49t-8.21-19.49q-8.207-8.002-19.28-8.002-11.49 0-19.49 8.002-8.002 8.002-8.002 19.49t8.003 19.49q8.003 8.002 19.49 8.002zm-109.9 87.82l59.08 32.82v61.95q0 6.564 4.72 11.28 4.717 4.718 11.28 4.718 6.566 0 11.28-4.718 4.716-4.718 4.716-11.28v-77.12q1.64-11.49-12.3-19.28l-34.05-18.05 36.92-36.51 17.64 27.9q4.513 6.975 11.49 6.975h53.33q12.31 0 12.31-10.67t-12.31-10.67h-45.95l-29.95-47.18q-6.153-9.845-18.87-10.67-9.023-1.23-17.23 6.974l-57.85 57.85q-6.153 6.152-6.153 15.59 0 13.54 11.89 20.1zm-59.77-138.6H95.58V91.61h49.95q14.23 0 24.15 9.924 9.925 9.924 9.925 24.15t-9.924 24.15q-9.923 9.924-24.15 9.924zm-.66-110.2H51.25v226.6h44.33v-72.77h49.29q32.09 0 54.58-22.5 22.5-22.5 22.5-54.26 0-32.09-22.5-54.58-22.5-22.5-54.58-22.5z"/></svg>