<svg xmlns="http://www.w3.org/2000/svg" width="512" height="512" viewBox="0 0 512 512"><path d="M197.453 295.95h-58.905v-58.903h58.905v58.904zm89-58.903h-58.905v58.904h58.904v-58.903zm89 0h-58.906v58.904h58.905v-58.903zm-178 86h-58.905v58.906h58.905v-58.906zm89 0h-58.905v58.906h58.904v-58.906zm88.998 0h-58.903v58.906h58.904v-58.906zm21.94-204.916c0 10.036-8.136 18.172-18.17 18.172s-18.172-8.136-18.172-18.17V72.4c0-10.034 8.136-18.17 18.17-18.17s18.17 8.136 18.17 18.17v45.73zm-245.5-45.81c0-10.035-8.137-18.17-18.17-18.17-10.037 0-18.172 8.135-18.172 18.17v45.728c0 10.035 8.135 18.17 18.17 18.17 10.035 0 18.17-8.135 18.17-18.17V72.32zM419.35 98.85v18.617c0 22.13-18.004 40.134-40.133 40.134-22.13 0-40.135-18.003-40.135-40.133V98.85H173.852v18.534c0 22.13-18.004 40.134-40.133 40.134-22.13 0-40.135-18.004-40.135-40.134V98.85H50v359h412v-359h-42.648zm2.648 319H90V195.38h332v222.47z"/></svg>