<svg xmlns="http://www.w3.org/2000/svg" width="512" height="512" viewBox="0 0 512 512"><path d="M339.652 277.48c0 29.39-23.91 53.298-53.3 53.298-29.388 0-53.297-23.91-53.297-53.3 0-29.388 23.91-53.297 53.298-53.297 29.39 0 53.3 23.91 53.3 53.3zM462 148.124v267H50v-267h113.22c11.252 0 21.56-6.297 26.693-16.31l17.92-34.94h153.664l19.82 35.785c5.285 9.543 15.334 15.465 26.243 15.465H462zm-307.17 58.25c0-11.322-9.177-20.5-20.5-20.5s-20.5 9.178-20.5 20.5 9.18 20.5 20.5 20.5 20.5-9.178 20.5-20.5zM385.5 277.48c0-54.67-44.477-96.855-99.146-96.855-54.67 0-99.146 42.185-99.146 96.854 0 54.67 44.477 99.145 99.146 99.145 54.67 0 99.146-44.477 99.146-99.146zM142.33 104.624h-65.5v27h65.5v-27z"/></svg>