<svg xmlns="http://www.w3.org/2000/svg" width="512" height="512" viewBox="0 0 512 512"><path d="M270.572 117.05v36.2h-7.852l-.07-.123-13.737-23.27v23.394h-7.482v-36.2h7.803l13.857 23.447V117.05zM377.592 267v-8.25h16.436v-6.6h-16.436V245H395.5v-7.1h-25.865v36.2h26.244V267zm-223.14-29.1l-5.41 23.943-5.64-23.943h-7.376l-5.732 23.646-5.224-23.646h-7.98l9.057 36.01.05.19h7.946l5.502-23.66 5.596 23.66h7.804l9.247-36.2zm89.074 158.093c2.05 1.134 6.155 2.27 10.313 2.27 9.99 0 14.633-5.186 14.633-11.288 0-5.184-2.97-8.53-9.396-10.908-4.753-1.836-6.75-2.86-6.75-5.184 0-1.836 1.728-3.51 5.292-3.51 3.51 0 6.155 1.025 7.56 1.728l1.836-6.588c-2.16-1.025-5.13-1.836-9.29-1.836-8.53 0-13.77 4.7-13.77 10.908 0 5.347 3.997 8.695 10.045 10.855 4.375 1.51 6.104 2.86 6.104 5.074 0 2.43-1.998 3.996-5.78 3.996-3.51 0-6.964-1.134-9.124-2.27zM277.63 230.68c7.925 6.287 12.093 15.463 12.09 24.96-1.622 27.312-31.36 39.655-51.927 24.648-7.146-5.84-11.717-14.717-11.717-24.644 0-10.01 4.568-18.994 12.09-24.962l19.734-64.46zm-19.732 11.26c-7.566 0-13.7 6.135-13.7 13.7 0 7.568 6.134 13.702 13.7 13.702 7.567 0 13.7-6.133 13.7-13.7 0-7.568-6.133-13.7-13.7-13.7zM462 256c0 113.77-92.23 206-206 206S50 369.77 50 256 142.23 50 256 50s206 92.23 206 206zm-40 0c0-91.756-74.26-166-166-166-91.756 0-166 74.26-166 166 0 91.755 74.26 166 166 166 91.755 0 166-74.26 166-166z"/></svg>