<svg xmlns="http://www.w3.org/2000/svg" width="512" height="512" viewBox="0 0 512 512"><path d="M391 120.666H201.66c2.24-11.363 6.163-22.283 11.89-32h-61.318c-5.523 8.822-9.618 17.526-11.974 32H121L74.667 304h362.666L391 120.666zM146.747 267.084h-21.74l3.41-15.09 21.2.038-2.87 15.052zm4.27-22.39l-20.938-.058 3.41-15.09 20.398.096-2.87 15.052zm4.4-23.08l-20.108-.116 3.41-15.09 19.57.155-2.87 15.05zm25.844 45.47h-21.74l2.552-15.03 21.202.04-2.014 14.99zm2.995-22.3l-20.938-.056 2.553-15.03 20.398.097-2.013 14.99zm3.088-22.984l-20.11-.116 2.553-15.03 19.57.156-2.013 14.99zm2.68-58.134h-39.453c-3.475-23.287-.513-49.897 7.79-65h38.6c-8.707 17.634-9.542 47.163-6.937 65zm194.235 81.668l-20.938-.057-2.603-14.66 20.396.096 3.144 14.62zm-4.82-22.42l-20.11-.116-2.604-14.66 19.57.155 3.144 14.62zM221 150.666h142.167l6 28.5H218.5l2.5-28.5zm46.652 79.513l.14 14.836-20.938-.06.4-14.874 20.398.097zm-20.185-8.032l.4-14.874 19.57.155.14 14.835-20.11-.117zm-13.98 44.936h-21.74l1.256-14.936 21.2.038-.716 14.898zm1.067-22.16l-20.938-.058 1.257-14.937 20.398.095-.716 14.9zm1.098-22.844l-20.11-.116 1.257-14.937 19.57.155-.718 14.898zm10.608 45.004l.4-14.875 21.2.038.14 14.836h-21.74zm31.94-59.57l19.57.156.977 14.776-20.11-.117-.436-14.815zm.67 22.717l20.398.097.977 14.776-20.938-.057-.436-14.815zm1.088 36.854l-.437-14.814 21.2.038.978 14.776h-21.74zm46.435-59.187l19.57.155 2.306 14.68-20.11-.115-1.767-14.72zm2.708 22.57l20.398.097 2.308 14.683-20.938-.06-1.767-14.72zm2.63 21.897l54.06.1 3.145 14.62h-55.44l-1.766-14.72zM50 333.666v89.668h412v-89.668H50zM256 391c-6.904 0-12.5-5.596-12.5-12.5 0-6.902 5.596-12.5 12.5-12.5 6.903 0 12.5 5.598 12.5 12.5 0 6.904-5.597 12.5-12.5 12.5zm-6.625-15h13.438v5h-13.438v-5z"/></svg>