<svg xmlns="http://www.w3.org/2000/svg" width="512" height="512" viewBox="0 0 512 512"><path d="M95.165 425.918c0-10.264 8.32-18.586 18.585-18.586h287.3c10.264 0 18.584 8.322 18.584 18.586s-8.32 18.586-18.585 18.586h-287.3c-10.264 0-18.585-8.322-18.585-18.586zm162.3-358.422L56.52 246.764c-8.368 7.46-8.713 20.402-.848 28.31 7.26 7.3 18.94 7.7 26.684.915L257.39 122.443l172.227 151.42c7.725 6.794 19.398 6.42 26.673-.856 7.916-7.916 7.552-20.858-.78-28.322L257.465 67.496zM113.75 289.626c-10.264 0-18.585 8.32-18.585 18.586 0 10.264 8.32 18.584 18.585 18.584h51.713v22.715H113.75c-10.264 0-18.585 8.323-18.585 18.587s8.32 18.586 18.585 18.586h107.17v-97.058H113.75zm287.3 37.17c10.264 0 18.584-8.32 18.584-18.584 0-10.267-8.32-18.587-18.585-18.587H293.88v97.058h107.17c10.264 0 18.584-8.322 18.584-18.586s-8.32-18.586-18.585-18.586h-51.714v-22.714h51.713zm7.248-152.09l-48.444-45.453V91.76h48.444v82.946zM387.19 267.94H128.686l128.74-112.418 129.764 112.42zm-106.428-45.524c0-13.116-10.634-23.75-23.75-23.75s-23.746 10.634-23.746 23.75c0 13.115 10.632 23.748 23.747 23.748s23.75-10.633 23.75-23.748z"/></svg>