<svg xmlns="http://www.w3.org/2000/svg" width="512" height="512" viewBox="0 0 512 512"><path d="M452.066 219.233L404.98 320.828l-15.2-37.735c-71.323 36.73-92.73 92.188-97.384 178.907l-71.89-.28c5.618-110.214 35.724-193.184 142.32-245.472l-15.337-38.08 104.576 41.065zm-231.504 4.446c13.35 10.717 25.242 22.365 35.78 34.986 10.64-12.54 22.642-24.09 36.08-34.706v-90.41h41.32L257.993 50l-78.07 83.028 40.64.19v90.46zm16.844 60.558c-20.756-26.736-49.012-49.73-87.19-68.834l15.647-37.953-105.93 39.21 47.298 102.988 15.51-37.613c41.237 21.65 65.597 49.483 79.558 85.997 7.502-30.347 18.67-58.135 35.108-83.794z"/></svg>