<svg xmlns="http://www.w3.org/2000/svg" width="512" height="512" viewBox="0 0 512 512"><path d="M256 90c91.74 0 166 74.243 166 166 0 91.742-74.243 166-166 166-91.74 0-166-74.243-166-166 0-91.74 74.244-166 166-166m0-40C142.23 50 50 142.23 50 256s92.23 206 206 206 206-92.23 206-206S369.77 50 256 50zm-56.334 131.5c-17.12 0-31 13.88-31 31s13.88 31 31 31c17.12 0 31-13.88 31-31s-13.88-31-31-31zm116.667 0c-17.12 0-31 13.88-31 31s13.88 31 31 31 31-13.88 31-31-13.88-31-31-31zm40 102.834c-27 21.333-56.666 34.47-98.333 34.47s-71.333-13.137-98.334-34.47l-8.79 8.79C171 323.835 208 356.805 258 356.805s87-32.97 107.125-63.68l-8.79-8.79z"/></svg>