<svg xmlns="http://www.w3.org/2000/svg" viewBox="0 0 512 512" version="1"><path d="M256 50l-31.86 62.13c-3.617 6.753-10.09 6.127-16.58 2.357l-23.07-12.49 17.19 95.44c3.617 17.44-7.985 17.44-13.71 9.9l-40.26-47.12-6.54 23.93c-.75 3.14-4.06 6.44-9.034 5.656l-50.88-11.2 13.38 50.8c2.86 11.31 5.096 15.99-2.888 18.98l-18.14 8.916 87.63 74.42c3.47 2.813 5.224 7.877 3.988 12.46l-7.672 26.32c30.18-3.643 57.23-6.898 87.4-10.53 2.678-.04 7.123 2.343 7.102 5.577l-3.996 96.41h14.67l-2.307-96.2c-.02-3.234 4.014-5.822 6.695-5.784 30.17 3.63 57.23 6.884 87.4 10.53l-7.664-26.32c-1.236-4.58.515-9.65 3.985-12.46l87.64-74.42-18.15-8.916c-7.984-2.983-5.75-7.667-2.885-18.98l13.37-50.83-50.91 11.19c-4.972.783-8.29-2.513-9.04-5.656l-6.537-23.93-40.26 47.12c-5.728 7.54-17.33 7.54-13.71-9.9l17.19-95.44-23.07 12.49c-6.478 3.775-12.96 4.397-16.57-2.356l-31.9-62z"/></svg>