<svg xmlns="http://www.w3.org/2000/svg" width="512" height="512" viewBox="0 0 512 512"><path d="M245.928 201.576c-26.987-13.494-24.12-42.73 15.91-44.978 32.403-1.82 66.145 10.462 86.79 17.485 0 0 12.925-56.687 15.918-69.75-29.897-9.35-55.788-14.038-81.168-15.78V50h-59.225v42.012c-65.233 14.24-91.493 62.386-91.493 97.42 0 84.558 101.107 98.352 130.492 111.545 34.783 14.993 27.338 41.527-2.22 47.978-33.793 7.374-79.486-7.985-110.804-20.204l-19.595 68.253c27.656 15.242 65.194 25.543 93.62 27.977V462h59.225v-41.39c53.217-7.486 98.167-40.344 98.088-98.043 0-74.663-80.177-95.953-135.538-120.99z"/></svg>