<svg xmlns="http://www.w3.org/2000/svg" width="579.997" height="579.997" viewBox="0 0 579.997 579.997"><path fill="param(fill) #000" stroke="param(outline) #FFF" stroke-width="param(outline-width) 0" d="M232.58 71.326c-2.587 10.068-4.074 23.513-5.512 36.514-2.61 23.602-5.57 50.353-14.917 50.643-12.016 0-16.713-36.31-20.143-62.82-1.155-8.93-2.246-17.362-3.52-24.17l-2.487.463-2.41-.77c-3.807 11.906-5.844 26.803-7.814 41.208-3.098 22.658-6.302 46.088-15.848 46.09-9.426-.292-12.385-27.042-14.995-50.643-1.438-13-2.925-26.445-5.512-36.515l-4.93.12c-.735 3.58-18.03 88.1-18.03 123.57 0 18.31 11.62 37.836 22.855 56.72 11.262 18.925 22.907 38.495 22.907 56.63 0 16.75-.59 30.486-1.214 45.03-.766 17.835-1.633 38.05-1.633 68.314 0 29.444 2.313 58.972 6.35 81.01 5.093 27.817 12.173 41.34 21.645 41.34 9.35 0 16.634-13.677 21.646-40.65 4.036-21.715 6.35-50.996 6.35-80.336 0-30.312-1.704-50.97-3.21-69.194-1.223-14.817-2.38-28.813-2.38-45.515 0-18.135 11.647-37.705 22.908-56.63 11.235-18.884 22.854-38.41 22.854-56.72 0-35.472-17.294-119.99-18.03-123.57l-4.93-.12zM443.7 386.017c-.354-13.346-.386-26.93-.416-40.07-.063-27.207-.127-55.34-3.063-83.076-1.09-69.588-2.184-139.178-3.27-208.764l-.042-2.7-2.692.217c-2.192.177-4.4.278-6.737.386-12.733.583-27.164 1.246-39.46 15.363-13.556 15.566-22.398 45.66-27.03 92.004l-.02.19.01.188c2.516 50.214 8.314 89.633 28.336 118.523-2.772 28.047-1.43 58.166-.128 87.305.432 9.683.84 18.83 1.104 27.86.147 41.13 2.9 78.9 7.75 106.353 5.658 32.032 13.415 47.604 23.713 47.606h.003c.465 0 .938-.035 1.407-.103 2.863 0 5.474-1.2 7.758-3.568 15.73-16.3 15.09-92.86 12.777-157.715z"/></svg>