<svg xmlns="http://www.w3.org/2000/svg" viewBox="0 0 512 512"><path d="M165.9 211.8v226.3q0 23.85 21.82 23.85t21.82-23.85V211.8q11.67 0 20.04-8.625 8.372-8.626 8.372-18.77v-126.3q0-8.118-8.12-8.118-7.61 0-7.61 7.61v92.85h-27.91v-92.35q0-8.117-7.103-8.117-7.612 0-7.612 7.61v92.85h-26.89V58.6q0-8.625-7.61-8.625-8.12 0-8.12 8.118v124.3q0 13.19 8.626 21.31 8.626 8.118 20.3 8.118zm164.9 226.3q0 23.34 22.33 23.34 21.82 0 21.82-23.34V87q0-17.25-10.66-27.91-9.64-9.133-22.83-9.133-13.7 0-23.34 9.133Q307.46 69.75 307.46 87v211.6h23.34v139.5z"/></svg>