<svg xmlns="http://www.w3.org/2000/svg" width="512" height="512" viewBox="0 0 512 512"><path d="M204.45 290.082c.168 18.96-15.104 34.466-34.09 34.583-18.976.15-34.424-15.104-34.525-34.063-.168-18.97 15.096-34.417 34.023-34.593 18.984-.128 34.49 15.144 34.592 34.072zm-16.79-68.432c-18.96.134-34.475-15.113-34.592-34.115-.15-18.926 15.063-34.392 34.056-34.517 18.918-.176 34.476 15.054 34.543 34.03.2 18.995-15.105 34.427-34.006 34.602zm137.005-68.91c.066 18.928-15.12 34.477-34.08 34.602-18.978.16-34.468-15.104-34.585-34.056-.185-18.985 15.07-34.433 34.082-34.584 18.893-.11 34.415 15.12 34.583 34.04zM118.668 424.78c78.74 6.52 50.544-77.114 123.4-77.886l31.55 26.32c7.862 95.054-108.413 116.276-154.95 51.566zM360.12 302.64c24.494-38.434 100.368-167.333 100.368-167.333 6.035-10.687-7.377-21.852-16.748-13.965 0 0-112.822 98.087-146.098 129.176-26.304 24.584-26.412 35.817-34.93 76.343l28.826 24.024c38.223-15.69 49.22-17.836 68.583-48.245zm-216.675 82.51c-35.774-31.248-58.708-76.914-59.102-127.843C83.59 162.724 159.983 85.13 254.64 84.36c65.884-.352 111.23 32.7 111.516 59.17 10.41-9.13 20.15-17.645 28.55-24.987-17.334-38.156-71.785-69.437-140.35-68.523-113.72.93-205.25 93.81-204.345 207.564.395 49.982 18.584 95.614 48.458 131.054 16.445 8.45 36.444 5.65 44.977-3.487zm219.677-32.723c18.172 33.83-23.2 57.837-60.853 68.53-5.23 15.66-13.782 29.54-23.59 39.666 90.21-10.126 155.555-73.88 107.56-135.42-7.88 11.75-15.39 20.552-23.118 27.224z"/></svg>