<svg xmlns="http://www.w3.org/2000/svg" width="512" height="512" viewBox="0 0 512 512"><path d="M462 141.347h-54.62v54.622h-27.312v-54.623h-54.622v-27.31h54.622v-54.62h27.31v54.62H462v27.31zM307.583 367.26c0 40.943-37.384 90.787-131.434 90.787-68.785 0-126.15-29.668-126.15-79.57 0-38.513 24.383-88.51 138.323-88.51-16.922-13.792-21.075-33.077-10.733-53.96-66.714 0-100.88-39.22-100.88-89.022 0-48.73 36.243-93.032 110.15-93.032h118.4L278.8 81.723h-31.08c21.926 12.562 33.587 38.433 33.587 66.95 0 26.174-14.414 47.374-34.984 63.278-36.503 28.223-27.158 43.98 11.087 71.873 37.708 28.25 50.17 50.06 50.17 83.437zm-73.845-216.807c-5.506-41.905-32.806-76.284-64.704-77.243-31.91-.95-53.31 31.12-47.798 73.035 5.51 41.905 35.834 71.178 67.75 72.14 31.896.948 50.256-26.022 44.752-67.932zm32.893 221.01c0-34.466-31.44-67.317-84.19-67.317-47.543-.523-87.833 30.042-87.833 65.47 0 36.155 34.335 66.25 81.88 66.25 60.78 0 90.144-28.25 90.144-64.403z"/></svg>