<svg xmlns="http://www.w3.org/2000/svg" width="361.789" height="392.267" viewBox="0 0 361.789 392.267"><path d="M40.24 0c1.398 83.286 35.3 182.25 47.082 291.93C59.455 214.962 17.182 135.91 0 114.51 9.458 195.42 54.295 277.82 60.215 392.09c67.008.33 124.025-.33 189.3.177 26.328-88.63 69.896-179.76 112.274-263.398-43.775 53.55-80.152 101.25-108.466 142.577 25.353-67.244 51.426-124.906 73.052-182.87-29.437 25.35-71.407 101.056-107.288 178.67 8.697-81.786 25.3-156.005 26.368-219.76-13.854 23.774-41.435 92.717-63.608 167.6-4.472-89.95-11.946-176.028-22.88-207.93 1.48 71.39-2.21 150.212-7.442 238.624-12.706-49.88-31.918-107.592-59.23-172.63 10.84 76.146 29.652 157.25 36.022 237.996C110.658 190.888 63.478 39.82 40.238 0z"/></svg>