<svg xmlns="http://www.w3.org/2000/svg" width="512" height="512" viewBox="0 0 512 512"><path d="M346.914 143.61H50.168l53.563 121.165h205.086l38.098-121.166zm114.918-38.5l-12.746 40h-29.98l-59.178 188.165H132.856l-17.625-40h215.45l59.18-188.166h71.972zM316.816 380c0 14.852-12.04 26.89-26.89 26.89s-26.89-12.038-26.89-26.89 12.038-26.89 26.89-26.89 26.89 12.038 26.89 26.89zm-88.883 0c0 14.852-12.04 26.89-26.893 26.89-14.852 0-26.89-12.038-26.89-26.89s12.038-26.89 26.89-26.89c14.853 0 26.893 12.038 26.893 26.89z"/></svg>