<svg xmlns="http://www.w3.org/2000/svg" width="512" height="512" viewBox="0 0 512 512"><path d="M298.285 197.22l85.974-85.974c17.783-17.785 46.618-17.785 64.402 0 17.783 17.785 17.783 46.617 0 64.403l-85.975 85.972-15.77-15.767 82.025-82.026c2.564-2.563 2.564-6.717 0-9.282-2.56-2.56-6.715-2.56-9.278.002l-82.026 82.025-13.498-13.5 82.023-82.026c2.563-2.563 2.563-6.717.002-9.28-2.563-2.563-6.717-2.563-9.28 0l-82.026 82.025-16.575-16.574zm-47.692 133.715l-63.186 63.188c-3.48 3.48-6.41 7.468-8.688 11.83l-4.613 8.83-31.97 16.33-12.65-12.648 15.64-32.664 8.83-4.61c4.362-2.276 8.352-5.207 11.83-8.688l63.186-63.187 21.62 21.62zM124.55 272.577L50 198.03l23.32-23.32s18.733 12.615 34.024-2.678c16.63-16.63 11.68-41.432 48.553-69.197 64.99-48.935 162.86-.765 162.86-.765-77.787 7.772-110.98 42.55-78.822 74.707l10.85 10.85-52.07 52.073s-2.548-2.55-10.448-10.45c-14.146-14.146-27.654-17.204-38.484-6.372-11.98 11.98-1.913 26.378-1.913 26.378l-23.32 23.32zm138.645-72.54l-52.01 52.01L379.11 419.974c14.362 14.363 37.647 14.363 52.01 0 14.36-14.36 14.36-37.648 0-52.01L263.195 200.04z"/></svg>