<svg xmlns="http://www.w3.org/2000/svg" width="100" height="100" viewBox="0 0 100 100"><path fill-rule="evenodd" clip-rule="evenodd" d="M50 1.24c6.746 0 12.743 5.245 12.743 11.99 0 7.497-5.997 12.743-12.743 12.743S38.008 20.727 38.008 13.23c0-6.745 5.246-11.99 11.992-11.99zM38.756 28.97H61.993c3 0 4.497 0 7.495 4.5 2.998 3.748 6.747 12.74 8.245 19.487 1.5 6.746 2.25 8.994-3.747 12.742S58.246 71.695 50 71.695c-8.245 0-17.988-2.25-23.984-5.997s-4.498-5.997-2.998-12.743c1.5-6.747 5.247-15.74 8.245-19.488 2.247-4.5 3.746-4.5 7.493-4.5zM50.75 61.203h9.744c0 2.998-4.497 5.247-9.744 5.247-5.997 0-10.494-2.25-10.494-5.248H50.75zM50 76.756M50 76.756c-9.744.75-14.99-5.06-19.488-5.81-5.246-.75-5.996 0-10.493 2.998-4.5 2.998-13.493 10.494-15.74 15.74-3 5.247-.75 9.744 8.243 8.995 8.994-1.5 20.237-3.75 28.48-5.998 3.75-.75 3.75-1.5 8.996-1.5 5.247 0 5.247.75 8.995 1.5 8.244 2.25 19.486 4.497 28.48 5.997 8.995.748 11.244-3.75 8.245-8.996-2.25-5.246-11.242-12.742-15.74-15.74s-5.246-3.748-10.493-2.998c-4.496.75-9.744 6.56-19.487 5.81"/></svg>