<svg xmlns="http://www.w3.org/2000/svg" width="512" height="512" viewBox="0 0 512 512"><path d="M256 90.002c91.74 0 166 74.24 166 165.998 0 91.74-74.245 165.998-166 165.998-91.738 0-166-74.242-166-165.998 0-91.74 74.243-165.998 166-165.998m0-40C142.23 50.002 50 142.228 50 256c0 113.77 92.23 205.998 206 205.998S462 369.768 462 256c0-113.772-92.23-205.998-206-205.998zm-3.434 321.806c-28.21 9.913-51.466-1.455-46.8-28.547 4.666-27.097 31.435-85.108 35.254-96.078 3.816-10.97-3.502-13.977-11.346-9.513-4.524 2.61-11.248 7.84-17.02 12.924-1.6-3.223-3.852-6.906-5.542-10.433 9.42-9.438 25.164-22.093 43.803-26.68 22.27-5.497 59.492 3.29 43.494 45.858-11.425 30.34-19.504 51.276-24.595 66.868-5.088 15.598.955 18.868 9.863 12.79 6.96-4.75 14.372-11.213 19.806-16.225 2.515 4.087 3.32 5.39 5.806 10.085-9.433 9.67-34.108 32.296-52.724 38.953zm58.45-187.68c-12.795 10.89-31.76 10.654-42.37-.533-10.607-11.18-8.837-29.076 3.955-39.97 12.795-10.89 31.764-10.653 42.37.526 10.607 11.187 8.84 29.08-3.954 39.977z"/></svg>