<svg xmlns="http://www.w3.org/2000/svg" width="180" height="180" viewBox="0 0 18 18" enable-background="new 0 0 18 18"><path d="M18 9c0-.338-.022-.67-.06-1h-1.01c-.45-3.617-3.313-6.48-6.93-6.93V.06C9.67.02 9.338 0 9 0s-.67.022-1 .06v1.01C4.383 1.52 1.52 4.383 1.07 8H.06C.02 8.33 0 8.662 0 9s.022.67.06 1h1.01c.45 3.617 3.313 6.48 6.93 6.93v1.012c.33.036.662.058 1 .058s.67-.022 1-.06v-1.01c3.616-.452 6.48-3.313 6.93-6.93h1.012c.036-.328.058-.66.058-1zm-8 5.91V14c0-.553-.448-1-1-1s-1 .447-1 1v.91c-2.51-.422-4.487-2.398-4.91-4.91H4c.553 0 1-.448 1-1s-.447-1-1-1h-.91C3.513 5.49 5.49 3.513 8 3.09V4c0 .552.448 1 1 1s1-.448 1-1v-.91c2.51.422 4.488 2.4 4.91 4.91H14c-.553 0-1 .448-1 1s.447 1 1 1h.91c-.423 2.512-2.4 4.488-4.91 4.91z"/></svg>