<svg xmlns="http://www.w3.org/2000/svg" viewBox="0 0 512 512"><path d="M462 256c0-7.738-.502-15.36-1.35-22.89h-23.14c-10.3-82.8-75.8-148.3-158.6-158.6V51.39c-7.5-.88-15.2-1.38-22.9-1.38-7.738 0-15.36.502-22.89 1.347v23.14c-82.8 10.32-148.3 75.81-158.6 158.6H51.4c-.88 7.5-1.38 15.2-1.38 22.9 0 7.738.503 15.36 1.35 22.89h23.14c10.32 82.78 75.83 148.3 158.6 158.6v23.14c7.53.803 15.15 1.326 22.89 1.326 7.736 0 15.36-.502 22.89-1.347v-23.14c82.77-10.35 148.3-75.84 158.6-158.6h23.14c.9-7.5 1.4-15.1 1.4-22.9zM278.9 391.3v-20.83c0-12.66-10.26-22.89-22.89-22.89s-22.89 10.23-22.89 22.89v20.83c-57.4-9.7-102.7-54.9-112.3-112.4h20.8c12.66 0 22.89-10.26 22.89-22.89s-10.23-22.89-22.89-22.89h-20.83c9.6-57.4 54.9-102.7 112.3-112.4v20.83c0 12.63 10.26 22.89 22.89 22.89s22.89-10.26 22.89-22.89v-20.83c57.47 9.667 102.7 54.92 112.4 112.4h-20.83c-12.66 0-22.89 10.26-22.89 22.89s10.23 22.89 22.89 22.89h20.83c-9.7 57.5-54.9 102.7-112.4 112.4z"/></svg>