<svg xmlns="http://www.w3.org/2000/svg" viewBox="0 0 512 512"><path d="M83.58 317.5h344.3v63.96h33.58v-95.94H83.56v-138.6q0-16.52-16.52-16.52-17.06 0-17.06 16.52v234.5h33.58v-63.96zm51.7-102.9q12.79 0 21.59-8.795 8.795-8.794 8.795-21.59 0-12.79-8.795-21.59-8.794-8.794-21.59-8.794-12.79 0-21.59 8.795-8.794 8.795-8.794 21.59 0 12.79 8.794 21.59 8.795 8.795 21.59 8.795zm-29.85 30.91q0 14.92 14.92 14.92h341.7v-41.57q0-21.85-23.98-23.98l-238.8-23.8q-.533 0-1.066-.533-15.46 0-15.46 14.92v45.3h-62.36q-14.92 0-14.92 14.92z"/></svg>