<svg version="1" xmlns="http://www.w3.org/2000/svg" width="88.562" height="100" viewBox="0 0 88.562 100"><path d="M44.278 0l-7.733 15.08c-.878 1.64-2.45 1.488-4.023.573l-5.6-3.032 4.173 23.166c.878 4.232-1.938 4.232-3.327 2.403l-9.772-11.44-1.587 5.81c-.183.762-.987 1.563-2.194 1.373L1.86 31.216l3.245 12.337c.694 2.745 1.237 3.882-.7 4.606L0 50.322l21.27 18.064c.842.683 1.268 1.912.968 3.024l-1.862 6.39c7.324-.884 13.89-1.674 21.214-2.555.65-.01 1.73.57 1.724 1.354l-.97 23.4h3.56l-.56-23.35c-.004-.786.975-1.414 1.626-1.405 7.323.88 13.89 1.67 21.213 2.555l-1.86-6.39c-.3-1.11.125-2.34.967-3.023l21.27-18.064-4.404-2.164c-1.938-.725-1.396-1.862-.7-4.607L86.7 31.216l-12.355 2.717c-1.207.19-2.012-.61-2.194-1.373l-1.586-5.81-9.77 11.44c-1.39 1.83-4.206 1.83-3.328-2.404L61.64 12.62l-5.6 3.033c-1.573.916-3.146 1.067-4.023-.572L44.277 0z"/></svg>