<svg xmlns="http://www.w3.org/2000/svg" width="311" height="217" viewBox="0 0 311 217"><title>White Mountain</title><title>Layer 1</title><path d="M309.003 86H310v1c-.665.667-.997 1.333-.997 2-.664 0-1.993.333-3.987 1h-3.987c0-.667-3.324-3-9.97-7-6.644-4.667-12.625-8.333-17.94-11-5.982-2-11.298-4.333-15.95-7-4.65-2.667-9.635-6-14.95-10-5.982-4-10.966-6.667-14.953-8-4.652-1.333-8.307-4-10.965-8l-3.987-6v-1h-.997v-1h-.996v-1h-.997v-1h-1.994v-1h-.996v-1h-.996l.996 10c.665 6 1.662 9.667 2.99 11 1.994.667 4.32 1.667 6.978 3 3.323 1.333 5.65 3.667 6.978 7 1.993 3.333 3.987 5.333 5.98 6 1.33.667 2.326 1 2.99 1h.998l.996 1 .997 1h.998v1h.997v1h-1.994l-3.986 1c-2.658.667-4.984 1-6.977 1-1.994 0-5.65.333-10.965 1l-6.978 1-.996-1-.997-1h-.996v-2c0-1.333.997-2.667 2.99-4l2.99-2v-2h-.996l-.997-1c-.663-.667-2.657-1.667-5.98-3-3.322-1.333-5.648-5-6.977-11l-2.99-8v-1h-.997l-.997-1h-1.995v2l-.996 1-.998 2-4.984 18c-3.323 12.667-7.642 22.667-12.958 30-4.652 6.667-9.304 13.667-13.955 21-3.987 6.667-6.645 11.667-7.974 15-1.33 2.667-1.993 5-1.993 7v3l-.997 1-.997 1H139.55v-5c0-3.333 1.33-8.333 3.987-15 2.658-7.333 6.313-14.667 10.965-22 4.65-7.333 8.306-14.667 10.964-22l3.987-12v-6h-5.981l-.997 1-.997 1h-.998v1h-.996l-2.99 7c-1.994 4.667-5.65 14-10.965 28-5.316 14-11.63 27.667-18.938 41-7.31 12.667-14.952 23.667-22.926 33-7.31 8-13.955 14-19.936 18-5.98 4-12.626 7.333-19.936 10-6.645 2.667-10.3 4.333-10.964 5l-.997 1H49.84v1h-.998v1h-2.99v1-3h.997v-1h.996v-1h.996v-1h.997v-1h.996v-1c.665 0 7.31-4.333 19.936-13 13.29-9.333 21.597-15.667 24.92-19 3.986-3.333 8.638-9.667 13.954-19 5.316-9.333 9.968-18 13.955-26 2.66-7.333 1.663-13.667-2.99-19-5.315-6-9.635-9-12.957-9-2.658 0-5.65.667-8.97 2-3.324 1.333-5.982 4-7.976 8-1.993 4-5.648 14.667-10.964 32l-7.975 25-.996 1-.997 2v3h-.997v1h-.997v-4l.998-3 .997-3v-3h-.997v1h-.997v1l-.995 1-.997 1v1h-.997v1h-.996l-3.987 6-4.984 7h-.997v1h-.996v1h-3.988l-.996 1-.997 1h-1.995v-1h.997v-2h.997v-1h.996v-2l.996-1c.665-.667 3.988-6.667 9.968-18s9.636-19 10.965-23l1.993-5v-4h-.996v-1h-1.994v1h-.997v2h-.995v1h-.997v2l-17.942 32c-11.962 21.333-18.607 33-19.936 35l-1.994 3v1h-.996v1h-.997v2h-.997v1h-.997v2h-.998v1l-4.983 4c-3.99 4-5.982 6-5.982 6H8.97v1h-.996v1h-.997v1H5.98v1h-.996l-.997 1-.997 1h-.996l-.997 1H0v-2h1.994v-2l.996-1 .997-1v-1h.997v-1c.664 0 2.99-3 6.977-9 3.99-6.667 8.972-16 14.953-28l8.97-17 .998-1 .998-1v-2h.997v-1h.996v-1c0-.667 4.653-10.333 13.956-29 9.304-18.667 14.952-29.333 16.946-32 2.658-2.667 4.984-4 6.977-4 2.657 0 4.983-1.667 6.977-5 1.993-2.667 4.984-7 8.97-13 3.988-6 6.646-9.667 7.975-11l2.99-1H106.655l2.99 1c1.33 1.333 4.652 5.333 9.968 12 3.987 6.667 6.645 11 7.974 13 1.33 1.333 2.326 2 2.99 2h.998v1l.996 1 .997 1v1h3.985v-3l6.978-15c4.65-10 8.306-16.667 10.964-20 3.323-2.667 6.646-5.667 9.968-9 3.987-3.333 9.304-9.667 15.95-19 6.644-9.333 10.63-14.667 11.96-16 1.994-1.333 4.652-2.667 7.974-4 3.323 0 7.31 1.667 11.962 5 3.987 3.333 8.64 7 13.955 11 3.987 4.667 8.306 10 12.958 16 4.652 6.667 9.303 12 13.955 16 5.316 4 13.29 9.333 23.923 16 10.632 6.667 18.274 11.333 22.926 14 3.986 4 6.312 6 6.976 6 .665 0 .997.333.997 1z"/></svg>