<svg xmlns="http://www.w3.org/2000/svg" width="512" height="512" viewBox="0 0 512 512"><path d="M461.957 393.573H355.56c-.006-115.8-57.888-60.76-57.888-162.232 0-36.628 23.98-56.51 54.772-56.51 45.495 0 77.158 43.44 34.075 124.667-14.154 26.684 15.07 33.025 46.468 40.268 31.384 7.238 28.97 23.785 28.97 53.808zM289.12 325.89c-39.493-9.11-76.255-17.086-58.45-50.652 54.19-102.17 14.363-156.81-42.863-156.81-58.354 0-97.202 56.735-42.86 156.81 18.336 33.77-19.81 41.738-58.453 50.652-39.476 9.105-36.44 29.918-36.44 67.684H325.56c0-37.766 3.036-58.58-36.44-67.684z"/></svg>