<svg xmlns="http://www.w3.org/2000/svg" width="512" height="512" viewBox="0 0 512 512"><path d="M265.653 50C153.22 50 96.526 130.612 96.526 197.833c0 40.702 15.41 76.914 48.462 90.41 5.418 2.215 10.275.077 11.846-5.924 1.093-4.154 3.68-14.632 4.835-18.992 1.583-5.936.97-8.018-3.404-13.19-9.53-11.243-15.62-25.796-15.62-46.41 0-59.805 44.745-113.342 116.514-113.342 63.55 0 98.465 38.83 98.465 90.69 0 68.234-30.198 125.824-75.026 125.824-24.76 0-43.29-20.475-37.352-45.585 7.115-29.98 20.894-62.334 20.894-83.975 0-19.37-10.398-35.527-31.918-35.527-25.308 0-45.64 26.182-45.64 61.254 0 22.337 7.55 37.446 7.55 37.446s-25.898 109.737-30.44 128.954c-9.042 38.273-1.36 85.193-.707 89.93.38 2.81 3.99 3.477 5.62 1.355 2.336-3.047 32.48-40.26 42.727-77.44 2.9-10.53 16.648-65.05 16.648-65.05 8.22 15.683 32.25 29.497 57.805 29.497 76.075 0 127.688-69.355 127.688-162.188C415.475 115.374 356.018 50 265.653 50z"/></svg>