<svg xmlns="http://www.w3.org/2000/svg" overflow="visible" height="100" width="100" viewBox="-13.325 -3.793 100 100"><path d="M68.14 45.96c-.706-2.258-1.286-4.528-1.81-6.81.174-6.344-.537-14.02-1.81-18.18-2.458-7.53-7.48-11.23-14.43-15.3l-1.51-4.25c-.56.612-1.027 1.294-1.455 2.004C42.695-.63 33.905-.3 28.625.5c-8.22 1.175-15.6 5.03-19.46 12.41-3.02 5.87-4.025 11.91-4.025 18.45.153 3.22-.093 6.853 1.4 9.76-.402 1.616-.83 3.227-1.332 4.83C2.86 53.33.345 60.54.008 68.26c-.166 6.542 1.51 14.09 7.382 17.95 4.192 2.85 11.4 5.367 16.27 6.206-1.006-3.355-3.355-6.708-3.02-10.23 2.853 1.006 5.2 3.522 8.388 3.856.67-1.677-.17-3.69-.503-5.2 2.013.337 3.354 2.014 5.366 2.35.933-3.882-1.85-9.324-3.07-13.31-11.01-3.463-19.27-16.73-20.09-29.98 2.132-1.592 3.895-3.662 5.65-5.527 0 1.174 0 2.347.336 3.522 4.193-1.51 7.212-4.362 10.4-7.214.334 1.68.167 3.522.67 5.2 7.44-3.382 13.65-11.09 16.89-19.39.354 6.24 2.095 12.67 3.575 17.11 2.08 6.47 6.07 13.49 11.58 18.28-3.44 8.38-9.695 15.29-17.26 17.82-1.194 3.997-4.065 9.532-3.12 13.47 2.013-.335 3.355-2.012 5.368-2.348-.336 1.51-1.174 3.522-.503 5.2 3.186-.335 5.534-2.852 8.387-3.857.334 3.522-2.013 6.875-3.02 10.23 4.863-.84 12.08-3.355 16.27-6.205 5.87-3.858 7.548-11.41 7.38-17.95-.35-7.7-2.86-14.92-5.21-22.29z"/></svg>