<svg xmlns="http://www.w3.org/2000/svg" viewBox="0 0 512 512"><path d="M251.3 420.4h26.09V91.6H251.3v328.8zm-93.03-268.7h-52.66q-12.31 0-22.15 8.86-7.383 6.89-9.844 15.26l-22.64 75.31q-.984 2.46-.984 4.43 0 11.32 11.32 11.32 7.875 0 10.34-8.86l20.67-68.91h11.32l-33.96 122.6h32.98v95.49q0 12.8 12.3 12.8t12.3-12.8v-95.98h12.3v96.47q0 12.3 12.3 12.3t12.3-12.3v-95.98h32.98l-34.45-122.6h11.81l20.67 68.91q2.46 8.86 10.34 8.86 11.32 0 11.32-11.32 0-2.462-.985-4.43l-22.64-75.31q-2.46-7.877-11.32-15.26-10.83-8.86-23.63-8.86zm-25.1-5.414q11.32 0 19.2-7.876 7.875-7.875 7.875-18.7 0-11.32-7.875-19.2-7.876-7.875-19.2-7.875-10.83 0-18.7 7.875-7.875 7.875-7.875 19.2 0 10.83 7.875 18.7 7.875 7.876 18.7 7.876zm259.4-.493q10.83 0 18.7-7.875 7.875-7.875 7.875-18.7 0-11.32-7.875-18.95-7.875-7.63-18.7-7.63-10.83 0-18.7 7.63-7.876 7.63-7.876 18.95 0 10.83 7.876 18.7 7.875 7.875 18.7 7.875zm34.95 5.415h-70.38q-14.27 0-24.36 10.09t-10.09 24.86v81.7q0 11.81 10.83 11.81 10.34 0 10.34-11.81v-79.74h12.8v216.6q0 14.77 14.77 14.77t14.77-14.77v-125.5H399v125.5q0 14.77 14.77 14.77 15.26 0 15.26-14.77v-216.6h12.3v79.74q0 12.3 10.34 12.3t10.34-12.3v-81.21q0-14.27-9.597-24.86-9.598-10.58-24.86-10.58z"/></svg>