<svg xmlns="http://www.w3.org/2000/svg" width="512" height="512" viewBox="0 0 512 512"><path d="M447.087 375.073L281.4 209.387c-11.353-11.353-17.2-27.142-15.962-43.15 2.345-30.324-8.074-61.45-31.268-84.643-30.19-30.19-73.82-38.74-111.63-25.666l68.647 68.647c1.576 26.78-39.832 68.188-66.612 66.612L55.93 122.54c-13.077 37.81-4.526 81.44 25.664 111.63 23.193 23.194 54.32 33.612 84.645 31.268 16.023-1.24 31.784 4.598 43.15 15.962l165.686 165.686c19.885 19.886 52.126 19.886 72.013 0 19.882-19.886 19.882-52.127-.003-72.013zm-38.49 53.887c-11.59 0-20.985-9.396-20.985-20.987 0-11.59 9.396-20.985 20.985-20.985 11.59 0 20.987 9.396 20.987 20.985 0 11.59-9.397 20.987-20.987 20.987z"/></svg>