<svg xmlns="http://www.w3.org/2000/svg" width="69.378" height="100" viewBox="16.515 -1.305 69.378 100"><path d="M63.496 31.59c-6.344 4.657-12.07 8.73-12.466 8.73-.395 0-6.057-4.017-12.348-8.634-12.966 5.02-22.167 17.6-22.167 32.333 0 19.15 15.532 34.676 34.69 34.676 19.156 0 34.688-15.525 34.688-34.677 0-14.827-9.304-27.473-22.397-32.43zm-12.29 8.832c13.036 0 23.604 10.563 23.604 23.596 0 13.035-10.568 23.605-23.605 23.605-13.04 0-23.606-10.57-23.606-23.605 0-13.033 10.566-23.596 23.605-23.596zM51.025 39.374c-.905 0-29.67-21.286-29.95-22.164S31.783-.355 32.515-.898c.734-.542 36.29-.542 37.02 0 .734.543 11.722 17.23 11.44 18.108-.278.878-29.042 22.164-29.95 22.164z"/></svg>