<svg xmlns="http://www.w3.org/2000/svg" width="580" height="580" viewBox="0 0 580 580"><path fill="param(fill) #FFF" stroke="param(outline) #000" stroke-width="param(outline-width) 1" d="M551.012 83.98c-3.835-6.77-12.432-9.145-19.2-5.312l-49.41 27.997c-3.417 1.937-5.87 5.21-6.77 9.036l-8.17 34.79H56.197c-4.353 0-8.46 2.013-11.128 5.452-2.668 3.438-3.598 7.917-2.518 12.133L92.218 361.9c1.42 5.536 6.04 9.667 11.7 10.456l308.018 42.937v16.32h-274.79c-6.052 0-11.2 3.825-13.192 9.184-4.206 2.108-8.082 4.96-11.47 8.503-7.77 8.124-12.05 18.894-12.05 30.326-.002 23.772 18.688 43.115 41.664 43.118h.004c11.212 0 21.73-4.54 29.617-12.784 7.77-8.124 12.05-18.894 12.05-30.326v-.008c0-7.15-1.703-13.895-4.694-19.838H351.14c-3.73 6.552-5.726 14.04-5.727 21.838 0 23.773 18.69 43.115 41.665 43.118h.005c11.212 0 21.73-4.54 29.616-12.784 7.77-8.124 12.05-18.894 12.05-30.326v-.008c0-7.966-2.11-15.43-5.766-21.838h3.037c7.78 0 14.088-6.307 14.088-14.087v-43.98l52.7-234.048c.248-1.098.353-2.21.336-3.313l8.505-36.22 44.05-24.96c6.77-3.835 9.148-12.43 5.312-19.2zM137.46 331.476h68.3v26.63l-69.85-9.737c.977-1.482 1.55-3.255 1.55-5.162v-11.732zm-44.22-79.084h25.438v60.302h-9.984L93.24 252.392zm44.22 0h68.3v60.302h-68.3v-60.302zm289.915 60.302H404.71v-60.302h38.823l-14.21 60.507c-.63-.133-1.28-.206-1.948-.206zm-41.445 0h-70.303v-60.302h70.303v60.302zm-89.084 0h-72.302v-60.302h72.302v60.302zm18.78-79.084v-54.946h70.304v54.946h-70.303zm-18.78 0h-72.302v-54.946h72.302v54.946zm-91.085 0h-68.3v-54.946h68.3v54.946zm18.783 97.866h72.302v39.326l-72.302-10.078v-29.248zm91.084 40.683v-40.685h70.303v51.745l-70.396-9.813c.055-.41.093-.824.093-1.248zm89.084 13.36v-54.045h20.25l-12.65 53.875c-.117.5-.202 1.004-.264 1.512l-7.35-1.025c.002-.107.015-.21.015-.316zM447.854 234c-.844-.25-1.735-.388-2.66-.388h-40.48v-54.946h56.135l-12.995 55.334zm-329.175-55.334v54.946h-30.25l-14.08-54.946h44.33zm-5.172 152.812h5.172v11.73c0 .983.152 1.93.432 2.82l-1.944-.27-3.66-14.28zm50.265 148.15v.004c0 6.258-2.31 12.12-6.503 16.504-4.076 4.262-9.46 6.608-15.164 6.608h-.002c-11.947 0-21.666-10.37-21.665-23.116 0-6.26 2.31-12.12 6.504-16.504 1.636-1.712 3.492-3.098 5.487-4.164 1.478.526 3.062.828 4.72.828h16.055c6.324 4.04 10.57 11.42 10.57 19.84zm244.982 2v.004c0 6.258-2.31 12.12-6.504 16.504-4.077 4.262-9.462 6.608-15.163 6.608h-.003c-11.948 0-21.668-10.37-21.667-23.116 0-6.258 2.31-12.12 6.504-16.504 2.337-2.443 5.112-4.233 8.123-5.336h14.117c8.482 3.136 14.59 11.74 14.592 21.84z"/></svg>