<svg xmlns="http://www.w3.org/2000/svg" width="100" height="83.899" viewBox="0 0 100 83.899"><path d="M95.59 35.66l-10.268.016 2.043-3.223c1.3-2.052.693-4.768-1.358-6.066-2.055-1.305-4.77-.692-6.07 1.354L74.9 35.69l-17.305.025L66.24 20.53l11.94-.65c2.43-.13 4.29-2.2 4.156-4.63-.13-2.425-2.2-4.287-4.63-4.15l-6.29.336 2.77-4.863c1.202-2.11.465-4.792-1.645-5.998-2.112-1.2-4.793-.464-6 1.652l-2.784 4.89-1.718-3.114C60.87 1.87 58.193 1.1 56.06 2.273c-2.123 1.17-2.896 3.847-1.726 5.973l4.314 7.84L50 31.276l-8.65-15.19 4.314-7.84c1.17-2.125.398-4.8-1.726-5.972-2.133-1.172-4.81-.4-5.977 1.73L36.244 7.12l-2.785-4.892c-1.206-2.116-3.887-2.853-6-1.652-2.11 1.205-2.847 3.887-1.646 5.998l2.77 4.863-6.29-.337c-2.43-.136-4.5 1.726-4.63 4.15-.134 2.432 1.726 4.5 4.157 4.632l11.938.65 8.646 15.184L25.1 35.69l-5.037-7.95c-1.3-2.045-4.016-2.658-6.07-1.353-2.052 1.298-2.66 4.014-1.36 6.066l2.043 3.223L4.41 35.66c-2.43 0-4.402 1.967-4.41 4.397 0 2.427 1.963 4.405 4.39 4.405l10.112.015-3.192 5.13c-1.28 2.06-.65 4.77 1.412 6.062 2.062 1.278 4.777.65 6.057-1.42l6.073-9.757 17.58.025-8.402 14.7-9.078.52c-2.425.147-4.28 2.218-4.14 4.642.142 2.424 2.218 4.288 4.642 4.14l3.37-.193-5.137 8.986c-1.2 2.114-.468 4.8 1.64 6.002 2.105 1.213 4.792.48 6-1.636l5.334-9.333 3.156 5.662c1.185 2.128 3.86 2.893 5.984 1.703 2.118-1.178 2.887-3.854 1.704-5.98l-5.742-10.31 8.225-14.39.013.023.013-.023 8.226 14.39-5.742 10.31c-1.183 2.126-.414 4.802 1.704 5.98 2.123 1.19 4.798.425 5.983-1.704l3.155-5.663 5.335 9.332c1.205 2.115 3.893 2.848 6 1.635 2.106-1.2 2.838-3.888 1.638-6.002l-5.137-8.986 3.37.192c2.424.148 4.5-1.716 4.64-4.14.143-2.424-1.713-4.494-4.14-4.642l-9.078-.52-8.4-14.7 17.58-.025 6.072 9.756c1.28 2.07 3.996 2.698 6.057 1.42 2.06-1.294 2.693-4.004 1.413-6.063l-3.193-5.13 10.113-.015c2.427 0 4.39-1.978 4.39-4.405-.01-2.43-1.98-4.396-4.41-4.396z"/></svg>