<svg xmlns="http://www.w3.org/2000/svg" enable-background="new 0 0 100 83.899" viewBox="0 0 512 512"><path d="M443.8 230.1l-42.3.06 8.417-13.29c5.36-8.462 2.855-19.66-5.595-25.01-8.466-5.382-19.66-2.854-25.01 5.583l-20.75 32.78-71.3.103 35.62-62.62 49.19-2.677c10.02-.54 17.68-9.073 17.12-19.1-.536-10-9.064-17.68-19.08-17.12l-25.91 1.388 11.41-20.05c4.948-8.7 1.912-19.76-6.78-24.74-8.707-4.953-19.75-1.913-24.72 6.812l-11.4 20.13-7.1-12.89c-4.813-8.79-15.84-11.97-24.63-7.133-8.748 4.828-11.93 15.86-7.112 24.63l17.77 32.33-35.63 62.65-35.64-62.64 17.77-32.33c4.82-8.767 1.64-19.8-7.11-24.63-8.79-4.834-19.81-1.654-24.62 7.134l-7.2 12.9-11.5-20.21c-4.97-8.725-16.02-11.77-24.72-6.812-8.69 4.97-11.73 16.03-6.783 24.74l11.41 20.05-25.91-1.39c-10.01-.56-18.54 7.12-19.08 17.12-.552 10.02 7.11 18.56 17.13 19.1l49.19 2.678 35.62 62.62-71.3-.107-20.75-32.78c-5.356-8.438-16.55-10.96-25.01-5.584-8.45 5.352-10.95 16.55-5.594 25.01l8.412 13.29-42.3-.06c-10.01 0-18.14 8.108-18.17 18.13 0 10.01 8.088 18.17 18.09 18.17l41.66.06-13.15 21.16c-5.274 8.49-2.674 19.67 5.817 25 8.495 5.275 19.68 2.68 24.96-5.856l25.02-40.23 72.43.103-34.62 60.62-37.4 2.148c-9.99.607-17.63 9.148-17.05 19.14.58 9.997 9.134 17.68 19.12 17.07l13.88-.79-21.16 37.06c-4.944 8.717-1.928 19.8 6.753 24.75 8.677 5.002 19.75 1.98 24.72-6.747l21.98-38.48 13 23.35c4.882 8.78 15.9 11.94 24.65 7.027 8.726-4.858 11.89-15.89 7.02-24.66l-23.66-42.52 33.89-59.34.05.09.05-.09 33.89 59.34-23.64 42.52c-4.873 8.763-1.705 19.8 7.02 24.66 8.748 4.903 19.77 1.753 24.65-7.027l13-23.35 21.98 38.48c4.966 8.726 16.04 11.75 24.72 6.746 8.682-4.954 11.7-16.03 6.753-24.75l-21.16-37.06 13.88.79c9.99.615 18.54-7.072 19.12-17.07.585-9.995-7.06-18.53-17.06-19.14l-37.41-2.148-34.61-60.62 72.43-.103 25.02 40.23c5.274 8.536 16.46 11.13 24.96 5.855 8.49-5.332 11.1-16.51 5.82-25l-13.16-21.16 41.66-.06c10 0 18.09-8.157 18.09-18.17-.04-10.02-8.16-18.13-18.17-18.13z"/></svg>