<svg xmlns="http://www.w3.org/2000/svg" overflow="visible" height="512" width="512" viewBox="-1 -1.167 512 512"><path d="M255 144.6c-6.9 0-12.49-5.587-12.49-12.49V61.36c0-6.894 5.587-12.49 12.49-12.49 6.895 0 12.48 5.592 12.48 12.49v70.75c0 6.895-5.587 12.48-12.48 12.48zM255 460.8c-6.9 0-12.49-5.587-12.49-12.49v-70.74c0-6.895 5.587-12.49 12.49-12.49 6.895 0 12.48 5.59 12.48 12.49v70.75c0 6.895-5.587 12.48-12.48 12.48zM448.5 267.3h-70.75c-6.894 0-12.49-5.583-12.49-12.48 0-6.895 5.592-12.49 12.49-12.49h70.75c6.895 0 12.49 5.59 12.49 12.49s-5.596 12.48-12.49 12.48zM132.2 267.3H61.45c-6.86 0-12.45-5.6-12.45-12.5 0-6.894 5.587-12.49 12.48-12.49h70.75c6.894 0 12.49 5.592 12.49 12.49 0 6.895-5.592 12.48-12.49 12.48zM391.8 404.2c-3.195 0-6.39-1.22-8.83-3.658l-50-50c-4.876-4.877-4.876-12.78 0-17.65 4.873-4.877 12.78-4.877 17.65 0l50.03 50.02c4.878 4.877 4.878 12.78 0 17.65-2.433 2.44-5.632 3.658-8.827 3.658zM168.2 180.5c-3.19 0-6.386-1.22-8.824-3.66l-50.03-50.02c-4.876-4.872-4.876-12.78 0-17.65 4.877-4.875 12.78-4.875 17.66 0l50.03 50.02c4.877 4.873 4.877 12.78 0 17.66-2.442 2.437-5.637 3.656-8.832 3.656zM118.2 404.2c-3.195 0-6.39-1.22-8.83-3.657-4.875-4.873-4.875-12.78 0-17.65l50.02-50.02c4.877-4.876 12.78-4.876 17.65 0 4.878 4.873 4.878 12.77 0 17.65l-50.02 50.03c-2.43 2.438-5.628 3.657-8.824 3.657zM341.8 180.5c-3.195 0-6.395-1.22-8.83-3.658-4.875-4.873-4.875-12.78 0-17.66l50.02-50.03c4.877-4.88 12.78-4.88 17.65 0 4.878 4.872 4.878 12.78 0 17.65l-50.02 50.03c-2.437 2.443-5.628 3.662-8.823 3.662zM255 336.2c-44.88 0-81.39-36.52-81.39-81.4s36.52-81.4 81.39-81.4c44.88 0 81.39 36.52 81.39 81.4s-36.51 81.4-81.39 81.4zm0-137.8c-31.11 0-56.43 25.31-56.43 56.42s25.31 56.43 56.43 56.43c31.11 0 56.42-25.31 56.42-56.43S286.11 198.4 255 198.4z"/></svg>