<svg xmlns="http://www.w3.org/2000/svg" width="512" height="512" viewBox="0 0 512 512"><path d="M158.055 249.342l160.08 160.08c13.483 13.482 35.338 13.48 48.82 0 13.48-13.48 13.48-35.337 0-48.82l-160.08-160.08c-7.697-7.695-11.66-18.4-10.82-29.25 1.59-20.56-5.475-41.66-21.198-57.384-20.37-20.37-49.916-26.31-75.68-17.4l46.54 46.54c1.068 18.162-27.02 46.232-45.16 45.158l-46.537-46.54c-8.864 25.632-3.067 55.21 17.398 75.678 14.28 14.28 32.994 21.416 51.71 21.416 5.156 0 21.16-3.163 34.927 10.602zM340.86 368.68c7.857 0 14.23 6.368 14.23 14.227s-6.372 14.23-14.23 14.23c-7.856 0-14.227-6.37-14.227-14.23s6.37-14.228 14.228-14.228zM219.445 115.33s88.328-43.475 146.982.69c33.28 25.058 28.81 47.44 43.82 62.45 13.8 13.8 30.705 2.416 30.705 2.416L462 201.933l-67.28 67.28-21.048-21.046s9.086-12.995-1.727-23.806c-9.773-9.775-21.966-7.016-34.732 5.75l-30.984 30.986-46.995-46.995 31.347-31.347c29.022-29.022-.936-60.408-71.138-67.424zm-.89 233.055l-61.475 61.15c-12.964 12.965-33.98 12.965-46.94 0-12.963-12.96-12.963-33.977 0-46.937l61.474-61.153 46.94 46.94z"/></svg>