<svg xmlns="http://www.w3.org/2000/svg" enable-background="new 0 0 100 100" viewBox="0 0 512 512"><path d="M429.9 436.7H115.6v13.21h314.3q13.21 0 22.65-9.438 9.438-9.438 9.438-22.65h-12.74q0 8.023-5.663 13.45t-13.68 5.427zm-74.56-311.5q12.74 0 22.18-9.202 9.438-9.202 9.438-22.42 0-13.21-9.438-22.42-9.438-9.202-22.18-9.202-13.21 0-22.42 9.202-9.202 9.202-9.202 22.42 0 13.21 9.202 22.42 9.202 9.202 22.42 9.202zm-207.6 283.1q5.19 4.72 12.74 4.72 8.494 0 17.93-6.607l-9.438-9.91q-4.247 2.83-8.022 2.83-3.776 0-5.663-1.886l-.472-.472-104.8-105.2v18.4zm10.38-210H51.02v12.74h107.1V198.3zm181.2 219.9l122.2-245.4-12.27-5.19-123.6 250.6h13.68zM93.42 273.9q-8.966 0-15.1 5.663-6.135 5.662-6.135 14.63 0 8.495 6.135 14.39 6.135 5.9 14.63 5.9h85.41q5.19 0 9.438-.945 10.85-1.887 15.1-6.606l42-46.72 49.08 47.19-19.82 88.24q-.944 2.83-.944 4.72 0 8.493 6.135 14.63 6.133 6.134 14.63 6.134 16.04 0 19.82-16.52l24.07-107.1q4.246-16.99-3.776-25.01l-42.94-42.94 46.72-54.27 30.2 30.2q4.72 4.72 10.85 4.72 8.023 0 15.57-7.08l49.08-49.08q3.775-4.718 3.775-10.38 0-7.077-4.956-11.8-4.955-4.718-11.56-4.718-6.606 0-10.38 3.775l-40.58 40.58-49.08-49.08q-5.663-5.663-14.16-5.663h-76.92q-7.08 0-12.27 5.663l-52.85 60.88q-5.663 4.72-5.663 11.8 0 6.607 4.72 11.33 4.72 4.72 11.33 4.72 7.078 0 12.27-5.664l49.08-57.1 28.31.47-108.1 125.5z"/></svg>