<svg xmlns="http://www.w3.org/2000/svg" height="512" width="512" viewBox="-0.258 -0.548 512.195 512.162"><path d="M136.7 434.3c-.306 1.533-.4 3.062-.4 4.595 0 12.62 10.17 22.76 22.79 22.76 10.36 0 19.05-6.893 21.84-16.26l39.15-162.1 37.31 161.1c2.388 9.955 11.39 17.22 21.99 17.22 12.65 0 22.79-10.14 22.79-22.76 0-1.745-.184-3.368-.49-4.992l-51.17-214.4 4.29-18.87 3.367 14.82c3.062 9.68 11.85 10.63 11.85 10.63l52.74 13.42c1.043.185 2.113.275 3.156.275 8.607 0 15.59-6.893 15.59-15.5 0-7.383-5.054-13.6-11.95-15.22l-45.6-11.5-12.6-50.9c-5.944-28.43-33.11-27.75-33.11-27.75-26.4-.675-33.02 27.11-33.02 27.11l-68.5 287.9zm180.9 19.2c0 .196-.09.353-.09.46 0 4.136 3.368 7.472 7.474 7.472 3.736 0 6.893-2.878 7.35-6.493l54.42-294.9v-.58c0-4.012-3.276-7.384-7.382-7.384-3.736 0-6.618 2.878-7.383 6.524l-54.42 295.2zM193 119.6c1.254-4.99-1.898-9.955-6.8-11.21l-26.99-6.493c-5.053-1.164-10.04 1.808-11.18 6.772l-22.74 93.9c-1.253 4.99 1.81 9.954 6.8 11.21l27.08 6.492c4.9 1.255 9.955-1.807 11.12-6.8l22.66-93.9zm54.7-5.3c17.89 0 32.35-14.55 32.35-32.47 0-17.89-14.46-32.35-32.35-32.35s-32.44 14.46-32.44 32.35c0 17.92 14.55 32.46 32.42 32.46z"/></svg>