<svg xmlns="http://www.w3.org/2000/svg" width="580" height="580" viewBox="0 0 580 580"><path fill="param(fill) #FFF" stroke="param(outline) #000" stroke-width="param(outline-width) 1" d="M500.816 383.164l-14.09-88.703c-1.567-9.405-7.44-14.107-17.623-14.107-4.71 0-9.02 1.96-12.926 5.88l-65.22 61.096c-4.696 3.907-7.045 8.603-7.044 14.09 0 9.405 4.308 15.477 12.925 18.214l16.457 5.288c-8.223 22.325-21.342 41.417-39.358 57.276-18.017 15.86-38.773 26.138-62.27 30.835V183.44c26.232-11.366 39.35-31.343 39.35-59.93 0-17.617-6.364-32.79-19.092-45.518-12.73-12.728-28.1-19.092-46.11-19.092-17.627 0-32.803 6.365-45.524 19.092-12.722 12.73-19.082 27.9-19.082 45.517 0 28.587 13.313 48.563 39.94 59.93v290.185c-23.89-4.697-45.235-14.98-64.034-30.844-18.8-15.864-32.31-35.15-40.533-57.858l16.458-5.288c8.604-2.737 12.907-8.81 12.907-18.215 0-5.092-2.15-9.788-6.454-14.09l-65.79-61.097c-3.92-3.92-8.23-5.88-12.926-5.88-10.183 0-16.057 4.703-17.622 14.108l-14.09 88.704c-.396 1.948-.592 3.316-.592 4.105 0 12.536 6.46 18.804 19.38 18.804 1.96 0 3.722-.197 5.288-.592l15.274-5.287c12.537 37.6 34.958 68.34 67.262 92.225 32.304 23.885 68.822 35.827 109.552 35.827 40.335 0 76.954-12.137 109.856-36.41 31.72-23.496 53.847-54.043 66.384-91.642l15.274 5.287c1.565.395 3.328.592 5.288.592 12.92 0 19.38-6.268 19.38-18.805 0-.79-.198-2.158-.592-4.106zm-215-232.62c-7.05 0-13.22-2.645-18.508-7.934-5.29-5.288-7.933-11.655-7.933-19.1 0-7.052 2.644-13.22 7.933-18.502 5.288-5.282 11.458-7.923 18.51-7.924 7.445 0 13.81 2.642 19.09 7.924 5.283 5.283 7.925 11.45 7.925 18.5 0 7.447-2.642 13.814-7.924 19.102-5.283 5.288-11.647 7.933-19.093 7.933z"/></svg>