<svg xmlns="http://www.w3.org/2000/svg" viewBox="0 0 512 512"><path d="M213.6 91h14.73V76.27H75.73v42.62l137.9-11.58V91zm78.4 28.94q14.73 0 25-10.26 10.26-10.26 10.26-24.47 0-14.73-10.26-24.99t-25-10.26q-14.21 0-24.73 10.26t-10.52 24.99q0 14.21 10.52 24.47T292 119.94zm63.14-1.58q-7.366-7.892-17.89-7.892-11.05 0-18.42 7.893l-51 51.1-36.8-37.4q-6.314-6.313-14.21-6.313-16.84 0-16.84 17.36 0 6.84 4.736 11.58l48.94 48.94q5.262 5.79 12.63 5.79 8.42 0 13.68-6.316l28.42-28.42 70.51 71.04v187.9q0 12.1 8.42 20.26 8.42 8.158 20.52 8.158 11.58 0 20-8.157 8.42-8.155 8.42-20.26v-227.8q0-6.84-4.737-11.58zm-172.1 78.93l-12.1-68.41q-1.052-5.787-7.366-5.787-6.315 0-7.367 6.314l-11.58 67.88v263.1h100.5v-37.36h-62.09v-225.7z"/></svg>