<svg xmlns="http://www.w3.org/2000/svg" enable-background="new 0 0 100 83.899" viewBox="0 0 512 512"><path d="M443.94 228.734l-42.3.06 8.417-14.005c5.36-8.918 2.855-20.718-5.595-26.356-8.466-5.672-19.66-3.008-25.01 5.883l-20.75 34.544-71.297.11 35.618-65.99 49.19-2.82c10.02-.57 17.68-9.56 17.12-20.128-.537-10.538-9.064-18.63-19.08-18.04l-25.91 1.463 11.41-21.13c4.948-9.168 1.912-20.822-6.78-26.07-8.706-5.22-19.75-2.015-24.72 7.18l-11.4 21.212-7.1-13.583c-4.812-9.264-15.84-12.614-24.63-7.517-8.746 5.088-11.93 16.713-7.11 25.955l17.77 34.07-35.63 66.02-35.64-66.01 17.77-34.07c4.82-9.238 1.64-20.865-7.11-25.955-8.788-5.094-19.81-1.743-24.62 7.518l-7.2 13.594-11.5-21.298c-4.968-9.196-16.02-12.403-24.72-7.18-8.687 5.238-11.73 16.893-6.78 26.07l11.41 21.13-25.91-1.464c-10.01-.59-18.54 7.5-19.08 18.04-.55 10.56 7.11 19.56 17.13 20.128l49.19 2.82 35.618 65.99-71.297-.113-20.75-34.543c-5.356-8.89-16.55-11.55-25.01-5.883-8.45 5.64-10.95 17.44-5.593 26.355l8.412 14.005-42.3-.06c-10.01 0-18.14 8.544-18.17 19.105 0 10.548 8.09 19.147 18.09 19.147l41.66.06-13.15 22.297c-5.274 8.948-2.674 20.728 5.817 26.345 8.493 5.56 19.678 2.825 24.958-6.17l25.02-42.395 72.428.108-34.62 63.88-37.398 2.265c-9.99.638-17.63 9.64-17.05 20.17.58 10.533 9.134 18.63 19.12 17.988l13.88-.835-21.16 39.054c-4.944 9.187-1.928 20.865 6.753 26.08 8.678 5.273 19.75 2.088 24.72-7.108l21.98-40.55 13 24.605c4.882 9.253 15.9 12.583 24.65 7.405 8.724-5.12 11.89-16.745 7.02-25.986l-23.66-44.808 33.89-62.532.05.1.05-.1 33.888 62.532-23.64 44.808c-4.874 9.234-1.705 20.865 7.02 25.986 8.747 5.167 19.77 1.848 24.65-7.405l13-24.606 21.98 40.55c4.964 9.195 16.038 12.38 24.718 7.108 8.68-5.22 11.7-16.892 6.752-26.08l-21.16-39.055 13.88.835c9.99.647 18.54-7.454 19.12-17.99.585-10.532-7.06-19.525-17.06-20.168l-37.41-2.265-34.608-63.88 72.428-.11 25.02 42.395c5.274 8.996 16.46 11.728 24.96 6.17 8.49-5.618 11.1-17.397 5.82-26.344l-13.16-22.298 41.66-.06c9.998 0 18.09-8.595 18.09-19.147-.04-10.558-8.163-19.104-18.17-19.104z"/></svg>