<svg xmlns="http://www.w3.org/2000/svg" width="512" height="512" viewBox="0 0 512 512"><path d="M460.475 408.443L351.4 299.37c15.95-25.137 25.2-54.923 25.2-86.833C376.6 122.914 303.687 50 214.062 50 124.44 50 51.525 122.914 51.525 212.537s72.914 162.537 162.537 162.537c30.325 0 58.732-8.356 83.055-22.876L406.917 462l53.558-53.557zM96.315 212.538c0-64.927 52.82-117.748 117.746-117.748 64.927 0 117.75 52.82 117.75 117.748 0 64.926-52.823 117.747-117.75 117.747-64.925 0-117.745-52.82-117.745-117.747zm185.96 19.344H149.958v-36.86h132.32v36.86z"/></svg>