<svg xmlns:rdf="http://www.w3.org/1999/02/22-rdf-syntax-ns#" xmlns="http://www.w3.org/2000/svg" version="1.1" xml:space="preserve" enable-background="new 0 0 100 100" y="0px" x="0px" xmlns:cc="http://creativecommons.org/ns#" xmlns:dc="http://purl.org/dc/elements/1.1/" viewBox="0 0 512 512"><path d="m184.9 355.4c-14.58 0-22.43-8.027-27.62-13.34-4.493-4.595-6.112-6.049-10.3-6.049-4.178 0-5.802 1.454-10.3 6.049-5.19 5.31-13.04 13.34-27.62 13.34s-22.43-8.03-27.63-13.34c-4.5-4.59-6.12-6.05-10.31-6.05-6.694 0-12.12-5.424-12.12-12.12 0-6.694 5.424-12.12 12.12-12.12 14.58 0 22.43 8.027 27.63 13.34 4.493 4.595 6.117 6.049 10.3 6.049 4.178 0 5.802-1.454 10.3-6.049 5.191-5.312 13.04-13.34 27.62-13.34s22.43 8.027 27.62 13.34c4.498 4.595 6.117 6.049 10.3 6.049 4.179 0 5.802-1.454 10.3-6.049 5.196-5.312 13.04-13.34 27.62-13.34 6.694 0 12.12 5.424 12.12 12.12 0 6.694-5.424 12.12-12.12 12.12-4.178 0-5.797 1.454-10.29 6.049-5.2 5.31-13 13.34-27.6 13.34zm218.1 0c-14.58 0-22.43-8.027-27.62-13.34-4.498-4.595-6.112-6.049-10.3-6.049-4.178 0-5.797 1.454-10.3 6.049-5.2 5.31-13 13.34-27.6 13.34-14.58 0-22.43-8.027-27.63-13.33-4.498-4.6-6.122-6.054-10.31-6.054-6.694 0-12.12-5.424-12.12-12.12 0-6.694 5.424-12.12 12.12-12.12 14.58 0 22.44 8.027 27.63 13.34 4.498 4.595 6.122 6.049 10.3 6.049s5.797-1.454 10.3-6.049c5.191-5.312 13.04-13.34 27.62-13.34s22.43 8.027 27.62 13.34c4.498 4.595 6.117 6.049 10.3 6.049 4.178 0 5.797-1.454 10.3-6.049 5.196-5.312 13.04-13.34 27.62-13.34 6.693 0 12.12 5.424 12.12 12.12 0 6.694-5.424 12.12-12.12 12.12-4.179 0-5.797 1.454-10.3 6.049-5.3 5.3-13.1 13.33-27.7 13.33zm-72.8-77.55c-14.58 0-22.44-8.027-27.63-13.34-4.499-4.595-6.122-6.049-10.31-6.049-4.173 0-5.797 1.454-10.29 6.044-5.201 5.317-13.05 13.34-27.63 13.34s-22.43-8.027-27.62-13.34c-4.498-4.595-6.117-6.049-10.3-6.049-4.178 0-5.802 1.454-10.3 6.049-5.196 5.312-13.04 13.34-27.62 13.34s-22.42-8.027-27.62-13.34c-4.494-4.59-6.113-6.044-10.29-6.044-6.694 0-12.12-5.424-12.12-12.12 0-6.694 5.424-12.12 12.12-12.12 14.57 0 22.42 8.027 27.61 13.34 4.493 4.595 6.112 6.049 10.29 6.049s5.797-1.454 10.29-6.049c5.196-5.312 13.04-13.34 27.62-13.34s22.43 8.027 27.62 13.34c4.493 4.595 6.117 6.049 10.3 6.049s5.802-1.454 10.3-6.049c5.191-5.312 13.04-13.34 27.61-13.34 14.58 0 22.44 8.027 27.63 13.34 4.498 4.595 6.122 6.049 10.31 6.049 4.183 0 5.806-1.454 10.3-6.049 5.197-5.312 13.05-13.34 27.63-13.34 6.693 0 12.12 5.424 12.12 12.12 0 6.694-5.424 12.12-12.12 12.12-4.188 0-5.812 1.454-10.31 6.054-5.196 5.308-13.05 13.33-27.63 13.33zm119.7-77.56c-15.43 0-23.65-7.397-29.66-12.8-4.876-4.387-7.324-6.587-13.46-6.587-6.132 0-8.58 2.2-13.45 6.587-6.005 5.404-14.24 12.8-29.66 12.8s-23.64-7.401-29.65-12.81c-4.867-4.382-7.315-6.582-13.43-6.582-6.126 0-8.574 2.2-13.44 6.587-6.006 5.4-14.23 12.8-29.66 12.8-15.42 0-23.64-7.401-29.64-12.81-4.872-4.382-7.315-6.582-13.44-6.582-6.117 0-8.56 2.2-13.43 6.582-6.005 5.404-14.22 12.81-29.64 12.81s-23.64-7.401-29.64-12.81c-4.867-4.382-7.309-6.582-13.43-6.582-6.117 0-8.56 2.2-13.43 6.582-6.006 5.404-14.22 12.81-29.64 12.81s-23.64-7.401-29.64-12.81c-4.866-4.382-7.309-6.582-13.43-6.582-6.694 0-12.12-5.424-12.12-12.12 0-6.694 5.424-12.12 12.12-12.12 15.42 0 23.64 7.401 29.64 12.81 4.866 4.381 7.309 6.582 13.43 6.582 6.117 0 8.56-2.201 13.43-6.582 6.006-5.405 14.23-12.81 29.64-12.81 15.42 0 23.64 7.401 29.64 12.81 4.867 4.381 7.31 6.582 13.42 6.582 6.112 0 8.56-2.201 13.43-6.582 6.006-5.405 14.23-12.81 29.64-12.81 15.42 0 23.64 7.401 29.65 12.81 4.871 4.381 7.314 6.582 13.43 6.582 6.127 0 8.57-2.201 13.44-6.582 6.011-5.405 14.23-12.81 29.66-12.81 15.42 0 23.64 7.401 29.64 12.81 4.866 4.381 7.314 6.582 13.44 6.582 6.132 0 8.579-2.201 13.45-6.587 6.005-5.405 14.24-12.8 29.66-12.8s23.65 7.396 29.66 12.8c4.876 4.386 7.324 6.587 13.46 6.587 6.694 0 12.12 5.424 12.12 12.12 0 6.694-5.424 12.12-12.12 12.12z"/></svg>
