<svg id="Your_Icon" xmlns:rdf="http://www.w3.org/1999/02/22-rdf-syntax-ns#" xmlns="http://www.w3.org/2000/svg" enable-background="new 0 0 100 100" xml:space="preserve" viewBox="0 0 512 512" version="1.1" y="0px" x="0px" xmlns:cc="http://creativecommons.org/ns#" xmlns:dc="http://purl.org/dc/elements/1.1/"><path d="m149.6 204.6 1.125-1.121 105.1-105.1.478-.487 108.8 108.8 48.09 48.1 23.94-23.93l-72-72.1-67-67.02-41.8-41.78-41.8 41.78-63.8 63.82-75.81 75.8 23.94 23.9zm1.125 12.17-1.13 1.121v244.1h76.68v-69.01h57.5v69.01h80.51v-242.1l-108.4-108.3-105.1 105.1zm94.72 153.2h-57.51v-53.67h57.5v53.67zm0-72.84h-57.51v-53.68h57.5v53.68zm80.5 72.84h-57.51v-53.67h57.51v53.67zm0-72.84h-57.51v-53.68h57.51v53.68zm-30.24-125.7v22.99h-27.27v27.27h-22.99v-27.27h-27.27v-22.99h27.27v-27.27h22.99v27.27h27.27z"/></svg>
