<?xml version="1.0" encoding="UTF-8" standalone="no"?>
<!-- The icon can be used freely in both personal and commercial projects with no attribution required, but always appreciated. 
You may NOT sub-license, resell, rent, redistribute or otherwise transfer the icon without express written permission from iconmonstr.com -->

<svg xmlns:dc="http://purl.org/dc/elements/1.1/" xmlns:cc="http://creativecommons.org/ns#" xmlns:rdf="http://www.w3.org/1999/02/22-rdf-syntax-ns#" xmlns:svg="http://www.w3.org/2000/svg" xmlns="http://www.w3.org/2000/svg" xmlns:sodipodi="http://sodipodi.sourceforge.net/DTD/sodipodi-0.dtd" xmlns:inkscape="http://www.inkscape.org/namespaces/inkscape" version="1.1" x="0px" y="0px" width="512px" height="512px" viewBox="0 0 512 512" enable-background="new 0 0 512 512" xml:space="preserve" id="svg4320" inkscape:version="0.91pre2+osxmenu r12825" sodipodi:docname="compass-both.svg"><metadata id="metadata4327"><rdf:RDF><cc:Work rdf:about=""><dc:format>image/svg+xml</dc:format><dc:type rdf:resource="http://purl.org/dc/dcmitype/StillImage" /><dc:title></dc:title></cc:Work></rdf:RDF></metadata><defs id="defs4325" /><sodipodi:namedview pagecolor="#ffffff" bordercolor="#666666" borderopacity="1" objecttolerance="10" gridtolerance="10" guidetolerance="10" inkscape:pageopacity="0" inkscape:pageshadow="2" inkscape:window-width="640" inkscape:window-height="480" id="namedview4323" showgrid="false" inkscape:zoom="2.1699" inkscape:cx="256" inkscape:cy="256" inkscape:current-layer="svg4320" /><path id="compass-6-icon" d="m 270.572,117.05 0,36.2 -7.852,0 -0.07,-0.123 -13.737,-23.271 0,23.395 -7.482,0 0,-36.2 7.802,0 13.857,23.446 0,-23.447 z m 107.02,149.95 0,-8.25 16.436,0 0,-6.6 -16.436,0 0,-7.15 17.908,0 0,-7.1 -25.865,0 0,36.2 26.244,0 0,-7.1 z m -223.139,-29.1 -5.41,23.943 -5.64,-23.943 -7.377,0 -5.732,23.646 -5.224,-23.646 -7.979,0 9.056,36.01 0.05,0.189 7.946,0 5.502,-23.658 5.596,23.658 7.803,0 9.247,-36.199 z m 89.073,158.093 c 2.051,1.134 6.155,2.269 10.313,2.269 9.99,0 14.634,-5.185 14.634,-11.287 0,-5.184 -2.97,-8.531 -9.396,-10.908 -4.753,-1.836 -6.75,-2.861 -6.75,-5.184 0,-1.836 1.728,-3.51 5.292,-3.51 3.51,0 6.156,1.025 7.561,1.728 l 1.836,-6.589 c -2.16,-1.025 -5.131,-1.836 -9.289,-1.836 -8.531,0 -13.77,4.699 -13.77,10.908 0,5.347 3.996,8.695 10.044,10.855 4.374,1.512 6.103,2.861 6.103,5.075 0,2.431 -1.998,3.996 -5.779,3.996 -3.51,0 -6.965,-1.134 -9.125,-2.269 z M 277.63,230.68 c 7.925,6.287 12.093,15.463 12.09,24.96 10e-4,9.88 -4.454,18.734 -11.725,24.678 l -20.096,65.65 -20.106,-65.683 c -7.146,-5.839 -11.717,-14.717 -11.717,-24.644 0,-10.01 4.568,-18.994 12.091,-24.962 L 257.9,166.222 Z m -19.732,11.261 c -7.566,0 -13.7,6.134 -13.7,13.7 0,7.567 6.134,13.701 13.701,13.701 7.566,0 13.699,-6.133 13.7,-13.7 0,-7.568 -6.134,-13.701 -13.701,-13.701 z M 462,256 C 462,369.771 369.771,462 256,462 142.229,462 50,369.771 50,256 50,142.229 142.229,50 256,50 c 113.771,0 206,92.229 206,206 z m -40,0 C 422,164.244 347.74,90 256,90 164.244,90 90,164.259 90,256 c 0,91.755 74.259,166 166,166 91.755,0 166,-74.259 166,-166 z" inkscape:connector-curvature="0" sodipodi:nodetypes="cccccccccccccccccccccccccccccccccccccccccsscssccsscsscccccccscccscscsssssssssss" /></svg>