<?xml version="1.0" encoding="utf-8"?>

<!-- The icon can be used freely in both personal and commercial projects with no attribution required, but always appreciated. 
You may NOT sub-license, resell, rent, redistribute or otherwise transfer the icon without express written permission from iconmonstr.com -->

<!DOCTYPE svg PUBLIC "-//W3C//DTD SVG 1.1//EN" "http://www.w3.org/Graphics/SVG/1.1/DTD/svg11.dtd">
<svg version="1.1" xmlns="http://www.w3.org/2000/svg" xmlns:xlink="http://www.w3.org/1999/xlink" x="0px" y="0px"
	 width="512px" height="512px" viewBox="0 0 512 512" enable-background="new 0 0 512 512" xml:space="preserve">
<path id="checkout-icon" d="M390.999,120.666H201.66c2.239-11.363,6.163-22.283,11.891-32h-61.319
	c-5.523,8.822-9.618,17.526-11.974,32H121L74.667,304h362.666L390.999,120.666z M146.748,267.084h-21.74l3.409-15.09l21.201,0.038
	L146.748,267.084z M151.018,244.694l-20.938-0.058l3.41-15.09l20.398,0.096L151.018,244.694z M155.419,221.614l-20.109-0.116
	l3.41-15.09l19.57,0.155L155.419,221.614z M181.262,267.084h-21.741l2.553-15.029l21.202,0.039L181.262,267.084z M184.257,244.785
	l-20.938-0.057l2.554-15.029l20.398,0.096L184.257,244.785z M187.345,221.8l-20.111-0.116l2.554-15.029l19.57,0.155L187.345,221.8z
	 M190.025,163.666h-39.453c-3.475-23.287-0.513-49.897,7.79-65h38.6C188.255,116.3,187.42,145.829,190.025,163.666z M384.26,245.334
	l-20.938-0.057l-2.603-14.661l20.397,0.097L384.26,245.334z M379.44,222.914l-20.11-0.116l-2.604-14.66l19.57,0.155L379.44,222.914z
	 M221,150.666h142.167l6,28.5H218.5L221,150.666z M267.652,230.179l0.14,14.837l-20.938-0.059l0.399-14.875L267.652,230.179z
	 M247.467,222.148l0.4-14.874l19.57,0.155l0.141,14.836L247.467,222.148z M233.487,267.084h-21.741l1.257-14.936l21.201,0.038
	L233.487,267.084z M234.554,244.924l-20.938-0.058l1.257-14.937l20.398,0.096L234.554,244.924z M235.652,222.08l-20.11-0.116
	l1.257-14.937l19.57,0.155L235.652,222.08z M246.26,267.084l0.399-14.875l21.201,0.039l0.141,14.836H246.26z M278.201,207.515
	l19.568,0.155l0.978,14.776l-20.109-0.117L278.201,207.515z M278.871,230.231l20.397,0.096l0.977,14.776l-20.938-0.057
	L278.871,230.231z M279.958,267.084l-0.437-14.814l21.2,0.038l0.977,14.776H279.958z M326.393,207.897l19.569,0.155l2.307,14.681
	l-20.109-0.116L326.393,207.897z M329.101,230.468l20.397,0.096l2.308,14.683l-20.938-0.059L329.101,230.468z M331.729,252.364
	l54.062,0.099l3.144,14.621h-55.439L331.729,252.364z M50,333.666v89.668h412v-89.668H50z M255.999,391
	c-6.903,0-12.5-5.596-12.5-12.5c0-6.902,5.597-12.5,12.5-12.5c6.904,0,12.501,5.598,12.501,12.5
	C268.5,385.404,262.903,391,255.999,391z M249.375,376h13.438v5h-13.438V376z"/>
</svg>
