<?xml version="1.0" encoding="utf-8"?>


<!-- The icon can be used freely in both personal and commercial projects with no attribution required, but always appreciated. 
You may NOT sub-license, resell, rent, redistribute or otherwise transfer the icon without express written permission from iconmonstr.com -->


<!DOCTYPE svg PUBLIC "-//W3C//DTD SVG 1.1//EN" "http://www.w3.org/Graphics/SVG/1.1/DTD/svg11.dtd">

<svg version="1.1" xmlns="http://www.w3.org/2000/svg" xmlns:xlink="http://www.w3.org/1999/xlink" x="0px" y="0px"

	 width="512px" height="512px" viewBox="0 0 512 512" enable-background="new 0 0 512 512" xml:space="preserve">

<path id="email-11-icon" d="M373.945,148.019c-2.779,9.269-11.122,37.539-13.439,47.735l-27.807,102.884

	c-1.39,5.097-1.854,9.732-1.854,13.903c0,7.414,4.171,11.586,12.05,11.586c8.806,0,19.928-4.636,29.196-12.05

	c22.709-17.61,37.538-51.906,37.538-87.591c0-42.636-19.928-79.713-53.295-100.566c-20.854-12.514-50.051-19.465-82.956-19.465

	c-97.785,0-166.375,64.882-166.375,156.644c0,88.981,61.638,147.374,154.789,147.374c24.1,0,49.588-3.707,70.906-10.196

	c18.074-5.561,29.66-11.122,51.906-24.562l28.271,40.782c-25.027,14.831-36.149,20.393-57.932,26.879

	c-31.514,9.734-64.881,14.831-98.248,14.831c-65.346,0-116.326-18.538-152.937-55.149C69.001,366.763,50,317.638,50,263.879

	c0-57.467,19.466-107.056,56.54-144.595c42.637-42.636,98.714-63.491,170.546-63.491C385.069,55.793,462,125.31,462,222.169

	c0,43.563-15.757,83.419-44.027,111.689c-24.1,24.1-55.613,38.003-86.663,38.003c-18.074,0-32.904-6.952-39.856-18.074

	c-2.317-3.707-2.781-6.025-4.171-14.367c-17.611,20.392-36.149,29.196-62.1,29.196c-45.882,0-75.078-34.294-75.078-87.127

	c0-78.321,51.441-143.202,113.078-143.202c25.953,0,38.931,6.486,51.442,25.953l4.635-16.222H373.945z M278.478,285.66

	c11.122-21.781,18.536-50.051,18.536-71.37c0-19-10.657-31.976-26.878-31.976c-17.611,0-33.832,11.586-45.418,33.367

	c-11.123,20.854-18.538,48.197-18.538,69.515c0,24.563,9.269,37.539,26.881,37.539C250.207,322.735,266.428,309.296,278.478,285.66z

	"/>

</svg>

