<?xml version="1.0" encoding="utf-8"?>

<!-- License Agreement at http://iconmonstr.com/license/ -->

<!DOCTYPE svg PUBLIC "-//W3C//DTD SVG 1.1//EN" "http://www.w3.org/Graphics/SVG/1.1/DTD/svg11.dtd">
<svg version="1.1" xmlns="http://www.w3.org/2000/svg" xmlns:xlink="http://www.w3.org/1999/xlink" x="0px" y="0px"
	 width="512px" height="512px" viewBox="0 0 512 512" enable-background="new 0 0 512 512" xml:space="preserve">
<path id="christmas-house-icon" d="M95.165,425.918c0-10.264,8.321-18.586,18.585-18.586h287.299
	c10.265,0,18.585,8.322,18.585,18.586s-8.32,18.586-18.585,18.586H113.75C103.486,444.504,95.165,436.182,95.165,425.918z
	 M257.464,67.496L56.52,246.764c-8.368,7.461-8.713,20.402-0.848,28.309c7.26,7.301,18.941,7.701,26.684,0.916L257.39,122.444
	l172.227,151.419c7.725,6.795,19.398,6.42,26.673-0.855c7.916-7.916,7.552-20.858-0.779-28.322L257.464,67.496z M113.75,289.625
	c-10.264,0-18.585,8.32-18.585,18.587c0,10.264,8.321,18.584,18.585,18.584h51.713v22.715H113.75
	c-10.264,0-18.585,8.322-18.585,18.586s8.321,18.586,18.585,18.586h107.169v-97.058H113.75z M401.049,326.796
	c10.265,0,18.585-8.32,18.585-18.584c0-10.267-8.32-18.587-18.585-18.587H293.881v97.058h107.168
	c10.265,0,18.585-8.322,18.585-18.586s-8.32-18.586-18.585-18.586h-51.713v-22.715H401.049z M408.298,174.706l-48.444-45.453V91.76
	h48.444V174.706z M387.19,267.941H128.686l128.741-112.419L387.19,267.941z M280.762,222.416c0-13.116-10.634-23.749-23.749-23.749
	s-23.747,10.633-23.747,23.749c0,13.115,10.632,23.748,23.747,23.748S280.762,235.531,280.762,222.416z"/>
</svg>
