<?xml version="1.0" encoding="UTF-8" standalone="no"?>
<svg xmlns:dc="http://purl.org/dc/elements/1.1/" xmlns:cc="http://creativecommons.org/ns#" xmlns:rdf="http://www.w3.org/1999/02/22-rdf-syntax-ns#" xmlns:svg="http://www.w3.org/2000/svg" xmlns="http://www.w3.org/2000/svg" id="svg4320" version="1.1" viewBox="0 0 512 512">
    <metadata id="metadata4332">
        <rdf:RDF>
            <cc:Work rdf:about="">
                <dc:format>image/svg+xml</dc:format>
                <dc:type rdf:resource="http://purl.org/dc/dcmitype/StillImage" />
                <dc:title></dc:title>
            </cc:Work>
        </rdf:RDF>
    </metadata>
    <defs id="defs4330" />
    <path d="m 133.342,278.454 q 28.092,0 47.99,19.899 19.899,19.898 19.899,47.99 0,28.56 -19.899,48.459 -19.898,19.898 -47.99,19.898 -28.092,0 -47.9909,-19.898 -19.8985,-19.899 -19.8985,-48.459 0,-28.092 19.8985,-47.99 19.8989,-19.899 47.9909,-19.899 z m 0,151.229 q 34.646,0 58.993,-24.347 24.346,-24.346 24.346,-58.993 0,-34.178 -24.346,-58.525 -24.347,-24.346 -58.993,-24.346 -34.179,0 -58.7595,24.346 -24.5805,24.347 -24.5805,58.525 0,34.647 24.5805,58.993 24.5805,24.347 58.7595,24.347 z M 378.678,279.391 q 28.092,0 47.991,19.898 19.898,19.899 19.898,47.991 0,28.092 -19.898,47.99 -19.899,19.899 -47.991,19.899 -28.092,0 -47.99,-19.899 -19.899,-19.898 -19.899,-47.99 0,-28.092 19.899,-47.991 19.898,-19.898 47.99,-19.898 z m -83.339,67.889 q 0,34.646 24.346,58.993 24.347,24.346 58.993,24.346 34.647,0 58.994,-24.346 24.346,-24.347 24.346,-58.993 0,-34.647 -24.346,-58.994 -24.347,-24.346 -58.994,-24.346 -34.646,0 -58.993,24.346 -24.346,24.347 -24.346,58.994 z m 0.468,-203.199 q 12.641,0 22.005,-9.13 9.364,-9.13 9.364,-22.24 0,-13.1092 -9.364,-22.2391 -9.364,-9.1299 -22.005,-9.1299 -13.11,0 -22.24,9.1299 -9.129,9.1299 -9.129,22.2391 0,13.11 9.129,22.24 9.13,9.13 22.24,9.13 z m -125.478,100.195 67.421,37.456 0,70.698 q 0,7.491 5.384,12.875 5.385,5.385 12.876,5.385 7.491,0 12.876,-5.385 5.384,-5.384 5.384,-12.875 l 0,-88.022 q 1.873,-13.109 -14.046,-22.005 l -38.861,-20.601 42.138,-41.67 20.133,31.838 q 5.15,7.959 13.109,7.959 l 60.866,0 q 14.046,0 14.046,-12.173 0,-12.173 -14.046,-12.173 l -52.438,0 -34.179,-53.843 q -7.023,-11.237 -21.537,-12.173 -10.3,-1.405 -19.664,7.959 l -66.016,66.016 q -7.023,7.023 -7.023,17.792 0,15.45 13.577,22.942 z" id="path4326" />
</svg>
