<?xml version="1.0" encoding="utf-8"?>

<!-- License Agreement at http://iconmonstr.com/license/ -->

<!DOCTYPE svg PUBLIC "-//W3C//DTD SVG 1.1//EN" "http://www.w3.org/Graphics/SVG/1.1/DTD/svg11.dtd">
<svg version="1.1" xmlns="http://www.w3.org/2000/svg" xmlns:xlink="http://www.w3.org/1999/xlink" x="0px" y="0px"
	 width="512px" height="512px" viewBox="0 0 512 512" enable-background="new 0 0 512 512" xml:space="preserve">
<path id="direction-7-icon" d="M452.066,219.233L404.98,320.828l-15.201-37.735c-71.322,36.729-92.73,92.188-97.383,178.907
	l-71.889-0.281c5.617-110.213,35.723-193.183,142.318-245.471l-15.336-38.079L452.066,219.233z M220.562,223.679
	c13.35,10.718,25.242,22.366,35.779,34.987c10.641-12.541,22.643-24.089,36.082-34.706v-90.41h41.318L257.994,50l-78.07,83.028
	l40.639,0.189V223.679z M237.406,284.238c-20.756-26.736-49.012-49.73-87.189-68.834l15.646-37.953L59.934,216.66l47.297,102.988
	l15.508-37.613c41.238,21.65,65.598,49.483,79.559,85.997C209.8,337.685,220.967,309.897,237.406,284.238z"/>
</svg>
