<svg xmlns:rdf="http://www.w3.org/1999/02/22-rdf-syntax-ns#" xmlns="http://www.w3.org/2000/svg" height="20" viewBox="0 0 399.904 20" width="399.9" version="1.1" xmlns:cc="http://creativecommons.org/ns#" xmlns:dc="http://purl.org/dc/elements/1.1/">
 <g transform="translate(384.9 -501.1)">
  <path d="m-193.3 511.8c5.218 6.63 26.29-2.085 10.28-3.391-2.638.304-10.97-.969-10.28 3.391zm13.96-.627c-6.524.836-16.88-1.114-3.594-1.769 1.031.357 3.302.205 3.594 1.769z"/>
  <path d="m-381.7 511.5c60.22.757 120.4 1.876 180.7 2.405 15.28-3.804-7.585-7.556-13.07-5.396-56.92.928-113.9.932-170.8 2.437.1 1.336 3.089-.352 3.209.554zm182.8-.313h-115.4c14.14-1.457 28.8-.496 43.16-.975 23.54.03 47.13-.889 70.64-.252l1.495.89.09.337z"/>
  <path d="m11.77 511.5c-60.22.757-120.4 1.876-180.7 2.405-15.28-3.804 7.585-7.556 13.07-5.396 56.92.928 113.9.932 170.8 2.437-.099 1.336-3.088-.352-3.208.554zm-182.8-.313h115.4c-14.14-1.457-28.8-.496-43.15-.975-23.54.03-47.13-.889-70.64-.252l-1.494.89-.09.337z"/>
 </g>
</svg>
