<?xml version="1.0" encoding="UTF-8" standalone="no"?>
<svg xmlns:dc="http://purl.org/dc/elements/1.1/" xmlns:cc="http://creativecommons.org/ns#" xmlns:rdf="http://www.w3.org/1999/02/22-rdf-syntax-ns#" xmlns:svg="http://www.w3.org/2000/svg" xmlns="http://www.w3.org/2000/svg" viewBox="0 0 512 512" version="1.1" id="svg2" height="512" width="512">
    <defs id="defs4" />
    <metadata id="metadata7">
        <rdf:RDF>
            <cc:Work rdf:about="">
                <dc:format>image/svg+xml</dc:format>
                <dc:type rdf:resource="http://purl.org/dc/dcmitype/StillImage" />
                <dc:title></dc:title>
            </cc:Work>
        </rdf:RDF>
    </metadata>
    <g transform="translate(0,-540.36)" id="layer1">
        <path id="coffee-icon" d="m 336.178,825.444 -72.727,0 c -18.476,-42.719 -33.137,-87.242 -35.66,-161.389 l 144.046,0 c -2.501,73.516 -17.649,119.956 -35.659,161.389 z M 386.759,684.94 c -0.387,5.42 -0.833,10.749 -1.356,16.002 l 22.907,0 c -5.387,19.276 -16.461,37.758 -31.132,51.731 -1.808,8.121 -3.842,16.234 -6.538,25.409 32.624,-20.958 53.691,-58.239 56.862,-93.142 l -40.743,0 z m -78.177,-28.985 c 44.398,-40.02 -9.188,-37.908 1.089,-65.595 -35.431,35.77 13.211,36.57 -1.089,65.595 z m -26.074,0 c 29.574,-26.479 -6.201,-29.07 0.84,-47.778 -24.742,26.104 8.901,26.783 -0.84,47.778 z" />
        <path d="m 110.935,952.044 270.831,0 0,50.316 26.416,0 0,-75.472 -297.247,0 0,-109.021 q 0,-12.996 -13.0233,-12.996 -13.4132,0 -13.4132,12.996 l 0,184.463 26.4365,0 0,-50.316 z m 40.661,-80.942 q 10.079,0 17.001,-6.917 6.923,-6.916 6.923,-16.982 0,-10.06 -6.923,-16.985 -6.922,-6.918 -17.001,-6.918 -10.079,0 -16.999,6.918 -6.886,6.921 -6.886,16.985 0,10.062 6.886,16.982 6.92,6.917 16.999,6.917 z m -23.494,24.314 q 0,11.737 11.771,11.737 l 268.77,0 0,-32.697 q 0,-17.187 -18.861,-18.861 l -187.83,-18.724 q -0.433,0 -0.866,-0.433 -12.156,0 -12.156,11.738 l 0,35.633 -49.057,0 q -11.727,0 -11.727,11.738 z" id="path7842" />
    </g>
</svg>
