<?xml version="1.0" encoding="UTF-8" standalone="no"?>
<svg xmlns:dc="http://purl.org/dc/elements/1.1/" xmlns:cc="http://creativecommons.org/ns#" xmlns:rdf="http://www.w3.org/1999/02/22-rdf-syntax-ns#" xmlns:svg="http://www.w3.org/2000/svg" xmlns="http://www.w3.org/2000/svg" xmlns:sodipodi="http://sodipodi.sourceforge.net/DTD/sodipodi-0.dtd" xmlns:inkscape="http://www.inkscape.org/namespaces/inkscape" id="svg2" xml:space="preserve" enable-background="new -1 0 289 288" viewBox="-1 0 512 512" height="512" width="512" version="1.1" inkscape:version="0.91pre2+osxmenu r12825" sodipodi:docname="driveways.svg"><sodipodi:namedview pagecolor="#ffffff" bordercolor="#666666" borderopacity="1" objecttolerance="10" gridtolerance="10" guidetolerance="10" inkscape:pageopacity="0" inkscape:pageshadow="2" inkscape:window-width="640" inkscape:window-height="480" id="namedview4338" showgrid="false" inkscape:zoom="1.71094" inkscape:cx="125.662" inkscape:cy="256" inkscape:current-layer="svg2" /><metadata id="metadata44"><rdf:RDF><cc:Work rdf:about=""><dc:format>image/svg+xml</dc:format><dc:type rdf:resource="http://purl.org/dc/dcmitype/StillImage" /><dc:title></dc:title></cc:Work></rdf:RDF></metadata><defs id="defs4" /><path style="fill:#88842b;fill-opacity:1;stroke:none;stroke-width:4.26719;stroke-miterlimit:4;stroke-dasharray:none;stroke-opacity:1" d="m 254.994,49.9993 c -5.182,0 -10.364,1.9673 -14.295,5.8999 L 54.8908,241.707 c -7.8545,7.862 -7.8545,20.73 0,28.586 L 240.699,456.105 c 7.863,7.861 20.726,7.861 28.595,0 L 455.103,270.294 c 7.863,-7.858 7.863,-20.725 0,-28.587 L 269.294,55.8992 c -3.935,-3.9326 -9.117,-5.8999 -14.3,-5.8999 z m -97.079,147.4027 7.142,0 0,20.309 13.688,0 0,-20.309 7.143,0 0,49.84 -7.143,0 0,-22.541 -13.688,0 0,22.541 -7.142,0 0,-49.84 z m 38.831,0 6.992,0 0,49.84 -6.992,0 0,-49.84 z m 18.003,0 12.721,0 c 4.24,0 6.322,0.52 8.109,1.934 2.976,2.082 5.06,5.949 5.952,11.007 0.67,3.645 1.191,8.035 1.191,11.903 0,11.532 -2.31,18.896 -7.145,22.69 -1.786,1.636 -4.24,2.304 -6.992,2.304 l -13.836,0 0,-49.838 z m 37.788,0 12.721,0 c 4.24,0 6.323,0.52 8.11,1.934 2.976,2.082 5.059,5.949 5.951,11.007 0.67,3.645 1.191,8.035 1.191,11.903 0,11.532 -2.307,18.896 -7.142,22.69 -1.786,1.636 -4.24,2.304 -6.992,2.304 l -13.839,0 0,-49.838 z m 37.789,0 23.433,0 0,6.992 -16.291,0 0,12.571 10.339,0 0,6.844 -10.339,0 0,16.439 18.225,0 0,6.992 -25.367,0 0,-49.838 z m 33.772,0 7.14,0 13.688,29.905 0,-29.905 7.142,0 0,49.84 -5.431,0 -15.399,-33.399 0,33.399 -7.14,0 0,-49.84 z m -102.209,6.992 0,35.854 5.952,0 c 4.24,0 6.473,-3.345 7.217,-7.14 0.298,-3.2 0.669,-6.695 0.669,-10.489 0,-5.652 -0.523,-11.082 -1.415,-13.165 -1.191,-3.497 -3.272,-5.06 -6.471,-5.06 l -5.952,0 z m 37.791,0 0,35.854 5.95,0 c 4.24,0 6.472,-3.345 7.216,-7.14 0.298,-3.2 0.669,-6.695 0.669,-10.489 0,-5.652 -0.52,-11.082 -1.412,-13.165 -1.19,-3.497 -3.274,-5.06 -6.473,-5.06 l -5.95,0 z m -127.168,63.065 12.721,0 c 4.242,0 6.326,0.519 8.11,1.934 2.975,2.082 5.057,5.95 5.949,11.008 0.67,3.645 1.193,8.036 1.193,11.902 0,11.531 -2.309,18.897 -7.144,22.692 -1.785,1.637 -4.24,2.302 -6.992,2.302 l -13.837,0 0,-49.838 z m 35.928,0 14.878,0 c 7.812,0 13.093,5.282 13.093,13.315 0,5.952 -2.457,10.266 -7.143,12.052 l 7.143,24.471 -7.363,0 -6.62,-23.43 -6.844,0 0,23.43 -7.144,0 0,-49.838 z m 34.516,0 6.993,0 0,49.838 -6.993,0 0,-49.838 z m 12.277,0 7.214,0 8.185,32.359 8.257,-32.359 7.142,0 -12.796,49.838 -5.431,0 -12.571,-49.838 z m 35.927,0 23.434,0 0,6.992 -16.292,0 0,12.571 10.339,0 0,6.845 -10.339,0 0,16.438 18.225,0 0,6.992 -25.367,0 0,-49.838 z m 28.045,0 6.992,0 4.239,26.555 4.835,-26.555 5.654,0 4.688,26.555 4.389,-26.555 6.993,0 -8.036,49.838 -6.1,0 -4.762,-26.034 -4.684,26.034 -6.324,0 -7.884,-49.838 z m 51.329,0 6.992,0 12.423,49.838 -7.142,0 -3.498,-13.613 -10.711,0 -3.272,13.613 -7.217,0 12.425,-49.838 z m 20.53,0 7.513,0 8.405,18 8.257,-18 7.663,0 -12.423,27.299 0,22.541 -7.141,0 0,-22.541 -12.274,-27.299 z m -211.411,6.992 0,35.852 5.951,0 c 4.242,0 6.473,-3.344 7.218,-7.139 0.297,-3.199 0.669,-6.696 0.669,-10.49 0,-5.653 -0.523,-11.082 -1.415,-13.165 -1.19,-3.497 -3.272,-5.058 -6.472,-5.058 l -5.951,0 z m 35.929,0 0,12.569 7.365,0 c 4.165,0 6.473,-2.231 6.473,-6.248 0,-3.868 -2.606,-6.321 -6.473,-6.321 l -7.365,0 z m 158.296,7.884 -3.495,14.355 7.143,0 -3.648,-14.355 z" id="path6" inkscape:connector-curvature="0" /></svg>