<?xml version="1.0" encoding="UTF-8" standalone="no"?>
<!-- Generator: Adobe Illustrator 12.0.1, SVG Export Plug-In  -->

<svg xmlns:dc="http://purl.org/dc/elements/1.1/" xmlns:cc="http://creativecommons.org/ns#" xmlns:rdf="http://www.w3.org/1999/02/22-rdf-syntax-ns#" xmlns:svg="http://www.w3.org/2000/svg" xmlns="http://www.w3.org/2000/svg" xmlns:sodipodi="http://sodipodi.sourceforge.net/DTD/sodipodi-0.dtd" xmlns:inkscape="http://www.inkscape.org/namespaces/inkscape" version="1.1" width="512" height="512" viewBox="-1 0 512 512" enable-background="new -1 0 289 288" xml:space="preserve" id="svg2" inkscape:version="0.91pre2+osxmenu r12825" sodipodi:docname="driveway.svg"><metadata id="metadata44"><rdf:RDF><cc:Work rdf:about=""><dc:format>image/svg+xml</dc:format><dc:type rdf:resource="http://purl.org/dc/dcmitype/StillImage" /><dc:title></dc:title></cc:Work></rdf:RDF></metadata><sodipodi:namedview pagecolor="#ffffff" bordercolor="#666666" borderopacity="1" objecttolerance="10" gridtolerance="10" guidetolerance="10" inkscape:pageopacity="0" inkscape:pageshadow="2" inkscape:window-width="1280" inkscape:window-height="1004" id="namedview42" showgrid="false" fit-margin-top="0" fit-margin-left="0" fit-margin-right="0" fit-margin-bottom="0" inkscape:zoom="1" inkscape:cx="-28.9735" inkscape:cy="145.746" inkscape:window-x="-8" inkscape:window-y="-8" inkscape:window-maximized="1" inkscape:current-layer="svg2" /><defs id="defs4" /><path d="M 56.9568,241.854 240.846,57.9642 c 7.782,-7.785 20.512,-7.785 28.3,0 L 453.037,241.854 c 7.782,7.781 7.782,20.515 0,28.292 L 269.146,454.039 c -7.788,7.78 -20.518,7.78 -28.3,0 L 56.9568,270.144 c -7.7734,-7.775 -7.7734,-20.509 0,-28.29 z" id="path6" style="fill:none;fill-opacity:1;stroke:#000000;stroke-width:6;stroke-miterlimit:4;stroke-dasharray:none;stroke-opacity:1" inkscape:connector-curvature="0" /><path d="m 154.391,314.384 c -1.767,1.62 -4.196,2.281 -6.92,2.281 l -13.693,0 0,-49.326 12.589,0 c 4.198,0 6.259,0.515 8.025,1.915 2.944,2.061 5.007,5.89 5.89,10.895 0.663,3.608 1.178,7.952 1.178,11.779 0,11.412 -2.284,18.701 -7.069,22.456 z m -1.252,-35.116 c -1.178,-3.461 -3.238,-5.007 -6.405,-5.007 l -5.89,0 0,35.484 5.89,0 c 4.198,0 6.405,-3.312 7.142,-7.068 0.294,-3.166 0.663,-6.625 0.663,-10.38 0,-5.595 -0.517,-10.968 -1.4,-13.029 z" id="path14" inkscape:connector-curvature="0" style="fill:#000000;stroke:none" /><path d="m 189.729,316.665 -6.552,-23.191 -6.773,0 0,23.191 -7.07,0 0,-49.326 14.725,0 c 7.731,0 12.957,5.228 12.957,13.179 0,5.89 -2.43,10.16 -7.068,11.927 l 7.068,24.22 -7.287,0 z m -6.037,-42.404 -7.29,0 0,12.441 7.29,0 c 4.122,0 6.405,-2.209 6.405,-6.184 0,-3.828 -2.577,-6.257 -6.405,-6.257 z" id="path16" inkscape:connector-curvature="0" style="fill:#000000;stroke:none" /><path d="m 203.495,316.665 0,-49.326 6.92,0 0,49.326 -6.92,0 z" id="path18" inkscape:connector-curvature="0" style="fill:#000000;stroke:none" /><path d="m 233.459,316.665 -5.375,0 -12.442,-49.326 7.142,0 8.098,32.026 8.173,-32.026 7.068,0 -12.664,49.326 z" id="path20" inkscape:connector-curvature="0" style="fill:#000000;stroke:none" /><path d="m 251.199,316.665 0,-49.326 23.191,0 0,6.92 -16.123,0 0,12.442 10.233,0 0,6.773 -10.233,0 0,16.27 18.038,0 0,6.92 -25.106,0 z" id="path22" inkscape:connector-curvature="0" style="fill:#000000;stroke:none" /><path d="m 308.402,316.665 -6.036,0 -4.713,-25.766 -4.638,25.766 -6.257,0 -7.803,-49.326 6.92,0 4.196,26.283 4.785,-26.283 5.595,0 4.639,26.283 4.344,-26.283 6.921,0 -7.953,49.326 z" id="path24" inkscape:connector-curvature="0" style="fill:#000000;stroke:none" /><path d="m 341.9,316.665 -3.461,-13.473 -10.601,0 -3.239,13.473 -7.142,0 12.296,-49.326 6.92,0 12.295,49.326 -7.068,0 z m -8.835,-34.601 -3.46,14.208 7.068,0 -3.608,-14.208 z" id="path26" inkscape:connector-curvature="0" style="fill:#000000;stroke:none" /><path d="m 369.287,294.359 0,22.308 -7.068,0 0,-22.308 -12.147,-27.018 7.436,0 8.319,17.815 8.172,-17.815 7.583,0 -12.295,27.018 z" id="path28" inkscape:connector-curvature="0" style="fill:#000000;stroke:none" /><path d="m 179.533,247.332 0,-22.308 -13.547,0 0,22.308 -7.068,0 0,-49.326 7.068,0 0,20.099 13.547,0 0,-20.099 7.068,0 0,49.326 -7.068,0 z" id="path30" inkscape:connector-curvature="0" style="fill:#000000;stroke:none" /><path d="m 197.347,247.332 0,-49.326 6.92,0 0,49.326 -6.92,0 z" id="path32" inkscape:connector-curvature="0" style="fill:#000000;stroke:none" /><path d="m 235.778,245.049 c -1.767,1.62 -4.196,2.282 -6.92,2.282 l -13.694,0 0,-49.326 12.59,0 c 4.196,0 6.257,0.515 8.025,1.914 2.945,2.061 5.007,5.89 5.89,10.896 0.663,3.607 1.178,7.951 1.178,11.779 0,11.413 -2.284,18.701 -7.069,22.455 z m -1.252,-35.116 c -1.178,-3.461 -3.239,-5.007 -6.405,-5.007 l -5.89,0 0,35.485 5.89,0 c 4.196,0 6.405,-3.313 7.142,-7.068 0.294,-3.167 0.663,-6.626 0.663,-10.381 0,-5.594 -0.517,-10.968 -1.4,-13.029 z" id="path34" inkscape:connector-curvature="0" style="fill:#000000;stroke:none" /><path d="m 273.177,245.049 c -1.767,1.62 -4.196,2.282 -6.92,2.282 l -13.694,0 0,-49.326 12.59,0 c 4.196,0 6.257,0.515 8.025,1.914 2.945,2.061 5.007,5.89 5.89,10.896 0.663,3.607 1.178,7.951 1.178,11.779 0,11.413 -2.284,18.701 -7.069,22.455 z m -1.252,-35.116 c -1.178,-3.461 -3.239,-5.007 -6.405,-5.007 l -5.89,0 0,35.485 5.89,0 c 4.196,0 6.405,-3.313 7.142,-7.068 0.294,-3.167 0.663,-6.626 0.663,-10.381 0,-5.594 -0.517,-10.968 -1.4,-13.029 z" id="path36" inkscape:connector-curvature="0" style="fill:#000000;stroke:none" /><path d="m 289.961,247.332 0,-49.326 23.191,0 0,6.92 -16.123,0 0,12.442 10.233,0 0,6.773 -10.233,0 0,16.27 18.037,0 0,6.92 -25.105,0 z" id="path38" inkscape:connector-curvature="0" style="fill:#000000;stroke:none" /><path d="m 345.692,247.332 -15.24,-33.055 0,33.055 -7.067,0 0,-49.326 7.067,0 13.546,29.596 0,-29.596 7.068,0 0,49.326 -5.374,0 z" id="path40" inkscape:connector-curvature="0" style="fill:#000000;stroke:none" /></svg>