<svg xmlns:rdf="http://www.w3.org/1999/02/22-rdf-syntax-ns#" xmlns="http://www.w3.org/2000/svg" version="1.1" xmlns:cc="http://creativecommons.org/ns#" xmlns:dc="http://purl.org/dc/elements/1.1/" viewBox="0 0 512 512">
 <path d="m165.9 211.8v226.3q0 23.85 21.82 23.85t21.82-23.85v-226.3q11.67 0 20.04-8.625 8.372-8.626 8.372-18.77v-126.3q0-8.118-8.119-8.118-7.611 0-7.611 7.611v92.85h-27.91v-92.35q0-8.118-7.103-8.118-7.611 0-7.611 7.611v92.85h-26.89v-91.84q0-8.626-7.611-8.626-8.119 0-8.119 8.118v124.3q0 13.19 8.626 21.31 8.626 8.118 20.3 8.118zm164.9 226.3q0 23.34 22.33 23.34 21.82 0 21.82-23.34v-351.1q0-17.25-10.66-27.91-9.64-9.133-22.83-9.133-13.7 0-23.34 9.133-10.66 10.66-10.66 27.91v211.6h23.34v139.5z"/>
</svg>
