<svg xmlns:rdf="http://www.w3.org/1999/02/22-rdf-syntax-ns#" xmlns="http://www.w3.org/2000/svg" enable-background="new 0 0 100 100" xml:space="preserve" viewBox="0 0 512 512" version="1.1" y="0px" x="0px" xmlns:cc="http://creativecommons.org/ns#" xmlns:dc="http://purl.org/dc/elements/1.1/"><path d="m127.2 249.5c9.986-7.841 21.29-11.01 33.92-9.488 12.63 1.517 22.87 7.27 30.71 17.26 7.975 10.16 11.2 21.54 9.682 34.17s-7.27 22.87-17.26 30.7c-9.988 7.847-21.3 11-33.92 9.49-12.63-1.519-22.93-7.357-30.9-17.51-7.843-9.983-11.01-21.29-9.487-33.92 1.518-12.63 7.271-22.87 17.26-30.71zm63.34 80.65c12.32-9.673 19.4-22.23 21.26-37.69 1.857-15.45-2.052-29.34-11.72-41.65-9.542-12.15-22.04-19.15-37.49-21.01-15.45-1.862-29.34 2.046-41.65 11.72-12.15 9.541-19.2 22.07-21.14 37.59-1.941 15.52 1.858 29.35 11.4 41.5 9.672 12.31 22.28 19.37 37.81 21.16 15.54 1.794 29.38-2.081 41.53-11.62zm67.88-182.9c9.989-7.843 21.3-11.01 33.93-9.486 12.62 1.516 22.86 7.268 30.7 17.26 7.845 9.987 11.01 21.29 9.492 33.92-1.516 12.63-7.272 22.87-17.26 30.71-9.985 7.841-21.29 11-33.92 9.488-12.63-1.518-22.86-7.272-30.71-17.26-7.846-9.988-11.01-21.29-9.491-33.92 1.521-12.63 7.272-22.87 17.26-30.71zm-16.01 71.08c9.676 12.32 22.24 19.4 37.69 21.26s29.34-2.049 41.65-11.72c12.32-9.676 19.4-22.23 21.26-37.69 1.857-15.46-2.052-29.34-11.72-41.66-9.669-12.32-22.23-19.4-37.68-21.26-15.38-2.571-29.33 1.925-41.66 11.72-12.26 9.74-19.4 22.23-21.26 37.69-1.861 15.45 2.045 29.34 11.72 41.65zm-84.8-108.6c4.49-3.526 7.128-8.221 7.908-14.08.778-5.859-.664-11.12-4.322-15.78-3.662-4.662-8.428-7.307-14.3-7.934-5.881-.6335-11.06.8145-15.56 4.344-4.66 3.662-7.339 8.39-8.033 14.18-.701 5.799.783 11.02 4.443 15.68 3.657 4.662 8.385 7.341 14.18 8.037 5.795.697 11.02-.787 15.68-4.447zm-24.93 106 51.64-8.267 29.61 37.7c2.09 2.667 4.843 4.201 8.26 4.613 3.416.41 6.459-.429 9.121-2.52 2.665-2.093 4.2-4.847 4.612-8.265.408-3.416-.428-6.455-2.524-9.121l-36.85-46.93c-2.995-5.183-8.562-7.135-16.7-5.854l-29.34 5.302 5.016-39.86 24.07 8.544c4.052 1.389 7.491.976 10.32-1.249l32.4-25.5c4.993-3.919 5.793-8.043 2.395-12.37-3.403-4.328-7.598-4.53-12.59-.61l-27.96 21.96-40.77-14.4c-5.633-2.035-11.16-1.194-16.58 2.525-4.053 2.373-6.435 6.532-7.152 12.48l-7.555 62.85c-.535 4.457.698 8.595 3.705 12.43 4.314 5.487 9.929 7.671 16.84 6.541zm329.3-94.04s.387 249.2-.213 318.1c-145.5.717-411.7 0-411.7 0z"/></svg>
