<svg xmlns:rdf="http://www.w3.org/1999/02/22-rdf-syntax-ns#" xmlns="http://www.w3.org/2000/svg" viewBox="0 0 512 512" version="1.1" xmlns:cc="http://creativecommons.org/ns#" xmlns:dc="http://purl.org/dc/elements/1.1/">
 <g transform="translate(-6.004 118.7)">
  <path d="m114.8-28.24c1.5 89.08 34.5 146.8 47.1 264.1-29.8-82.4-75-166.9-93.38-189.8 10.12 86.5 82.78 174.9 89.18 297.1 71.67.356 127.2-.541 197 0 28.1-94.8 55.5-192.3 100.8-281.7-46.8 57.2-85.7 108.3-116 152.5 27.1-72 55-133.6 78.1-195.6-31.5 27.08-76.4 108.1-114.7 191.1 9.3-87.5 27-166.9 28.2-235.1-14.9 25.45-44.4 99.19-68.1 179.3-4.8-96.23-12.8-188.3-24.4-222.4 1.5 76.34-2.4 160.6-8 255.2-13.6-53.3-34.1-115.1-63.4-184.6 11.6 81.41 31.8 168.2 38.6 254.5-18.9-128.6-66.2-242-91-284.6z"/>
 </g>
</svg>
