<?xml version="1.0" encoding="UTF-8" standalone="no"?>
<svg xmlns:dc="http://purl.org/dc/elements/1.1/" xmlns:cc="http://creativecommons.org/ns#" xmlns:rdf="http://www.w3.org/1999/02/22-rdf-syntax-ns#" xmlns:svg="http://www.w3.org/2000/svg" xmlns="http://www.w3.org/2000/svg" id="svg4320" xml:space="preserve" enable-background="new 0 0 100 100" viewBox="0 0 512 512" height="512" width="512" y="0px" x="0px" version="1.1"><metadata id="metadata4350"><rdf:RDF><cc:Work rdf:about=""><dc:format>image/svg+xml</dc:format><dc:type rdf:resource="http://purl.org/dc/dcmitype/StillImage" /><dc:title></dc:title></cc:Work></rdf:RDF></metadata><defs id="defs4348" /><g transform="translate(0,412)" id="Captions" /><g transform="matrix(4.16067,0,0,4.16067,50.0022,99.59)" id="Your_Icon" /><path d="m 366.191,430.996 0,-86.101 43.158,0 0,-8.255 -10.53,0 0,-97.555 63.181,0 0,-10.51 -18.575,0 10.485,-7.51 -55.345,-83.821 -30.419,0 0,-7.464 c 7.606,-4.377 12.79,-12.961 12.79,-22.851 0,-14.3164 -10.863,-25.933 -24.257,-25.933 -13.401,0 -24.261,11.6083 -24.261,25.933 0,9.89 5.181,18.49 12.807,22.867 l 0,7.44 -30.406,0 -55.358,83.821 10.485,7.51 -18.573,0 0,10.505 63.175,0 0,124.567 -10.526,0 0,8.259 43.171,0 0,59.094 18.964,0 z m 32.374,-274.018 44.848,71.609 -44.848,0 z m -32.374,88.864 13.692,0 0,90.794 -13.692,0 z m -51.376,-17.271 -44.861,0 44.861,-71.609 z m 32.499,135.163 -13.706,0 0,-117.822 13.706,0 z M 190.154,295.1 274.579,428.932 204.043,288.397 Z M 56.8215,412.984 c 3.599,-4.635 3.599,-6.17 6.6862,-1.032 l 0,1.032 c 2.0679,0 3.6032,-1.032 5.1509,-1.032 0,4.132 3.0873,8.742 1.552,11.842 -2.0679,5.138 -4.635,3.099 -8.7541,2.067 -4.119,0 -5.6543,3.599 -9.2616,1.536 -5.1634,-3.603 0,-9.274 3.0705,-11.313 0,-1.032 0,-1.032 0.5326,-1.565 l 1.0235,-1.535 z m 55.5865,-30.889 c 5.671,3.1 3.1,1.032 6.187,7.71 -0.516,1.032 -0.516,1.564 -0.516,2.596 -1.036,0 -1.036,0.504 -1.036,0.504 0,5.138 0,7.734 -3.599,10.834 -3.087,2.039 -5.654,-1.564 -7.71,-1.564 -6.1865,-1.032 -13.3928,1.564 -10.3098,-7.735 1.036,-3.071 2.5713,-8.238 4.1191,-12.345 0.5157,-2.068 5.1507,-3.603 7.7227,-2.068 2.063,1.565 0.515,0.533 4.634,1.565 l 0.508,0.503 z m -8.234,-48.9 c 3.599,-5.138 1.548,-3.603 6.699,-5.138 l 0,0.499 c 0.503,0 7.722,0 8.238,2.571 3.083,4.664 7.202,8.263 6.17,14.413 -3.603,2.596 -1.535,1.56 -5.138,3.099 -9.274,9.275 -6.183,7.203 -13.909,1.032 -4.635,0 -2.064,0.504 -5.135,-2.571 -2.5834,-7.71 -2.5834,-3.599 0.5,-11.309 l 2.575,-2.596 z m 50.452,3.1 c -1.019,-0.5 -1.019,-1.561 -1.552,-2.064 l 0,-1.032 c 1.552,-4.639 0,-2.068 7.735,-3.603 3.071,-2.571 1.535,-1.535 6.674,-1.535 9.79,3.599 10.822,2.038 9.79,12.344 1.548,1.536 4.119,4.635 1.032,7.735 -2.584,2.039 -10.822,8.213 -14.425,6.674 -3.071,-1.535 -13.377,-4.635 -11.829,-9.274 4.119,-4.635 3.087,-2.039 3.087,-7.714 l -0.512,-1.531 z m 3.088,-48.901 c 2.583,-6.199 0.532,-5.138 6.702,-5.138 l 0,0.503 c 9.275,2.567 5.135,1.032 7.71,7.71 3.616,4.132 3.1,1.535 2.064,7.231 -5.134,3.071 -5.134,9.245 -12.345,6.674 -3.1,-0.528 -9.79,-4.635 -10.306,-7.735 0.516,-7.709 -1.535,-4.635 5.151,-7.709 l 1.024,-1.536 z m -4.64,-34.991 c 3.604,-5.167 1.552,-3.1 8.239,-3.632 0,0 0.516,0 1.031,0.532 3.604,1.536 2.068,0 3.604,4.606 -0.504,1.565 -0.504,3.599 -1.536,6.2 0,1.535 0,3.099 -0.532,4.635 l 0,0.499 c -1.02,0 -1.02,0 -1.02,1.036 -2.051,0 -3.599,0 -6.182,0.499 l 0,-0.499 c -6.171,-5.671 -3.071,-4.136 -8.23,-7.206 l -1.032,0 c 1.032,-1.565 1.032,-3.071 1.032,-4.635 l 0.52,0 c 1.032,-0.529 2.567,-0.529 3.083,-1.536 l 1.023,-0.499 z m 41.195,-6.707 c 2.068,-2.596 0,-1.564 6.171,-1.032 0.532,7.735 1.551,3.071 3.603,9.245 -0.504,0 0,0 -0.504,1.032 -4.635,3.1 -4.635,5.168 -10.306,5.168 0,-0.504 -0.503,-0.504 -0.503,-0.504 -1.548,-1.564 -3.1,-2.596 -4.635,-3.099 0,0 0,-0.504 -0.516,-1.032 0,-2.068 0.516,-5.168 0.516,-8.238 l 0,-1.032 c 1.535,0 3.087,0 4.635,-0.504 l 1.539,0 z m -71.051,170.891 148.273,14.409 -146.206,-29.849 z m 45.833,-44.265 96.253,53.007 -86.995,-65.88 z" id="path7848" /></svg>