<?xml version="1.0" encoding="utf-8"?>

<!-- License Agreement at http://iconmonstr.com/license/ -->

<!DOCTYPE svg PUBLIC "-//W3C//DTD SVG 1.1//EN" "http://www.w3.org/Graphics/SVG/1.1/DTD/svg11.dtd">
<svg version="1.1" xmlns="http://www.w3.org/2000/svg" xmlns:xlink="http://www.w3.org/1999/xlink" x="0px" y="0px"
	 width="512px" height="512px" viewBox="0 0 512 512" enable-background="new 0 0 512 512" xml:space="preserve">
<path id="tools-icon" d="M298.285,197.221l85.974-85.975c17.784-17.785,46.619-17.785,64.403,0
	c17.783,17.785,17.783,46.617,0,64.403l-85.975,85.973l-15.769-15.767l82.024-82.026c2.564-2.562,2.564-6.716,0-9.281
	c-2.561-2.561-6.715-2.561-9.278,0.002l-82.026,82.025l-13.498-13.499l82.023-82.027c2.563-2.562,2.563-6.716,0.002-9.279
	c-2.563-2.563-6.717-2.563-9.281,0l-82.025,82.025L298.285,197.221z M250.593,330.935l-63.186,63.188
	c-3.48,3.479-6.409,7.468-8.688,11.83l-4.612,8.83l-31.971,16.331l-12.649-12.649l15.64-32.664l8.83-4.611
	c4.362-2.276,8.352-5.207,11.83-8.688l63.186-63.187L250.593,330.935z M124.549,272.577L50,198.029l23.321-23.32
	c0,0,18.732,12.616,34.023-2.677c16.631-16.63,11.679-41.432,48.553-69.197c64.99-48.935,162.859-0.765,162.859-0.765
	c-77.786,7.772-110.979,42.55-78.821,74.707l10.851,10.851l-52.071,52.072c0,0-2.548-2.55-10.448-10.45
	c-14.146-14.146-27.654-17.204-38.484-6.372c-11.98,11.979-1.913,26.378-1.913,26.378L124.549,272.577z M263.195,200.038
	l-52.009,52.01l167.923,167.925c14.363,14.363,37.648,14.363,52.011-0.001c14.361-14.36,14.361-37.647,0-52.008L263.195,200.038z"/>
</svg>
