<svg xmlns:rdf="http://www.w3.org/1999/02/22-rdf-syntax-ns#" xmlns="http://www.w3.org/2000/svg" enable-background="new 0 0 100 100" xml:space="preserve" viewBox="0 0 512 512" version="1.1" y="0px" x="0px" xmlns:cc="http://creativecommons.org/ns#" xmlns:dc="http://purl.org/dc/elements/1.1/"><path d="m353.1 255.4h-193.2v89.22q0 43.65 2.198 57.3 2.198 13.37 10.92 19.92 9.004 6.549 33.83 6.549h9.548v12.55h-166.4v-12.55h9.548q23.74 0 32.74-6.002 9.276-6.005 11.73-18.56 2.72-12.82 2.72-59.21v-181.4q0-44.2-2.72-57.03-2.469-12.82-10.93-17.74-8.184-4.91-36.29-4.91h-6.821v-12.55h166.4v12.55h-6.821q-27.01 0-35.47 4.638-8.46 4.366-11.46 16.64-2.719 12.28-2.719 58.39v73.4h193.2v-73.4q0-44.2-2.459-57.03-2.458-12.82-10.91-17.74-8.188-4.91-36.29-4.91h-9.82v-12.55h168.3v12.55h-5.458q-27.28 0-35.74 4.638-8.46 4.366-11.46 16.64-2.719 12.28-2.719 58.39v181.4q0 43.65 1.9 57.3 2.198 13.37 11.19 19.92 9.004 6.549 33.83 6.549h8.456v12.55h-168.3v-12.55h12.82q23.47 0 32.47-6.002 9.276-6.005 11.73-18.56 2.458-12.82 2.458-59.21v-89.22z"/></svg>
