<svg xmlns="http://www.w3.org/2000/svg" xmlns:xlink="http://www.w3.org/1999/xlink" version="1.1" id="Layer_1" x="0px" y="0px" width="100px" height="69.945px" viewBox="-16.567 20.027 100 69.945" enable-background="new -16.567 20.027 100 69.945" xml:space="preserve">
<g>
	<rect x="24.27" y="75.042" width="18.328" height="14.931"/>
	<path d="M68.576,20.027H-1.711c-8.17,0-14.856,6.686-14.856,14.857v4.563v14.794V69.1h14.856h25.98h18.328h25.978h14.858V54.242   V39.448v-4.563C83.434,26.713,76.749,20.027,68.576,20.027z M0.901,28.407c5.339,0,9.702,4.366,9.702,9.706v21.575H-8.802V38.113   C-8.802,32.775-4.438,28.407,0.901,28.407z M73.521,52.357c0,1.27-1.045,2.307-2.309,2.307h-4.411   c-1.271,0-2.311-1.037-2.311-2.307v-7.243H30.532c-1.688,0-3.051-1.365-3.051-3.053c0-1.689,1.363-3.054,3.051-3.054h36.27h3.372   h1.037c1.265,0,2.309,1.034,2.309,2.305v11.045H73.521z"/>
</g>
</svg>