<?xml version="1.0" encoding="utf-8"?>
<!-- Generator: Adobe Illustrator 14.0.0, SVG Export Plug-In . SVG Version: 6.00 Build 43363)  -->
<!DOCTYPE svg PUBLIC "-//W3C//DTD SVG 1.0//EN" "http://www.w3.org/TR/2001/REC-SVG-20010904/DTD/svg10.dtd">
<svg version="1.0" id="Layer_1" xmlns="http://www.w3.org/2000/svg" xmlns:xlink="http://www.w3.org/1999/xlink" x="0px" y="0px"
	 width="88.562px" height="100px" viewBox="0 0 88.562 100" enable-background="new 0 0 88.562 100" xml:space="preserve">
<path id="maple_leaf_2_" d="M44.278,0l-7.733,15.081c-0.878,1.639-2.45,1.487-4.023,0.572l-5.6-3.032l4.173,23.165
	c0.878,4.232-1.938,4.232-3.327,2.403l-9.772-11.438l-1.587,5.809c-0.182,0.762-0.986,1.563-2.193,1.373L1.859,31.216l3.246,12.337
	c0.694,2.745,1.237,3.882-0.701,4.606L0,50.323l21.27,18.064c0.842,0.683,1.268,1.912,0.968,3.024l-1.862,6.389
	c7.324-0.884,13.89-1.674,21.214-2.555c0.65-0.009,1.729,0.569,1.724,1.354l-0.97,23.4h3.561l-0.56-23.35
	c-0.005-0.785,0.974-1.413,1.625-1.404c7.323,0.881,13.89,1.671,21.213,2.555l-1.86-6.389c-0.3-1.112,0.125-2.342,0.967-3.024
	l21.271-18.064l-4.405-2.164c-1.938-0.724-1.396-1.861-0.7-4.606l3.245-12.337l-12.356,2.717c-1.207,0.19-2.012-0.61-2.194-1.373
	l-1.587-5.809l-9.771,11.438c-1.39,1.83-4.205,1.83-3.327-2.403l4.173-23.165l-5.6,3.032c-1.572,0.916-3.145,1.067-4.022-0.572
	L44.278,0z"/>
</svg>
