<svg version="1.1" xmlns="http://www.w3.org/2000/svg" xmlns:xlink="http://www.w3.org/1999/xlink" x="0px" y="0px"
	 width="311px" height="217px" viewBox="0 0 311 217" style="enable-background:new 0 0 311 217;" xml:space="preserve">
 <title>White Mountain</title>
 <g>
  <title>Layer 1</title>
  <path id="svg_1" d="m309.003204,86l0.996796,0l0,1c-0.66452,0.666656 -0.996796,1.333344 -0.996796,2c-0.66449,0 -1.993561,0.333344 -3.987122,1l-2.990356,0l-0.996796,0c0,-0.666656 -3.322632,-3 -9.967834,-7c-6.645233,-4.666656 -12.625916,-8.333344 -17.942139,-11c-5.980682,-2 -11.296875,-4.333344 -15.948547,-7c-4.651642,-2.66666 -9.635559,-6 -14.951767,-10c-5.980698,-4 -10.96463,-6.66666 -14.951767,-8c-4.651642,-1.33334 -8.306549,-4 -10.96463,-8l-3.987137,-6l0,-1l-0.99678,0l0,0l0,-1l0,0l0,0l-0.99678,0l0,0l0,-1l-0.996796,0l0,0l0,-1l-0.99678,0l-0.99678,0l0,-1l0,0l-0.99678,0l0,-1l0,0l-0.996796,0l0.996796,10c0.664505,6 1.661285,9.66666 2.990341,11c1.993576,0.66666 4.319412,1.66666 6.977493,3c3.322632,1.33334 5.648438,3.66666 6.977493,7c1.993576,3.33334 3.987137,5.333344 5.980713,6c1.329056,0.666656 2.325836,1 2.990356,1l0.99678,0l0.99678,1l0.99678,1l0,0l0,0l0.996796,0l0,0l0,1l0.99678,0l0,0l0,1l-0.99678,0l-0.996796,0l-3.987137,1c-2.658081,0.666656 -4.983917,1 -6.977493,1c-1.993561,0 -5.648422,0.333344 -10.96463,1l-6.977478,1l-0.996796,-1l-0.99678,-1l0,0l-0.99678,0l0,-2c0,-1.333344 0.99678,-2.666656 2.990356,-4l2.990341,-2l0,-1l0,-1l-0.99678,0l0,0l-0.99678,-1c-0.66452,-0.66666 -2.658081,-1.66666 -5.980713,-3c-3.322617,-1.33334 -5.648438,-5 -6.977493,-11l-2.990356,-8l0,0l0,-1l0,0l0,0l-0.99678,0l0,0l-0.99678,-1l-1.993576,0l0,1l0,1l-0.99678,1l-0.99678,2l-4.983932,18c-3.322617,12.666656 -7.641998,22.666656 -12.958191,30c-4.651657,6.666656 -9.303329,13.666656 -13.954987,21c-3.987137,6.666656 -6.645218,11.666656 -7.974274,15c-1.329056,2.666656 -1.993576,5 -1.993576,7l0,3l-0.99678,1l-0.99678,1l0,0l0,0l0,0l-0.99678,0l0,0l-0.996796,0l0,-5c0,-3.333344 1.329056,-8.333344 3.987137,-15c2.658081,-7.333344 6.312988,-14.666656 10.96463,-22c4.651657,-7.333344 8.306549,-14.666656 10.96463,-22l3.987137,-12l0,-3l0,-3l-0.99678,0l0,0l-1.993561,0l-1.993576,0l0,0l-0.99678,0l0,0l0,0l-0.99678,1l-0.996796,1l0,0l0,0l-0.99678,0l0,0l0,1l-0.99678,0l-2.990356,7c-1.993576,4.666656 -5.648438,14 -10.96463,28c-5.316193,14 -11.62915,27.666656 -18.938904,41c-7.309769,12.666656 -14.951782,23.666656 -22.926056,33c-7.309753,8 -13.954987,14 -19.935684,18c-5.980698,4 -12.625931,7.333344 -19.935684,10c-6.645233,2.666656 -10.30011,4.333344 -10.96463,5l-0.996796,1l-0.996796,0l-0.996765,0l0,1l0,0l-0.996796,0l0,1l-0.996796,0l-1.993561,0l0,1l0,0l0,-1l0,-1l0,0l0,-1l0,0l0,0l0.996796,0l0,0l0,-1l0.996765,0l0,0l0,-1l0,0l0,0l0.996796,0l0,0l0,-1l0.996796,0l0,0l0,-1l0,0l0,0l0.996765,0l0,0l0,-1c0.664551,0 7.309753,-4.333344 19.935699,-13c13.290466,-9.333344 21.596985,-15.666656 24.919617,-19c3.987152,-3.333344 8.638794,-9.666656 13.954987,-19c5.316193,-9.333344 9.96785,-18 13.954987,-26c2.658081,-7.333344 1.661285,-13.666656 -2.990356,-19c-5.316193,-6 -9.635574,-9 -12.958191,-9c-2.658081,0 -5.648438,0.666656 -8.971069,2c-3.322632,1.333344 -5.980713,4 -7.974274,8c-1.993561,4 -5.648438,14.666656 -10.96463,32l-7.974274,25l-0.996796,1l-0.996796,2l0,2l0,1l-0.996765,0l0,1l0,0l-0.996796,0l0,-2l0,-2l0.996796,-3l0.996765,-3l0,-2l0,-1l-0.996765,0l0,1l0,0l-0.996796,0l0,0l0,0l0,1l0,0l-0.996765,1l-0.996796,1l0,0l0,1l0,0l0,0l-0.996796,0l0,0l0,1l-0.996765,0l-3.987152,6c-3.322601,4.666656 -4.983917,7 -4.983917,7l-0.996796,0l0,0l0,0l0,1l0,0l-0.996765,0l0,1l-1.993591,0l-1.993561,0l-0.996796,1l-0.996765,1l-0.996796,0l-0.996765,0l0,-1l0.996765,0l0,-1l0,-1l0.996796,0l0,-1l0,0l0.996765,0l0,-1l0,-1l0.996796,-1c0.66452,-0.666656 3.987152,-6.666656 9.967865,-18c5.980682,-11.333344 9.635559,-19 10.9646,-23l1.993591,-5l0,-2l0,-2l-0.996796,0l0,-1l-0.996796,0l-0.996765,0l0,1l-0.996796,0l0,1l0,1l-0.996765,0l0,1l0,0l-0.996796,0l0,1l0,1l-17.942139,32c-11.961395,21.333344 -18.606628,33 -19.935669,35c-1.329041,2 -1.993561,3 -1.993561,3l0,1l0,0l0,0l-0.996796,0l0,1l0,0l-0.996796,0l0,1l0,1l-0.996765,0l0,0l0,1l-0.996796,0l0,1l0,1l-0.996796,0l0,1l-4.983917,4c-3.987122,4 -5.980713,6 -5.980713,6l0,0l-0.996765,0l0,0l0,1l-0.996796,0l0,0l0,1l0,0l0,0l-0.996796,0l0,0l0,1l-0.996765,0l0,0l0,1l0,0l0,0l-0.996796,0l0,0l-0.996765,1l-0.996796,1l0,0l-0.996796,0l0,0l0,0l-0.996765,1l-0.996796,0l0,-1l0,-1l0.996796,0l0.996765,0l0,-1l0,-1l0.996796,-1l0.996796,-1l0,0l0,-1l0,0l0,0l0.996765,0c0,0 0,-0.333344 0,-1c0.66452,0 2.990356,-3 6.977509,-9c3.987122,-6.666656 8.971039,-16 14.951752,-28l8.971069,-17l0,0l0,0l0.996796,-1l0.996765,-1l0,-1l0,-1l0.996796,0l0,-1l0,0l0.996796,0l0,-1c0,-0.666656 4.651642,-10.333344 13.954956,-29c9.303345,-18.666656 14.951782,-29.333344 16.945343,-32c2.658081,-2.666656 4.983917,-4 6.977509,-4c2.658081,0 4.983917,-1.666656 6.977478,-5c1.993576,-2.666656 4.983917,-7 8.971069,-13c3.987137,-6 6.645218,-9.66666 7.974274,-11l2.990356,-1l0.99678,0l0.99678,0l2.990356,1c1.329056,1.33334 4.651642,5.33334 9.96785,12c3.987137,6.666656 6.645218,11 7.974274,13c1.329056,1.333344 2.325836,2 2.990356,2l0.99678,0l0,1l0,0l0.99678,1l0.996796,1l0,0l0,1l0,0l0,0l0.99678,0l0,0l0.99678,0l0.99678,0l0,0l0.996796,0l0,-2l0,-1l6.977493,-15c4.651642,-10 8.306549,-16.66666 10.96463,-20c3.322617,-2.66666 6.645218,-5.66666 9.967834,-9c3.987137,-3.33334 9.303345,-9.66666 15.948563,-19c6.645218,-9.33333 10.632355,-14.66667 11.961411,-16c1.993576,-1.33333 4.651657,-2.66667 7.974274,-4c3.322632,0 7.309769,1.66667 11.961411,5c3.987152,3.33333 8.638794,7 13.954987,11c3.987137,4.66666 8.306549,10 12.958206,16c4.651642,6.66666 9.303329,12 13.954987,16c5.316177,4 13.290451,9.33334 23.922836,16c10.632355,6.666656 18.274384,11.333344 22.926025,14c3.987152,4 6.312988,6 6.977509,6c0.66449,0 0.996765,0.333344 0.996765,1z" />
 </g>

<head/></svg>