<svg xmlns:rdf="http://www.w3.org/1999/02/22-rdf-syntax-ns#" xmlns="http://www.w3.org/2000/svg" enable-background="new -13.325 -3.793 100 100" xml:space="preserve" overflow="visible" height="100px" width="100px" version="1.1" y="0px" x="0px" xmlns:cc="http://creativecommons.org/ns#" xmlns:dc="http://purl.org/dc/elements/1.1/" viewBox="-13.325 -3.793 100 100"><path d="m68.14 45.96c-.706-2.258-1.286-4.528-1.809-6.811.173-6.343-.538-14.02-1.812-18.18-2.457-7.53-7.48-11.23-14.43-15.3l-1.508-4.25c-.561.613-1.028 1.295-1.456 2.005-4.43-4.055-13.22-3.725-18.5-2.925-8.22 1.176-15.6 5.032-19.46 12.41-3.019 5.871-4.025 11.91-4.025 18.45.153 3.222-.093 6.854 1.399 9.761-.401 1.616-.83 3.227-1.331 4.831-2.347 7.379-4.863 14.59-5.199 22.31-.167 6.541 1.51 14.09 7.381 17.95 4.192 2.85 11.4 5.366 16.27 6.205-1.006-3.355-3.355-6.708-3.019-10.23 2.852 1.006 5.199 3.522 8.387 3.856.67-1.677-.169-3.689-.503-5.199 2.013.336 3.354 2.013 5.366 2.349.932-3.882-1.852-9.324-3.07-13.31-11.01-3.463-19.27-16.73-20.09-29.98 2.131-1.592 3.894-3.662 5.649-5.527 0 1.174 0 2.347.336 3.522 4.193-1.51 7.212-4.362 10.4-7.214.334 1.679.167 3.522.67 5.201 7.439-3.383 13.65-11.09 16.89-19.39.354 6.239 2.095 12.67 3.575 17.11 2.079 6.469 6.069 13.49 11.58 18.28-3.441 8.379-9.696 15.29-17.26 17.82-1.195 3.996-4.066 9.531-3.121 13.47 2.013-.336 3.355-2.013 5.368-2.349-.336 1.51-1.174 3.522-.503 5.199 3.186-.334 5.534-2.851 8.387-3.856.334 3.522-2.013 6.875-3.02 10.23 4.863-.839 12.08-3.355 16.27-6.205 5.871-3.858 7.548-11.41 7.38-17.95-.35-7.7-2.86-14.92-5.21-22.29z"/></svg>
