<svg xmlns:rdf="http://www.w3.org/1999/02/22-rdf-syntax-ns#" xmlns="http://www.w3.org/2000/svg" version="1.1" xmlns:cc="http://creativecommons.org/ns#" xmlns:dc="http://purl.org/dc/elements/1.1/" viewBox="0 0 512 512">
 <path d="m342.6 134.6q12.13 0 20.62-8.493 8.493-8.493 8.493-20.62t-8.493-20.63q-8.493-8.493-20.62-8.493-11.65 0-20.38 8.493-8.735 8.493-8.735 20.63 0 12.13 8.493 20.62 8.492 8.493 20.62 8.493zm93.66-66-71.82 72.31h-42.71l-72.31-72.31q-4.368-4.368-10.68-4.368-15.04 0-15.04 15.04 0 5.824 4.368 9.706l75.71 76.19v250.9q0 6.794 4.61 11.65 4.61 4.853 11.4 4.853 16.5 0 16.5-16.5v-136.4h13.1v136.4q0 6.794 4.853 11.65 4.853 4.853 11.65 4.853 6.794 0 11.65-4.853 4.853-4.853 4.853-11.65v-250.9l75.71-76.19q3.883-3.882 3.883-9.706 0-15.04-14.56-15.04-6.309 0-11.16 4.368zm-186.4 265q4.368 4.368 11.16 4.368 14.56 0 14.56-14.56 0-6.309-4.367-10.19l-60.66-61.15q-7.279-7.28-17.47-7.28h-60.66q-10.19 0-16.99 7.28l-61.15 61.15q-4.368 3.883-4.368 9.706 0 15.04 15.04 15.04 6.309 0 10.68-4.368l47.56-47.56v63.57h-53.38q-7.28 0-12.38 5.096-5.096 5.095-5.096 12.38 0 7.279 5.338 12.62l59.69 60.18q5.338 7.764 15.04 7.764 7.279 0 12.62-5.338 5.338-5.338 5.338-12.62 0-4.853-2.427-9.22l-33.48-33.97h98.03l-33.97 33.97q-2.426 4.367-2.426 9.22 0 7.28 5.096 12.62 5.095 5.338 12.86 5.338 9.706 0 15.04-7.764l59.69-59.69q5.338-5.339 5.338-13.1 0-7.28-5.095-12.38-5.096-5.096-12.38-5.096h-53.38v-62.6zm-86.38-95.12q12.13 0 20.62-8.493 8.493-8.492 8.493-20.62t-8.493-20.62q-8.492-8.493-20.62-8.493t-20.62 8.493q-8.493 8.493-8.493 20.62t8.493 20.62q8.493 8.493 20.62 8.493z"/>
</svg>
