<?xml version="1.0" encoding="utf-8"?>

<!-- License Agreement at http://iconmonstr.com/license/ -->

<!DOCTYPE svg PUBLIC "-//W3C//DTD SVG 1.1//EN" "http://www.w3.org/Graphics/SVG/1.1/DTD/svg11.dtd">
<svg version="1.1" xmlns="http://www.w3.org/2000/svg" xmlns:xlink="http://www.w3.org/1999/xlink" x="0px" y="0px"
	 width="512px" height="512px" viewBox="0 0 512 512" enable-background="new 0 0 512 512" xml:space="preserve">
<path id="wrench-icon" d="M447.087,375.073L281.4,209.387c-11.353-11.353-17.2-27.142-15.962-43.149
	c2.345-30.325-8.074-61.451-31.268-84.644c-30.191-30.19-73.819-38.74-111.629-25.666l68.646,68.647
	c1.576,26.781-39.832,68.188-66.612,66.612l-68.646-68.646c-13.076,37.81-4.525,81.439,25.665,111.629
	c23.193,23.194,54.319,33.612,84.645,31.268c16.024-1.239,31.785,4.598,43.15,15.962l165.687,165.686
	c19.885,19.886,52.126,19.886,72.013,0C466.972,427.2,466.972,394.959,447.087,375.073z M408.597,428.96
	c-11.589,0-20.985-9.396-20.985-20.987c0-11.59,9.396-20.985,20.985-20.985c11.59,0,20.987,9.396,20.987,20.985
	C429.584,419.564,420.187,428.96,408.597,428.96z"/>
</svg>
