<?xml version="1.0" encoding="UTF-8" standalone="no"?>
<svg xmlns:dc="http://purl.org/dc/elements/1.1/" xmlns:cc="http://creativecommons.org/ns#" xmlns:rdf="http://www.w3.org/1999/02/22-rdf-syntax-ns#" xmlns:svg="http://www.w3.org/2000/svg" xmlns="http://www.w3.org/2000/svg" id="svg4320" version="1.1" viewBox="0 0 512 512">
    <metadata id="metadata4332">
        <rdf:RDF>
            <cc:Work rdf:about="">
                <dc:format>image/svg+xml</dc:format>
                <dc:type rdf:resource="http://purl.org/dc/dcmitype/StillImage" />
                <dc:title></dc:title>
            </cc:Work>
        </rdf:RDF>
    </metadata>
    <defs id="defs4330" />
    <g id="g4322" transform="matrix(0.966542,0,0,1,187.166,-50.2464)" />
    <path id="path7848" d="m 387.857,376.384 0,-59.231 29.69,0 0,-5.678 -7.244,0 0,-67.11 43.461,0 0,-7.228 -12.778,0 7.214,-5.166 -38.072,-57.66 -20.926,0 0,-5.135 c 5.234,-3.012 8.8,-8.916 8.8,-15.72 0,-9.848 -7.475,-17.84 -16.688,-17.84 -9.218,0 -16.688,7.987 -16.688,17.84 0,6.803 3.564,12.72 8.809,15.73 l 0,5.119 -20.916,0 -38.082,57.661 7.214,5.165 -12.778,0 0,7.228 43.46,0 0,85.69 -7.243,0 0,5.68 29.7,0 0,40.651 c 0,0 0,0 13.045,0 z m 22.272,-188.5 30.851,49.26 -30.851,0 z m -22.272,61.13 9.42,0 0,62.459 -9.42,0 z m -35.341,-11.88 -30.86,0 30.86,-49.26 z m 22.357,92.98 -9.429,0 0,-81.05 9.429,0 z m -117.602,46.239 c 0,0 0.536,0 0,-11.274 l 0,-16.45 0,-2.323 c 10.671,0.155 21.38,0.271 32.07,0.426 -0.113,-6.117 -0.187,-12.23 -0.262,-18.34 -2.02,0.08 -4.024,0.155 -6.044,0.232 1.036,-18.4 2.048,-36.8 3.061,-55.19 0,-0.523 0,-1.034 0.112,-1.572 -2.784,-2.985 -5.564,-5.986 -8.345,-8.975 -0.224,-0.271 -0.299,-1.247 -0.381,-1.587 -0.382,-1.514 -0.734,-3.028 -1.086,-4.542 -2.683,-11.13 -5.362,-22.27 -8.045,-33.39 -1.872,-7.755 -3.742,-15.5 -5.613,-23.26 -0.08,-0.348 -2.833,-0.422 -3.163,-0.468 l -8.119,-1.019 c -2.706,-0.348 -5.389,-0.65 -8.095,-0.89 -15.958,-1.402 -31.8,-2.548 -47.805,-2.803 -14.943,-0.233 -29.876,-0.581 -44.809,0.155 -15.214,0.778 -30.495,1.3 -45.65,3.058 -3.799,0.453 -7.5928,0.821 -11.4057,1.173 -1.5715,0.155 -3.1879,0.426 -4.767,0.597 -0.5201,0.08 -3.5546,0.04 -3.7043,0.638 -1.9728,8.212 -3.9485,16.42 -5.9092,24.62 -2.6454,10.98 -5.273,21.97 -7.9072,32.95 -0.3368,1.371 -0.6698,2.745 -0.9841,4.12 -0.1497,0.522 -0.1497,0.991 -0.5201,1.343 -1.7334,1.785 -3.477,3.566 -5.2244,5.351 -0.4256,0.453 -2.7689,2.238 -2.7315,2.931 0.9841,18.77 1.9719,37.54 2.956,56.32 0.037,0.348 0.037,0.708 0.037,1.049 -2.0505,-0.271 -4.101,-0.484 -6.1599,-0.708 -0.1861,6.14 -0.3741,12.32 -0.5416,18.48 l 32.9302,0.271 0,29.07 c 99.0454,0.09 67.0594,-0.01 166.1044,0 z M 88.4052,272.603 c -0.4041,0 -0.8082,0.04 -1.2021,0.04 2.9869,-18.87 5.9728,-37.75 8.9671,-56.611 0.2994,-2.122 0.6586,-4.247 0.9991,-6.357 0.5725,0.565 1.9653,-0.08 2.6571,-0.194 0.7746,-0.155 1.5836,-0.04 2.3686,-0.116 1.946,-0.155 3.881,-0.31 5.804,-0.523 3.481,-0.348 6.942,-0.495 10.439,-0.724 7.855,-0.522 15.735,-0.836 23.584,-1.541 3.656,-0.309 7.338,-0.348 11.009,-0.348 3.502,0 6.994,-0.387 10.487,-0.41 7.233,-0.08 14.488,-0.117 21.708,0 15.339,0.271 30.727,0.681 45.998,2.179 4.124,0.411 8.217,0.852 12.343,1.29 1.825,0.193 3.644,0.437 5.466,0.666 0.682,0.08 2.253,-0.194 2.381,0.623 1.414,8.862 2.81,17.72 4.199,26.58 l 5.538,34.95 c -14.266,0.04 -28.513,0.08 -42.75,0.155 l -57.596,0.233 -4.301,0 c -0.43,0 -1.773,-3.81 -1.971,-4.248 -0.506,-1.119 -1.328,-4.386 -2.467,-4.754 -3.806,-1.189 -7.563,-2.462 -11.444,-3.272 -1.743,-0.348 -3.555,-0.948 -5.314,-1.033 -2.331,-0.117 -4.644,-0.233 -6.956,-0.31 -7.264,-0.349 -14.547,1.386 -21.525,3.357 -0.786,0.232 -1.467,0.437 -2.201,0.778 -0.262,0.116 -2.305,0.778 -2.391,0.948 l -3.0349,6.71 c -0.075,0.155 -0.6323,1.711 -0.7932,1.711 -0.7334,0.04 -1.4677,0.04 -2.2002,0.08 -2.6117,0.04 -5.1898,0.116 -7.7978,0.193 z m 28.6088,92.041 c 0,-5.606 0.08,-10.481 0.15,-16.06 0,-1.899 0,-1.558 1.62,-1.558 l 7.234,0 c 35.443,-0.04 74.472,-0.271 105.353,-0.271 l 0,19.04 -114.342,-1.091 z M 127.83,254.853 c 7.881,0 14.285,-6.625 14.285,-14.79 0,-8.181 -6.402,-14.8 -14.285,-14.8 -7.907,0 -14.314,6.624 -14.314,14.8 0,8.169 6.402,14.79 14.314,14.79 z" />
</svg>
