<?xml version="1.0" encoding="utf-8"?>
<!-- Generator: Adobe Illustrator 16.0.0, SVG Export Plug-In . SVG Version: 6.00 Build 0)  -->
<!DOCTYPE svg PUBLIC "-//W3C//DTD SVG 1.1//EN" "http://www.w3.org/Graphics/SVG/1.1/DTD/svg11.dtd">
<svg version="1.1"
	 id="svg2" inkscape:version="0.48.2 r9819" sodipodi:docname="ring.svg" xmlns:rdf="http://www.w3.org/1999/02/22-rdf-syntax-ns#" xmlns:cc="http://creativecommons.org/ns#" xmlns:sodipodi="http://sodipodi.sourceforge.net/DTD/sodipodi-0.dtd" xmlns:dc="http://purl.org/dc/elements/1.1/" xmlns:inkscape="http://www.inkscape.org/namespaces/inkscape" xmlns:svg="http://www.w3.org/2000/svg"
	 xmlns="http://www.w3.org/2000/svg" xmlns:xlink="http://www.w3.org/1999/xlink" x="0px" y="0px" width="69.378px" height="100px"
	 viewBox="16.515 -1.305 69.378 100" enable-background="new 16.515 -1.305 69.378 100" xml:space="preserve">
<path id="path3007" inkscape:connector-curvature="0" d="M63.496,31.59c-6.344,4.657-12.07,8.729-12.466,8.729
	c-0.395,0-6.057-4.016-12.348-8.633c-12.966,5.02-22.167,17.599-22.167,32.333c0,19.15,15.532,34.677,34.69,34.677
	c19.156,0,34.688-15.525,34.688-34.677C85.894,49.193,76.589,36.547,63.496,31.59L63.496,31.59z M51.205,40.422
	c13.037,0,23.605,10.563,23.605,23.596c0,13.035-10.568,23.605-23.605,23.605c-13.04,0-23.606-10.57-23.606-23.605
	C27.599,50.985,38.166,40.422,51.205,40.422L51.205,40.422z"/>
<path id="path2998" sodipodi:nodetypes="ssssss" inkscape:connector-curvature="0" inkscape:transform-center-y="10.286554" d="
	M51.025,39.374c-0.905,0-29.67-21.286-29.95-22.164S31.783-0.355,32.516-0.898c0.733-0.542,36.288-0.542,37.02,0
	c0.733,0.543,11.721,17.231,11.44,18.108C80.697,18.088,51.933,39.374,51.025,39.374z"/>
</svg>
