<svg xmlns:rdf="http://www.w3.org/1999/02/22-rdf-syntax-ns#" xmlns="http://www.w3.org/2000/svg" enable-background="new -1 -1.167 100 100" xml:space="preserve" overflow="visible" height="512" width="512" version="1.1" y="0px" x="0px" xmlns:cc="http://creativecommons.org/ns#" xmlns:dc="http://purl.org/dc/elements/1.1/" viewBox="-1 -1.167 512 512"><path d="m255 144.6c-6.899 0-12.49-5.587-12.49-12.49v-70.75c0-6.894 5.587-12.49 12.49-12.49 6.895 0 12.48 5.592 12.48 12.49v70.75c0 6.895-5.587 12.48-12.48 12.48z"/><path d="m255 460.8c-6.899 0-12.49-5.587-12.49-12.49v-70.74c0-6.895 5.587-12.49 12.49-12.49 6.895 0 12.48 5.591 12.48 12.49v70.75c0 6.895-5.587 12.48-12.48 12.48z"/><path d="m448.5 267.3h-70.75c-6.894 0-12.49-5.583-12.49-12.48 0-6.895 5.592-12.49 12.49-12.49h70.75c6.895 0 12.49 5.591 12.49 12.49s-5.596 12.48-12.49 12.48z"/><path d="m132.2 267.3h-70.75c-6.86 0-12.45-5.6-12.45-12.5 0-6.894 5.587-12.49 12.48-12.49h70.75c6.894 0 12.49 5.592 12.49 12.49 0 6.895-5.592 12.48-12.49 12.48z"/><path d="m391.8 404.2c-3.195 0-6.39-1.219-8.829-3.658l-50-50c-4.877-4.877-4.877-12.78 0-17.65 4.872-4.877 12.78-4.877 17.65 0l50.03 50.02c4.877 4.877 4.877 12.78 0 17.65-2.434 2.439-5.633 3.658-8.828 3.658z"/><path d="m168.2 180.5c-3.191 0-6.386-1.219-8.824-3.659l-50.03-50.02c-4.876-4.873-4.876-12.78 0-17.65 4.877-4.876 12.78-4.876 17.66 0l50.03 50.02c4.877 4.872 4.877 12.78 0 17.66-2.442 2.436-5.637 3.655-8.832 3.655z"/><path d="m118.2 404.2c-3.195 0-6.39-1.219-8.829-3.657-4.876-4.873-4.876-12.78 0-17.65l50.02-50.02c4.876-4.876 12.78-4.876 17.65 0 4.877 4.873 4.877 12.77 0 17.65l-50.02 50.03c-2.43 2.438-5.629 3.657-8.825 3.657z"/><path d="m341.8 180.5c-3.195 0-6.395-1.219-8.829-3.658-4.876-4.873-4.876-12.78 0-17.66l50.02-50.03c4.876-4.881 12.78-4.881 17.65 0 4.877 4.872 4.877 12.78 0 17.65l-50.02 50.03c-2.438 2.443-5.629 3.662-8.824 3.662z"/><path d="m255 336.2c-44.88 0-81.39-36.52-81.39-81.4s36.52-81.4 81.39-81.4c44.88 0 81.39 36.52 81.39 81.4s-36.51 81.4-81.39 81.4zm0-137.8c-31.11 0-56.43 25.31-56.43 56.42s25.31 56.43 56.43 56.43c31.11 0 56.42-25.31 56.42-56.43s-25.31-56.42-56.42-56.42z"/></svg>
