<svg xmlns:rdf="http://www.w3.org/1999/02/22-rdf-syntax-ns#" xmlns="http://www.w3.org/2000/svg" version="1.1" xml:space="preserve" enable-background="new 0 0 100 100" y="0px" x="0px" xmlns:cc="http://creativecommons.org/ns#" xmlns:dc="http://purl.org/dc/elements/1.1/" viewBox="0 0 512 512"><path d="m429.9 436.7h-314.3v13.21h314.3q13.21 0 22.65-9.438 9.438-9.438 9.438-22.65h-12.74q0 8.023-5.663 13.45t-13.68 5.427zm-74.56-311.5q12.74 0 22.18-9.202 9.438-9.202 9.438-22.42 0-13.21-9.438-22.42-9.438-9.202-22.18-9.202-13.21 0-22.42 9.202-9.202 9.202-9.202 22.42 0 13.21 9.202 22.42 9.202 9.202 22.42 9.202zm-207.6 283.1q5.191 4.719 12.74 4.719 8.494 0 17.93-6.606l-9.438-9.91q-4.247 2.831-8.022 2.831-3.776 0-5.663-1.887l-.472-.472-104.8-105.2v18.4zm10.38-210h-107.1v12.74h107.1v-12.74zm181.2 219.9 122.2-245.4-12.27-5.191-123.6 250.6h13.68zm-245.9-144.3q-8.966 0-15.1 5.663-6.135 5.662-6.135 14.63 0 8.495 6.135 14.39 6.135 5.899 14.63 5.899h85.41q5.191 0 9.438-.944 10.85-1.887 15.1-6.606l42-46.72 49.08 47.19-19.82 88.24q-.944 2.831-.944 4.719 0 8.494 6.135 14.63 6.134 6.135 14.63 6.135 16.04 0 19.82-16.52l24.07-107.1q4.247-16.99-3.775-25.01l-42.94-42.94 46.72-54.27 30.2 30.2q4.719 4.719 10.85 4.719 8.023 0 15.57-7.078l49.08-49.08q3.775-4.719 3.775-10.38 0-7.078-4.955-11.8-4.955-4.719-11.56-4.719-6.606 0-10.38 3.775l-40.58 40.58-49.08-49.08q-5.663-5.663-14.16-5.663h-76.92q-7.079 0-12.27 5.663l-52.85 60.88q-5.663 4.719-5.663 11.8 0 6.607 4.719 11.33 4.719 4.719 11.33 4.719 7.078 0 12.27-5.663l49.08-57.1 28.31.472-108.1 125.5z"/></svg>
