<svg xmlns:rdf="http://www.w3.org/1999/02/22-rdf-syntax-ns#" xmlns="http://www.w3.org/2000/svg" version="1.1" xmlns:cc="http://creativecommons.org/ns#" xmlns:dc="http://purl.org/dc/elements/1.1/" viewBox="0 0 512 512">
 <path d="m213.6 91h14.73v-14.73h-152.6v42.62l137.9-11.58v-16.31zm78.4 28.94q14.73 0 25-10.26 10.26-10.26 10.26-24.47 0-14.73-10.26-24.99t-25-10.26q-14.21 0-24.73 10.26t-10.52 24.99q0 14.21 10.52 24.47t24.73 10.26zm63.14-1.579q-7.366-7.893-17.89-7.893-11.05 0-18.42 7.893l-51 51.1-36.8-37.4q-6.314-6.314-14.21-6.314-16.84 0-16.84 17.36 0 6.841 4.736 11.58l48.94 48.94q5.262 5.789 12.63 5.789 8.419 0 13.68-6.315l28.42-28.42 70.51 71.04v187.9q0 12.1 8.42 20.26 8.419 8.157 20.52 8.157 11.58 0 20-8.157 8.419-8.156 8.419-20.26v-227.8q0-6.84-4.736-11.58zm-172.1 78.93-12.1-68.41q-1.052-5.788-7.366-5.788-6.315 0-7.367 6.314l-11.58 67.88v263.1h100.5v-37.36h-62.09v-225.7z"/>
</svg>
