<svg xmlns:rdf="http://www.w3.org/1999/02/22-rdf-syntax-ns#" xmlns="http://www.w3.org/2000/svg" version="1.1" xmlns:cc="http://creativecommons.org/ns#" xmlns:dc="http://purl.org/dc/elements/1.1/" viewBox="0 0 512 512">
 <path d="m183.9 130q24.72 0 35.9-17.07 11.77 17.07 35.32 17.07 24.72 0 35.9-17.07 11.77 17.07 35.32 17.07 18.84 0 29.43-10.01l6.475-41.79q-12.95 19.42-35.9 19.42-22.37 0-35.32-18.84-12.36 18.84-35.9 18.84-22.37 0-35.32-18.84-12.36 18.84-35.9 18.84-20.6 0-33.55-17.07l5.886 40.61q10.01 8.829 27.66 8.829zm183.1 332 64.16-412-42.97.5886-58.86 367.9h-146l-58.86-367.9-43.56-.5886 64.75 412h221.3z"/>
</svg>
