<?xml version="1.0" encoding="UTF-8" standalone="no"?>
<svg xmlns:dc="http://purl.org/dc/elements/1.1/" xmlns:cc="http://creativecommons.org/ns#" xmlns:rdf="http://www.w3.org/1999/02/22-rdf-syntax-ns#" xmlns:svg="http://www.w3.org/2000/svg" xmlns="http://www.w3.org/2000/svg" xmlns:sodipodi="http://sodipodi.sourceforge.net/DTD/sodipodi-0.dtd" xmlns:inkscape="http://www.inkscape.org/namespaces/inkscape" enable-background="new 0 0 100 83.899" xml:space="preserve" viewBox="0 0 512 512" version="1.1" y="0px" x="0px" id="svg4320" inkscape:version="0.91pre2+osxmenu r12825" sodipodi:docname="winter.svg"><metadata id="metadata4328"><rdf:RDF><cc:Work rdf:about=""><dc:format>image/svg+xml</dc:format><dc:type rdf:resource="http://purl.org/dc/dcmitype/StillImage" /><dc:title></dc:title></cc:Work></rdf:RDF></metadata><defs id="defs4326" /><sodipodi:namedview pagecolor="#ffffff" bordercolor="#666666" borderopacity="1" objecttolerance="10" gridtolerance="10" guidetolerance="10" inkscape:pageopacity="0" inkscape:pageshadow="2" inkscape:window-width="640" inkscape:window-height="480" id="namedview4324" showgrid="false" inkscape:zoom="0.855469" inkscape:cx="125.662" inkscape:cy="256" inkscape:current-layer="svg4320" /><path d="m 443.939,228.734 -42.299,0.06 8.417,-14.005 c 5.36,-8.917 2.855,-20.717 -5.595,-26.355 -8.466,-5.672 -19.66,-3.008 -25.009,5.883 l -20.75,34.544 -71.298,0.108 35.618,-65.988 49.189,-2.821 c 10.021,-0.569 17.68,-9.56 17.12,-20.128 -0.536,-10.538 -9.063,-18.631 -19.08,-18.041 l -25.908,1.464 11.409,-21.129 c 4.948,-9.1686 1.912,-20.8226 -6.781,-26.0705 -8.705,-5.2194 -19.749,-2.0159 -24.719,7.1785 l -11.4,21.213 -7.099,-13.5835 c -4.813,-9.2639 -15.841,-12.614 -24.631,-7.5168 -8.746,5.0878 -11.929,16.7133 -7.11,25.9553 l 17.769,34.069 -35.628,66.02 -35.64,-66.01 17.769,-34.069 c 4.82,-9.238 1.641,-20.8649 -7.111,-25.9547 -8.787,-5.0941 -19.809,-1.743 -24.618,7.5178 l -7.201,13.5939 -11.499,-21.2972 c -4.969,-9.1954 -16.02,-12.4031 -24.72,-7.1795 -8.688,5.2374 -11.73,16.8923 -6.781,26.0707 l 11.409,21.129 -25.909,-1.464 c -10.01,-0.591 -18.54,7.501 -19.079,18.041 -0.552,10.559 7.11,19.558 17.129,20.127 l 49.189,2.821 35.619,65.989 -71.298,-0.113 -20.75,-34.543 c -5.356,-8.891 -16.549,-11.55 -25.009,-5.883 -8.4502,5.639 -10.9501,17.44 -5.594,26.355 l 8.412,14.005 -42.2994,-0.06 c -10.0098,0 -18.1396,8.544 -18.1696,19.105 0,10.548 8.0878,19.147 18.0895,19.147 l 41.6595,0.06 -13.1501,22.298 c -5.2738,8.948 -2.6739,20.728 5.8171,26.345 8.494,5.559 19.679,2.825 24.959,-6.171 l 25.02,-42.394 72.428,0.108 -34.619,63.881 -37.399,2.264 c -9.991,0.638 -17.63,9.639 -17.05,20.169 0.581,10.534 9.134,18.631 19.12,17.989 l 13.879,-0.835 -21.159,39.054 c -4.944,9.187 -1.928,20.865 6.753,26.081 8.677,5.272 19.749,2.087 24.719,-7.109 l 21.98,-40.55 12.999,24.606 c 4.883,9.253 15.9,12.583 24.65,7.405 8.725,-5.119 11.89,-16.745 7.021,-25.986 l -23.66,-44.808 33.889,-62.532 0.05,0.1 0.05,-0.1 33.889,62.532 -23.64,44.808 c -4.874,9.234 -1.705,20.865 7.02,25.986 8.747,5.167 19.769,1.848 24.65,-7.405 l 12.999,-24.606 21.98,40.55 c 4.965,9.196 16.039,12.382 24.719,7.109 8.681,-5.219 11.7,-16.892 6.752,-26.081 l -21.159,-39.054 13.879,0.835 c 9.991,0.647 18.54,-7.454 19.12,-17.989 0.585,-10.533 -7.061,-19.526 -17.06,-20.169 l -37.409,-2.265 -34.609,-63.881 72.428,-0.108 25.019,42.394 c 5.275,8.996 16.461,11.728 24.961,6.171 8.49,-5.619 11.099,-17.398 5.82,-26.345 l -13.16,-22.298 41.66,-0.06 c 9.998,0 18.089,-8.595 18.089,-19.147 -0.04,-10.559 -8.162,-19.105 -18.17,-19.105 z" id="path4322" inkscape:connector-curvature="0" /></svg>