<svg xmlns="http://www.w3.org/2000/svg" xmlns:xlink="http://www.w3.org/1999/xlink" version="1.1" id="Layer_1" x="0px" y="0px" width="18px" height="18px" viewBox="0 0 18 18" enable-background="new 0 0 18 18" xml:space="preserve">
<path d="M18,9c0-0.338-0.022-0.671-0.059-1l-1.011,0C16.479,4.383,13.617,1.521,10,1.069V0.059C9.671,0.022,9.338,0,9,0  S8.329,0.022,8,0.059v1.011C4.383,1.521,1.521,4.383,1.069,8L0.059,8C0.022,8.329,0,8.662,0,9s0.022,0.671,0.059,1h1.011  C1.521,13.617,4.383,16.479,8,16.931v1.011C8.329,17.978,8.662,18,9,18s0.671-0.022,1-0.059v-1.011  c3.616-0.452,6.479-3.313,6.931-6.93h1.011C17.978,9.672,18,9.339,18,9z M10,14.91V14c0-0.553-0.448-1-1-1s-1,0.447-1,1v0.91  c-2.51-0.422-4.487-2.398-4.909-4.909L4,10c0.553,0,1-0.448,1-1c0-0.552-0.447-1-1-1H3.09C3.513,5.49,5.49,3.513,8,3.09V4  c0,0.552,0.448,1,1,1s1-0.448,1-1V3.09c2.511,0.422,4.488,2.399,4.91,4.91H14c-0.553,0-1,0.448-1,1c0,0.552,0.447,1,1,1l0.91,0.001  C14.487,12.512,12.511,14.488,10,14.91z"/>
</svg>